<?xml version="1.0" standalone="no"?>
<!DOCTYPE svg PUBLIC "-//W3C//DTD SVG 1.1//EN" "http://www.w3.org/Graphics/SVG/1.1/DTD/svg11.dtd" >
<svg xmlns="http://www.w3.org/2000/svg" xmlns:xlink="http://www.w3.org/1999/xlink" version="1.1">
<metadata>
Created by FontForge 20170731 at Wed Apr 19 00:39:46 2023
 By Aleksey,,,
Copyright (c) 2023 by Designova. All rights reserved.
</metadata>
<defs>
<font id="EthosNova-Bold" horiz-adv-x="1315" >
  <font-face 
    font-family="Ethos Nova"
    font-weight="700"
    font-stretch="normal"
    units-per-em="2048"
    panose-1="0 0 8 0 0 0 0 0 0 0"
    ascent="1638"
    descent="-410"
    x-height="1089"
    cap-height="1398"
    bbox="-985 -450 2341 1915.74"
    underline-thickness="50"
    underline-position="-150"
    unicode-range="U+0020-F8FF"
  />
<missing-glyph horiz-adv-x="1367" 
d="M1167 1398v-1393h-967v1393h967zM941 1243h-515l258 -394zM1007 1048l-226 -347l226 -348v695zM586 701l-224 344v-689zM941 163l-257 391l-256 -391h513z" />
    <glyph glyph-name=".notdef" horiz-adv-x="1367" 
d="M1167 1398v-1393h-967v1393h967zM941 1243h-515l258 -394zM1007 1048l-226 -347l226 -348v695zM586 701l-224 344v-689zM941 163l-257 391l-256 -391h513z" />
    <glyph glyph-name=".null" horiz-adv-x="0" 
 />
    <glyph glyph-name="nonmarkingreturn" horiz-adv-x="682" 
 />
    <glyph glyph-name="space" unicode=" " horiz-adv-x="496" 
 />
    <glyph glyph-name="exclam" unicode="!" horiz-adv-x="633" 
d="M400 724l-8 -412h-149l-8 412v674h165v-674zM400 21l-1 -1q-25 -27 -60 -32.5t-65 7.5t-51 42t-21 66q0 48 33.5 82t81.5 34q37 0 65.5 -20.5t40.5 -50t7 -65t-30 -62.5z" />
    <glyph glyph-name="quotedbl" unicode="&#x22;" horiz-adv-x="849" 
d="M407 1400l-8 -465h-154l-20 463zM624 1400l-7 -465h-154l-20 463z" />
    <glyph glyph-name="numbersign" unicode="#" horiz-adv-x="1590" 
d="M554 394l-126 -391h-177l127 391h-352l65 165h341l92 288h-366l65 165h355l125 386h177l-125 -386h289l125 386h177l-125 -386h341l-65 -165h-329l-94 -288h356l-66 -165h-344l-126 -391h-177l126 391h-289zM990 847h-289l-92 -288h289z" />
    <glyph glyph-name="dollar" unicode="$" horiz-adv-x="1331" 
d="M750 -10v-166h-165v171q-231 29 -350 173t-106 380h166q-23 -335 290 -385v475q-434 89 -434 381q0 155 121 264t313 129v142h165v-146q222 -29 342 -165.5t110 -347.5h-165q7 145 -66 232t-221 112v-463q226 -39 336 -134.5t110 -252.5q0 -170 -120.5 -277t-325.5 -122z
M585 807v437q-119 -16 -194.5 -78.5t-75.5 -146.5q0 -147 270 -212zM750 607v-450q134 13 207.5 74t73.5 158q0 84 -68 137t-213 81z" />
    <glyph glyph-name="percent" unicode="%" horiz-adv-x="1602" 
d="M485 776q-134 0 -229 94t-95 227q0 140 99 231q94 92 225 92q134 0 229 -95t95 -228q0 -132 -95 -226.5t-229 -94.5zM1453 1398l-1098 -1395h-206l1098 1395h206zM485 942q68 0 114.5 44.5t46.5 109.5q0 44 -17.5 78t-46 52t-62.5 26t-68.5 -0.5t-63 -26t-46 -52
t-17.5 -77.5q0 -39 15 -65q34 -49 66 -69t79 -20zM1063 -11q-134 0 -229 93.5t-95 226.5q0 77 28 139t73.5 100t104 59t119 21t119 -21t104 -59t73.5 -100t28 -139q0 -132 -95.5 -226t-229.5 -94zM1063 153q67 0 114 44.5t47 109.5q0 44 -17.5 78t-46 52t-62.5 26
t-68.5 -0.5t-63 -26t-46 -52t-17.5 -77.5q0 -38 14 -65q34 -49 66.5 -69t79.5 -20z" />
    <glyph glyph-name="ampersand" unicode="&#x26;" horiz-adv-x="1343" 
d="M502 -11q-173 0 -285 101.5t-112 258.5q0 60 24.5 122t66.5 109q52 58 182 122q-153 170 -153 352q0 160 111 260.5t288 100.5q165 0 268 -91.5t103 -239.5q0 -260 -332 -433l216 -209l144 212l139 -84q-120 -194 -154 -233l-9 -12l323 -318l-226 -6l-201 195
q-96 -107 -190.5 -157t-202.5 -50zM540 774l1 -2q134 60 211.5 143.5t77.5 168.5q0 75 -55 119.5t-151 44.5q-108 0 -171.5 -52.5t-63.5 -141.5q0 -132 151 -280zM500 155q78 0 144 36.5t135 117.5l-275 268q-51 -21 -86.5 -39.5t-72.5 -46t-56 -63.5t-19 -79q0 -84 65 -139
t165 -55z" />
    <glyph glyph-name="quotesingle" unicode="'" horiz-adv-x="632" 
d="M408 1398l-20 -463h-154l-9 463h183z" />
    <glyph glyph-name="parenleft" unicode="(" horiz-adv-x="805" 
d="M691 -113l-24 -72h-136q-136 117 -226 348t-90 461t87 454q94 238 231 357h138l23 -73q-80 -45 -153.5 -165.5t-117.5 -275.5t-44 -297q0 -143 43 -295.5t115 -272t154 -169.5z" />
    <glyph glyph-name="parenright" unicode=")" horiz-adv-x="805" 
d="M271 -185h-137l-23 72q123 71 218.5 296t95.5 443q0 143 -43 296t-115 272.5t-154 167.5l23 73h137q136 -116 226 -347.5t90 -461.5q0 -233 -91 -466t-227 -345z" />
    <glyph glyph-name="asterisk" unicode="*" horiz-adv-x="1025" 
d="M589 862l19 -265h-191l20 265l-227 -146l-95 166l242 115l-244 119l97 163l227 -147l-20 266h191l-19 -266l225 146l96 -166l-241 -115l243 -118l-98 -164z" />
    <glyph glyph-name="plus" unicode="+" horiz-adv-x="1296" 
d="M729 492v-355l-164 -9v362h-363v168h361v358h166v-358h355l10 -166h-365z" />
    <glyph glyph-name="comma" unicode="," horiz-adv-x="666" 
d="M454 264l-159 -463h-162l132 463h189z" />
    <glyph glyph-name="hyphen" unicode="-" horiz-adv-x="1077" 
d="M932 664v-164h-785v164h785z" />
    <glyph glyph-name="period" unicode="." horiz-adv-x="607" 
d="M390 24l-1 -1q-27 -27 -63 -33t-66.5 6.5t-51.5 41.5t-21 67q0 49 33.5 83t83.5 34q37 0 65.5 -20.5t41.5 -50t8.5 -65t-29.5 -62.5z" />
    <glyph glyph-name="slash" unicode="/" horiz-adv-x="842" 
d="M798 1398l-574 -1395h-181l575 1395h180z" />
    <glyph glyph-name="zero" unicode="0" horiz-adv-x="1354" 
d="M269 198q-96 130 -130 315t0 371t130 319q75 103 184.5 157.5t221.5 54.5t221.5 -54.5t185.5 -157.5q98 -135 133 -319.5t0 -368.5t-133 -315q-75 -103 -184.5 -158t-221.5 -55t-222 54t-185 157zM675 155q175 0 281 150q111 159 110.5 396.5t-112.5 395.5
q-108 151 -279 151q-172 0 -280.5 -153t-108.5 -396q0 -234 114 -394q106 -150 275 -150z" />
    <glyph glyph-name="one" unicode="1" horiz-adv-x="792" 
d="M593 1398v-1395h-166v1131l-197 -189l-117 114l314 300v39h166z" />
    <glyph glyph-name="two" unicode="2" horiz-adv-x="1276" 
d="M1121 167l-9 -164h-912v117l544 609l25 32l8 9q37 42 53 64l1 1q34 40 55 91t21 91v6q0 100 -74.5 162.5t-195.5 62.5q-123 0 -205.5 -75t-101.5 -204h-168q24 203 153.5 324.5t321.5 121.5q191 0 313 -111.5t122 -286.5q0 -95 -44.5 -181t-160.5 -214l-404 -455h658z
" />
    <glyph glyph-name="three" unicode="3" horiz-adv-x="1306" 
d="M663 -11q-214 0 -357.5 144t-142.5 360h165q-1 -147 94.5 -242.5t240.5 -95.5q146 0 236 80t90 209q0 124 -97 193t-273 69q-83 0 -142 -13l-66 104l445 436h-636v165h894v-140l-401 -391q202 -18 321.5 -132t119.5 -291q0 -199 -138.5 -327t-352.5 -128z" />
    <glyph glyph-name="four" unicode="4" horiz-adv-x="1393" 
d="M1023 311v-308h-164v308l-734 -2v127l740 962h158v-923h247v-164h-247zM859 475l-2 645l-501 -647z" />
    <glyph glyph-name="five" unicode="5" horiz-adv-x="1265" 
d="M651 -11q-215 0 -356.5 142t-143.5 362h167q-10 -135 90 -236.5t243 -101.5q134 0 229.5 94.5t95.5 227.5q0 131 -95.5 225t-229.5 94q-205 0 -329 -159h-138l60 761h854v-165h-699l-32 -344q136 76 284 76q99 0 189.5 -39t156.5 -104.5t105 -155.5t39 -189
q0 -136 -64 -248t-176.5 -176t-249.5 -64z" />
    <glyph glyph-name="six" unicode="6" horiz-adv-x="1276" 
d="M661 -11q-246 0 -392 190t-146 508q0 320 142 519q150 209 394 209q180 0 309.5 -116t160.5 -306h-172q-25 118 -106 186.5t-196 68.5q-145 0 -239 -116.5t-120 -325.5q70 75 165 117t200 42q99 0 190 -39t157 -104.5t105 -155.5t39 -189q0 -208 -140.5 -348t-350.5 -140
zM661 155q140 0 233 92t93 230q0 75 -28 137t-73.5 100t-104 59t-119 22t-119 -19.5t-104 -58t-73.5 -100t-28 -140.5t25 -134q55 -97 126 -142.5t172 -45.5z" />
    <glyph glyph-name="seven" unicode="7" horiz-adv-x="1099" 
d="M998 1282l-610 -1279h-185l588 1230h-694v165h896z" />
    <glyph glyph-name="eight" unicode="8" horiz-adv-x="1294" 
d="M647 -10q-229 0 -376.5 115t-147.5 294q0 110 51.5 199t148.5 144q-82 55 -126.5 133t-44.5 166q0 89 42.5 161.5t112 117.5t158.5 69t181.5 24t181.5 -24t158.5 -68.5t112 -117t42.5 -162.5q0 -89 -44.5 -167t-125.5 -132q96 -56 148 -144.5t52 -198.5q0 -184 -155 -299
q-148 -110 -369 -110zM647 817q140 0 234.5 64.5t94.5 159.5q0 65 -49 113.5t-122 70t-158.5 21t-158.5 -22t-122 -69.5t-49 -113q0 -92 87 -153q101 -71 243 -71zM647 157q159 0 258.5 68.5t99.5 177.5q0 114 -97 182t-261 68q-165 0 -262.5 -68t-97.5 -182q0 -109 96 -174
q108 -72 264 -72z" />
    <glyph glyph-name="nine" unicode="9" horiz-adv-x="1276" 
d="M615 -12q-179 0 -308.5 116t-160.5 306h172q25 -118 106 -186.5t195 -68.5q145 0 239.5 116.5t120.5 325.5q-70 -75 -165 -117t-200 -42q-202 0 -346.5 143.5t-144.5 344.5q0 208 141 348t350 140q246 0 392 -190t146 -508t-142 -519q-148 -209 -395 -209zM287 926
q0 -75 28 -137t73.5 -100t104 -59t120 -22t120 19.5t104 58t73.5 100t28 140.5q0 74 -27 134q-54 97 -125 142.5t-172 45.5q-141 0 -234 -92t-93 -230z" />
    <glyph glyph-name="colon" unicode=":" horiz-adv-x="606" 
d="M387 836h-1q-26 -25 -57.5 -31.5t-58 3t-47.5 31t-30.5 48.5t-3 58.5t32.5 57.5l1 1q25 24 56 30t57 -4t47.5 -31.5t31 -48.5t3.5 -57.5t-31 -56.5zM387 21l-1 -1q-26 -25 -57.5 -31.5t-58 3.5t-47.5 31t-30.5 48t-3 58.5t32.5 57.5l1 1q25 25 56 30.5t57 -4.5
t47.5 -31.5t31 -48t3.5 -57.5t-31 -56z" />
    <glyph glyph-name="semicolon" unicode=";" horiz-adv-x="627" 
d="M371 836h-1q-27 -25 -62 -30.5t-64.5 7t-50 41t-20.5 65.5q0 48 33.5 81.5t80.5 33.5q37 0 66 -20.5t41.5 -50t7.5 -65t-31 -62.5zM441 228l-149 -372h-159l115 372h193z" />
    <glyph glyph-name="less" unicode="&#x3c;" horiz-adv-x="1426" 
d="M447 576l757 -427v-192l-982 558v125l982 554v-190z" />
    <glyph glyph-name="equal" unicode="=" horiz-adv-x="1364" 
d="M1090 823l10 -165l-837 -1v166h827zM1090 487l10 -166l-837 -2v168h827z" />
    <glyph glyph-name="greater" unicode="&#x3e;" horiz-adv-x="1426" 
d="M1204 641v-124l-982 -558v192l757 427l-757 428v190z" />
    <glyph glyph-name="question" unicode="?" horiz-adv-x="1075" 
d="M587 427v-147h-166v155q0 88 43.5 163.5t124.5 128.5l115 74q110 78 110 194q0 110 -77 181.5t-195 71.5q-142 0 -224 -95t-78 -258h-165q-7 231 123 375.5t344 144.5q188 0 313 -121.5t125 -304.5q0 -94 -38 -164q-9 -20 -19.5 -37.5t-25.5 -34t-24.5 -27t-29.5 -25.5
t-26.5 -20t-31 -21t-27.5 -18q-9 -6 -33.5 -23.5t-32 -23t-26 -19.5t-24.5 -20.5t-18.5 -20t-16.5 -23.5t-10 -24t-8 -29t-2 -32zM587 17q-27 -25 -58.5 -31.5t-58.5 3.5t-48.5 31.5t-31.5 48.5t-3.5 58.5t32.5 57.5l1 1q32 31 70.5 34.5t67.5 -16t48.5 -49.5t15.5 -68.5
t-35 -69.5z" />
    <glyph glyph-name="at" unicode="@" horiz-adv-x="1707" 
d="M891 -148q-170 0 -319.5 60t-256 163.5t-168.5 249.5t-62 312q0 325 223 548q227 218 563 218q195 0 352.5 -65t245.5 -182q153 -206 153 -461q0 -213 -84 -334t-232 -121q-122 0 -173 90q-58 -56 -134.5 -87t-158.5 -31q-100 0 -181.5 36.5t-131.5 96t-77 135.5
t-27 155.5t27 155.5t77 135.5t131 96t182 36.5q149 0 261 -92v80h166v-594q0 -25 9.5 -36t32.5 -11q63 0 100 63q49 76 49 222q0 253 -158 399.5t-429 146.5q-268 0 -443.5 -170t-175.5 -430q0 -177 82 -318.5t228 -221t329 -79.5q175 0 277 50l50 -160q-184 -56 -327 -56z
M834 377h6q105 2 179.5 76.5t75.5 181.5v6q0 104 -75 178t-180 74q-107 0 -180.5 -74.5t-73.5 -183.5q0 -108 72 -183t176 -75z" />
    <glyph glyph-name="A" unicode="A" horiz-adv-x="1475" 
d="M416 412l-190 -409h-181l641 1395h102l641 -1395h-181l-190 409h-642zM983 577l-246 535l-246 -535h492z" />
    <glyph glyph-name="B" unicode="B" horiz-adv-x="1371" 
d="M784 3h-585v1395h585q191 0 307 -107t116 -284q0 -194 -132 -298q168 -95 168 -320q0 -188 -117.5 -287t-341.5 -99zM784 1233h-419v-452h400q134 0 205.5 58.5t71.5 168.5q0 107 -67.5 166t-190.5 59zM765 617h-400v-450h419q156 0 225.5 53t69.5 171q0 116 -76 171
t-238 55z" />
    <glyph glyph-name="C" unicode="C" horiz-adv-x="1587" 
d="M821 -10q-294 0 -498 209q-131 135 -178 318.5t0.5 367.5t179.5 319q204 209 496 209q217 0 395 -125t254 -332l-161 -39q-63 152 -194.5 240.5t-293.5 88.5q-148 0 -270 -71.5t-192 -197t-70 -276.5t70 -276t192 -196.5t270 -71.5q163 0 294 88.5t194 241.5l161 -41
q-76 -207 -253.5 -331.5t-395.5 -124.5z" />
    <glyph glyph-name="D" unicode="D" horiz-adv-x="1482" 
d="M644 3h-445v1395h445q151 0 283.5 -53.5t227.5 -146t149.5 -222t54.5 -275.5q0 -197 -93 -357t-257 -250.5t-365 -90.5zM644 1233h-279v-1066h279q237 0 391.5 151.5t154.5 382.5q0 230 -154.5 381t-391.5 151z" />
    <glyph glyph-name="E" unicode="E" 
d="M1188 167v-164h-989v1395h989v-165h-823v-450h691v-164h-691v-452h823z" />
    <glyph glyph-name="F" unicode="F" horiz-adv-x="1325" 
d="M365 619v-616h-166v1395h989v-165h-823v-450h691v-164h-691z" />
    <glyph glyph-name="G" unicode="G" horiz-adv-x="1618" 
d="M821 -10q-294 0 -498 209q-131 135 -178 318.5t0.5 367.5t179.5 319q204 209 496 209q217 0 395 -125t254 -332l-161 -39q-63 152 -194.5 240.5t-293.5 88.5q-148 0 -270.5 -71.5t-192 -196.5t-69.5 -277q0 -151 70 -276t192 -196.5t270 -71.5q193 0 325 120t161 321
h-548v165h722v-64q0 -202 -85 -364t-236 -253.5t-339 -91.5z" />
    <glyph glyph-name="H" unicode="H" horiz-adv-x="1487" 
d="M365 617v-614h-166v1395h166v-617h757v617h166v-1395h-166v614h-757z" />
    <glyph glyph-name="I" unicode="I" horiz-adv-x="563" 
d="M365 1398v-1395h-166v1395h166z" />
    <glyph glyph-name="J" unicode="J" horiz-adv-x="1291" 
d="M589 -10q-148 0 -270.5 77t-185 207t-44.5 278h166q-18 -103 22.5 -195t124.5 -147t187 -55q167 0 252.5 119.5t85.5 353.5v770h166v-770q0 -301 -133 -469.5t-371 -168.5z" />
    <glyph glyph-name="K" unicode="K" horiz-adv-x="1383" 
d="M365 395v-392h-166v1395h166v-763l745 765h108l63 -63l-585 -601l638 -733h-223l-531 614z" />
    <glyph glyph-name="L" unicode="L" horiz-adv-x="1290" 
d="M1188 167v-164h-989v1395h166v-1231h823z" />
    <glyph glyph-name="M" unicode="M" horiz-adv-x="1683" 
d="M365 948v-945h-166v1395h146l498 -1130l497 1130h145v-1395h-166v945l-416 -945h-126z" />
    <glyph glyph-name="N" unicode="N" horiz-adv-x="1451" 
d="M365 1069v-1066h-166v1395h137l751 -1071v1071h166v-1395h-139z" />
    <glyph glyph-name="O" unicode="O" horiz-adv-x="1641" 
d="M821 -10q-294 0 -498 209q-131 135 -178 318.5t0.5 367.5t179.5 319q204 209 496 209q142 0 271 -56t222.5 -151t148.5 -227t55 -278q0 -196 -92.5 -359.5t-252.5 -257.5t-352 -94zM821 157q111 0 209 42t168 114t111 173t41 215q0 150 -70 275.5t-191.5 197.5t-267.5 72
q-148 0 -270 -71.5t-192 -197t-70 -276.5t70 -276t192 -196.5t270 -71.5z" />
    <glyph glyph-name="P" unicode="P" horiz-adv-x="1328" 
d="M365 543v-540h-166v1395h589q190 0 306 -118t116 -310q0 -190 -117 -308.5t-305 -118.5h-423zM788 1233h-423v-525h423q119 0 188 70.5t69 192.5t-69 192t-188 70z" />
    <glyph glyph-name="Q" unicode="Q" horiz-adv-x="1720" 
d="M821 -10q-294 0 -498 209q-131 135 -178 318.5t0.5 367.5t179.5 319q204 209 496 209q142 0 271 -56t222.5 -151t148.5 -227t55 -278q0 -128 -42.5 -247t-121.5 -215l243 -236h-235l-127 122q-185 -135 -414 -135zM821 157q164 0 293 87l-267 259h234l153 -149
q116 147 116 347q0 150 -70 275.5t-191.5 197.5t-267.5 72q-148 0 -270 -71.5t-192 -197t-70 -276.5t70 -276t192 -196.5t270 -71.5z" />
    <glyph glyph-name="R" unicode="R" horiz-adv-x="1334" 
d="M365 543v-540h-166v1395h589q190 0 306 -118t116 -310q0 -158 -82 -268.5t-223 -144.5l361 -554h-197l-356 540h-348zM788 1233h-423v-525h423q119 0 188 70.5t69 192.5t-69 192t-188 70z" />
    <glyph glyph-name="S" unicode="S" horiz-adv-x="1326" 
d="M663 -15q-288 0 -444 167q-54 58 -76.5 133.5t-10.5 159.5h168q-27 -123 76.5 -210.5t286.5 -87.5q159 0 265.5 67.5t108.5 167.5q-2 91 -85.5 148.5t-278.5 97.5q-215 46 -321 88q-223 91 -223 299q0 136 91 233q156 167 443 167q286 0 444 -167q111 -124 87 -293h-168
q21 124 -79.5 210t-283.5 86q-160 0 -267 -68t-107 -168q0 -66 58 -110q29 -19 87 -42q76 -30 233 -64q5 -1 8.5 -2t8.5 -2t9 -2q268 -58 386 -153t119 -257q0 -136 -92 -231q-155 -167 -443 -167z" />
    <glyph glyph-name="T" unicode="T" horiz-adv-x="1326" 
d="M753 1233v-1230h-165v1230h-487v165h1126v-165h-474z" />
    <glyph glyph-name="U" unicode="U" horiz-adv-x="1545" 
d="M773 -11q-119 0 -208 34q-104 36 -179 99q-89 71 -138 191.5t-49 268.5v816h166v-816q0 -106 34 -192t96 -135q126 -100 278 -100q158 0 279 100q61 49 95 134.5t34 192.5v816h165v-816q0 -153 -48 -268q-93 -217 -319 -292q-97 -33 -206 -33z" />
    <glyph glyph-name="V" unicode="V" horiz-adv-x="1475" 
d="M1429 1398l-641 -1395h-102l-641 1395h181l511 -1108l511 1108h181z" />
    <glyph glyph-name="W" unicode="W" horiz-adv-x="1691" 
d="M845 1054l-317 -1051h-139l-352 1395h172l258 -1021l310 1021h136l310 -1021l258 1021h173l-353 -1395h-138z" />
    <glyph glyph-name="X" unicode="X" horiz-adv-x="1404" 
d="M704 568l-448 -565h-207l551 698l-551 697h207l448 -565l444 565h206l-549 -697l550 -696h-207z" />
    <glyph glyph-name="Y" unicode="Y" horiz-adv-x="1378" 
d="M774 500v-497h-165v499l-561 896h196l446 -719l445 719h195z" />
    <glyph glyph-name="Z" unicode="Z" horiz-adv-x="1299" 
d="M1159 167v-164h-1029v124l812 1106h-810v165h1043v-123l-813 -1108h797z" />
    <glyph glyph-name="bracketleft" unicode="[" horiz-adv-x="975" 
d="M845 -67v-167h-615v1725h615v-165h-450v-1393h450z" />
    <glyph glyph-name="backslash" unicode="\" horiz-adv-x="841" 
d="M224 1398l574 -1395h-180l-575 1395h181z" />
    <glyph glyph-name="bracketright" unicode="]" horiz-adv-x="975" 
d="M745 1491v-1725h-615v167h449v1393h-449v165h615z" />
    <glyph glyph-name="asciicircum" unicode="^" horiz-adv-x="1101" 
d="M535 1173l-269 -478h-191l401 703h117l400 -703h-190z" />
    <glyph glyph-name="underscore" unicode="_" horiz-adv-x="946" 
d="M966 124v-165h-987v165h987z" />
    <glyph glyph-name="a" unicode="a" horiz-adv-x="1250" 
d="M543 -5q-193 0 -313 90.5t-121 238.5q-1 149 109.5 229.5t317.5 82.5l380 2v88q0 98 -85.5 155.5t-231.5 57.5q-147 0 -223 -57t-67 -160h-165q-10 173 116 278t339 105q202 0 335.5 -95.5t144.5 -249.5l2 -757h-165v125q-62 -62 -162 -97.5t-211 -35.5zM543 163
q157 0 254.5 81t115.5 226l-377 -2q-131 -1 -199 -37.5t-63 -103.5q3 -74 77 -119t192 -45z" />
    <glyph glyph-name="b" unicode="b" horiz-adv-x="1385" 
d="M724 -13q-109 0 -210.5 41.5t-179.5 116.5v-142h-165v1395h165v-453q78 75 179.5 116.5t210.5 41.5q152 0 279.5 -74t201.5 -202.5t74 -282.5q0 -152 -74 -280.5t-201.5 -202.5t-279.5 -74zM724 151q163 0 275.5 114t112.5 279t-112.5 280t-275.5 115t-276.5 -115
t-113.5 -280q0 -163 115 -279q110 -114 275 -114z" />
    <glyph glyph-name="c" unicode="c" horiz-adv-x="1303" 
d="M660 -11q-152 0 -279.5 74t-201.5 202.5t-74 282.5q0 230 161 396q164 161 394 161q193 0 343.5 -117t198.5 -306h-176q-42 116 -142 186.5t-224 70.5q-164 0 -276 -113t-112 -278q0 -166 112 -279.5t276 -113.5q124 0 224 70t142 186h176q-48 -188 -199 -305t-343 -117z
" />
    <glyph glyph-name="d" unicode="d" horiz-adv-x="1384" 
d="M660 -13q-152 0 -279.5 74t-201.5 202.5t-74 280.5q0 233 160 396q161 163 395 163q110 0 211 -41.5t179 -116.5v453h165v-1395h-165v142q-78 -75 -179 -116.5t-211 -41.5zM660 151q162 0 276 115t114 278q0 165 -113.5 280t-276.5 115t-275.5 -115t-112.5 -280t114 -279
q108 -114 274 -114z" />
    <glyph glyph-name="e" unicode="e" horiz-adv-x="1306" 
d="M660 -11q-152 0 -279.5 74t-201.5 202.5t-74 282.5q0 230 161 396q164 161 394 161q142 0 263 -67t196.5 -185.5t86.5 -262.5q2 -22 2 -118h-928q25 -138 131.5 -227.5t248.5 -89.5q116 0 213 62.5t142 166.5h178q-55 -178 -202 -286.5t-331 -108.5zM282 638h748
q-29 133 -132 217t-238 84q-138 0 -243.5 -84.5t-134.5 -216.5z" />
    <glyph glyph-name="f" unicode="f" horiz-adv-x="917" 
d="M517 923v-920h-165v920h-257v166h257v-28q0 173 85.5 264t247.5 91q106 0 212 -31v-169q-131 35 -206 35q-86 0 -127 -38t-46 -124h369v-166h-370z" />
    <glyph glyph-name="g" unicode="g" horiz-adv-x="1383" 
d="M684 -410q-220 0 -370.5 126.5t-161.5 323.5h163q13 -123 118.5 -204.5t250.5 -81.5q126 0 238 84q57 45 90.5 134t37.5 206q-77 -74 -178 -113.5t-212 -39.5q-155 0 -282.5 70.5t-200 194.5t-72.5 276q0 150 73 273.5t200.5 194.5t281.5 71q111 0 211.5 -39.5
t178.5 -112.5v136h165v-880q0 -132 -32 -246t-90 -187q-51 -63 -130 -113h-1q-130 -73 -278 -73zM660 189q165 0 277.5 109t112.5 268q0 158 -112.5 266.5t-277.5 108.5t-276.5 -107.5t-111.5 -267.5q0 -165 110 -271q115 -106 278 -106z" />
    <glyph glyph-name="h" unicode="h" horiz-adv-x="1320" 
d="M334 552v-549h-165v1395h165v-424q67 63 155 97t184 34q207 0 342.5 -134.5t135.5 -339.5v-628h-166v603q0 151 -85.5 243t-226.5 92q-150 0 -244.5 -108.5t-94.5 -280.5z" />
    <glyph glyph-name="i" unicode="i" horiz-adv-x="517" 
d="M343 1217l-1 -1q-27 -26 -63 -31t-66 7.5t-51 42t-21 66.5q0 51 33.5 84t83.5 33q38 0 67 -21t42 -51.5t7.5 -66t-31.5 -62.5zM340 1089v-1086h-166v1086h166z" />
    <glyph glyph-name="j" unicode="j" horiz-adv-x="631" 
d="M452 1215q-27 -25 -62 -29.5t-64.5 8t-50 41.5t-20.5 66q0 49 33.5 83t83.5 34q38 0 67 -22.5t41.5 -53.5t6 -66.5t-34.5 -60.5zM151 -383l-192 2v165l186 -2q84 -2 114.5 37.5t30.5 152.5v1117h165v-1119q0 -178 -75.5 -265.5t-228.5 -87.5z" />
    <glyph glyph-name="k" unicode="k" horiz-adv-x="1209" 
d="M334 231v-228h-165v1395h165v-928l605 621h230l-503 -519l493 -567h-221l-389 448z" />
    <glyph glyph-name="l" unicode="l" horiz-adv-x="503" 
d="M334 1398v-1395h-165v1395h165z" />
    <glyph glyph-name="m" unicode="m" horiz-adv-x="1916" 
d="M334 604v-601h-165v1086h165v-92q121 108 287 108q111 0 200 -49.5t144 -141.5q59 90 154.5 140.5t208.5 50.5q190 0 304.5 -129.5t114.5 -344.5v-628h-165v603q0 160 -66 247.5t-188 87.5q-124 0 -205.5 -95.5t-81.5 -241.5v-601h-166v603q0 157 -67.5 246t-186.5 89
q-124 0 -205.5 -96t-81.5 -241z" />
    <glyph glyph-name="n" unicode="n" horiz-adv-x="1320" 
d="M334 552v-549h-165v1086h165v-115q67 63 155 97t184 34q207 0 342.5 -134.5t135.5 -339.5v-628h-166v603q0 151 -85.5 243t-226.5 92q-150 0 -244.5 -108.5t-94.5 -280.5z" />
    <glyph glyph-name="o" unicode="o" 
d="M660 -11q-152 0 -279.5 74t-201.5 202.5t-74 282.5q0 230 161 396q164 161 394 161q151 0 279.5 -74.5t203 -203t74.5 -279.5q0 -152 -74.5 -281t-202.5 -203.5t-280 -74.5zM660 155q165 0 277.5 113.5t112.5 279.5q0 162 -114 276.5t-276 114.5q-164 0 -276 -113
t-112 -278q0 -166 112 -279.5t276 -113.5z" />
    <glyph glyph-name="p" unicode="p" horiz-adv-x="1385" 
d="M334 147v-527h-165v1469h165v-143q79 77 180 118t210 41q152 0 279.5 -74t201.5 -202.5t74 -280.5q0 -154 -74 -282.5t-201.5 -202.5t-279.5 -74q-109 0 -210 41t-180 117zM724 153q163 0 275.5 114.5t112.5 280.5q0 165 -112.5 279t-275.5 114q-162 0 -276 -115
t-114 -278q0 -165 115 -281q110 -114 275 -114z" />
    <glyph glyph-name="q" unicode="q" horiz-adv-x="1384" 
d="M1215 1089v-1469h-165v527q-79 -76 -179.5 -117t-210.5 -41q-152 0 -279.5 74t-201.5 202.5t-74 282.5q0 230 161 396q164 161 394 161q226 0 390 -159v143h165zM660 153q163 0 276.5 115t113.5 280q0 163 -114 278t-276 115q-163 0 -275.5 -114t-112.5 -279
q0 -166 112.5 -280.5t275.5 -114.5z" />
    <glyph glyph-name="r" unicode="r" horiz-adv-x="825" 
d="M334 538v-535h-165v1086h165v-125q65 62 148 95.5t171 33.5h134v-166h-114q-150 0 -244.5 -108.5t-94.5 -280.5z" />
    <glyph glyph-name="s" unicode="s" horiz-adv-x="1081" 
d="M543 -15v-1q-206 0 -327.5 111.5t-102.5 278.5l156 -1q-17 -92 63 -159t211 -67q113 0 187.5 45.5t76.5 113.5q-2 60 -62 99t-198 68q-171 35 -249 67q-180 79 -180 246q0 140 120.5 231.5t304.5 91.5q135 0 238 -51t153.5 -140.5t37.5 -198.5l-156 1q18 91 -62.5 158
t-210.5 67q-114 0 -188.5 -45t-74.5 -114q0 -42 33 -65q16 -12 66 -31q58 -24 189 -53q211 -44 305 -121.5t94 -208.5q0 -141 -120 -231.5t-304 -90.5z" />
    <glyph glyph-name="t" unicode="t" horiz-adv-x="908" 
d="M809 153v-164l-191 -2q-152 -2 -228 86t-76 267v583h-239v166h239v309h165v-309h353v-166h-353v-581q0 -113 30.5 -153t113.5 -38z" />
    <glyph glyph-name="u" unicode="u" horiz-adv-x="1320" 
d="M647 -13q-208 0 -343 133.5t-135 339.5v629h165v-603q0 -151 86 -243t227 -92q149 0 243.5 108.5t94.5 280.5v549h166v-1086h-166v115q-68 -63 -155.5 -97t-182.5 -34z" />
    <glyph glyph-name="v" unicode="v" horiz-adv-x="1254" 
d="M1178 1091l-499 -1088h-103l-499 1088h182l369 -801l369 801h181z" />
    <glyph glyph-name="w" unicode="w" horiz-adv-x="1427" 
d="M713 749l-227 -750h-133l-276 1094h171l180 -723l222 723h128l221 -723l179 723h171l-275 -1094h-133z" />
    <glyph glyph-name="x" unicode="x" horiz-adv-x="1257" 
d="M630 413l-325 -410h-206l427 543l-427 543h206l325 -411l323 411h206l-428 -543l428 -543h-206z" />
    <glyph glyph-name="y" unicode="y" horiz-adv-x="1254" 
d="M1178 1091l-675 -1471h-183l218 471l-461 1000h182l369 -801l369 801h181z" />
    <glyph glyph-name="z" unicode="z" horiz-adv-x="1095" 
d="M975 167v-164h-844v125l620 795h-619v166h858v-124l-621 -798h606z" />
    <glyph glyph-name="braceleft" unicode="{" horiz-adv-x="882" 
d="M752 -67v-165h-124q-155 0 -223.5 100t-68.5 323v41q0 226 -10 250q-17 38 -30 45t-69 7h-80v199h74q79 0 92 22q23 39 23 210v112q0 223 68.5 323t223.5 100h124v-164h-124q-54 0 -80.5 -21t-37.5 -75t-11 -163q0 -271 -14 -324q-14 -74 -57 -117q13 -15 22 -32
q30 -56 39.5 -110.5t9.5 -133.5v-169q0 -109 11 -162.5t37.5 -74.5t80.5 -21h124z" />
    <glyph glyph-name="bar" unicode="|" horiz-adv-x="649" 
d="M407 1398v-1778h-165v1778h165z" />
    <glyph glyph-name="braceright" unicode="}" horiz-adv-x="881" 
d="M254 -232h-124v165h124q54 0 80.5 21t37.5 74.5t11 162.5v55q0 242 26 311q15 44 47 78q-35 35 -54 93q-19 67 -19 318v31q0 109 -11 163t-37.5 75t-80.5 21h-124v164h124q155 0 224 -100t69 -323v-38q0 -241 10 -262q16 -29 30.5 -36.5t53.5 -7.5h94v-199h-95
q-61 -3 -74 -29q-19 -37 -19 -241v-73q0 -223 -69 -323t-224 -100z" />
    <glyph glyph-name="asciitilde" unicode="~" horiz-adv-x="1123" 
d="M332 380h-162q-13 143 58.5 240t189.5 97q100 0 192 -97q23 -24 34.5 -34t28 -17.5t36.5 -7.5q98 0 80 189h163q16 -151 -54 -252.5t-189 -101.5q-43 0 -83.5 18t-61 35t-46.5 44q-25 25 -35.5 34.5t-27.5 17.5t-37 8q-48 0 -69 -41.5t-17 -131.5z" />
    <glyph glyph-name="exclamdown" unicode="&#xa1;" horiz-adv-x="633" 
d="M317 872q-48 0 -81.5 34t-33.5 82q0 37 21 66t51 42t65 7.5t60 -32.5l1 -1q25 -27 30 -62.5t-7 -65t-40.5 -50t-65.5 -20.5zM400 367v-674h-165v674l8 412h149z" />
    <glyph glyph-name="cent" unicode="&#xa2;" horiz-adv-x="1295" 
d="M746 149v-144h-166v143q-203 29 -339 187t-136 368q0 225 154 384q130 140 319 168v152h170v-154q164 -26 286.5 -140t158.5 -278h-173q-42 118 -140 188t-220 70q-164 0 -276 -112.5t-112 -277.5q0 -166 112 -279.5t276 -113.5q121 0 219 70t141 188h174
q-40 -167 -162 -280.5t-286 -138.5z" />
    <glyph glyph-name="sterling" unicode="&#xa3;" horiz-adv-x="1222" 
d="M1031 169v-166h-894v126q127 164 149 254q22 85 22 151q0 6 -0.5 18.5t-0.5 20.5l-172 2v166h133q-2 4 -4 10l-1 3q-1 4 -2 5v3q-51 151 -51 253q0 180 117.5 290t307.5 110q193 0 309 -114.5t118 -309.5h-163q-3 119 -74 188t-190 69q-116 0 -183.5 -62.5t-69.5 -170.5
q0 -75 42 -208l22 -68l439 -2v-166l-405 2v-33q0 -182 -110 -371h661z" />
    <glyph glyph-name="currency" unicode="&#xa4;" horiz-adv-x="1075" 
d="M372 503l-162 -160l-117 117l160 159q-44 77 -44 163q0 87 43 163l-159 159l117 117l159 -157q74 43 163 43h54q55 -3 117 -45l159 160l116 -119l-161 -160q41 -70 41 -157v-50q-3 -54 -45 -115l163 -161l-116 -115l-162 161q-63 -42 -116 -42l-51 -2q-89 0 -159 41z
M526 624q31 4 65 19t61.5 40.5t42 57t3.5 72t-51 80.5q-48 48 -72 51h-43q-63 0 -112 -46q-49 -55 -49 -116q0 -63 48 -110q52 -48 107 -48z" />
    <glyph glyph-name="yen" unicode="&#xa5;" horiz-adv-x="1327" 
d="M749 230v-227h-165v227h-349l-10 165h359v59h-349l-10 165h285l-487 779h196l447 -719l445 719h194l-482 -778h294v-166h-368v-57h368v-167h-368z" />
    <glyph glyph-name="brokenbar" unicode="&#xa6;" horiz-adv-x="486" 
d="M326 1398v-781h-166v781h166zM326 404v-782h-166v782h166z" />
    <glyph glyph-name="section" unicode="&#xa7;" horiz-adv-x="1043" 
d="M523 -219q-204 0 -316 110.5t-97 297.5h164q-11 -113 52.5 -176t195.5 -67h16q98 0 159.5 36.5t61.5 93.5q0 48 -55 76.5t-206 56.5q-383 78 -383 313q0 157 136 235q-136 72 -136 210q0 130 113 213.5t289 83.5q194 0 314.5 -118.5t100.5 -292.5h-164q10 115 -54 177
t-196 67h-17q-98 0 -159 -36.5t-61 -93.5q0 -97 256 -133q190 -26 288.5 -105t98.5 -207q0 -149 -133 -231q133 -70 133 -215q0 -138 -107 -216.5t-294 -78.5zM529 380q95 0 162.5 42t67.5 100q0 63 -67 101.5t-179 38.5q-97 0 -164.5 -41.5t-67.5 -98.5t73.5 -99.5
t174.5 -42.5z" />
    <glyph glyph-name="copyright" unicode="&#xa9;" horiz-adv-x="1371" 
d="M684 326q-144 0 -266.5 71t-194 193t-71.5 266q0 222 156 378q157 152 376 152q144 0 267 -71.5t194.5 -193.5t71.5 -265q0 -144 -71 -266t-194 -193t-268 -71zM684 434q179 0 300 120t121 298q0 180 -122 303t-301 123q-177 0 -299 -122.5t-122 -299.5t124 -300
q118 -122 299 -122zM690 549q-128 0 -217 89.5t-89 217.5q0 121 89 216q94 88 217 88q107 0 189.5 -69t103.5 -175h-111q-18 63 -67.5 100.5t-114.5 37.5q-83 0 -140 -57.5t-57 -140.5q0 -86 56 -144t141 -58q65 0 114.5 37.5t67.5 101.5h111q-23 -109 -104 -176.5
t-189 -67.5z" />
    <glyph glyph-name="ordfeminine" unicode="&#xaa;" horiz-adv-x="518" 
d="M235 901q-92 0 -150 47.5t-59 124.5t53 119t153 43l119 1q-2 20 -27 32.5t-66 12.5q-43 0 -64.5 -12t-17.5 -33h-137q-1 85 60 137t159 52q95 0 158.5 -49t68.5 -127l1 -344h-135v20q-56 -24 -116 -24zM235 1046q73 0 100 47l-103 -1q-21 0 -38.5 -3t-25 -6.5t-7.5 -6.5
q1 -12 22 -21t52 -9z" />
    <glyph glyph-name="guillemotleft" unicode="&#xab;" horiz-adv-x="1161" 
d="M284 513l448 -368v-207l-632 519v114l632 517v-208zM612 513l449 -368v-207l-633 519v114l633 517v-208z" />
    <glyph glyph-name="registered" unicode="&#xae;" horiz-adv-x="1053" 
d="M525 670q-190 0 -313.5 123t-123.5 311q0 184 121 311q124 125 316 125q188 0 313 -124.5t125 -311.5q0 -186 -125 -310t-313 -124zM525 778q143 0 234.5 91.5t91.5 234.5t-92 236t-234 93q-141 0 -233 -93.5t-92 -235.5q0 -139 90 -233q87 -93 235 -93zM444 1058v-164
h-72v445h190q63 0 101.5 -39t38.5 -102q0 -47 -23 -82t-64 -50l113 -172h-87l-108 164h-89zM562 1269h-118v-139h118q32 0 49.5 18t17.5 51q0 32 -18 51t-49 19z" />
    <glyph glyph-name="degree" unicode="&#xb0;" horiz-adv-x="867" 
d="M434 820q-124 0 -211.5 86.5t-87.5 209.5q0 121 87 211l1 1q90 85 211 85q122 0 210 -87.5t88 -209.5t-88 -209t-210 -87zM434 985q56 0 95.5 37.5t39.5 91.5q0 56 -39 95t-96 39t-94 -38t-39 -96v-6q0 -24 8 -43q27 -43 55.5 -61.5t69.5 -18.5z" />
    <glyph glyph-name="plusminus" unicode="&#xb1;" horiz-adv-x="1308" 
d="M736 563v-358h-165v360h-357v165h359v354h163v-354h362v-167h-362zM210 167h882v-167l-882 1v166z" />
    <glyph glyph-name="uni00B2" unicode="&#xb2;" horiz-adv-x="804" 
d="M704 823l-12 -215h-565v151l278 313q61 67 61 92q0 42 -62 42q-111 0 -78 -162h-216q-16 107 22 198q29 82 103.5 132t168.5 50q116 0 195.5 -74.5t79.5 -185.5q0 -107 -120 -236l-91 -105h236z" />
    <glyph glyph-name="uni00B3" unicode="&#xb3;" horiz-adv-x="799" 
d="M397 595q-136 0 -225 95t-81 230l211 -2q-4 -47 22 -75.5t73 -28.5q44 0 67.5 18.5t23.5 51.5q0 56 -116 56q-28 0 -68 -5l-113 127l134 133h-208v215h561v-164l-128 -126q71 -35 110 -96.5t39 -139.5q0 -125 -85.5 -207t-216.5 -82z" />
    <glyph glyph-name="paragraph" unicode="&#xb6;" horiz-adv-x="1301" 
d="M817 1398v-1395h-164v718q-273 8 -406 93t-133 254q0 160 154.5 245t442.5 85h106zM1103 1398v-1395h-164v1395h164z" />
    <glyph glyph-name="periodcentered" unicode="&#xb7;" horiz-adv-x="604" 
d="M386 613l-1 -1q-27 -25 -62.5 -30t-65 7t-50 40.5t-20.5 65.5q0 48 33.5 81.5t81.5 33.5q37 0 65.5 -21t41 -50.5t7.5 -64.5t-30 -61z" />
    <glyph glyph-name="uni00B9" unicode="&#xb9;" horiz-adv-x="620" 
d="M490 1410v-810h-212v515l-57 -54l-155 149l212 198v2h212z" />
    <glyph glyph-name="ordmasculine" unicode="&#xba;" horiz-adv-x="637" 
d="M318 887q-113 0 -190.5 79t-77.5 194t79 194l1 1q78 76 188 76q109 0 189 -80.5t80 -190.5q0 -112 -77 -191q-80 -82 -192 -82zM246 1088l3 -3q21 -22 51.5 -26t57 7.5t45.5 37.5t19 58q0 43 -32.5 69t-71 27t-71 -24.5t-32.5 -71.5q0 -25 6 -39t25 -35z" />
    <glyph glyph-name="guillemotright" unicode="&#xbb;" horiz-adv-x="1161" 
d="M732 571v-114l-632 -519v207l449 368l-449 367v208zM1061 571v-114l-633 -519v207l450 368l-450 367v208z" />
    <glyph glyph-name="questiondown" unicode="&#xbf;" horiz-adv-x="1074" 
d="M654 907l-1 -1q-31 -31 -69 -34.5t-67 16t-48.5 49.5t-15.5 68.5t35 69.5q26 25 57.5 31.5t58.5 -3.5t48.5 -31.5t31 -48.5t3 -58.5t-32.5 -57.5zM533 -323q-188 0 -313 121.5t-125 304.5q0 95 36 164q10 20 21 38t25.5 33.5t25 26.5t29 25.5t27 20.5t30 20.5t27.5 18.5
q10 7 37 26t35.5 25.5t28 22t26 23.5t18.5 23.5t16 28t7.5 30t3.5 36.5v147h164v-155q0 -89 -42.5 -164.5t-123.5 -127.5l-116 -74q-110 -79 -110 -194q0 -110 77.5 -181.5t195.5 -71.5q142 0 223.5 95t77.5 258h165q7 -231 -123 -375.5t-343 -144.5z" />
    <glyph glyph-name="Agrave" unicode="&#xc0;" horiz-adv-x="1475" 
d="M640 1861l236 -336h-183l-270 336h217zM416 412l-190 -409h-181l641 1395h102l641 -1395h-181l-190 409h-642zM983 577l-246 535l-246 -535h492z" />
    <glyph glyph-name="Aacute" unicode="&#xc1;" horiz-adv-x="1475" 
d="M1055 1849l-285 -336h-182l235 336h232zM416 412l-190 -409h-181l641 1395h102l641 -1395h-181l-190 409h-642zM983 577l-246 535l-246 -535h492z" />
    <glyph glyph-name="Acircumflex" unicode="&#xc2;" horiz-adv-x="1475" 
d="M743 1640l-104 -120h-218l264 308h115l263 -308h-218zM416 412l-190 -409h-181l641 1395h102l641 -1395h-181l-190 409h-642zM983 577l-246 535l-246 -535h492z" />
    <glyph glyph-name="Atilde" unicode="&#xc3;" horiz-adv-x="1475" 
d="M882 1521q-43 0 -83.5 21.5t-62.5 43.5t-48 55q-37 43 -55 57t-36 14q-35 0 -53 -42.5t-11 -113.5h-160q-20 132 46.5 226.5t177.5 94.5q43 0 84.5 -22t63 -43t49.5 -55q37 -44 53.5 -57.5t34.5 -13.5q35 0 52 49.5t5 121.5h164q17 -142 -47 -239t-174 -97zM416 412
l-190 -409h-181l641 1395h102l641 -1395h-181l-190 409h-642zM983 577l-246 535l-246 -535h492z" />
    <glyph glyph-name="Adieresis" unicode="&#xc4;" horiz-adv-x="1475" 
d="M625 1592l-1 -1q-31 -31 -70 -35.5t-69 15t-49.5 48t-15.5 66.5t36 69q29 32 66 37t67 -13.5t50.5 -47.5t18 -67.5t-32.5 -70.5zM1020 1589l-1 -1q-27 -26 -62 -31t-65 7.5t-50.5 42t-20.5 66.5q0 48 34.5 82t81.5 34q37 0 66 -21t41.5 -51.5t7 -66t-31.5 -61.5zM416 412
l-190 -409h-181l641 1395h102l641 -1395h-181l-190 409h-642zM983 577l-246 535l-246 -535h492z" />
    <glyph glyph-name="Aring" unicode="&#xc5;" horiz-adv-x="1475" 
d="M739 1472q-90 0 -153 62t-63 151q0 91 66 156q63 60 150 60q88 0 153 -62q48 -49 58.5 -114t-12.5 -120.5t-76.5 -94t-122.5 -38.5zM739 1636q20 0 36 15t16 34q0 22 -15 37.5t-37 15.5q-43 0 -51 -55v-6q0 -9 2 -12q14 -18 22 -23.5t27 -5.5zM416 412l-190 -409h-181
l641 1395h102l641 -1395h-181l-190 409h-642zM983 577l-246 535l-246 -535h492z" />
    <glyph glyph-name="AE" unicode="&#xc6;" horiz-adv-x="1913" 
d="M416 412l-190 -409h-181l641 1395h1100v-165h-825v-450h693v-164h-693v-452h825v-164h-989v409h-381zM797 1233h-3l-303 -656h306v656z" />
    <glyph glyph-name="Ccedilla" unicode="&#xc7;" horiz-adv-x="1587" 
d="M703 -363q-98 0 -145 8v158q149 -56 254 -25q57 16 62 47q5 30 -47 48q-63 21 -180 12l-30 43l47 78q-195 44 -341 193q-131 135 -178 318.5t0.5 367.5t179.5 319q204 209 496 209q217 0 395 -125t254 -332l-161 -39q-63 152 -194.5 240.5t-293.5 88.5q-148 0 -270 -71.5
t-192 -197t-70 -276.5t70 -276t192 -196.5t270 -71.5q163 0 294 88.5t194 241.5l161 -41q-69 -188 -224.5 -309.5t-350.5 -142.5q125 -66 125 -175q0 -87 -83.5 -134.5t-233.5 -47.5z" />
    <glyph glyph-name="Egrave" unicode="&#xc8;" 
d="M595 1869l236 -336h-183l-270 336h217zM1188 167v-164h-989v1395h989v-165h-823v-450h691v-164h-691v-452h823z" />
    <glyph glyph-name="Eacute" unicode="&#xc9;" 
d="M1024 1869l-285 -336h-182l236 336h231zM1188 167v-164h-989v1395h989v-165h-823v-450h691v-164h-691v-452h823z" />
    <glyph glyph-name="Ecircumflex" unicode="&#xca;" 
d="M696 1654l-104 -121h-218l264 308h115l263 -308h-218zM1188 167v-164h-989v1395h989v-165h-823v-450h691v-164h-691v-452h823z" />
    <glyph glyph-name="Edieresis" unicode="&#xcb;" 
d="M977 1607q-32 -31 -71 -34.5t-68.5 16t-49 49.5t-15 69t35.5 71q26 25 57.5 31t58 -4.5t48.5 -32.5t32 -49t3.5 -58.5t-31.5 -57.5zM574 1606q-27 -25 -62 -29.5t-64.5 8t-50 41.5t-20.5 66q0 50 33.5 83.5t83.5 33.5q38 0 67.5 -22.5t42 -54t5.5 -67t-35 -59.5z
M1188 167v-164h-989v1395h989v-165h-823v-450h691v-164h-691v-452h823z" />
    <glyph glyph-name="Igrave" unicode="&#xcc;" horiz-adv-x="644" 
d="M210 1869l236 -336h-183l-270 336h217zM393 1398v-1395h-166v1395h166z" />
    <glyph glyph-name="Iacute" unicode="&#xcd;" horiz-adv-x="668" 
d="M666 1869l-284 -336h-183l236 336h231zM418 1398v-1395h-166v1395h166z" />
    <glyph glyph-name="Icircumflex" unicode="&#xce;" horiz-adv-x="612" 
d="M309 1654l-104 -121h-217l263 308h115l263 -308h-217zM389 1398v-1395h-166v1395h166z" />
    <glyph glyph-name="Idieresis" unicode="&#xcf;" horiz-adv-x="655" 
d="M212 1624l-1 -1q-27 -26 -62.5 -31t-65 7.5t-50.5 42t-21 66.5q0 48 34.5 82.5t81.5 34.5q38 0 67 -21t41.5 -51.5t7 -66t-31.5 -62.5zM613 1627l-1 -1q-27 -27 -63 -33t-66.5 6.5t-51.5 41.5t-21 67q0 50 34 83.5t83 33.5q37 0 65.5 -20.5t41.5 -50t8.5 -65t-29.5 -62.5
zM410 1398v-1395h-165v1395h165z" />
    <glyph glyph-name="Eth" unicode="&#xd0;" horiz-adv-x="1482" 
d="M644 3h-445v616h-192v164h192v615h445q151 0 283.5 -53.5t227.5 -146t149.5 -222t54.5 -275.5q0 -197 -93 -357t-256.5 -250.5t-365.5 -90.5zM773 619h-409v-452h280q237 0 391.5 151.5t154.5 382.5q0 230 -155 381t-391 151h-280v-450h409v-164z" />
    <glyph glyph-name="Eth" unicode="&#xf0;" horiz-adv-x="1482" 
d="M644 3h-445v616h-192v164h192v615h445q151 0 283.5 -53.5t227.5 -146t149.5 -222t54.5 -275.5q0 -197 -93 -357t-256.5 -250.5t-365.5 -90.5zM773 619h-409v-452h280q237 0 391.5 151.5t154.5 382.5q0 230 -155 381t-391 151h-280v-450h409v-164z" />
    <glyph glyph-name="Ntilde" unicode="&#xd1;" horiz-adv-x="1451" 
d="M861 1503q-104 0 -164 89q-28 40 -31 43q-36 43 -53.5 56.5t-35.5 13.5q-36 0 -54 -42t-11 -114h-161q-19 133 47 227.5t179 94.5q43 0 84 -22t63 -44t49 -55q36 -44 53 -57.5t35 -13.5q34 0 51.5 49.5t5.5 122.5h164q18 -149 -48.5 -248.5t-172.5 -99.5zM365 1069v-1066
h-166v1395h137l751 -1071v1071h166v-1395h-139z" />
    <glyph glyph-name="Ograve" unicode="&#xd2;" horiz-adv-x="1641" 
d="M730 1809l235 -336h-182l-270 336h217zM821 -10q-294 0 -498 209q-131 135 -178 318.5t0.5 367.5t179.5 319q204 209 496 209q142 0 271 -56t222.5 -151t148.5 -227t55 -278q0 -196 -92.5 -359.5t-252.5 -257.5t-352 -94zM821 157q111 0 209 42t168 114t111 173t41 215
q0 150 -70 275.5t-191.5 197.5t-267.5 72q-148 0 -270 -71.5t-192 -197t-70 -276.5q0 -224 153 -387q150 -157 379 -157z" />
    <glyph glyph-name="Oacute" unicode="&#xd3;" horiz-adv-x="1641" 
d="M1158 1869l-284 -336h-182l235 336h231zM821 -10q-294 0 -498 209q-131 135 -178 318.5t0.5 367.5t179.5 319q204 209 496 209q142 0 271 -56t222.5 -151t148.5 -227t55 -278q0 -196 -92.5 -359.5t-252.5 -257.5t-352 -94zM821 157q111 0 209 42t168 114t111 173t41 215
q0 150 -70 275.5t-191.5 197.5t-267.5 72q-148 0 -270 -71.5t-192 -197t-70 -276.5q0 -224 153 -387q150 -157 379 -157z" />
    <glyph glyph-name="Ocircumflex" unicode="&#xd4;" horiz-adv-x="1641" 
d="M831 1654l-103 -121h-218l263 308h115l263 -308h-217zM821 -10q-294 0 -498 209q-131 135 -178 318.5t0.5 367.5t179.5 319q204 209 496 209q142 0 271 -56t222.5 -151t148.5 -227t55 -278q0 -196 -92.5 -359.5t-252.5 -257.5t-352 -94zM821 157q111 0 209 42t168 114
t111 173t41 215q0 150 -70 275.5t-191.5 197.5t-267.5 72q-148 0 -270 -71.5t-192 -197t-70 -276.5q0 -224 153 -387q150 -157 379 -157z" />
    <glyph glyph-name="Otilde" unicode="&#xd5;" horiz-adv-x="1640" 
d="M598 1505h-162q-13 144 58.5 241t188.5 97q44 0 84.5 -17.5t61 -34.5t47.5 -45q33 -35 52 -47.5t47 -12.5q98 0 80 189h163q16 -151 -53.5 -252t-189.5 -101q-43 0 -84 18t-61 34.5t-47 43.5q-25 25 -35 34.5t-27.5 18t-37.5 8.5q-47 0 -68 -42t-17 -132zM821 -10
q-192 0 -352.5 94t-253 257.5t-92.5 359.5t92.5 359.5t253 258t352.5 94.5q142 0 271 -56t222 -151t148 -227t55 -278q0 -147 -54.5 -278.5t-147 -226.5t-221.5 -150.5t-273 -55.5zM821 157q111 0 209 42t168 114t111 173t41 215q0 150 -70 275.5t-191.5 197.5t-267.5 72
q-148 0 -270 -71.5t-192 -197t-70 -276.5q0 -224 153 -387q150 -157 379 -157z" />
    <glyph glyph-name="Odieresis" unicode="&#xd6;" horiz-adv-x="1641" 
d="M708 1546q-27 -25 -62 -29.5t-64 8t-49.5 41.5t-20.5 66q0 49 33.5 83t82.5 34q38 0 67.5 -22.5t42 -53.5t5.5 -67t-35 -60zM1112 1548l-1 -1q-27 -26 -63 -31t-66 7.5t-51 42t-21 66.5q0 51 33 84t83 33q38 0 67 -21.5t42 -51.5t8 -66t-31 -62zM821 -10q-294 0 -498 209
q-131 135 -178 318.5t0.5 367.5t179.5 319q204 209 496 209q142 0 271 -56t222.5 -151t148.5 -227t55 -278q0 -196 -92.5 -359.5t-252.5 -257.5t-352 -94zM821 157q111 0 209 42t168 114t111 173t41 215q0 150 -70 275.5t-191.5 197.5t-267.5 72q-148 0 -270 -71.5
t-192 -197t-70 -276.5t70 -276t192 -196.5t270 -71.5z" />
    <glyph glyph-name="multiply" unicode="&#xd7;" horiz-adv-x="1128" 
d="M680 578l244 -241l-116 -115l-245 242l-245 -240l-115 113l246 239l-246 244l116 115l246 -244l245 241l113 -114z" />
    <glyph glyph-name="Oslash" unicode="&#xd8;" horiz-adv-x="1640" 
d="M449 96l-111 -142l-131 98l115 146q-96 100 -147.5 230t-51.5 273q0 196 92.5 359.5t253 258t352.5 94.5q203 0 372 -107l110 140l132 -96l-117 -148q199 -205 199 -501q0 -147 -54.5 -278.5t-147 -226.5t-221.5 -150.5t-273 -55.5q-207 0 -372 106zM426 331l665 842
q-121 73 -270 73q-148 0 -270 -71.5t-192 -197t-70 -276.5q0 -219 137 -370zM821 157q111 0 209 42t168 114t111 173t41 215q0 213 -135 368l-663 -842q119 -70 269 -70z" />
    <glyph glyph-name="Ugrave" unicode="&#xd9;" horiz-adv-x="1545" 
d="M683 1869l236 -336h-183l-270 336h217zM773 -11q-119 0 -208 34q-104 36 -179 99q-89 71 -138 191.5t-49 268.5v816h166v-816q0 -106 34 -192t96 -135q126 -100 278 -100q158 0 279 100q61 49 95 134.5t34 192.5v816h165v-816q0 -153 -48 -268q-93 -217 -319 -292
q-97 -33 -206 -33z" />
    <glyph glyph-name="Uacute" unicode="&#xda;" horiz-adv-x="1545" 
d="M1112 1869l-284 -336h-183l236 336h231zM773 -11q-119 0 -208 34q-104 36 -179 99q-89 71 -138 191.5t-49 268.5v816h166v-816q0 -106 34 -192t96 -135q126 -100 278 -100q158 0 279 100q61 49 95 134.5t34 192.5v816h165v-816q0 -153 -48 -268q-93 -217 -319 -292
q-97 -33 -206 -33z" />
    <glyph glyph-name="Ucircumflex" unicode="&#xdb;" horiz-adv-x="1545" 
d="M786 1663l-104 -120h-218l264 308h115l262 -308h-216zM773 -11q-119 0 -208 34q-104 36 -179 99q-89 71 -138 191.5t-49 268.5v816h166v-816q0 -106 34 -192t96 -135q126 -100 278 -100q158 0 279 100q61 49 95 134.5t34 192.5v816h165v-816q0 -153 -48 -268
q-93 -217 -319 -292q-97 -33 -206 -33z" />
    <glyph glyph-name="Udieresis" unicode="&#xdc;" horiz-adv-x="1545" 
d="M667 1607q-27 -26 -59 -32.5t-59.5 3.5t-49 32t-31 49.5t-2.5 59.5t33 59q26 25 57 31t58 -4.5t49 -32.5t32 -49t3.5 -58.5t-31.5 -57.5zM1060 1606q-27 -25 -62 -29.5t-64 8t-49.5 41.5t-20.5 66q0 49 33.5 83t82.5 34q38 0 67.5 -22.5t42 -53.5t5.5 -67t-35 -60z
M773 -11q-119 0 -208 34q-104 36 -179 99q-89 71 -138 191.5t-49 268.5v816h166v-816q0 -106 34 -192t96 -135q126 -100 278 -100q158 0 279 100q61 49 95 134.5t34 192.5v816h165v-816q0 -153 -48 -268q-93 -217 -319 -292q-97 -33 -206 -33z" />
    <glyph glyph-name="Yacute" unicode="&#xdd;" horiz-adv-x="1378" 
d="M1020 1869l-284 -336h-183l236 336h231zM774 500v-497h-165v499l-561 896h196l446 -719l445 719h195z" />
    <glyph glyph-name="germandbls" unicode="&#xdf;" horiz-adv-x="1379" 
d="M365 1055v-1493h-166v1495q0 172 86.5 264t248.5 92h201q212 0 349 -104.5t137 -267.5q0 -89 -44 -167t-125 -132q96 -56 147.5 -144.5t51.5 -198.5q0 -184 -155 -299q-153 -112 -361 -110l-271 2v163l271 -2q154 1 252 71.5t98 178.5q0 113 -94.5 181t-255.5 69l-271 2
v162h271q137 0 229 64.5t92 159.5q0 89 -89.5 146.5t-231.5 58.5l-201 2q-90 1 -129.5 -44t-39.5 -149z" />
    <glyph glyph-name="agrave" unicode="&#xe0;" horiz-adv-x="1250" 
d="M495 1559l235 -336h-182l-269 336h216zM543 -5q-193 0 -313 90.5t-121 238.5q-1 149 109.5 229.5t317.5 82.5l380 2v88q0 98 -85.5 155.5t-231.5 57.5q-147 0 -223 -57t-67 -160h-165q-10 173 116 278t339 105q202 0 335.5 -95.5t144.5 -249.5l2 -757h-165v125
q-62 -62 -162 -97.5t-211 -35.5zM543 163q157 0 254.5 81t115.5 226l-377 -2q-131 -1 -199 -37.5t-63 -103.5q3 -74 77 -119t192 -45z" />
    <glyph glyph-name="aacute" unicode="&#xe1;" horiz-adv-x="1250" 
d="M924 1569l-284 -336h-182l235 336h231zM543 -5q-193 0 -313 90.5t-121 238.5q-1 149 109.5 229.5t317.5 82.5l380 2v88q0 98 -85.5 155.5t-231.5 57.5q-147 0 -223 -57t-67 -160h-165q-10 173 116 278t339 105q202 0 335.5 -95.5t144.5 -249.5l2 -757h-165v125
q-62 -62 -162 -97.5t-211 -35.5zM543 163q157 0 254.5 81t115.5 226l-377 -2q-131 -1 -199 -37.5t-63 -103.5q3 -74 77 -119t192 -45z" />
    <glyph glyph-name="acircumflex" unicode="&#xe2;" horiz-adv-x="1250" 
d="M594 1346l-104 -122h-218l263 309h117l261 -309h-218zM543 -5q-193 0 -313 90.5t-121 238.5q-1 149 110 230t317 82l380 2v88q0 98 -85.5 155.5t-231.5 57.5q-147 0 -223 -57t-67 -160h-165q-10 173 116 278t339 105q202 0 335.5 -95.5t144.5 -249.5l2 -757h-165v125
q-62 -62 -162 -97.5t-211 -35.5zM543 163q157 0 254.5 81t115.5 226l-377 -2q-131 -1 -198.5 -37.5t-63.5 -104.5q3 -73 77 -118t192 -45z" />
    <glyph glyph-name="atilde" unicode="&#xe3;" horiz-adv-x="1250" 
d="M737 1205q-32 0 -61.5 10.5t-55.5 32t-40.5 36.5t-36.5 41q-37 43 -54.5 57t-35.5 14q-36 0 -53.5 -42.5t-10.5 -113.5h-161q-19 132 47.5 226.5t177.5 94.5q33 0 63 -11t56 -32t41.5 -37t36.5 -41q36 -43 52.5 -56.5t34.5 -13.5q34 0 51.5 49t5.5 122h165
q17 -142 -47.5 -239t-174.5 -97zM543 -5q-193 0 -313 90.5t-121 238.5q-1 149 109.5 229.5t317.5 82.5l380 2v88q0 98 -85.5 155.5t-231.5 57.5q-147 0 -223 -57t-67 -160h-165q-10 173 116 278t339 105q202 0 335.5 -95.5t144.5 -249.5l2 -757h-165v125q-62 -62 -162 -97.5
t-211 -35.5zM543 163q157 0 254.5 81t115.5 226l-377 -2q-131 -1 -199 -37.5t-63 -103.5q3 -74 77 -119t192 -45z" />
    <glyph glyph-name="adieresis" unicode="&#xe4;" horiz-adv-x="1250" 
d="M478 1314l-1 -1q-27 -25 -58.5 -31t-58 4t-48 31.5t-31 49t-3 59t31.5 57.5h1q26 25 57.5 31.5t58.5 -3.5t48.5 -31.5t31.5 -49t3.5 -59t-32.5 -57.5zM879 1317l-1 -1q-31 -31 -70 -35t-69 15t-50 48t-16 67t36 69q29 32 66 37t67 -13.5t50.5 -47.5t18.5 -67.5t-32 -71.5
zM543 -5q-193 0 -313 90.5t-121 238.5q-1 149 109.5 229.5t317.5 82.5l380 2v88q0 98 -85.5 155.5t-231.5 57.5q-147 0 -223 -57t-67 -160h-165q-10 173 116 278t339 105q202 0 335.5 -95.5t144.5 -249.5l2 -757h-165v125q-62 -62 -162 -97.5t-211 -35.5zM543 163
q157 0 254.5 81t115.5 226l-377 -2q-131 -1 -199 -37.5t-63 -103.5q3 -74 77 -119t192 -45z" />
    <glyph glyph-name="aring" unicode="&#xe5;" horiz-adv-x="1250" 
d="M594 1178q-90 0 -152.5 61.5t-62.5 151.5q0 69 38.5 122.5t94 77t121 13t115.5 -58.5q48 -49 58 -114.5t-13 -120.5t-76.5 -93.5t-122.5 -38.5zM594 1341q21 0 37 15t16 35q0 21 -15.5 36.5t-37.5 15.5q-44 0 -50 -55v-6q0 -8 2 -11q13 -18 21.5 -24t26.5 -6zM543 -5
q-193 0 -313 90.5t-121 238.5q-1 149 109.5 229.5t317.5 82.5l380 2v88q0 98 -85.5 155.5t-231.5 57.5q-147 0 -223 -57t-67 -160h-165q-10 173 116 278t339 105q202 0 335.5 -95.5t144.5 -249.5l2 -757h-165v125q-62 -62 -162 -97.5t-211 -35.5zM543 163q157 0 254.5 81
t115.5 226l-377 -2q-131 -1 -199 -37.5t-63 -103.5q3 -74 77 -119t192 -45z" />
    <glyph glyph-name="ae" unicode="&#xe6;" horiz-adv-x="2117" 
d="M1471 -11q-143 0 -267 68t-199 187q-31 -54 -77 -103q-62 -68 -165 -107t-220 -39q-193 0 -313 90.5t-121 238.5q-1 149 109.5 229.5t317.5 82.5l380 2v88q0 98 -85.5 155.5t-231.5 57.5q-147 0 -223 -57t-67 -160h-165q-10 173 116 278t339 105q152 0 267.5 -54.5
t171.5 -152.5q79 98 192.5 152.5t240.5 54.5q142 0 263 -67t196.5 -185.5t86.5 -262.5q2 -22 2 -118h-928q25 -138 131.5 -227.5t248.5 -89.5q116 0 213 62.5t142 166.5h179q-56 -178 -203.5 -286.5t-330.5 -108.5zM1093 638h748q-29 133 -132 217t-238 84
q-138 0 -243.5 -84.5t-134.5 -216.5zM543 163q157 0 254.5 81t115.5 226l-377 -2q-131 -1 -199 -37.5t-63 -103.5q3 -74 77 -119t192 -45z" />
    <glyph glyph-name="ccedilla" unicode="&#xe7;" horiz-adv-x="1303" 
d="M549 -353q-97 0 -144 8v158q149 -56 254 -25q57 16 62 47q5 30 -47 48q-63 21 -180 12l-30 43l36 72q-176 52 -285.5 200.5t-109.5 337.5q0 230 161 396q164 161 394 161q193 0 343.5 -117t198.5 -306h-176q-42 116 -142 186.5t-224 70.5q-164 0 -276 -113t-112 -278
q0 -166 112 -279.5t276 -113.5q124 0 224 70t142 186h176q-42 -164 -163 -275.5t-283 -139.5q111 -66 111 -167q0 -87 -84 -134.5t-234 -47.5z" />
    <glyph glyph-name="egrave" unicode="&#xe8;" horiz-adv-x="1306" 
d="M552 1559l236 -336h-183l-269 336h216zM660 -11q-152 0 -279.5 74t-201.5 202.5t-74 282.5q0 230 161 396q164 161 394 161q142 0 263 -67t196.5 -185.5t86.5 -262.5q2 -22 2 -118h-928q25 -138 131.5 -227.5t248.5 -89.5q116 0 213 62.5t142 166.5h178
q-55 -178 -202 -286.5t-331 -108.5zM282 638h748q-29 133 -132 217t-238 84q-138 0 -243.5 -84.5t-134.5 -216.5z" />
    <glyph glyph-name="eacute" unicode="&#xe9;" horiz-adv-x="1306" 
d="M981 1559l-284 -336h-182l235 336h231zM660 -11q-152 0 -279.5 74t-201.5 202.5t-74 282.5q0 230 161 396q164 161 394 161q142 0 263 -67t196.5 -185.5t86.5 -262.5q2 -22 2 -118h-928q25 -138 131.5 -227.5t248.5 -89.5q116 0 213 62.5t142 166.5h178
q-55 -178 -202 -286.5t-331 -108.5zM282 638h748q-29 133 -132 217t-238 84q-138 0 -243.5 -84.5t-134.5 -216.5z" />
    <glyph glyph-name="ecircumflex" unicode="&#xea;" horiz-adv-x="1306" 
d="M652 1346l-103 -122h-217l262 309h116l263 -309h-218zM660 -11q-152 0 -279.5 74t-201.5 202.5t-74 282.5q0 230 161 396q164 161 394 161q142 0 263 -67t196.5 -185.5t86.5 -262.5q2 -22 2 -118h-928q25 -138 131.5 -227.5t248.5 -89.5q116 0 213 62.5t142 166.5h178
q-55 -178 -202 -286.5t-331 -108.5zM282 638h748q-29 133 -132 217t-238 84q-138 0 -243.5 -84.5t-134.5 -216.5z" />
    <glyph glyph-name="edieresis" unicode="&#xeb;" horiz-adv-x="1306" 
d="M535 1314l-1 -1q-27 -25 -58.5 -31t-58.5 4t-48 31.5t-31 49t-3.5 59t32.5 57.5h1q26 25 57.5 31.5t58.5 -3.5t48.5 -31.5t31.5 -49t3.5 -59t-32.5 -57.5zM936 1317l-1 -1q-27 -26 -63 -32t-66.5 6t-52 41t-21.5 67q0 49 34 83t83 34q37 0 65.5 -20.5t41.5 -50t9 -64.5
t-29 -63zM660 -11q-152 0 -279.5 74t-201.5 202.5t-74 282.5q0 152 74 280.5t201.5 202.5t279.5 74q142 0 263 -67t196.5 -185.5t86.5 -262.5q2 -22 2 -118h-928q25 -138 131.5 -227.5t248.5 -89.5q116 0 213 62.5t142 166.5h178q-55 -178 -202 -286.5t-331 -108.5zM282 638
h748q-29 133 -132 217t-238 84q-138 0 -243.5 -84.5t-134.5 -216.5z" />
    <glyph glyph-name="igrave" unicode="&#xec;" horiz-adv-x="582" 
d="M178 1549l235 -335h-182l-270 335h217zM360 1089v-1086h-165v1086h165z" />
    <glyph glyph-name="iacute" unicode="&#xed;" horiz-adv-x="606" 
d="M635 1559l-285 -336h-182l236 336h231zM386 1089v-1086h-165v1086h165z" />
    <glyph glyph-name="icircumflex" unicode="&#xee;" horiz-adv-x="547" 
d="M274 1346l-104 -122h-217l263 309h116l262 -309h-218zM355 1089v-1086h-164v1086h164z" />
    <glyph glyph-name="idieresis" unicode="&#xef;" horiz-adv-x="591" 
d="M176 1236q-26 -25 -61 -29.5t-64.5 8t-50 41.5t-20.5 66q0 49 33.5 83t82.5 34q38 0 67.5 -22.5t42 -53.5t5.5 -66.5t-35 -60.5zM580 1238l-1 -1q-27 -26 -63 -31t-66 7.5t-51 42t-21 66.5q0 51 33 84t83 33q38 0 67 -21t42 -51.5t8 -66t-31 -62.5zM378 1089v-1086h-165
v1086h165z" />
    <glyph glyph-name="ntilde" unicode="&#xf1;" horiz-adv-x="1320" 
d="M439 1196h-163q-14 162 73 257q69 80 175 80q43 0 83.5 -17.5t61.5 -34.5t47 -44q33 -35 52 -47.5t47 -12.5q98 0 80 190h164q16 -152 -54 -253.5t-190 -101.5q-43 0 -83.5 18t-61 35t-46.5 44q-25 25 -35.5 34.5t-27.5 17.5t-37 8q-94 0 -85 -173zM334 552v-549h-165
v1086h165v-115q67 63 155 97t184 34q207 0 342.5 -134.5t135.5 -339.5v-628h-166v603q0 151 -85.5 243t-226.5 92q-150 0 -244.5 -108.5t-94.5 -280.5z" />
    <glyph glyph-name="ograve" unicode="&#xf2;" 
d="M563 1559l236 -336h-183l-270 336h217zM660 -11q-152 0 -279.5 74t-201.5 202.5t-74 282.5q0 230 161 396q164 161 394 161q151 0 279.5 -74.5t203 -203t74.5 -279.5q0 -152 -74.5 -281t-202.5 -203.5t-280 -74.5zM660 155q165 0 277.5 113.5t112.5 279.5
q0 162 -114 276.5t-276 114.5q-164 0 -276 -113t-112 -278q0 -92 33 -164q129 -229 355 -229z" />
    <glyph glyph-name="oacute" unicode="&#xf3;" 
d="M992 1559l-284 -336h-183l236 336h231zM660 -11q-152 0 -279.5 74t-201.5 202.5t-74 282.5q0 230 161 396q164 161 394 161q151 0 279.5 -74.5t203 -203t74.5 -279.5q0 -152 -74.5 -281t-202.5 -203.5t-280 -74.5zM660 155q165 0 277.5 113.5t112.5 279.5
q0 162 -114 276.5t-276 114.5q-164 0 -276 -113t-112 -278q0 -92 33 -164q129 -229 355 -229z" />
    <glyph glyph-name="ocircumflex" unicode="&#xf4;" 
d="M664 1346l-104 -122h-217l262 309h117l262 -309h-218zM660 -11q-152 0 -279.5 74t-201.5 202.5t-74 282.5q0 230 161 396q164 161 394 161q151 0 279.5 -74.5t203 -203t74.5 -279.5q0 -152 -74.5 -281t-202.5 -203.5t-280 -74.5zM660 155q165 0 277.5 113.5t112.5 279.5
q0 162 -114 276.5t-276 114.5q-164 0 -276 -113t-112 -278q0 -92 33 -164q129 -229 355 -229z" />
    <glyph glyph-name="otilde" unicode="&#xf5;" 
d="M430 1196h-163q-13 143 59 240t190 97q43 0 83.5 -17.5t61.5 -34.5t47 -44q33 -35 52 -47.5t47 -12.5q98 0 80 190h163q16 -152 -54 -253.5t-189 -101.5q-44 0 -84.5 18t-61 35t-46.5 44q-25 25 -35.5 34.5t-27.5 17.5t-36 8q-95 0 -86 -173zM660 -11q-152 0 -279.5 74
t-201.5 202.5t-74 282.5q0 230 161 396q164 161 394 161q151 0 279.5 -74.5t203 -203t74.5 -279.5q0 -152 -74.5 -281t-202.5 -203.5t-280 -74.5zM660 155q165 0 277.5 113.5t112.5 279.5q0 162 -114 276.5t-276 114.5q-164 0 -276 -113t-112 -278q0 -166 112 -279.5
t276 -113.5z" />
    <glyph glyph-name="odieresis" unicode="&#xf6;" 
d="M939 1297q-31 -31 -69 -34.5t-66.5 17t-47.5 50.5t-14 69t36 70l1 1q32 29 70.5 31t67 -19t47 -51t13 -68t-37.5 -66zM546 1298l-1 -1q-27 -26 -59 -32t-59 4t-49 31.5t-31.5 49t-2.5 59.5t33 59l1 1q26 25 57 30.5t58 -5t49 -32t32 -49t3.5 -58.5t-31.5 -57zM660 -11
q-152 0 -279.5 74t-201.5 202.5t-74 282.5q0 230 161 396q164 161 394 161q151 0 279.5 -74.5t203 -203t74.5 -279.5q0 -152 -74.5 -281t-202.5 -203.5t-280 -74.5zM660 155q165 0 277.5 113.5t112.5 279.5q0 162 -114 276.5t-276 114.5q-164 0 -276 -113t-112 -278
q0 -166 112 -279.5t276 -113.5z" />
    <glyph glyph-name="divide" unicode="&#xf7;" horiz-adv-x="1306" 
d="M1099 663l-10 -165h-882v166z" />
    <glyph glyph-name="oslash" unicode="&#xf8;" 
d="M376 66l-89 -112l-130 98l91 118q-143 155 -143 378q0 152 74 280.5t201.5 202.5t279.5 74q145 0 270 -69l79 102l130 -98l-80 -103q75 -77 116.5 -179t41.5 -210q0 -152 -74.5 -281t-202.5 -203.5t-280 -74.5q-161 0 -284 77zM354 303l472 600q-80 36 -166 36
q-164 0 -276 -113t-112 -278q0 -144 82 -245zM660 155q165 0 277.5 113.5t112.5 279.5q0 153 -94 257l-478 -607q80 -43 182 -43z" />
    <glyph glyph-name="ugrave" unicode="&#xf9;" horiz-adv-x="1320" 
d="M564 1559l236 -336h-183l-270 336h217zM647 -13q-208 0 -343 133.5t-135 339.5v629h165v-603q0 -151 86 -243t227 -92q149 0 243.5 108.5t94.5 280.5v549h166v-1086h-166v115q-68 -63 -155.5 -97t-182.5 -34z" />
    <glyph glyph-name="uacute" unicode="&#xfa;" horiz-adv-x="1320" 
d="M994 1539l-285 -336h-183l236 336h232zM647 -13q-208 0 -343 133.5t-135 339.5v629h165v-603q0 -151 86 -243t227 -92q149 0 243.5 108.5t94.5 280.5v549h166v-1086h-166v115q-68 -63 -155.5 -97t-182.5 -34z" />
    <glyph glyph-name="ucircumflex" unicode="&#xfb;" horiz-adv-x="1320" 
d="M669 1346l-104 -122h-218l263 309h117l262 -309h-218zM647 -13q-208 0 -343 133.5t-135 339.5v629h165v-603q0 -151 86 -243t227 -92q149 0 243.5 108.5t94.5 280.5v549h166v-1086h-166v115q-68 -63 -155.5 -97t-182.5 -34z" />
    <glyph glyph-name="udieresis" unicode="&#xfc;" horiz-adv-x="1320" 
d="M549 1298l-1 -1q-27 -26 -59 -32t-59 4t-49 31.5t-31.5 49t-2.5 59.5t33 59l1 1q26 25 57 30.5t58 -5t49 -32t32 -49t3.5 -58.5t-31.5 -57zM942 1296q-27 -25 -62 -29.5t-64.5 8t-50 41.5t-20.5 66q0 50 33.5 83.5t83.5 33.5q38 0 67.5 -22.5t42 -53.5t5.5 -67t-35 -60z
M647 -13q-208 0 -343 133.5t-135 339.5v629h165v-603q0 -151 86 -243t227 -92q149 0 243.5 108.5t94.5 280.5v549h166v-1086h-166v115q-68 -63 -155.5 -97t-182.5 -34z" />
    <glyph glyph-name="yacute" unicode="&#xfd;" horiz-adv-x="1254" 
d="M961 1549l-286 -335h-182l236 335h232zM1178 1091l-675 -1471h-183l218 471l-461 1000h182l369 -801l369 801h181z" />
    <glyph glyph-name="ydieresis" unicode="&#xff;" horiz-adv-x="1254" 
d="M497 1305l-1 -1q-27 -26 -62.5 -31t-65.5 7.5t-50.5 42t-20.5 66.5q0 48 34 82t82 34q38 0 67 -21t41.5 -51.5t7 -66t-31.5 -61.5zM898 1308l-1 -1q-27 -27 -63 -33t-66.5 6.5t-51.5 41.5t-21 67q0 49 34 82.5t82 33.5q37 0 65.5 -20.5t41.5 -50t9 -64.5t-29 -62z
M1178 1091l-675 -1471h-183l218 471l-461 1000h182l369 -801l369 801h181z" />
    <glyph glyph-name="Amacron" unicode="&#x100;" horiz-adv-x="1475" 
d="M1040 1778v-165h-602v165h602zM416 412l-190 -409h-181l641 1395h102l641 -1395h-181l-190 409h-642zM983 577l-246 535l-246 -535h492z" />
    <glyph glyph-name="amacron" unicode="&#x101;" horiz-adv-x="1250" 
d="M896 1466v-164h-602v164h602zM543 -5q-193 0 -313 90.5t-121 238.5q-1 149 109.5 229.5t317.5 82.5l380 2v88q0 98 -85.5 155.5t-231.5 57.5q-147 0 -223 -57t-67 -160h-165q-10 173 116 278t339 105q202 0 335.5 -95.5t144.5 -249.5l2 -757h-165v125q-62 -62 -162 -97.5
t-211 -35.5zM543 163q157 0 254.5 81t115.5 226l-377 -2q-131 -1 -199 -37.5t-63 -103.5q3 -74 77 -119t192 -45z" />
    <glyph glyph-name="Abreve" unicode="&#x102;" horiz-adv-x="1475" 
d="M738 1509q-141 0 -227.5 100t-58.5 236h168q-34 -97 31 -147q50 -38 118 -24q69 14 90 71q16 44 -3 100h170q28 -158 -84 -258q-80 -78 -204 -78zM416 412l-190 -409h-181l641 1395h102l641 -1395h-181l-190 409h-642zM983 577l-246 535l-246 -535h492z" />
    <glyph glyph-name="abreve" unicode="&#x103;" horiz-adv-x="1250" 
d="M593 1222q-142 0 -228.5 99.5t-58.5 235.5h169q-34 -98 30 -147q50 -38 118 -24q69 14 90 71q17 43 -3 100h171q13 -76 -8.5 -143t-75.5 -115q-82 -77 -204 -77zM543 -5q-193 0 -313 90.5t-121 238.5q-1 149 110 230t317 82l380 2v88q0 98 -85.5 155.5t-231.5 57.5
q-147 0 -223 -57t-67 -160h-165q-10 173 116 278t339 105q202 0 335.5 -95.5t144.5 -249.5l2 -757h-165v125q-62 -62 -162 -97.5t-211 -35.5zM543 163q157 0 254.5 81t115.5 226l-377 -2q-132 -1 -199.5 -37t-62.5 -104q3 -74 77 -119t192 -45z" />
    <glyph glyph-name="Aogonek" unicode="&#x104;" horiz-adv-x="1543" 
d="M1569 -216v-164q-71 -24 -165 -25.5t-181 18.5t-147.5 75t-60.5 135q0 94 69 166q51 59 122 104l-148 319h-642l-190 -409h-181l641 1395h102l641 -1395h-81l-8 -4q-65 -37 -110.5 -85.5t-45.5 -82.5q0 -31 53.5 -51t145.5 -20q84 0 186 24zM983 577l-246 535l-246 -535
h492z" />
    <glyph glyph-name="aogonek" unicode="&#x105;" horiz-adv-x="1354" 
d="M1257 -216v-164q-71 -24 -164.5 -25.5t-181 18.5t-147.5 75t-60 135q0 73 55 149t137 117l20 10v29q-62 -62 -162 -97.5t-211 -35.5q-193 0 -313 90.5t-121 238.5q-1 149 109.5 229.5t317.5 82.5l380 2v88q0 98 -85.5 155.5t-231.5 57.5q-147 0 -223 -57t-67 -160h-165
q-10 173 116 278t339 105q202 0 335.5 -95.5t144.5 -249.5l2 -713l-24 -32l-74 -47q-50 -35 -80.5 -73t-30.5 -64q0 -31 53.5 -51t145.5 -20q85 0 186 24zM543 163q157 0 254.5 81t115.5 226l-377 -2q-131 -1 -199 -37.5t-63 -103.5q3 -74 77 -119t192 -45z" />
    <glyph glyph-name="Cacute" unicode="&#x106;" horiz-adv-x="1587" 
d="M1142 1855l-284 -335h-183l236 335h231zM821 -10q-294 0 -498 209q-131 135 -178 318.5t0.5 367.5t179.5 319q204 209 496 209q217 0 395 -125t254 -332l-161 -39q-63 152 -194.5 240.5t-293.5 88.5q-148 0 -270 -71.5t-192 -197t-70 -276.5t70 -276t192 -196.5
t270 -71.5q163 0 294 88.5t194 241.5l161 -41q-76 -207 -253.5 -331.5t-395.5 -124.5z" />
    <glyph glyph-name="cacute" unicode="&#x107;" horiz-adv-x="1303" 
d="M985 1559l-284 -336h-183l236 336h231zM660 -11q-152 0 -279.5 74t-201.5 202.5t-74 282.5q0 230 161 396q164 161 394 161q193 0 343.5 -117t198.5 -306h-176q-42 116 -142 186.5t-224 70.5q-164 0 -276 -113t-112 -278q0 -166 112 -279.5t276 -113.5q124 0 224 70
t142 186h176q-48 -188 -199 -305t-343 -117z" />
    <glyph glyph-name="Cdotaccent" unicode="&#x10a;" horiz-adv-x="1587" 
d="M891 1553q-51 -52 -113.5 -29t-77 82.5t30.5 117.5v1q33 30 71.5 32t67.5 -19t47 -51t12 -67.5t-38 -66.5zM821 -10q-294 0 -498 209q-131 135 -178 318.5t0.5 367.5t179.5 319q204 209 496 209q217 0 395 -125t254 -332l-161 -39q-63 152 -194.5 240.5t-293.5 88.5
q-148 0 -270 -71.5t-192 -197t-70 -276.5t70 -276t192 -196.5t270 -71.5q163 0 294 88.5t194 241.5l161 -41q-76 -207 -253.5 -331.5t-395.5 -124.5z" />
    <glyph glyph-name="cdotaccent" unicode="&#x10b;" horiz-adv-x="1303" 
d="M740 1291q-27 -26 -59 -32.5t-59.5 4t-49 32.5t-31 49.5t-2.5 59t33 58.5q26 25 57 31t58 -4.5t49 -32t32 -49t3.5 -59t-31.5 -57.5zM660 -11q-152 0 -279.5 74t-201.5 202.5t-74 282.5q0 230 161 396q164 161 394 161q193 0 343.5 -117t198.5 -306h-176
q-42 116 -142 186.5t-224 70.5q-164 0 -276 -113t-112 -278q0 -166 112 -279.5t276 -113.5q124 0 224 70t142 186h176q-48 -188 -199 -305t-343 -117z" />
    <glyph glyph-name="Ccaron" unicode="&#x10c;" horiz-adv-x="1587" 
d="M1135 1841l-264 -308h-114l-263 308h217l103 -121l102 121h219zM821 -10q-294 0 -498 209q-131 135 -178 318.5t0.5 367.5t179.5 319q204 209 496 209q217 0 395 -125t254 -332l-161 -39q-63 152 -194.5 240.5t-293.5 88.5q-148 0 -270 -71.5t-192 -197t-70 -276.5
t70 -276t192 -196.5t270 -71.5q163 0 294 88.5t194 241.5l161 -41q-76 -207 -253.5 -331.5t-395.5 -124.5z" />
    <glyph glyph-name="ccaron" unicode="&#x10d;" horiz-adv-x="1303" 
d="M975 1531l-263 -309h-116l-262 309h217l103 -121l102 121h219zM660 -11q-152 0 -279.5 74t-201.5 202.5t-74 282.5q0 230 161 396q164 161 394 161q193 0 343.5 -117t198.5 -306h-176q-42 116 -142 186.5t-224 70.5q-164 0 -276 -113t-112 -278q0 -166 112 -279.5
t276 -113.5q124 0 224 70t142 186h176q-48 -188 -199 -305t-343 -117z" />
    <glyph glyph-name="Dcaron" unicode="&#x10e;" horiz-adv-x="1482" 
d="M1059 1841l-264 -308h-114l-263 308h217l103 -121l103 121h218zM644 3h-445v1395h445q151 0 283.5 -53.5t227.5 -146t149.5 -222t54.5 -275.5q0 -197 -93 -357t-257 -250.5t-365 -90.5zM644 1233h-279v-1066h279q237 0 391.5 151.5t154.5 382.5q0 230 -154.5 381
t-391.5 151z" />
    <glyph glyph-name="Dcaron" unicode="&#x10f;" horiz-adv-x="1482" 
d="M1059 1841l-264 -308h-114l-263 308h217l103 -121l103 121h218zM644 3h-445v1395h445q151 0 283.5 -53.5t227.5 -146t149.5 -222t54.5 -275.5q0 -197 -93 -357t-257 -250.5t-365 -90.5zM644 1233h-279v-1066h279q237 0 391.5 151.5t154.5 382.5q0 230 -154.5 381
t-391.5 151z" />
    <glyph glyph-name="Emacron" unicode="&#x112;" 
d="M994 1746v-165h-602v165h602zM1188 167v-164h-989v1395h989v-165h-823v-450h691v-164h-691v-452h823z" />
    <glyph glyph-name="emacron" unicode="&#x113;" horiz-adv-x="1306" 
d="M951 1466v-164h-602v164h602zM660 -11q-152 0 -279.5 74t-201.5 202.5t-74 282.5q0 230 161 396q164 161 394 161q142 0 263 -67t196.5 -185.5t86.5 -262.5q2 -22 2 -118h-928q25 -138 131.5 -227.5t248.5 -89.5q116 0 213 62.5t142 166.5h178q-55 -178 -202 -286.5
t-331 -108.5zM282 638h748q-29 133 -132 217t-238 84q-138 0 -243.5 -84.5t-134.5 -216.5z" />
    <glyph glyph-name="Edotaccent" unicode="&#x116;" 
d="M779 1612l-1 -1q-27 -26 -63 -31.5t-66 7.5t-50.5 42t-20.5 66q0 51 32.5 84t83.5 33q37 0 66.5 -21t42 -51.5t7.5 -66t-31 -61.5zM1188 167v-164h-989v1395h989v-165h-823v-450h691v-164h-691v-452h823z" />
    <glyph glyph-name="edotaccent" unicode="&#x117;" horiz-adv-x="1306" 
d="M736 1312l-1 -1q-27 -26 -63 -31t-66 7.5t-50.5 42t-20.5 66.5q0 51 33 84t84 33q37 0 66 -21.5t42 -51.5t7.5 -66t-31.5 -62zM660 -11q-152 0 -279.5 74t-201.5 202.5t-74 282.5q0 230 161 396q164 161 394 161q142 0 263 -67t196.5 -185.5t86.5 -262.5q2 -22 2 -118
h-928q25 -138 131.5 -227.5t248.5 -89.5q116 0 213 62.5t142 166.5h178q-55 -178 -202 -286.5t-331 -108.5zM282 638h748q-29 133 -132 217t-238 84q-138 0 -243.5 -84.5t-134.5 -216.5z" />
    <glyph glyph-name="Eogonek" unicode="&#x118;" horiz-adv-x="1338" 
d="M1282 -216v-164q-71 -24 -165 -25.5t-181 18.5t-147.5 75t-60.5 135q0 90 70 166q2 2 4.5 4t5 5t4.5 5h-613v1395h989v-165h-823v-450h691v-164h-691v-452h823v-164h-142q-23 0 -86.5 -72t-63.5 -100q0 -31 54 -51t146 -20q84 0 186 24z" />
    <glyph glyph-name="eogonek" unicode="&#x119;" horiz-adv-x="1306" 
d="M999 -216v-164q-71 -24 -165.5 -25.5t-181.5 18.5t-147.5 75t-60.5 135q0 98 79 182q-184 46 -301 197t-117 346q0 152 74 280.5t201.5 202.5t279.5 74q142 0 263 -67t196.5 -185.5t86.5 -262.5q2 -22 2 -118h-928q25 -138 131.5 -227.5t248.5 -89.5q116 0 213 62.5
t142 166.5h176q-41 -146 -156 -251t-265 -135q-67 -36 -111.5 -84t-44.5 -83q0 -31 53.5 -51t144.5 -20q85 0 187 24zM282 638h748q-29 133 -132 217t-238 84q-138 0 -243.5 -84.5t-134.5 -216.5z" />
    <glyph glyph-name="Ecaron" unicode="&#x11a;" 
d="M1017 1841l-263 -308h-116l-263 308h218l103 -121l102 121h219zM1188 167v-164h-989v1395h989v-165h-823v-450h691v-164h-691v-452h823z" />
    <glyph glyph-name="ecaron" unicode="&#x11b;" horiz-adv-x="1306" 
d="M975 1531l-263 -309h-116l-262 309h217l103 -121l102 121h219zM660 -11q-152 0 -279.5 74t-201.5 202.5t-74 282.5q0 230 161 396q164 161 394 161q142 0 263 -67t196.5 -185.5t86.5 -262.5q2 -22 2 -118h-928q25 -138 131.5 -227.5t248.5 -89.5q116 0 213 62.5
t142 166.5h178q-55 -178 -202 -286.5t-331 -108.5zM282 638h748q-29 133 -132 217t-238 84q-138 0 -243.5 -84.5t-134.5 -216.5z" />
    <glyph glyph-name="Gbreve" unicode="&#x11e;" horiz-adv-x="1618" 
d="M809 1527q-92 0 -165 45.5t-106.5 123.5t-15.5 167h170q-34 -97 30 -146q49 -39 117.5 -25.5t90.5 69.5q16 44 -4 102h172q13 -76 -8.5 -143t-75.5 -115q-80 -78 -205 -78zM821 -10q-294 0 -498 209q-131 135 -178 318.5t0.5 367.5t179.5 319q204 209 496 209
q217 0 395 -125t254 -332l-161 -39q-63 152 -194.5 240.5t-293.5 88.5q-148 0 -270.5 -71.5t-192 -196.5t-69.5 -277q0 -151 70 -276t192 -196.5t270 -71.5q193 0 325 120t161 321h-548v165h722v-64q0 -202 -85 -364t-236 -253.5t-339 -91.5z" />
    <glyph glyph-name="gbreve" unicode="&#x11f;" horiz-adv-x="1383" 
d="M659 1222q-92 0 -164.5 45.5t-106 123t-15.5 166.5h169q-34 -98 31 -147q49 -38 117 -24q69 14 91 71q16 43 -4 100h170q28 -159 -83 -258q-83 -77 -205 -77zM684 -410q-220 0 -370.5 126.5t-161.5 323.5h163q13 -123 118.5 -204.5t250.5 -81.5q126 0 238 84
q57 45 90.5 134t37.5 206q-77 -74 -178 -113.5t-212 -39.5q-155 0 -282.5 70.5t-200 194.5t-72.5 276q0 150 73 273.5t200.5 194.5t281.5 71q111 0 211.5 -39.5t178.5 -112.5v136h165v-880q0 -132 -32 -246t-90 -187q-51 -63 -130 -113h-1q-130 -73 -278 -73zM660 189
q165 0 277.5 109t112.5 268q0 158 -112.5 266.5t-277.5 108.5t-276.5 -107.5t-111.5 -267.5q0 -165 110 -271q115 -106 278 -106z" />
    <glyph glyph-name="Gdotaccent" unicode="&#x120;" horiz-adv-x="1618" 
d="M891 1611q-51 -52 -113.5 -29t-77 82.5t30.5 117.5v1q33 29 71.5 31.5t67.5 -18.5t47 -51t12 -67.5t-38 -66.5zM821 -10q-294 0 -498 209q-131 135 -178 318.5t0.5 367.5t179.5 319q204 209 496 209q217 0 395 -125t254 -332l-161 -39q-63 152 -194.5 240.5t-293.5 88.5
q-148 0 -270.5 -71.5t-192 -196.5t-69.5 -277q0 -151 70 -276t192 -196.5t270 -71.5q193 0 325 120t161 321h-548v165h722v-64q0 -202 -85 -364t-236 -253.5t-339 -91.5z" />
    <glyph glyph-name="gdotaccent" unicode="&#x121;" horiz-adv-x="1383" 
d="M740 1243q-27 -25 -62 -30t-64 8t-49.5 42t-20.5 66q0 49 33.5 82.5t82.5 33.5q38 0 67.5 -22.5t42 -53.5t5.5 -66.5t-35 -59.5zM684 -410q-220 0 -370.5 126.5t-161.5 323.5h163q13 -123 118.5 -204.5t250.5 -81.5q126 0 238 84q57 45 90.5 134t37.5 206
q-77 -74 -178 -113.5t-212 -39.5q-155 0 -282.5 70.5t-200 194.5t-72.5 276q0 150 73 273.5t200.5 194.5t281.5 71q111 0 211.5 -39.5t178.5 -112.5v136h165v-880q0 -132 -32 -246t-90 -187q-51 -63 -130 -113h-1q-130 -73 -278 -73zM660 189q165 0 277.5 109t112.5 268
q0 158 -112.5 266.5t-277.5 108.5t-276.5 -107.5t-111.5 -267.5q0 -165 110 -271q115 -106 278 -106z" />
    <glyph glyph-name="Imacron" unicode="&#x12a;" horiz-adv-x="554" 
d="M577 1776v-165h-602v165h602zM358 1398v-1395h-164v1395h164z" />
    <glyph glyph-name="imacron" unicode="&#x12b;" horiz-adv-x="490" 
d="M545 1457v-165h-602v165h602zM326 1089v-1086h-165v1086h165z" />
    <glyph glyph-name="Iogonek" unicode="&#x12e;" horiz-adv-x="719" 
d="M653 -215v-164q-71 -24 -164.5 -26t-181 18.5t-147.5 75.5t-60 135q0 52 26 104.5t70 90.5q41 38 113 82v1297h166v-1395h-55q-41 -17 -96.5 -79.5t-55.5 -91.5q0 -31 54 -51t145 -20q85 0 186 24z" />
    <glyph glyph-name="iogonek" unicode="&#x12f;" horiz-adv-x="629" 
d="M380 1217l-1 -1q-32 -31 -71 -34.5t-68.5 16.5t-49 49.5t-15 68.5t35.5 71l1 1q26 25 57 30.5t58 -5t48.5 -32t31.5 -49t4 -58.5t-31 -57zM552 -216v-164q-71 -24 -165 -25.5t-181 18.5t-147.5 75t-60.5 135q0 58 31 111q20 40 76 92t106 78v985h166v-1045l-38 -37
l-46 20q1 -29 -11.5 -49.5t-31.5 -33t-37.5 -25.5t-32 -35t-13.5 -53t54 -51t145 -20q86 0 186 24z" />
    <glyph glyph-name="Idotaccent" unicode="&#x130;" horiz-adv-x="581" 
d="M375 1612l-1 -1q-27 -26 -63 -31.5t-66 7.5t-51 42t-21 66q0 51 33 84t84 33q38 0 67 -21t42 -51.5t7.5 -66t-31.5 -61.5zM371 1398v-1395h-164v1395h164z" />
    <glyph glyph-name="dotlessi" unicode="&#x131;" horiz-adv-x="464" 
d="M314 1089v-1086h-164v1086h164z" />
    <glyph glyph-name="Lacute" unicode="&#x139;" horiz-adv-x="1290" 
d="M997 1869l-285 -336h-183l236 336h232zM1188 167v-164h-989v1395h166v-1231h823z" />
    <glyph glyph-name="lacute" unicode="&#x13a;" horiz-adv-x="606" 
d="M636 1869l-285 -336h-182l235 336h232zM387 1398v-1395h-165v1395h165z" />
    <glyph glyph-name="Nacute" unicode="&#x143;" horiz-adv-x="1451" 
d="M1048 1869l-284 -336h-184l236 336h232zM365 1069v-1066h-166v1395h137l751 -1071v1071h166v-1395h-139z" />
    <glyph glyph-name="nacute" unicode="&#x144;" horiz-adv-x="1320" 
d="M999 1559l-285 -336h-182l236 336h231zM334 552v-549h-165v1086h165v-115q67 63 155 97t184 34q207 0 342.5 -134.5t135.5 -339.5v-628h-166v603q0 151 -85.5 243t-226.5 92q-150 0 -244.5 -108.5t-94.5 -280.5z" />
    <glyph glyph-name="Ncaron" unicode="&#x147;" horiz-adv-x="1451" 
d="M1038 1841l-264 -308h-115l-262 308h217l103 -121l102 121h219zM365 1069v-1066h-166v1395h137l751 -1071v1071h166v-1395h-139z" />
    <glyph glyph-name="ncaron" unicode="&#x148;" horiz-adv-x="1320" 
d="M991 1531l-262 -309h-117l-263 309h218l104 -121l101 121h219zM334 552v-549h-165v1086h165v-115q67 63 155 97t184 34q207 0 342.5 -134.5t135.5 -339.5v-628h-166v603q0 151 -85.5 243t-226.5 92q-150 0 -244.5 -108.5t-94.5 -280.5z" />
    <glyph glyph-name="Omacron" unicode="&#x14c;" horiz-adv-x="1641" 
d="M1130 1776v-165h-602v165h602zM821 -10q-294 0 -498 209q-131 135 -178 318.5t0.5 367.5t179.5 319q204 209 496 209q142 0 271 -56t222.5 -151t148.5 -227t55 -278q0 -196 -92.5 -359.5t-252.5 -257.5t-352 -94zM821 157q111 0 209 42t168 114t111 173t41 215
q0 150 -70 275.5t-191.5 197.5t-267.5 72q-148 0 -270 -71.5t-192 -197t-70 -276.5q0 -224 153 -387q150 -157 379 -157z" />
    <glyph glyph-name="omacron" unicode="&#x14d;" 
d="M961 1476v-164h-602v164h602zM660 -11q-152 0 -279.5 74t-201.5 202.5t-74 282.5q0 230 161 396q164 161 394 161q151 0 279.5 -74.5t203 -203t74.5 -279.5q0 -152 -74.5 -281t-202.5 -203.5t-280 -74.5zM660 155q165 0 277.5 113.5t112.5 279.5q0 162 -114 276.5
t-276 114.5q-164 0 -276 -113t-112 -278q0 -92 33 -164q129 -229 355 -229z" />
    <glyph glyph-name="Ohungarumlaut" unicode="&#x150;" horiz-adv-x="1641" 
d="M979 1907l-270 -337h-183l236 337h217zM1310 1907l-269 -337h-182l236 337h215zM821 -10q-294 0 -498 209q-131 135 -178 318.5t0.5 367.5t179.5 319q204 209 496 209q142 0 271 -56t222.5 -151t148.5 -227t55 -278q0 -196 -92.5 -359.5t-252.5 -257.5t-352 -94zM821 157
q111 0 209 42t168 114t111 173t41 215q0 150 -70 275.5t-191.5 197.5t-267.5 72q-148 0 -270 -71.5t-192 -197t-70 -276.5t70 -276t192 -196.5t270 -71.5z" />
    <glyph glyph-name="ohungarumlaut" unicode="&#x151;" 
d="M757 1569l-269 -336h-183l236 336h216zM1090 1569l-270 -336h-183l236 336h217zM660 -11q-152 0 -279.5 74t-201.5 202.5t-74 282.5q0 230 161 396q164 161 394 161q151 0 279.5 -74.5t203 -203t74.5 -279.5q0 -152 -74.5 -281t-202.5 -203.5t-280 -74.5zM660 155
q165 0 277.5 113.5t112.5 279.5q0 162 -114 276.5t-276 114.5q-164 0 -276 -113t-112 -278q0 -166 112 -279.5t276 -113.5z" />
    <glyph glyph-name="OE" unicode="&#x152;" horiz-adv-x="2469" 
d="M821 -10q-192 0 -352.5 94t-253 257.5t-92.5 359.5t92.5 359.5t253 258t352.5 94.5q153 0 293 -66t238 -185v236h989v-165h-824v-450h690v-164h-690v-452h824v-164h-989v235q-98 -118 -237 -183t-294 -65zM821 157q111 0 209 42t168 114t111 173t41 215q0 150 -70 275.5
t-191.5 197.5t-267.5 72q-148 0 -270 -71.5t-192 -197t-70 -276.5t70 -276t192 -196.5t270 -71.5z" />
    <glyph glyph-name="oe" unicode="&#x153;" horiz-adv-x="2251" 
d="M660 -11q-152 0 -279.5 74t-201.5 202.5t-74 282.5q0 152 74 280.5t201.5 202.5t279.5 74q146 0 272 -70.5t202 -193.5q74 123 200 193.5t271 70.5q142 0 263 -67t196.5 -185.5t86.5 -262.5q2 -22 2 -118h-928q25 -138 131.5 -227.5t248.5 -89.5q116 0 213 62.5
t142 166.5h179q-56 -178 -203.5 -286.5t-330.5 -108.5q-146 0 -271.5 70t-199.5 191q-78 -122 -203.5 -191.5t-270.5 -69.5zM660 155q165 0 277.5 113.5t112.5 279.5q0 162 -114 276.5t-276 114.5q-164 0 -276 -113t-112 -278q0 -166 112 -279.5t276 -113.5zM1227 638h748
q-29 133 -132 217t-238 84q-138 0 -243.5 -84.5t-134.5 -216.5z" />
    <glyph glyph-name="Racute" unicode="&#x154;" horiz-adv-x="1334" 
d="M995 1869l-284 -336h-183l236 336h231zM365 543v-540h-166v1395h589q190 0 306 -118t116 -310q0 -158 -82 -268.5t-223 -144.5l361 -554h-197l-356 540h-348zM788 1233h-423v-525h423q119 0 188 70.5t69 192.5t-69 192t-188 70z" />
    <glyph glyph-name="racute" unicode="&#x155;" horiz-adv-x="802" 
d="M788 1559l-285 -336h-182l236 336h231zM334 538v-535h-165v1086h165v-125q65 62 148 95.5t171 33.5h134v-166h-114q-150 0 -244.5 -108.5t-94.5 -280.5z" />
    <glyph glyph-name="Rcaron" unicode="&#x158;" horiz-adv-x="1334" 
d="M986 1851l-263 -308h-115l-263 308h217l104 -122l102 122h218zM365 543v-540h-166v1395h589q190 0 306 -118t116 -310q0 -158 -82 -268.5t-223 -144.5l361 -554h-197l-356 540h-348zM788 1233h-423v-525h423q119 0 188 70.5t69 192.5t-69 192t-188 70z" />
    <glyph glyph-name="rcaron" unicode="&#x159;" horiz-adv-x="744" 
d="M765 1531l-263 -309h-116l-262 309h217l103 -121l103 121h218zM322 538v-535h-166v1086h166v-125q65 62 147.5 95.5t170.5 33.5h135v-166h-115q-149 0 -243.5 -108.5t-94.5 -280.5z" />
    <glyph glyph-name="Sacute" unicode="&#x15a;" horiz-adv-x="1326" 
d="M997 1869l-285 -336h-182l236 336h231zM663 -15q-288 0 -444 167q-54 58 -76.5 133.5t-10.5 159.5h168q-27 -123 76.5 -210.5t286.5 -87.5q159 0 265.5 67.5t108.5 167.5q-2 91 -85.5 148.5t-278.5 97.5q-215 46 -321 88q-223 91 -223 299q0 136 91 233q156 167 443 167
q286 0 444 -167q111 -124 87 -293h-168q21 124 -79.5 210t-283.5 86q-160 0 -267 -68t-107 -168q0 -66 58 -110q29 -19 87 -42q76 -30 233 -64q5 -1 8.5 -2t8.5 -2t9 -2q268 -58 386 -153t119 -257q0 -136 -92 -231q-155 -167 -443 -167z" />
    <glyph glyph-name="sacute" unicode="&#x15b;" horiz-adv-x="1081" 
d="M869 1549l-284 -335h-183l236 335h231zM543 -15v-1q-206 0 -327.5 111.5t-102.5 278.5l156 -1q-17 -92 63 -159t211 -67q113 0 187.5 45.5t76.5 113.5q-2 60 -62 99t-198 68q-171 35 -249 67q-180 79 -180 246q0 140 120.5 231.5t304.5 91.5q135 0 238 -51t153.5 -140.5
t37.5 -198.5l-156 1q18 91 -62.5 158t-210.5 67q-114 0 -188.5 -45t-74.5 -114q0 -42 33 -65q16 -12 66 -31q58 -24 189 -53q211 -44 305 -121.5t94 -208.5q0 -141 -120 -231.5t-304 -90.5z" />
    <glyph glyph-name="Scedilla" unicode="&#x15e;" horiz-adv-x="1326" 
d="M577 -381q-97 0 -143 8v158q146 -54 250 -26q59 15 65 47q7 31 -50 50q-62 20 -177 11l-29 43l44 84q-199 32 -318 158q-54 58 -76.5 133.5t-10.5 159.5h168q-27 -123 76.5 -210.5t286.5 -87.5q159 0 265.5 67.5t108.5 167.5q-2 91 -85.5 148.5t-278.5 97.5
q-215 46 -321 88q-223 91 -223 299q0 136 91 233q156 167 443 167q286 0 444 -167q111 -124 87 -293h-168q21 124 -79.5 210t-283.5 86q-160 0 -267 -68t-107 -168q0 -66 58 -110q29 -19 87 -42q76 -30 233 -64q5 -1 8.5 -2t8.5 -2t9 -2q268 -58 386 -153t119 -257
q0 -136 -92 -231q-129 -141 -361 -163q72 -32 111.5 -80.5t39.5 -107.5q0 -87 -84 -134.5t-235 -47.5z" />
    <glyph glyph-name="scedilla" unicode="&#x15f;" horiz-adv-x="1081" 
d="M451 -363q-97 0 -144 8v158q146 -54 250 -26q59 15 65 47q7 31 -50 50q-62 20 -177 11l-30 43l37 72h-1q-146 36 -225 138t-63 236l156 -1q-17 -92 63 -159t211 -67q113 0 187.5 45.5t76.5 113.5q-2 60 -62 99t-198 68q-171 35 -249 67q-180 79 -180 246
q0 140 120.5 231.5t304.5 91.5q135 0 238 -51t153.5 -140.5t37.5 -198.5l-156 1q18 91 -62.5 158t-210.5 67q-114 0 -188.5 -45t-74.5 -114q0 -42 33 -65q16 -12 66 -31q58 -24 189 -53q211 -44 305 -121.5t94 -208.5q0 -119 -88.5 -204.5t-232.5 -109.5q123 -65 123 -174
q0 -87 -84 -134.5t-234 -47.5z" />
    <glyph glyph-name="Scaron" unicode="&#x160;" horiz-adv-x="1326" 
d="M990 1851l-263 -308h-115l-264 308h218l104 -122l101 122h219zM663 -15q-288 0 -444 167q-54 58 -76.5 133.5t-10.5 159.5h168q-27 -123 76.5 -210.5t286.5 -87.5q159 0 265.5 67.5t108.5 167.5q-2 91 -85.5 148.5t-278.5 97.5q-215 46 -321 88q-223 91 -223 299
q0 136 91 233q156 167 443 167q286 0 444 -167q111 -124 87 -293h-168q21 124 -79.5 210t-283.5 86q-160 0 -267 -68t-107 -168q0 -66 58 -110q29 -19 87 -42q76 -30 233 -64q5 -1 8.5 -2t8.5 -2t9 -2q268 -58 386 -153t119 -257q0 -136 -92 -231q-155 -167 -443 -167z" />
    <glyph glyph-name="scaron" unicode="&#x161;" horiz-adv-x="1081" 
d="M858 1531l-263 -309h-117l-262 309h218l103 -121l102 121h219zM543 -15v-1q-206 0 -327.5 111.5t-102.5 278.5l156 -1q-17 -92 63 -159t211 -67q113 0 187.5 45.5t76.5 113.5q-2 60 -62 99t-198 68q-171 35 -249 67q-180 79 -180 246q0 140 120.5 231.5t304.5 91.5
q135 0 238 -51t153.5 -140.5t37.5 -198.5l-156 1q18 91 -62.5 158t-210.5 67q-114 0 -188.5 -45t-74.5 -114q0 -42 33 -65q16 -12 66 -31q58 -24 189 -53q211 -44 305 -121.5t94 -208.5q0 -141 -120 -231.5t-304 -90.5z" />
    <glyph glyph-name="Umacron" unicode="&#x16a;" horiz-adv-x="1545" 
d="M1083 1709v-166h-601v166h601zM773 -11q-119 0 -208 34q-104 36 -179 99q-89 71 -138 191.5t-49 268.5v816h166v-816q0 -106 34 -192t96 -135q126 -100 278 -100q158 0 279 100q61 49 95 134.5t34 192.5v816h165v-816q0 -153 -48 -268q-93 -217 -319 -292
q-97 -33 -206 -33z" />
    <glyph glyph-name="umacron" unicode="&#x16b;" horiz-adv-x="1320" 
d="M964 1457v-165h-602v165h602zM647 -13q-208 0 -343 133.5t-135 339.5v629h165v-603q0 -151 86 -243t227 -92q149 0 243.5 108.5t94.5 280.5v549h166v-1086h-166v115q-68 -63 -155.5 -97t-182.5 -34z" />
    <glyph glyph-name="Uring" unicode="&#x16e;" horiz-adv-x="1545" 
d="M782 1487q-91 0 -153.5 62t-62.5 151q0 69 38.5 122.5t94 77t121 13t115.5 -58.5q48 -49 58.5 -114.5t-12.5 -120.5t-76.5 -93.5t-122.5 -38.5zM782 1650q21 0 36.5 15t15.5 35q0 22 -15 37.5t-37 15.5q-44 0 -50 -56v-5q0 -9 1 -12q14 -18 22.5 -24t26.5 -6zM773 -11
q-119 0 -208 34q-104 36 -179 99q-89 71 -138 191.5t-49 268.5v816h166v-816q0 -106 34 -192t96 -135q126 -100 278 -100q158 0 279 100q61 49 95 134.5t34 192.5v816h165v-816q0 -153 -48 -268q-93 -217 -319 -292q-97 -33 -206 -33z" />
    <glyph glyph-name="uring" unicode="&#x16f;" horiz-adv-x="1320" 
d="M663 1178q-90 0 -153 61.5t-63 151.5q0 55 25 102t66 73.5t89 37t99 -4.5t90 -54q48 -49 58.5 -114.5t-12.5 -120.5t-76.5 -93.5t-122.5 -38.5zM663 1341q21 0 36.5 15t15.5 35q0 21 -15 36.5t-37 15.5q-44 0 -50 -55v-6q0 -8 2 -11q13 -19 21.5 -24.5t26.5 -5.5z
M647 -13q-208 0 -343 133.5t-135 339.5v629h165v-603q0 -151 86 -243t227 -92q149 0 243.5 108.5t94.5 280.5v549h166v-1086h-166v115q-68 -63 -155.5 -97t-182.5 -34z" />
    <glyph glyph-name="Uhungarumlaut" unicode="&#x170;" horiz-adv-x="1545" 
d="M932 1907l-270 -337h-182l235 337h217zM1264 1907l-269 -337h-183l236 337h216zM773 -11q-119 0 -208 34q-104 36 -179 99q-89 71 -138 191.5t-49 268.5v816h166v-816q0 -106 34 -192t96 -135q126 -100 278 -100q158 0 279 100q61 49 95 134.5t34 192.5v816h165v-816
q0 -153 -48 -268q-93 -217 -319 -292q-97 -33 -206 -33z" />
    <glyph glyph-name="uhungarumlaut" unicode="&#x171;" horiz-adv-x="1320" 
d="M761 1569l-270 -336h-183l236 336h217zM1093 1569l-270 -336h-183l236 336h217zM647 -13q-208 0 -343 133.5t-135 339.5v629h165v-603q0 -151 86 -243t227 -92q149 0 243.5 108.5t94.5 280.5v549h166v-1086h-166v115q-68 -63 -155.5 -97t-182.5 -34z" />
    <glyph glyph-name="Uogonek" unicode="&#x172;" horiz-adv-x="1545" 
d="M1131 -216v-164q-71 -24 -164.5 -25.5t-180.5 18.5t-147.5 75t-60.5 135q0 95 75 176q-147 27 -266 123q-89 71 -138.5 191.5t-49.5 268.5v816h166v-816q0 -106 34 -192t96 -135q126 -100 278 -100q158 0 279 100q61 49 95 134.5t34 192.5v816h165v-816q0 -231 -116 -385
t-321 -195q-66 -34 -114.5 -84.5t-48.5 -86.5q0 -31 53.5 -51t146.5 -20q83 0 185 24z" />
    <glyph glyph-name="uogonek" unicode="&#x173;" horiz-adv-x="1425" 
d="M1327 -216v-164q-71 -24 -165.5 -25.5t-181.5 18.5t-147.5 75t-60.5 135q0 51 26 103.5t70 91.5q51 47 117 84v16q-68 -63 -155.5 -97t-182.5 -34q-208 0 -343 133.5t-135 339.5v629h165v-603q0 -151 86 -243t227 -92q149 0 243.5 108.5t94.5 280.5v549h166v-1045
l-37 -37l-47 20q1 -29 -11.5 -49.5t-31 -33t-37.5 -25.5t-32 -35t-13 -53t53.5 -51t144.5 -20q85 0 187 24z" />
    <glyph glyph-name="Wcircumflex" unicode="&#x174;" horiz-adv-x="1691" 
d="M847 1654l-103 -121h-218l263 308h115l264 -308h-218zM845 1054l-317 -1051h-139l-352 1395h172l258 -1021l310 1021h136l310 -1021l258 1021h173l-353 -1395h-138z" />
    <glyph glyph-name="wcircumflex" unicode="&#x175;" horiz-adv-x="1427" 
d="M716 1355l-103 -122h-218l262 309h117l263 -309h-219zM713 758l-227 -749h-133l-276 1092h171l180 -722l222 722h128l221 -722l179 722h171l-275 -1092h-133z" />
    <glyph glyph-name="Ycircumflex" unicode="&#x176;" horiz-adv-x="1378" 
d="M693 1654l-103 -121h-218l263 308h115l264 -308h-218zM774 500v-497h-165v499l-561 896h196l446 -719l445 719h195z" />
    <glyph glyph-name="ycircumflex" unicode="&#x177;" horiz-adv-x="1254" 
d="M615 1355l-103 -122h-218l262 309h117l263 -309h-219zM1178 1091l-675 -1471h-183l218 471l-461 1000h182l369 -801l369 801h181z" />
    <glyph glyph-name="Ydieresis" unicode="&#x178;" horiz-adv-x="1378" 
d="M972 1643l-1 -1q-26 -25 -57.5 -31.5t-58.5 3.5t-48.5 31.5t-31 49t-3 59t31.5 57.5q27 26 58.5 32.5t58.5 -3.5t48.5 -31.5t31.5 -49t3.5 -59t-32.5 -57.5zM576 1646l-1 -1q-27 -27 -63 -33t-66 6.5t-51 41.5t-21 67q0 49 33.5 83t82.5 34q37 0 65.5 -20.5t42 -50
t8.5 -65t-30 -62.5zM774 500v-497h-165v499l-561 896h196l446 -719l445 719h195z" />
    <glyph glyph-name="Zacute" unicode="&#x179;" horiz-adv-x="1299" 
d="M982 1869l-284 -336h-182l235 336h231zM1159 167v-164h-1029v124l812 1106h-810v165h1043v-123l-813 -1108h797z" />
    <glyph glyph-name="zacute" unicode="&#x17a;" horiz-adv-x="1095" 
d="M891 1549l-284 -335h-183l236 335h231zM975 167v-164h-844v125l620 795h-619v166h858v-124l-621 -798h606z" />
    <glyph glyph-name="Zdotaccent" unicode="&#x17b;" horiz-adv-x="1299" 
d="M731 1610q-27 -25 -61.5 -30t-64 8t-49.5 41.5t-20 65.5q0 50 33.5 83.5t83.5 33.5t83.5 -36t33 -85t-38.5 -81zM1159 167v-164h-1029v124l812 1106h-810v165h1043v-123l-813 -1108h797z" />
    <glyph glyph-name="zdotaccent" unicode="&#x17c;" horiz-adv-x="1095" 
d="M647 1312l-1 -1q-27 -26 -63 -31t-66.5 7.5t-51.5 42t-21 66.5q0 51 33.5 84t83.5 33q38 0 67 -21.5t42 -51.5t8 -66t-31 -62zM975 167v-164h-844v125l620 795h-619v166h858v-124l-621 -798h606z" />
    <glyph glyph-name="Zcaron" unicode="&#x17d;" horiz-adv-x="1299" 
d="M975 1841l-264 -308h-114l-263 308h217l103 -121l103 121h218zM1159 167v-164h-1029v124l812 1106h-810v165h1043v-123l-813 -1108h797z" />
    <glyph glyph-name="zcaron" unicode="&#x17e;" horiz-adv-x="1095" 
d="M880 1531l-263 -309h-117l-262 309h218l103 -121l102 121h219zM975 167v-164h-844v125l620 795h-619v166h858v-124l-621 -798h606z" />
    <glyph glyph-name="uni02BC" unicode="&#x2bc;" horiz-adv-x="654" 
d="M454 1471l-132 -347h-122l103 347h151z" />
    <glyph glyph-name="gravecomb" unicode="&#x300;" horiz-adv-x="0" 
d="M-436 1442l236 -336h-183l-270 336h217z" />
    <glyph glyph-name="acutecomb" unicode="&#x301;" horiz-adv-x="0" 
d="M-200 1442l-284 -336h-183l236 336h231z" />
    <glyph glyph-name="uni0302" unicode="&#x302;" horiz-adv-x="0" 
d="M-520 1228l-104 -122h-218l263 309h117l262 -309h-219z" />
    <glyph glyph-name="tildecomb" unicode="&#x303;" horiz-adv-x="0" 
d="M-424 1088q-32 0 -61.5 10.5t-56 32.5t-39.5 35.5t-37 40.5q-36 44 -54.5 58t-36.5 14q-35 0 -53 -43t-10 -114h-161q-20 132 46.5 227t177.5 95q43 0 85 -22.5t62.5 -43.5t49.5 -55q37 -44 53.5 -57.5t34.5 -13.5q35 0 52 49.5t5 121.5h164q17 -142 -47 -238.5
t-174 -96.5z" />
    <glyph glyph-name="uni0304" unicode="&#x304;" horiz-adv-x="0" 
d="M-200 1349v-165h-602v165h602z" />
    <glyph glyph-name="uni0306" unicode="&#x306;" horiz-adv-x="0" 
d="M-493 1106q-141 0 -227.5 100t-58.5 236h168q-34 -98 31 -148q49 -38 117 -24q69 14 91 71q16 44 -4 101h171q28 -159 -84 -258q-83 -78 -204 -78z" />
    <glyph glyph-name="uni0307" unicode="&#x307;" horiz-adv-x="0" 
d="M-235 1184q-26 -27 -61 -32.5t-65.5 7.5t-52 42.5t-21.5 67.5q0 50 33.5 83t83.5 33q38 0 67.5 -21.5t42 -52.5t6.5 -66.5t-33 -60.5z" />
    <glyph glyph-name="uni0308" unicode="&#x308;" horiz-adv-x="0" 
d="M-630 1200q-25 -28 -60 -34.5t-66 6t-53 42t-22 67.5q0 49 34 83t83 34q37 0 66 -21t41.5 -50.5t7 -65t-30.5 -61.5zM-233 1197l-1 -1q-27 -26 -62 -31t-65 7.5t-50.5 42t-20.5 66.5q0 48 34 82.5t82 34.5q37 0 66 -21t41.5 -51.5t7 -66t-31.5 -62.5z" />
    <glyph glyph-name="uni030A" unicode="&#x30a;" horiz-adv-x="0" 
d="M-415 1060q-91 0 -153.5 62t-62.5 151q0 91 66 156q63 60 150 60q88 0 153 -62q48 -49 58.5 -114t-12.5 -120.5t-76.5 -94t-122.5 -38.5zM-415 1224q21 0 36.5 15t15.5 34q0 22 -15 37.5t-37 15.5q-44 0 -50 -55v-6q0 -9 1 -12q14 -18 22 -23.5t27 -5.5z" />
    <glyph glyph-name="uni030B" unicode="&#x30b;" horiz-adv-x="0" 
d="M-532 1442l-270 -336h-183l236 336h217zM-200 1442l-270 -336h-183l236 336h217z" />
    <glyph glyph-name="uni030C" unicode="&#x30c;" horiz-adv-x="0" 
d="M-200 1415l-262 -309h-117l-263 309h218l104 -122l101 122h219z" />
    <glyph glyph-name="uni0312" unicode="&#x312;" horiz-adv-x="0" 
d="M-200 1489l-113 -383h-192l147 383h158z" />
    <glyph glyph-name="uni0326" unicode="&#x326;" horiz-adv-x="0" 
d="M-200 12l-159 -462h-162l131 462h190z" />
    <glyph glyph-name="uni0327" unicode="&#x327;" horiz-adv-x="0" 
d="M-517 -345q-98 0 -145 8v158q149 -56 254 -25q56 16 61.5 46.5t-48.5 48.5q-62 21 -178 12l-30 43l125 246l142 -68l-43 -88q85 -31 132 -83t47 -116q0 -87 -84 -134.5t-233 -47.5z" />
    <glyph glyph-name="uni0328" unicode="&#x328;" horiz-adv-x="0" 
d="M-200 -178v-163q-56 -19 -128.5 -25t-146.5 4.5t-137 35.5t-102.5 74t-39.5 113q0 51 26 104t69 91q43 40 98.5 73.5t79.5 33.5h91v-89l-24 -25l-25 -7q-100 -51 -133 -99.5t-6 -85.5q20 -27 71 -43t121 -16q84 0 186 24z" />
    <glyph glyph-name="Wgrave" unicode="&#x1e80;" horiz-adv-x="1691" 
d="M746 1869l236 -336h-182l-270 336h216zM845 1054l-317 -1051h-139l-352 1395h172l258 -1021l310 1021h136l310 -1021l258 1021h173l-353 -1395h-138z" />
    <glyph glyph-name="wgrave" unicode="&#x1e81;" horiz-adv-x="1427" 
d="M616 1549l236 -335h-182l-270 335h216zM713 758l-227 -749h-133l-276 1092h171l180 -722l222 722h128l221 -722l179 722h171l-275 -1092h-133z" />
    <glyph glyph-name="Wacute" unicode="&#x1e82;" horiz-adv-x="1691" 
d="M1175 1869l-284 -336h-183l236 336h231zM845 1054l-317 -1051h-139l-352 1395h172l258 -1021l310 1021h136l310 -1021l258 1021h173l-353 -1395h-138z" />
    <glyph glyph-name="wacute" unicode="&#x1e83;" horiz-adv-x="1427" 
d="M1045 1559l-284 -336h-183l236 336h231zM713 758l-227 -749h-133l-276 1092h171l180 -722l222 722h128l221 -722l179 722h171l-275 -1092h-133z" />
    <glyph glyph-name="Wdieresis" unicode="&#x1e84;" horiz-adv-x="1691" 
d="M731 1617l-1 -1q-27 -27 -63 -33t-66 6.5t-51 41.5t-21 67q0 50 33.5 83.5t83.5 33.5q36 0 65 -20.5t42 -50t8 -65t-30 -62.5zM1127 1614l-1 -1q-27 -26 -62.5 -31t-65 7.5t-50.5 42t-21 66.5q0 48 34.5 82.5t81.5 34.5q38 0 67 -21t41.5 -51.5t7 -66t-31.5 -62.5z
M845 1054l-317 -1051h-139l-352 1395h172l258 -1021l310 1021h136l310 -1021l258 1021h173l-353 -1395h-138z" />
    <glyph glyph-name="wdieresis" unicode="&#x1e85;" horiz-adv-x="1427" 
d="M598 1314l-1 -1q-27 -26 -62 -31t-65 8t-50.5 42t-20.5 66q0 48 34 82.5t83 34.5q37 0 66 -21t41.5 -51.5t6.5 -66t-32 -62.5zM999 1317v-1q-27 -26 -63 -32t-66.5 6t-51.5 41t-21 67q0 49 33.5 83t82.5 34q37 0 66 -20.5t42 -50t8 -65t-30 -62.5zM713 758l-227 -749
h-133l-276 1092h171l180 -722l222 722h128l221 -722l179 722h171l-275 -1092h-133z" />
    <glyph glyph-name="Ygrave" unicode="&#x1ef2;" horiz-adv-x="1378" 
d="M591 1869l236 -336h-182l-270 336h216zM774 500v-497h-165v499l-561 896h196l446 -719l445 719h195z" />
    <glyph glyph-name="ygrave" unicode="&#x1ef3;" horiz-adv-x="1254" 
d="M515 1549l235 -335h-182l-270 335h217zM1178 1091l-675 -1471h-183l218 471l-461 1000h182l369 -801l369 801h181z" />
    <glyph glyph-name="endash" unicode="&#x2013;" horiz-adv-x="896" 
d="M896 664v-164h-896v164h896z" />
    <glyph glyph-name="emdash" unicode="&#x2014;" horiz-adv-x="1536" 
d="M1536 664v-164h-1536v164h1536z" />
    <glyph glyph-name="quoteleft" unicode="&#x2018;" horiz-adv-x="633" 
d="M345 1453l131 -464h-162l-157 464h188z" />
    <glyph glyph-name="quoteright" unicode="&#x2019;" horiz-adv-x="633" 
d="M476 1453l-158 -464h-161l131 464h188z" />
    <glyph glyph-name="quotesinglbase" unicode="&#x201a;" horiz-adv-x="634" 
d="M477 264l-159 -463h-161l131 463h189z" />
    <glyph glyph-name="quotedblleft" unicode="&#x201c;" horiz-adv-x="866" 
d="M347 1453l129 -464h-162l-157 464h190zM580 1453l129 -464h-161l-158 464h190z" />
    <glyph glyph-name="quotedblright" unicode="&#x201d;" horiz-adv-x="866" 
d="M476 1453l-158 -464h-161l129 464h190zM709 1453l-158 -464h-161l129 464h190z" />
    <glyph glyph-name="quotedblbase" unicode="&#x201e;" horiz-adv-x="634" 
d="M477 264l-159 -463h-161l131 463h189z" />
    <glyph glyph-name="dagger" unicode="&#x2020;" horiz-adv-x="1091" 
d="M618 977v-434h-165v434h-292v166h292v255h165v-255h292v-166h-292z" />
    <glyph glyph-name="daggerdbl" unicode="&#x2021;" horiz-adv-x="804" 
d="M484 647v-267h-165v267h-292v167h292v153h-292v167h292v264h165v-264h291v-167h-291v-153h291v-167h-291z" />
    <glyph glyph-name="bullet" unicode="&#x2022;" horiz-adv-x="900" 
d="M329 606q0 43 20.5 75t50.5 46t66 14t66 -14.5t50.5 -46t20.5 -74.5t-20.5 -74.5t-50.5 -45.5t-66 -14.5t-66 13.5t-50.5 46t-20.5 75z" />
    <glyph glyph-name="ellipsis" unicode="&#x2026;" horiz-adv-x="1100" 
d="M385 24l-1 -1q-27 -27 -63 -33t-66.5 6.5t-51.5 41.5t-21 67q0 49 33.5 83t82.5 34q37 0 65.5 -20.5t41.5 -50t9 -65t-29 -62.5zM651 24l-1 -1q-27 -27 -63 -33t-66.5 6.5t-52 41.5t-21.5 67q0 49 34.5 83t82.5 34q37 0 65.5 -20.5t41.5 -50t9 -65t-29 -62.5zM909 24
l-1 -1q-27 -27 -63 -33t-66 6.5t-51 41.5t-21 67q0 49 33.5 83t82.5 34q37 0 65.5 -20.5t41.5 -50t8.5 -65t-29.5 -62.5z" />
    <glyph glyph-name="perthousand" unicode="&#x2030;" horiz-adv-x="2190" 
d="M485 776q-134 0 -229 94t-95 227q0 101 48 175.5t120 108t156 33.5t156 -33t120 -107.5t48 -176.5q0 -132 -95 -226.5t-229 -94.5zM1453 1398l-1098 -1395h-206l1098 1395h206zM325 1096q0 -49 24 -84.5t59.5 -52t77 -16.5t77 16.5t59.5 52t24 84.5q0 44 -17.5 78t-46 52
t-62.5 26t-68.5 -0.5t-63 -26t-46 -52t-17.5 -77.5zM1063 -11q-134 0 -229 93.5t-95 226.5q0 77 28 139t73.5 100t104 59t119 21t119 -21t104 -59t73.5 -100t28 -139q0 -132 -95.5 -226t-229.5 -94zM1715 -11q-135 0 -230 93.5t-95 226.5q0 77 28 139t73.5 100t104 59
t119 21t119 -21t104 -59t73.5 -100t28 -139q0 -132 -95.5 -226t-228.5 -94zM903 307q0 -49 24 -84.5t59.5 -52t77 -16.5t77 16.5t59.5 52t24 84.5q0 44 -17.5 78t-46 52t-62.5 26t-68.5 -0.5t-63 -26t-46 -52t-17.5 -77.5zM1554 307q0 -49 24 -84.5t59.5 -52t77 -16.5
t77 16.5t59.5 52t24 84.5q0 51 -24 88t-59.5 54t-77 16.5t-77 -17t-59.5 -54t-24 -87.5z" />
    <glyph glyph-name="guilsinglleft" unicode="&#x2039;" horiz-adv-x="933" 
d="M321 513l453 -368v-206l-633 512v125l633 509v-205z" />
    <glyph glyph-name="guilsinglright" unicode="&#x203a;" horiz-adv-x="933" 
d="M786 576v-125l-633 -512v206l453 368l-453 367v205z" />
    <glyph glyph-name="fraction" unicode="&#x2044;" horiz-adv-x="593" 
d="M887 1398l-976 -1395h-204l978 1395h202z" />
    <glyph glyph-name="Euro" unicode="&#x20ac;" horiz-adv-x="1703" 
d="M939 -11q-253 0 -446.5 152t-256.5 399h-127l-9 165h113v23q0 24 1 36h-105l-9 164h141q62 241 256 391t442 150q223 0 407 -129t263 -343h-184q-70 144 -198.5 224t-287.5 80q-182 1 -324 -100.5t-200 -272.5l778 2v-166h-810q-1 -12 -1 -36q0 -16 1 -23l810 1v-166
h-780q57 -174 200 -278.5t326 -104.5q162 0 290.5 80.5t198.5 225.5h185q-79 -217 -262.5 -345.5t-411.5 -128.5z" />
    <glyph glyph-name="trademark" unicode="&#x2122;" horiz-adv-x="1217" 
d="M358 1260v-464h-111v464h-181v109h598l166 -432l166 432h143v-573h-110v353l-140 -353h-117l-138 351v-351h-110v464h-166z" />
    <glyph glyph-name="arrowleft" unicode="&#x2190;" horiz-adv-x="1317" 
d="M437 580l397 -319l-107 -123l-577 474v103l577 473l107 -123l-397 -318h850v-167h-850z" />
    <glyph glyph-name="arrowup" unicode="&#x2191;" horiz-adv-x="1238" 
d="M702 967v-848h-166v848l-323 -397l-123 107l479 573h101l478 -573l-124 -107z" />
    <glyph glyph-name="arrowright" unicode="&#x2192;" horiz-adv-x="1277" 
d="M1177 770v-104l-578 -474l-104 125l395 318l-850 2v166l850 -2l-400 322l114 119z" />
    <glyph glyph-name="arrowdown" unicode="&#x2193;" horiz-adv-x="1238" 
d="M1148 711l-478 -573h-101l-479 573l123 107l323 -395v846h166v-846l322 395z" />
    <glyph glyph-name="arrowboth" unicode="&#x2194;" horiz-adv-x="1955" 
d="M1805 757v-104l-578 -473l-104 125l395 316l-1071 2l398 -318l-108 -123l-577 473v103l577 474l108 -123l-398 -318l1071 -2l-400 322l114 118z" />
    <glyph glyph-name="arrowupdn" unicode="&#x2195;" horiz-adv-x="1469" 
d="M1315 459l-479 -571h-100l-480 575l126 103l321 -394l2 1065l-323 -396l-124 107l480 574h100l479 -574l-124 -107l-322 397l-2 -1065l326 399z" />
    <glyph glyph-name="uni2196" unicode="&#x2196;" horiz-adv-x="1079" 
d="M431 887l600 -598l-117 -117l-603 597l54 -507l-163 -7l-70 741l73 72l744 -70l-10 -165z" />
    <glyph glyph-name="uni2197" unicode="&#x2197;" horiz-adv-x="1079" 
d="M713 333l55 505l-604 -596l-118 116l601 596l-508 -53l-9 165l745 69l72 -72l-69 -742z" />
    <glyph glyph-name="uni2198" unicode="&#x2198;" horiz-adv-x="1079" 
d="M878 1115l69 -741l-72 -72l-746 70l12 165l507 -54l-600 598l118 117l602 -597l-55 507z" />
    <glyph glyph-name="uni2199" unicode="&#x2199;" horiz-adv-x="1079" 
d="M941 507l7 -167l-743 -68l-73 71l70 742l163 -11l-54 -506l604 596l118 -116l-600 -596z" />
    <glyph glyph-name="emptyset" unicode="&#x2205;" horiz-adv-x="1490" 
d="M481 59l-181 -229h-207l259 330q-152 158 -152 388q0 153 74 281t201.5 202t279.5 74q149 0 281 -76l156 197h206l-234 -300q147 -159 147 -378q0 -114 -44 -217.5t-118.5 -178.5t-177 -119t-216.5 -44q-152 0 -274 70zM458 293l475 603q-88 43 -178 43
q-164 0 -276.5 -113t-112.5 -278q0 -154 92 -255zM755 155q164 0 277 113.5t113 279.5q0 146 -87 246l-473 -602q75 -37 170 -37z" />
    <glyph glyph-name="minus" unicode="&#x2212;" horiz-adv-x="1306" 
d="M1089 658l10 -166l-892 -2v168h882z" />
    <glyph glyph-name="approxequal" unicode="&#x2248;" horiz-adv-x="1123" 
d="M332 632h-162q-9 98 24 177.5t96 122.5l41 21q43 16 87 16q43 0 83.5 -17.5t61.5 -34.5t47 -44q24 -25 35 -35t27.5 -18t36.5 -8q41 0 62.5 55.5t19.5 134.5h161q16 -152 -54 -253t-189 -101q-43 0 -83.5 17.5t-61 34.5t-46.5 44q-26 26 -36 35t-27 17.5t-37 8.5
q-48 0 -69 -41.5t-17 -131.5zM332 269h-162q-9 98 24 177.5t96 122.5l41 21q43 16 87 16q43 0 83.5 -17.5t61.5 -34.5t47 -44q24 -25 35 -35t27.5 -18t36.5 -8q41 0 62.5 55.5t19.5 134.5h161q16 -152 -54 -253t-189 -101q-43 0 -83.5 17.5t-61 34.5t-46.5 44q-26 26 -36 35
t-27 17.5t-37 8.5q-48 0 -69 -41.5t-17 -131.5z" />
    <glyph glyph-name="notequal" unicode="&#x2260;" horiz-adv-x="1364" 
d="M636 319l-151 -287h-188l151 287h-185v168h273l90 171l-363 -1v166h450l134 254h186l-133 -254h190l10 -165h-286l-91 -171h367l10 -166z" />
    <glyph glyph-name="lessequal" unicode="&#x2264;" horiz-adv-x="1416" 
d="M437 712l757 -427v-192l-982 558v124l982 555v-190zM212 56h985v-167l-985 2v165z" />
    <glyph glyph-name="greaterequal" unicode="&#x2265;" horiz-adv-x="1423" 
d="M1204 775v-124l-982 -558v192l757 427l-757 428v190zM1204 56v-165l-985 -2v167h985z" />
    <glyph glyph-name="uniF8FF" unicode="&#xf8ff;" horiz-adv-x="2307" 
d="M1142 -97q-174 0 -333 68t-274 183t-183 273t-68 332q0 173 68.5 331t184 272.5t274.5 182t334 67.5t334 -68t274.5 -182.5t184 -272t68.5 -330.5q0 -140 -43.5 -270.5t-123 -235.5t-186 -184.5t-238.5 -122.5t-273 -43zM1144 5q154 0 294.5 59.5t242.5 160.5t162 240
t60 292q0 204 -101 377t-275 274.5t-379 101.5q-155 0 -295.5 -59t-242.5 -159.5t-162.5 -239.5t-60.5 -292q0 -205 101 -378.5t275 -275t381 -101.5zM901 331h-2q18 18 36 33q26 22 39 69q45 119 70 194q39 112 87 200v4q-5 -8 -16 -19l-15 -19q-35 -50 -49 -88
q-5 -9 -13 -9q-157 8 -271 104q-15 13 -45 41.5t-45 42.5q-11 11 -20 26l17 -7q74 -29 152 -41q57 -6 110 4q51 11 72 17q5 1 24 10q-7 4 -23.5 12.5t-25.5 13t-21 13.5t-20 19h26q64 2 115 30q109 62 212 93q44 12 89 15q7 0 30.5 1.5t35.5 0.5q86 -3 137 -50q9 -8 43 -51
l-1 -1l-6 1q-71 27 -129 6.5t-96 -81.5q-10 -17 -38 -85q-10 -22 -35 -80.5t-39 -89.5q-48 -97 -99 -156q-33 -41 -101 -88q-67 -50 -180 -84h-3zM1417 -247v-67h-23v67h-7v14h7v12q3 22 32 22h9v-15q-16 3 -18 -8v-11h17v-14h-17zM654 -316q-16 0 -25.5 12t-9.5 31
q0 21 10.5 32.5t27.5 11.5q12 0 20 -5l6 -9v41h20v-112h-20v14l-6 -10q-9 -6 -23 -6zM899 -224q-10 0 -10 12q0 9 10 9q12 0 12 -9q0 -12 -12 -12zM1676 -300v-15h-14q-23 0 -23 17v51h-13v14h13v21h22v-21h16v-14h-16v-45q1 -10 15 -8zM757 -316q-18 0 -29.5 11.5
t-11.5 32.5q0 18 12.5 30.5t31.5 12.5q18 0 28 -12t10 -31q0 -2 -2 -7h-57q1 -21 19 -21q14 0 17 14h21q-6 -30 -39 -30zM842 -316q-31 0 -36 26h21q3 -12 15 -12t12 9t-20 14q-25 9 -25 25q0 11 9 18t24 7q29 0 31 -26h-20q-3 11 -12 11q-11 0 -11 -8q0 -9 19 -13
q26 -9 26 -27q0 -24 -33 -24zM967 -346q-39 0 -40 28v1h20v-1q2 -13 20 -13q17 0 22 20v12l-6 -10q-8 -5 -21 -5q-17 0 -27.5 11t-10.5 30q0 21 12 32.5t29 11.5q11 0 19 -5l5 -9v12h21v-62q0 -11 -1 -17q0 -36 -42 -36zM1050 -277v-37h-21v83h21v-15l7 11q9 6 21 6
q25 0 27 -23q2 -6 2 -15v-47h-23v54q0 16 -14 16q-20 0 -20 -33zM1161 -316q-19 0 -29.5 12t-10.5 32q0 19 10.5 31t29.5 12q20 0 32 -12t12 -31q0 -20 -11.5 -32t-32.5 -12zM1329 -316q-12 0 -19.5 6.5t-7.5 17.5q0 28 46 28h5v2q0 4 -1 8q0 10 -12 10q-15 0 -15 -15h-20
q0 13 10 21.5t25 8.5q31 0 33 -24v-40q0 -11 1 -21h-20l-1 12l-4 -9q-9 -5 -20 -5zM1482 -316q-41 0 -41 44q0 19 10.5 31t30.5 12t31.5 -12t11.5 -31q0 -20 -11.5 -32t-31.5 -12zM1560 -277v-37h-21v83h21v-15l6 11q10 6 20 6q25 0 30 -23q1 -6 1 -15v-47h-23v54
q-2 16 -15 16q-19 0 -19 -33zM1720 -316q-34 0 -36 26h21q3 -12 15 -12t12 9t-19 14q-26 9 -26 25q0 11 9.5 18t23.5 7q27 0 34 -26h-23q-2 11 -13 11q-9 0 -9 -8q0 -9 18 -13q28 -11 28 -27q0 -24 -35 -24zM1838 -316q-17 0 -28 11t-11 32q0 20 12 32t29 12q35 0 37 -32
h-20q-3 17 -17 17q-20 0 -20 -28t20 -28q14 0 17 15h20q-3 -31 -39 -31zM1930 -316q-43 0 -43 44q0 19 11 31t32 12q19 0 30 -12t11 -31q0 -20 -11 -32t-30 -12zM2006 -272v-42h-20v83h20v-13l6 10q10 5 17 5q19 0 26 -17l8 12q8 5 18 5q11 0 18 -6.5t8 -13.5v-65h-20v56
q-2 14 -16 14t-14 -28v-42h-21v56q-2 14 -14 14q-16 0 -16 -28zM265 -252l-14 -62h-24l-27 83h25l14 -65l13 63h25l14 -63l15 65h23l-26 -83h-25zM394 -252l-16 -62h-24l-25 83h22l16 -65l14 63h25l15 -63l13 65h23l-26 -83h-24zM522 -252l-15 -62h-24l-26 83h24l14 -65
l13 63h26l14 -63l15 65h22l-26 -83h-24zM910 -231v-83h-20v83h20zM1297 -231l-32 -83h-25l-30 83h24l20 -67l20 67h23zM659 -300q24 0 24 27v2q0 27 -22 27t-22 -28t20 -28zM739 -265h37q-5 21 -18 21q-16 0 -19 -21zM967 -299q22 0 22 27v1q0 27 -22 27q-20 0 -20 -28
q0 -27 20 -27zM1161 -300q22 0 22 28t-22 28q-20 0 -20 -28t20 -28zM1482 -300q22 0 22 28t-22 28q-20 0 -20 -28t20 -28zM1930 -300q20 0 20 28t-20 28q-22 0 -22 -28t22 -28zM1336 -300q6 0 11.5 4.5t5.5 11.5v7q-29 5 -29 -14q0 -9 12 -9zM595 -316q-13 0 -13 13
q0 12 13 12q12 0 12 -12q0 -13 -12 -13zM1776 -316q-14 0 -14 13q0 12 14 12q12 0 12 -12q0 -13 -12 -13z" />
    <glyph glyph-name="_Fontastica" horiz-adv-x="1365" 
d="M341 530v-284h-166l-5 5v985h745v-145h-574v-409h574v-152h-574zM1196 1236v-990h-745v154h574v402h-574v157h574v277h171zM773 94q-34 0 -51 17l11 24q16 -18 39 -18q10 0 12 2q4 0 4 7q0 4 -3 7q-12 6 -19 7q-12 3 -20 7q-9 3 -12 8q-4 8 -4 17q0 18 12.5 27t30.5 9
q25 0 44 -13l-10 -23q-21 12 -35 12q-12 0 -12 -8q0 -11 20 -14q16 -4 20 -6q5 -2 13 -10q4 -10 4 -18q0 -34 -44 -34zM323 93q-26 0 -43 16t-17 41t17 41t43 16t43 -16t17 -41t-17 -41t-43 -16zM1031 93q-23 0 -40 16.5t-17 40.5q0 25 17 41t42 16q28 0 45 -19l-17 -20
q-12 15 -28 15q-12 0 -21 -9t-9 -25q0 -10 4 -14q10 -17 27 -17q16 0 27 13l18 -17q-21 -21 -48 -21zM203 135v-39h-29v110h84v-23h-55v-25h49v-23h-49zM424 161v-65h-27v110h26l51 -67l-1 67h28v-110h-26zM575 182v-86h-28v86h-34v24h95v-24h-33zM634 115l-7 -19h-30
l47 110h30l47 -110h-30l-9 19h-48zM887 182v-86h-31v86h-32v24h94v-24h-31zM959 206v-110h-29v110h29zM1115 115l-8 -19h-29l47 110h30l47 -110h-31l-8 19h-48zM323 117q13 0 21.5 10t8.5 22q0 7 -4 17q-6 17 -25 17q-13 0 -22.5 -9.5t-9.5 -23.5q0 -12 9.5 -22.5
t21.5 -10.5zM673 136l-14 40l-17 -40h31zM1154 136l-15 40l-15 -40h30z" />
    <glyph glyph-name="_VendorID" horiz-adv-x="1043" 
d="M722 750q-96 0 -155 49t-49 116h68q-14 -40 27.5 -71t108.5 -31q57 0 96.5 24t39.5 59q0 63 -143 83q-91 13 -137.5 49t-46.5 91q0 60 53.5 99t132.5 39q88 0 144.5 -47t46.5 -111h-68q16 37 -22.5 66.5t-100.5 29.5q-51 0 -86.5 -22t-35.5 -53q0 -59 129 -78
q97 -13 147.5 -51t50.5 -95q0 -63 -57 -104.5t-143 -41.5zM181 972v-211h-64v487h379v-64h-315v-149h296v-63h-296zM723 178q-95 0 -155 48t-50 117h68q-14 -39 27.5 -70t108.5 -31q57 0 96.5 23t39.5 58q0 64 -140 84q-92 13 -139.5 49t-47.5 91q0 60 53.5 99t133.5 39
q88 0 144 -46.5t46 -110.5h-68q16 36 -22 65.5t-100 29.5q-51 0 -87 -21.5t-36 -53.5q0 -58 128 -77q199 -29 199 -147q0 -63 -56.5 -104.5t-142.5 -41.5zM181 401v-213h-64v487h379v-62h-315v-149h296v-63h-296zM649 126v-30h-12v30h-4v7h4v6q2 10 14 10h5v-8q-7 1 -7 -3
v-5h7v-7h-7zM287 94q-16 0 -16 21q0 20 18 20q6 0 10 -2l3 -4v19h9v-52h-9v4l-3 -2q-6 -4 -12 -4zM404 137q-5 0 -5 5t5 5q6 0 6 -5t-6 -5zM770 100v-5h-6q-11 0 -11 7v24h-6v7h6v9h10v-9h7v-7h-7v-21q2 -6 7 -5zM336 94q-18 0 -18 21q0 8 5.5 14t14.5 6q8 0 13.5 -6
t5.5 -14q0 -1 -1 -3h-28q1 -12 9 -12q6 0 8 8h11q-4 -14 -20 -14zM377 94q-15 0 -17 12h9q2 -7 8 -7q5 0 5 6q0 4 -9 7q-12 3 -12 10q0 13 16 13q14 0 14 -13h-9q-2 6 -6 6q-5 0 -5 -5q0 -4 10 -5q11 -3 11 -13q0 -11 -15 -11zM436 79q-19 0 -19 14v1h9v-1q2 -6 10 -6
q7 0 10 10v4l-4 -3q-4 -2 -8 -2q-19 0 -19 19q0 20 20 20q4 0 8 -2l3 -4v5h11v-29q0 -7 -1 -7q0 -19 -20 -19zM475 113v-17h-9v38h9v-7l3 5q4 3 10 3q12 0 13 -12q1 -2 1 -6v-21h-10v24q0 8 -8 8q-9 0 -9 -15zM528 94q-20 0 -20 21q0 8 5.5 14t14.5 6q20 0 20 -20
q0 -21 -20 -21zM606 94q-12 0 -12 11q0 13 21 13h3v1q0 2 -1 3q0 6 -4 6q-8 0 -8 -8h-10q0 15 18 15q13 0 15 -12v-27h-9l-1 3l-2 -2q-4 -3 -10 -3zM678 94q-19 0 -19 21q0 8 5.5 14t13.5 6q21 0 21 -20q0 -21 -21 -21zM715 113v-17h-10v38h10v-7l4 5q5 3 9 3q12 0 14 -12
q1 -2 1 -6v-21h-12v24q-2 8 -6 8q-10 0 -10 -15zM791 94q-15 0 -17 12h10q2 -7 7 -7q6 0 6 6q0 3 -10 7q-11 3 -11 10q0 13 14 13q16 0 16 -13h-10q0 6 -7 6q-3 0 -3 -5q0 -4 8 -5q12 -3 12 -13q0 -11 -15 -11zM847 94q-19 0 -19 21q0 9 6 14.5t14 5.5q15 0 17 -16h-9
q-2 9 -8 9q-10 0 -10 -13q0 -15 10 -15q6 0 8 8h9q-1 -14 -18 -14zM889 94q-20 0 -20 21q0 8 5.5 14t14.5 6q21 0 21 -20q0 -21 -21 -21zM926 115v-19h-10v38h10v-6l3 5q6 2 9 2q8 0 11 -8l4 6q6 2 8 2q11 0 13 -10v-29h-10v19l-1 6q0 7 -6 7q-7 0 -7 -13v-19h-10v25
q0 7 -6 7q-8 0 -8 -13zM104 123l-6 -27h-11l-14 38h13l6 -31l6 30h12l7 -30l7 31h10l-11 -38h-13zM166 123l-8 -27h-11l-13 38h12l5 -31l8 30h12l6 -30l7 31h11l-12 -38h-11zM226 123l-7 -27h-12l-12 38h11l6 -31l8 30h11l7 -30l8 31h10l-13 -38h-12zM409 134v-38h-9v38h9z
M592 134l-16 -38h-11l-14 38h10l10 -32l9 32h12zM290 100q12 0 12 15v1q0 12 -11 12q-9 0 -9 -13q0 -15 8 -15zM328 118h17q-2 10 -8 10q-7 0 -9 -10zM436 101q10 0 10 14v1q0 12 -10 12t-10 -13q0 -14 10 -14zM528 100q9 0 9 15q0 13 -9 13q-10 0 -10 -13q0 -15 10 -15z
M678 100q12 0 12 15q0 13 -12 13q-8 0 -8 -13q0 -15 8 -15zM889 100q11 0 11 15q0 13 -11 13q-9 0 -9 -13q0 -15 9 -15zM610 100q8 0 8 9v4q-14 2 -14 -7q0 -6 6 -6zM260 94q-5 0 -5 5q0 7 5 7q6 0 6 -7q0 -5 -6 -5zM817 94q-6 0 -6 5q0 7 6 7q7 0 7 -7q0 -5 -7 -5z" />
    <glyph glyph-name="_Designova" horiz-adv-x="1552" 
d="M774 88q-155 0 -287.5 77t-209.5 209t-77 287q0 154 77.5 285t210 207.5t288.5 76.5t288.5 -76.5t210 -207.5t77.5 -285q0 -117 -45.5 -223t-123 -182.5t-184.5 -122t-225 -45.5zM775 156q210 0 359 147.5t149 355.5q0 136 -67.5 252t-184 183.5t-253.5 67.5
q-138 0 -255.5 -67t-185.5 -182.5t-68 -251.5q0 -137 67.5 -253.5t184 -184t254.5 -67.5zM613 374h-2l24 23q19 14 26 45q41 112 47 130q26 76 59 133v2l-12 -12q-2 -3 -5 -7t-4 -5q-25 -35 -33 -59q-2 -6 -8 -6q-101 4 -182 69l-59 56q-8 8 -15 18q2 0 4 -1t4.5 -2t3.5 -1
q45 -19 101 -29q38 -2 74 3l49 12q3 0 15 7q-4 2 -15.5 8t-17 9t-13.5 9t-14 13h18q44 2 77 19q71 43 142 63q32 9 58 9q4 0 23.5 1t22.5 0q58 -2 91 -33q5 -5 14.5 -16t15.5 -17q-1 0 -1 -1q-2 1 -5 1q-48 17 -86.5 3.5t-63.5 -53.5q-10 -17 -26 -58q-7 -15 -23.5 -53.5
t-26.5 -59.5q-33 -66 -66 -105q-21 -27 -67 -59q-45 -33 -120 -55q-1 0 -3 -1h-1z" />
    </font>
</defs>
</svg>
