<?xml version="1.0" standalone="no"?>
<!DOCTYPE svg PUBLIC "-//W3C//DTD SVG 1.1//EN" "http://www.w3.org/Graphics/SVG/1.1/DTD/svg11.dtd" >
<svg xmlns="http://www.w3.org/2000/svg" xmlns:xlink="http://www.w3.org/1999/xlink" version="1.1">
<metadata>
Created by FontForge 20170731 at Wed Apr 19 00:42:43 2023
 By Aleksey,,,
Copyright (c) 2023 by Designova. All rights reserved.
</metadata>
<defs>
<font id="EthosNova-Thin" horiz-adv-x="0" >
  <font-face 
    font-family="Ethos Nova Thin"
    font-weight="100"
    font-stretch="normal"
    units-per-em="2048"
    panose-1="0 0 2 0 0 0 0 0 0 0"
    ascent="1638"
    descent="-410"
    x-height="1060"
    cap-height="1400"
    bbox="-874 -498 2411 1839.23"
    underline-thickness="50"
    underline-position="-150"
    unicode-range="U+0020-F8FF"
  />
<missing-glyph horiz-adv-x="1324" 
d="M1124 1400v-1398h-924v1398h924zM1064 1362h-804l402 -620zM1080 1304l-390 -604l390 -604v1208zM634 700l-388 600v-1202zM1064 42l-402 618l-400 -618h802z" />
    <glyph glyph-name=".notdef" horiz-adv-x="1324" 
d="M1124 1400v-1398h-924v1398h924zM1064 1362h-804l402 -620zM1080 1304l-390 -604l390 -604v1208zM634 700l-388 600v-1202zM1064 42l-402 618l-400 -618h802z" />
    <glyph glyph-name=".null" 
 />
    <glyph glyph-name="nonmarkingreturn" horiz-adv-x="682" 
 />
    <glyph glyph-name="space" unicode=" " horiz-adv-x="540" 
 />
    <glyph glyph-name="exclam" unicode="!" horiz-adv-x="524" 
d="M288 726l-8 -462h-34l-8 462v674h50v-674zM306 2q-28 -29 -66 -13.5t-38 55.5q0 26 17 43t43 17q40 0 55.5 -37.5t-11.5 -64.5z" />
    <glyph glyph-name="quotedbl" unicode="&#x22;" horiz-adv-x="708" 
d="M291 1400l-8 -376h-42l-16 376h66zM483 1400l-8 -376h-42l-16 376h66z" />
    <glyph glyph-name="numbersign" unicode="#" horiz-adv-x="1536" 
d="M458 430l-138 -430h-54l138 430h-378l18 48h376l144 450h-394l18 48h392l136 424h54l-136 -424h454l136 424h54l-136 -424h366l-18 -48h-364l-144 -450h382l-18 -48h-380l-138 -430h-54l138 430h-454zM1072 928h-454l-144 -450h454z" />
    <glyph glyph-name="dollar" unicode="$" horiz-adv-x="1296" 
d="M676 -16v-180h-50v182q-112 7 -201.5 39t-155.5 90t-102.5 147t-38.5 204h50q6 -204 125.5 -310.5t322.5 -119.5v650q-474 81 -474 364q0 156 135 259.5t339 108.5v154h50v-156q213 -13 347.5 -124t144.5 -312h-50q-6 93 -41.5 165t-95.5 118t-136.5 71.5t-168.5 31.5
v-640q239 -33 362.5 -120t123.5 -248q0 -173 -131.5 -273.5t-354.5 -100.5zM626 736v632q-189 -1 -306.5 -96t-117.5 -222q0 -239 424 -314zM676 676v-642q200 0 318 87t118 237q0 60 -22.5 108.5t-61 82t-95 59.5t-118.5 41.5t-139 26.5z" />
    <glyph glyph-name="percent" unicode="%" horiz-adv-x="1506" 
d="M437 850q-120 0 -204 83.5t-84 202.5q0 121 86 204q84 84 202 84q119 0 203.5 -84t84.5 -204q0 -118 -84.5 -202t-203.5 -84zM1357 1400l-1092 -1400h-60l1092 1400h60zM437 898q101 0 170.5 69t69.5 167q0 58 -20.5 105t-54.5 75.5t-77 44t-88 15.5t-88 -15.5t-77 -44
t-54.5 -75.5t-20.5 -105q0 -96 70 -166t170 -70zM1067 -16q-120 0 -204 83.5t-84 202.5q0 69 24.5 124.5t65.5 89.5t92.5 52.5t105.5 18.5t105.5 -18.5t92.5 -52.5t65.5 -89.5t24.5 -124.5q0 -118 -84.5 -202t-203.5 -84zM1067 32q101 0 170.5 69t69.5 167q0 58 -20.5 105
t-54.5 75.5t-77 44t-88 15.5t-88 -15.5t-77 -44t-54.5 -75.5t-20.5 -105q0 -96 70 -166t170 -70z" />
    <glyph glyph-name="ampersand" unicode="&#x26;" horiz-adv-x="1232" 
d="M473 -16q-168 0 -268 94.5t-100 235.5q0 116 82 210q67 76 264 156l-38 38q-178 178 -178 370q0 148 101.5 239t268.5 91q158 0 249 -83t91 -213q0 -275 -410 -458l358 -350q12 12 34 48l132 198l42 -26q-90 -146 -128 -192l-22 -28l-24 -34l284 -280l-66 -2l-248 244
q-111 -139 -211.5 -198.5t-212.5 -59.5zM467 732l32 -32q188 75 292 189t104 233q0 110 -79 178t-211 68q-141 0 -230.5 -75.5t-89.5 -204.5q0 -174 182 -356zM471 34q108 0 201.5 57t190.5 183l-374 370q-34 -15 -47 -20.5t-48 -21.5t-51 -26t-46.5 -29t-46.5 -35
t-37 -39.5t-31.5 -46.5t-18.5 -52t-8 -60q0 -116 87.5 -198t228.5 -82z" />
    <glyph glyph-name="quotesingle" unicode="'" horiz-adv-x="515" 
d="M291 1400l-16 -376h-42l-8 376h66z" />
    <glyph glyph-name="parenleft" unicode="(" horiz-adv-x="688" 
d="M575 -206h-56q-129 123 -216.5 354.5t-87.5 467.5q0 242 90 476q90 231 216 348h56q-124 -112 -219 -349t-95 -475t93 -472.5t219 -349.5z" />
    <glyph glyph-name="parenright" unicode=")" horiz-adv-x="689" 
d="M167 -206h-56q124 112 219 349t95 475q0 237 -93.5 472t-218.5 350h56q129 -123 216.5 -354.5t87.5 -467.5q0 -237 -89 -471.5t-217 -352.5z" />
    <glyph glyph-name="asterisk" unicode="*" horiz-adv-x="912" 
d="M465 1006l26 -354h-70l26 354l-298 -196l-34 60l322 156l-324 158l36 60l298 -198l-26 354h70l-26 -354l298 196l34 -60l-322 -156l324 -158l-36 -60z" />
    <glyph glyph-name="plus" unicode="+" horiz-adv-x="1242" 
d="M646 538v-394l-48 -2v394h-396v50h394v394h50v-394h392l2 -48h-394z" />
    <glyph glyph-name="comma" unicode="," horiz-adv-x="515" 
d="M303 154l-128 -376h-42l104 376h66z" />
    <glyph glyph-name="hyphen" unicode="-" horiz-adv-x="1018" 
d="M873 594v-48h-726v48h726z" />
    <glyph glyph-name="period" unicode="." horiz-adv-x="498" 
d="M295 2q-29 -29 -68.5 -13.5t-39.5 57.5q0 26 17 44t45 18q42 0 57.5 -38t-11.5 -68z" />
    <glyph glyph-name="slash" unicode="/" horiz-adv-x="715" 
d="M671 1400l-572 -1400h-56l572 1400h56z" />
    <glyph glyph-name="zero" unicode="0" horiz-adv-x="1324" 
d="M270 188q-96 131 -130.5 320.5t0 380t130.5 323.5q97 134 243.5 182.5t293.5 0t245 -182.5q97 -135 132.5 -323.5t0.5 -377t-133 -321.5q-97 -134 -244 -182.5t-294 -0.5t-244 181zM660 34q223 0 358 192q87 126 118.5 300.5t-0.5 349t-120 300.5q-135 192 -356 192
q-144 0 -256 -87.5t-172 -240t-60 -342.5q0 -282 136 -472q135 -192 352 -192z" />
    <glyph glyph-name="one" unicode="1" horiz-adv-x="676" 
d="M477 1400v-1400h-50v1330l-280 -270l-34 34l314 302v4h50z" />
    <glyph glyph-name="two" unicode="2" horiz-adv-x="1215" 
d="M1060 48l-2 -48h-868v36l576 652q90 108 98 118q39 49 67.5 115.5t28.5 126.5v6q0 141 -101.5 227.5t-256.5 86.5q-146 0 -249 -82t-139 -224h-52q39 166 156 261t284 95q173 0 290.5 -100t117.5 -270q0 -94 -45 -177t-161 -213l-538 -610h794z" />
    <glyph glyph-name="three" unicode="3" horiz-adv-x="1261" 
d="M639 -16q-185 0 -319.5 116.5t-156.5 305.5h50q22 -166 140.5 -269t285.5 -103q182 0 301 106t119 278q0 75 -26 135.5t-70 100.5t-104.5 67t-127 39t-140.5 12q-68 0 -124 -8l-20 32l564 556h-790v48h844v-60l-534 -524q60 4 88 4q99 0 186 -25t155.5 -73t108.5 -126.5
t40 -177.5q0 -191 -132 -312.5t-338 -121.5z" />
    <glyph glyph-name="four" unicode="4" horiz-adv-x="1366" 
d="M975 338v-338h-50v338l-800 -2v50l772 1014h78v-1014h268v-48h-268zM925 386l-2 968l-746 -970z" />
    <glyph glyph-name="five" unicode="5" horiz-adv-x="1221" 
d="M627 -16q-187 0 -319.5 115.5t-156.5 306.5h50q16 -156 140 -264t286 -108q174 0 297 123t123 297q0 173 -123 295.5t-297 122.5q-236 0 -388 -176h-50l56 704h804v-48h-756l-52 -588q70 75 175.5 117.5t210.5 42.5q95 0 182 -37.5t150 -100.5t100.5 -150t37.5 -182
q0 -199 -133.5 -334.5t-336.5 -135.5z" />
    <glyph glyph-name="six" unicode="6" horiz-adv-x="1239" 
d="M645 -16q-238 0 -380 188t-142 514q0 325 142 530q142 202 378 202q169 0 284 -102.5t154 -255.5h-56q-35 133 -135.5 220.5t-250.5 87.5q-216 0 -341 -194t-125 -522l8 -138q19 178 152.5 294t311.5 116q95 0 182 -37.5t150 -100.5t100.5 -150t37.5 -182
q0 -199 -133.5 -334.5t-336.5 -135.5zM645 34q179 0 299.5 120t120.5 300q0 99 -36 179.5t-95 130.5t-134 77.5t-154 28.5t-154 -26t-134 -76.5t-95 -131t-36 -182.5q0 -178 120 -298q119 -122 298 -122z" />
    <glyph glyph-name="seven" unicode="7" horiz-adv-x="1050" 
d="M949 1352l-640 -1352h-58l642 1352h-796v48h850z" />
    <glyph glyph-name="eight" unicode="8" horiz-adv-x="1258" 
d="M629 -14q-221 0 -363.5 107t-142.5 275q0 136 81.5 234t234.5 138q-124 40 -204 127t-80 207q0 82 40.5 149t107.5 108t152 63t174 22t174 -22t152 -63t107.5 -108t40.5 -149q0 -120 -80.5 -208t-203.5 -126q153 -40 234.5 -138t81.5 -234q0 -168 -142 -274
q-144 -108 -364 -108zM629 762q180 0 302 89.5t122 222.5q0 93 -63 161.5t-157 99.5t-204 31t-204 -31t-157 -99.5t-63 -161.5q0 -136 122 -222q123 -90 302 -90zM629 36q196 0 326 92.5t130 245.5q0 155 -125.5 247.5t-330.5 92.5t-330.5 -92.5t-125.5 -247.5
q0 -156 132 -246q131 -92 324 -92z" />
    <glyph glyph-name="nine" unicode="9" horiz-adv-x="1239" 
d="M595 -16q-169 0 -284 102.5t-154 255.5h56q35 -133 135.5 -220.5t250.5 -87.5q216 0 341 194t125 522l-8 138q-19 -178 -152.5 -294t-311.5 -116q-95 0 -182 37.5t-150 100.5t-100.5 150t-37.5 182q0 199 133.5 334.5t336.5 135.5q238 0 380 -188t142 -514
q0 -325 -142 -530q-142 -202 -378 -202zM173 948q0 -99 36 -179.5t95 -130.5t134 -77.5t154 -28.5t154 26t134 76.5t95 131t36 182.5q0 178 -120 298q-119 122 -298 122t-299.5 -120t-120.5 -300z" />
    <glyph glyph-name="colon" unicode=":" horiz-adv-x="495" 
d="M292 898q-21 -21 -46.5 -19.5t-40 19t-18.5 40.5t19 46q15 15 34.5 17t34.5 -8.5t25.5 -25.5t8.5 -34.5t-17 -34.5zM292 2q-21 -21 -46.5 -19.5t-40 19t-18.5 40.5t19 46q15 15 34.5 17t34.5 -8.5t25.5 -25.5t8.5 -34.5t-17 -34.5z" />
    <glyph glyph-name="semicolon" unicode=";" horiz-adv-x="469" 
d="M257 898q-29 -29 -66.5 -13.5t-37.5 55.5q0 26 17.5 43t42.5 17q40 0 55.5 -37.5t-11.5 -64.5zM283 114l-108 -276h-42l84 276h66z" />
    <glyph glyph-name="less" unicode="&#x3c;" horiz-adv-x="1384" 
d="M269 564l893 -510v-56l-940 538v57l940 536v-56z" />
    <glyph glyph-name="equal" unicode="=" horiz-adv-x="1305" 
d="M1039 768l2 -48l-778 -2v50h776zM1039 398l2 -48l-778 -2v50h776z" />
    <glyph glyph-name="greater" unicode="&#x3e;" horiz-adv-x="1384" 
d="M1162 595v-57l-940 -538v56l893 510l-893 509v56z" />
    <glyph glyph-name="question" unicode="?" horiz-adv-x="1024" 
d="M501 400v-156h-50v164q0 165 152 264l126 84q67 46 108.5 114t41.5 154q0 148 -103.5 246t-258.5 98q-74 0 -140 -23.5t-120 -70t-89 -122t-43 -172.5h-50q12 207 135.5 322.5t306.5 115.5q177 0 294.5 -112.5t117.5 -289.5q0 -87 -32 -148q-9 -18 -19 -34t-23.5 -31
l-22.5 -25t-28 -24.5t-27 -20.5t-31.5 -22t-30.5 -21q-9 -6 -36.5 -25.5t-36.5 -26.5l-31.5 -24.5t-31.5 -27.5t-25 -27.5t-23 -33t-15.5 -35.5t-11.5 -42.5t-3 -47.5zM519 -2q-14 -14 -30.5 -17.5t-31 1.5t-26 16.5t-16.5 26t-1.5 31t17.5 30.5q21 21 46.5 19t41 -19.5
t19.5 -41t-19 -46.5z" />
    <glyph glyph-name="at" unicode="@" horiz-adv-x="1716" 
d="M899 -166q-172 0 -323.5 60.5t-259 166t-169.5 253.5t-62 316q0 331 226 554q225 222 566 222q204 0 360 -66.5t240 -179.5q154 -208 154 -466q0 -210 -75.5 -322t-204.5 -112q-158 0 -158 184q-49 -97 -143 -155.5t-207 -58.5q-94 0 -170 34.5t-123 90.5t-72 127.5
t-25 146.5t25 146.5t72 127.5t123 90.5t170 34.5q113 0 206.5 -58.5t143.5 -157.5v202h50v-586q0 -65 34 -91.5t78 -26.5q102 0 164 100q62 97 62 280q0 305 -191 485.5t-513 180.5q-157 0 -294.5 -55t-235.5 -151t-154 -231t-56 -289q0 -159 57.5 -297.5t158 -237t242 -155
t304.5 -56.5q152 0 260 34l14 -44q-154 -40 -274 -40zM837 278h6q143 1 241.5 103t100.5 247v6q0 143 -100 243.5t-242 100.5q-144 0 -243 -102t-99 -248q0 -147 98.5 -248.5t237.5 -101.5z" />
    <glyph glyph-name="A" unicode="A" horiz-adv-x="1395" 
d="M305 450l-206 -450h-54l638 1400h28l638 -1400h-54l-206 450h-784zM1067 498l-370 810l-370 -810h740z" />
    <glyph glyph-name="B" unicode="B" horiz-adv-x="1335" 
d="M771 0h-572v1400h572q184 0 290 -100t106 -264q0 -133 -66.5 -220t-185.5 -116q292 -51 292 -342q0 -358 -436 -358zM771 1352h-522v-630h502q170 0 268 83t98 233q0 145 -91 229.5t-255 84.5zM751 674h-502v-626h522q191 0 288.5 74.5t97.5 237.5q0 314 -406 314z" />
    <glyph glyph-name="C" unicode="C" horiz-adv-x="1553" 
d="M818 -14q-294 0 -496 208q-131 137 -177.5 322t0.5 370t179 322q202 208 494 208q200 0 365.5 -106t252.5 -284l-50 -12q-81 160 -232.5 256t-335.5 96q-180 0 -328 -89t-232 -241.5t-84 -335.5q0 -182 83.5 -334t231.5 -241t329 -89q184 0 335.5 96t232.5 256l50 -12
q-87 -178 -252.5 -284t-365.5 -106z" />
    <glyph glyph-name="D" unicode="D" horiz-adv-x="1456" 
d="M619 0h-420v1400h420q200 0 363.5 -90.5t257 -251t93.5 -358.5t-92.5 -358.5t-256 -251t-365.5 -90.5zM619 1352h-370v-1304h370q141 0 264 49.5t209.5 136t136.5 207.5t50 259q0 139 -50.5 260t-137.5 207t-209.5 135.5t-262.5 49.5z" />
    <glyph glyph-name="E" unicode="E" horiz-adv-x="1274" 
d="M1147 48v-48h-948v1400h948v-48h-898v-628h754v-46h-754v-630h898z" />
    <glyph glyph-name="F" unicode="F" horiz-adv-x="1284" 
d="M249 678v-678h-50v1400h948v-48h-898v-628h754v-46h-754z" />
    <glyph glyph-name="G" unicode="G" horiz-adv-x="1609" 
d="M818 -14q-294 0 -496 208q-131 137 -177.5 322t0.5 370t179 322q202 208 494 208q200 0 365.5 -106t252.5 -284l-50 -12q-81 160 -232.5 256t-335.5 96q-181 0 -329 -89t-231.5 -241.5t-83.5 -335.5q0 -182 83.5 -334t231.5 -241t329 -89q172 0 306 80t209.5 219.5
t84.5 318.5h-602v48h656v-4q0 -200 -81 -362t-231 -256t-342 -94z" />
    <glyph glyph-name="H" unicode="H" horiz-adv-x="1454" 
d="M249 674v-674h-50v1400h50v-678h956v678h50v-1400h-50v674h-956z" />
    <glyph glyph-name="I" unicode="I" horiz-adv-x="447" 
d="M249 1400v-1400h-50v1400h50z" />
    <glyph glyph-name="J" unicode="J" horiz-adv-x="1251" 
d="M569 -14q-133 0 -245 65.5t-175.5 177t-63.5 241.5h50q0 -180 127 -308t307 -128q217 0 325.5 154t108.5 432v780h50v-780q0 -298 -124 -466t-360 -168z" />
    <glyph glyph-name="K" unicode="K" horiz-adv-x="1274" 
d="M249 392v-392h-50v1400h50v-934l904 936h66l2 -2l-634 -658l638 -742h-68l-606 704z" />
    <glyph glyph-name="L" unicode="L" horiz-adv-x="1249" 
d="M1147 48v-48h-948v1400h50v-1352h898z" />
    <glyph glyph-name="M" unicode="M" horiz-adv-x="1668" 
d="M249 1285v-1285h-50v1400h51l585 -1337l584 1337h51v-1400h-50v1285l-559 -1284l1 -1h-55l1 1z" />
    <glyph glyph-name="N" unicode="N" horiz-adv-x="1415" 
d="M249 1312v-1312h-50v1400h50l918 -1318v1318h50v-1400h-52z" />
    <glyph glyph-name="O" unicode="O" horiz-adv-x="1635" 
d="M818 -14q-294 0 -496 208q-131 137 -177.5 322t0.5 370t179 322q202 208 494 208q189 0 348.5 -95t252.5 -259.5t93 -361.5q0 -196 -91 -360t-250.5 -259t-352.5 -95zM818 36q180 0 327.5 88.5t231 240.5t83.5 335q0 182 -84.5 335t-232 242t-325.5 89q-180 0 -328 -89
t-232 -241.5t-84 -335.5q0 -182 83.5 -334t231.5 -241t329 -89z" />
    <glyph glyph-name="P" unicode="P" horiz-adv-x="1289" 
d="M249 594v-594h-50v1400h576q185 0 290.5 -113.5t105.5 -290.5q0 -175 -105.5 -288.5t-290.5 -113.5h-526zM775 1352h-526v-710h526q164 0 255 99.5t91 256.5q0 156 -91 255t-255 99z" />
    <glyph glyph-name="Q" unicode="Q" horiz-adv-x="1635" 
d="M818 -14q-294 0 -496 208q-131 137 -177.5 322t0.5 370t179 322q202 208 494 208q189 0 348.5 -95t252.5 -259.5t93 -361.5q0 -148 -54 -280t-150 -230l194 -190h-68l-160 156q-196 -170 -456 -170zM818 36q242 0 420 156l-230 224h68l196 -192q90 91 139 214t49 262
q0 182 -84.5 335t-232 242t-325.5 89q-180 0 -328 -89t-232 -241.5t-84 -335.5q0 -182 83.5 -334t231.5 -241t329 -89z" />
    <glyph glyph-name="R" unicode="R" horiz-adv-x="1243" 
d="M249 594v-594h-50v1400h576q185 0 290.5 -113.5t105.5 -290.5q0 -172 -101 -284t-279 -118l384 -594h-58l-388 594h-480zM775 1352h-526v-710h526q164 0 255 99.5t91 256.5q0 156 -91 255t-255 99z" />
    <glyph glyph-name="S" unicode="S" horiz-adv-x="1292" 
d="M646 -20q-285 0 -436 162q-82 88 -82 210h46q0 -99 68.5 -175t175 -113.5t228.5 -37.5t228 37.5t174.5 113t69.5 173.5q-1 129 -107 207.5t-341 128.5q-219 46 -338 94q-204 83 -204 266q0 122 82 210q151 162 436 162t436 -162q82 -88 82 -210h-46q0 99 -68.5 175
t-175 113.5t-228.5 37.5t-228.5 -37.5t-175 -113.5t-68.5 -175q0 -53 25 -98.5t65 -75.5q37 -29 110 -56q45 -17 92 -31t81.5 -22t118.5 -27q270 -58 383 -146t115 -238q0 -122 -82 -210q-151 -162 -436 -162z" />
    <glyph glyph-name="T" unicode="T" horiz-adv-x="1296" 
d="M681 1352v-1352h-50v1352h-530v48h1096v-48h-516z" />
    <glyph glyph-name="U" unicode="U" horiz-adv-x="1518" 
d="M759 -16q-113 0 -204 34q-102 35 -178 100q-84 67 -131 184.5t-47 267.5v830h50v-830q0 -135 45.5 -242.5t122.5 -169.5q151 -124 342 -124q193 0 344 124q77 61 121.5 169t44.5 243v830h50v-830q0 -151 -48 -268q-87 -211 -308 -284q-99 -34 -204 -34z" />
    <glyph glyph-name="V" unicode="V" horiz-adv-x="1395" 
d="M1349 1400l-638 -1400h-28l-638 1400h54l598 -1308l598 1308h54z" />
    <glyph glyph-name="W" unicode="W" horiz-adv-x="1670" 
d="M835 1314l-394 -1314h-52l-352 1400h54l326 -1302l392 1302h52l392 -1302l326 1302h54l-352 -1400h-52z" />
    <glyph glyph-name="X" unicode="X" horiz-adv-x="1250" 
d="M627 660l-518 -660h-60l548 700l-548 700h60l518 -660l514 660h60l-546 -700l546 -698h-60z" />
    <glyph glyph-name="Y" unicode="Y" horiz-adv-x="1258" 
d="M656 498v-498h-50v500l-558 900h60l522 -850l520 850h60z" />
    <glyph glyph-name="Z" unicode="Z" horiz-adv-x="1262" 
d="M1122 48v-48h-992v48l948 1304h-946v48h1006v-46l-950 -1306h934z" />
    <glyph glyph-name="bracketleft" unicode="[" horiz-adv-x="900" 
d="M770 -210v-50h-540v1762h540v-48h-490v-1664h490z" />
    <glyph glyph-name="backslash" unicode="\" horiz-adv-x="714" 
d="M99 1400l572 -1400h-56l-572 1400h56z" />
    <glyph glyph-name="bracketright" unicode="]" horiz-adv-x="900" 
d="M670 1502v-1762h-540v50h490v1664h-490v48h540z" />
    <glyph glyph-name="asciicircum" unicode="^" horiz-adv-x="955" 
d="M461 1353l-330 -593h-56l360 640h52l360 -640h-56z" />
    <glyph glyph-name="underscore" unicode="_" horiz-adv-x="905" 
d="M925 0v-48h-946v48h946z" />
    <glyph glyph-name="a" unicode="a" horiz-adv-x="1208" 
d="M517 -8q-184 0 -295 81t-113 213q-2 124 92.5 199.5t307.5 76.5l480 2v164q0 140 -115 220t-295 80q-154 0 -257.5 -59t-122.5 -179h-50q17 138 135.5 213t294.5 75q192 0 319 -86.5t139 -229.5l2 -762h-50v280q-35 -79 -100 -150q-57 -63 -155 -100.5t-217 -37.5z
M517 42q219 0 345.5 129.5t126.5 342.5l-480 -2q-126 -1 -208 -33.5t-113.5 -81t-28.5 -111.5q4 -111 104 -177.5t254 -66.5z" />
    <glyph glyph-name="b" unicode="b" horiz-adv-x="1355" 
d="M709 -18q-161 0 -293 86t-197 230v-298h-50v1400h50v-640q65 144 197 230t293 86q149 0 273.5 -73t195.5 -199t71 -276q0 -149 -71.5 -274.5t-196 -198.5t-272.5 -73zM709 30q204 0 346 145t142 353q0 138 -65.5 253.5t-177.5 181t-245 65.5q-204 0 -347 -146t-143 -354
q0 -205 144 -352q140 -146 346 -146z" />
    <glyph glyph-name="c" unicode="c" horiz-adv-x="1246" 
d="M645 -16q-149 0 -273.5 73t-195.5 199t-71 276q0 228 158 386q157 160 382 160q168 0 302.5 -91.5t197.5 -240.5h-58q-60 127 -178.5 204.5t-263.5 77.5q-205 0 -346.5 -143.5t-141.5 -352.5q0 -210 142 -354t346 -144q145 0 263.5 77.5t178.5 204.5h58
q-63 -149 -197.5 -240.5t-302.5 -91.5z" />
    <glyph glyph-name="d" unicode="d" horiz-adv-x="1354" 
d="M645 -18q-148 0 -272.5 73t-196 198.5t-71.5 274.5q0 229 156 388q157 160 384 160q161 0 293 -86t197 -230v640h50v-1400h-50v298q-65 -144 -197 -230t-293 -86zM645 30q134 0 247 67t178 181.5t65 249.5q0 208 -143 354t-347 146q-133 0 -245 -65.5t-177.5 -181
t-65.5 -253.5q0 -207 142 -352q140 -146 346 -146z" />
    <glyph glyph-name="e" unicode="e" horiz-adv-x="1275" 
d="M645 -16q-149 0 -273.5 73t-195.5 199t-71 276q0 228 158 386q157 160 382 160q212 0 362.5 -146t167.5 -358q2 -18 2 -58h-1020q4 -135 70.5 -245.5t177 -173.5t240.5 -63q135 0 249.5 68.5t176.5 183.5h58q-68 -138 -198 -220t-286 -82zM157 564h966
q-12 197 -148.5 330.5t-329.5 133.5q-196 0 -336 -133.5t-152 -330.5z" />
    <glyph glyph-name="f" unicode="f" horiz-adv-x="859" 
d="M425 1012v-1012h-50v1012h-280v48h280v36q0 324 298 324q77 0 166 -20v-50q-94 22 -160 22q-254 0 -254 -278v-34h404v-48h-404z" />
    <glyph glyph-name="g" unicode="g" horiz-adv-x="1353" 
d="M671 -454q-118 0 -222.5 41t-182 124.5t-101.5 196.5h50q39 -146 169 -230t287 -84q160 0 298 106q74 57 119.5 171.5t46.5 266.5v188q-66 -139 -197.5 -220.5t-292.5 -81.5q-150 0 -274 68t-195 189.5t-71 270.5q0 223 156 374.5t384 151.5q162 0 293.5 -81t196.5 -219
v282h50v-900q0 -139 -32.5 -252t-87.5 -182q-53 -65 -124 -108q-123 -72 -270 -72zM645 72q205 0 347.5 138t142.5 342q0 202 -142 340t-348 138q-135 0 -247 -62t-176.5 -171.5t-64.5 -244.5q0 -210 142 -346q140 -134 346 -134z" />
    <glyph glyph-name="h" unicode="h" horiz-adv-x="1278" 
d="M219 536v-536h-50v1400h50v-608q51 126 167 206t267 80q193 0 324.5 -125.5t131.5 -328.5v-624h-50v596q0 200 -115.5 317t-290.5 117q-188 0 -311 -138t-123 -356z" />
    <glyph glyph-name="i" unicode="i" horiz-adv-x="407" 
d="M249 1316q-29 -29 -68.5 -14t-39.5 58q0 28 16.5 45t45.5 17q43 0 58.5 -39.5t-12.5 -66.5zM227 1060v-1060h-50v1060h50z" />
    <glyph glyph-name="j" unicode="j" horiz-adv-x="548" 
d="M387 1316q-29 -29 -67.5 -13.5t-38.5 57.5q0 28 18 45t44 17q42 0 58 -40t-14 -66zM103 -424l-144 2v48l138 -2q38 -1 66 3.5t59 21t51 45.5t33 81.5t13 124.5v1160h50v-1162q0 -79 -14.5 -137.5t-38 -93.5t-59 -56t-72 -28t-82.5 -7z" />
    <glyph glyph-name="k" unicode="k" horiz-adv-x="1079" 
d="M219 212v-212h-50v1400h50v-1114l750 776h70l-482 -500l482 -560h-68l-450 522z" />
    <glyph glyph-name="l" unicode="l" horiz-adv-x="388" 
d="M219 1400v-1400h-50v1400h50z" />
    <glyph glyph-name="m" unicode="m" horiz-adv-x="1928" 
d="M219 594v-594h-50v1060h50v-252q37 119 139.5 194.5t238.5 75.5q139 0 237.5 -82t134.5 -232q34 143 143 228.5t255 85.5q177 0 284.5 -121.5t107.5 -332.5v-624h-50v596q0 207 -92 320.5t-250 113.5q-112 0 -199.5 -61t-133 -159.5t-45.5 -215.5v-594h-50v596
q0 204 -94 319t-248 115q-112 0 -199.5 -61t-133 -159.5t-45.5 -215.5z" />
    <glyph glyph-name="n" unicode="n" horiz-adv-x="1278" 
d="M219 536v-536h-50v1060h50v-268q51 126 167 206t267 80q193 0 324.5 -125.5t131.5 -328.5v-624h-50v596q0 200 -115.5 317t-290.5 117q-188 0 -311 -138t-123 -356z" />
    <glyph glyph-name="o" unicode="o" horiz-adv-x="1285" 
d="M645 -16q-149 0 -273.5 73t-195.5 199t-71 276q0 228 158 386q157 160 382 160q149 0 274 -74t196.5 -199.5t71.5 -272.5q0 -149 -72 -275t-197 -199.5t-273 -73.5zM645 34q135 0 247.5 66t177.5 180.5t65 251.5q0 135 -65.5 249t-178 180.5t-246.5 66.5
q-205 0 -346.5 -143.5t-141.5 -352.5q0 -210 142 -354t346 -144z" />
    <glyph glyph-name="p" unicode="p" horiz-adv-x="1355" 
d="M219 296v-716h-50v1480h50v-294q67 141 198.5 226.5t291.5 85.5q148 0 272.5 -73t196 -198.5t71.5 -274.5q0 -150 -71 -276t-195.5 -199t-273.5 -73q-160 0 -291.5 85.5t-198.5 226.5zM709 32q133 0 245 65.5t177.5 181t65.5 253.5q0 208 -142 353t-346 145
q-134 0 -247 -67t-178 -181.5t-65 -249.5q0 -207 144 -354q140 -146 346 -146z" />
    <glyph glyph-name="q" unicode="q" horiz-adv-x="1354" 
d="M1185 1060v-1480h-50v716q-67 -141 -198.5 -226.5t-291.5 -85.5q-149 0 -273.5 73t-195.5 199t-71 276q0 228 158 386q157 160 382 160q160 0 291.5 -85.5t198.5 -226.5v294h50zM645 32q204 0 347 146t143 354q0 135 -65 249.5t-178 181.5t-247 67q-204 0 -346 -145
t-142 -353q0 -138 65.5 -253.5t177.5 -181t245 -65.5z" />
    <glyph glyph-name="r" unicode="r" horiz-adv-x="751" 
d="M219 522v-522h-50v1060h50v-282q51 124 160.5 205t251.5 81h82v-48h-60q-188 0 -311 -138t-123 -356z" />
    <glyph glyph-name="s" unicode="s" horiz-adv-x="1014" 
d="M509 -20q-169 0 -283.5 80t-114.5 214h46q-1 -112 103.5 -180t248.5 -68q93 0 171.5 27.5t129 83.5t51.5 129q-1 95 -80 153.5t-254 96.5q-175 36 -260 70q-156 66 -156 208q0 87 56 154t146 100.5t196 33.5q169 0 283.5 -80t114.5 -214h-46q1 112 -103.5 180t-248.5 68
q-93 0 -172 -27.5t-129.5 -84t-50.5 -130.5q0 -38 17.5 -72t46.5 -54q26 -18 84 -42q75 -28 218 -62q208 -43 296 -111.5t88 -184.5q0 -87 -56 -154t-146 -100.5t-196 -33.5z" />
    <glyph glyph-name="t" unicode="t" horiz-adv-x="845" 
d="M745 32v-48l-144 -2q-46 -1 -82.5 6t-72 28t-59 56t-38 94t-14.5 138v708h-260v48h260v340h50v-340h384v-48h-384v-706q0 -72 13 -124.5t33 -81.5t51 -45.5t59 -21t66 -3.5z" />
    <glyph glyph-name="u" unicode="u" horiz-adv-x="1278" 
d="M625 -18q-193 0 -324.5 125.5t-131.5 328.5v624h50v-596q0 -200 115.5 -317t290.5 -117q188 0 311 138t123 356v536h50v-1060h-50v268q-51 -126 -167 -206t-267 -80z" />
    <glyph glyph-name="v" unicode="v" horiz-adv-x="1149" 
d="M1073 1062l-484 -1062h-28l-484 1062h54l444 -970l444 970h54z" />
    <glyph glyph-name="w" unicode="w" horiz-adv-x="1375" 
d="M687 978l-296 -982h-46l-268 1068h52l240 -974l296 974h44l296 -974l240 974h52l-268 -1068h-46z" />
    <glyph glyph-name="x" unicode="x" horiz-adv-x="1083" 
d="M543 490l-384 -490h-60l414 530l-414 530h60l384 -490l382 490h60l-414 -530l414 -530h-60z" />
    <glyph glyph-name="y" unicode="y" horiz-adv-x="1149" 
d="M1073 1062l-676 -1482h-56l206 450l-470 1032h54l444 -970l444 970h54z" />
    <glyph glyph-name="z" unicode="z" horiz-adv-x="1042" 
d="M921 48v-48h-790v48l746 964h-744v48h804v-46l-746 -966h730z" />
    <glyph glyph-name="braceleft" unicode="{" horiz-adv-x="807" 
d="M677 -210v-48h-70q-139 0 -196.5 90t-57.5 308v46q0 261 -16 300q-18 42 -32.5 60t-45.5 28t-90 10h-22v86h16q120 0 156 54q34 56 34 266v124q0 218 57.5 308t196.5 90h70v-48h-70q-118 0 -162 -75t-44 -275q0 -283 -14 -342q-21 -113 -116 -138l-24 -6q80 -13 110 -66
q27 -52 35.5 -103t8.5 -133v-186q0 -200 44 -275t162 -75h70z" />
    <glyph glyph-name="bar" unicode="|" horiz-adv-x="534" 
d="M292 1400v-1820h-50v1820h50z" />
    <glyph glyph-name="braceright" unicode="}" horiz-adv-x="806" 
d="M200 -258h-70v48h70q118 0 162 75t44 275v60q0 251 24 320q30 90 130 108q-106 18 -136 120q-18 69 -18 332v34q0 200 -44 275t-162 75h-70v48h70q139 0 196.5 -90t57.5 -308v-42q0 -278 20 -318q25 -48 54.5 -66t93.5 -18h38v-86h-40q-108 -3 -140 -70q-26 -58 -26 -294
v-80q0 -218 -57.5 -308t-196.5 -90z" />
    <glyph glyph-name="asciitilde" unicode="~" horiz-adv-x="1062" 
d="M216 414h-48q6 106 63 172t143 66q42 0 77 -17.5t60 -43l50 -51t58 -43t73 -17.5q71 0 112 54t42 154h48q-1 -115 -57 -185.5t-145 -70.5q-42 0 -76.5 17.5t-59.5 43l-50 51t-58.5 43t-73.5 17.5q-70 0 -111 -49t-47 -141z" />
    <glyph glyph-name="exclamdown" unicode="&#xa1;" horiz-adv-x="524" 
d="M262 956q-26 0 -43 17t-17 43q0 40 38 55.5t66 -13.5q27 -27 11.5 -64.5t-55.5 -37.5zM288 334v-674h-50v674l8 462h34z" />
    <glyph glyph-name="cent" unicode="&#xa2;" horiz-adv-x="1238" 
d="M673 154v-152h-50v152q-144 5 -263.5 81t-187 200t-67.5 267q0 219 150 378q147 159 366 168v162h54v-162q156 -7 281 -98.5t181 -235.5h-56q-59 129 -176.5 206.5t-259.5 77.5q-205 0 -346.5 -143.5t-141.5 -352.5q0 -210 142 -354t346 -144q142 0 259.5 77.5
t176.5 206.5h56q-59 -145 -183.5 -236t-280.5 -98z" />
    <glyph glyph-name="sterling" unicode="&#xa3;" horiz-adv-x="1171" 
d="M981 50v-50h-844v50q134 180 160 284q26 101 26 184q0 48 -10 108l-178 2v50h166q-10 39 -35 114t-37 132t-12 122q0 176 112 274t286 98q161 0 267.5 -85t128.5 -247h-50q-22 136 -116.5 209t-229.5 73q-148 0 -244.5 -85t-97.5 -237q0 -58 13.5 -117.5t38 -135.5
t34.5 -117l462 -2v-50l-450 2q10 -57 10 -102q0 -226 -176 -474h776z" />
    <glyph glyph-name="currency" unicode="&#xa4;" horiz-adv-x="970" 
d="M297 568l-168 -168l-36 36l168 168q-68 80 -68 186q0 107 66 188l-166 166l36 36l166 -166q78 66 184 66h58q55 -3 134 -70l168 168l34 -36l-168 -168q64 -76 64 -180v-54q-3 -56 -70 -132l172 -172l-34 -34l-172 172q-77 -68 -132 -68l-56 -2q-104 0 -180 64zM477 550
q39 4 87 26.5t89.5 62.5t64.5 88t8 110.5t-75 122.5q-71 71 -122 74h-50q-96 0 -168 -72q-72 -75 -72 -172q0 -99 74 -170q70 -70 164 -70z" />
    <glyph glyph-name="yen" unicode="&#xa5;" horiz-adv-x="1207" 
d="M631 250v-250h-50v250h-384l-2 48h386v198h-384l-2 48h358l-530 856h60l522 -850l520 850h60l-526 -854h374v-50h-402v-196h402v-50h-402z" />
    <glyph glyph-name="brokenbar" unicode="&#xa6;" horiz-adv-x="370" 
d="M210 1400v-726h-50v726h50zM210 308v-726h-50v726h50z" />
    <glyph glyph-name="section" unicode="&#xa7;" horiz-adv-x="986" 
d="M496 -244q-175 0 -278 82.5t-110 233.5h50q8 -89 56 -149.5t118.5 -88t161.5 -30.5h18q134 0 220 58t86 152q0 41 -19.5 73t-47 52.5t-76.5 38t-89 27t-104 21.5q-366 72 -366 278q0 209 282 254q-154 43 -218 94.5t-64 139.5q0 118 106.5 189t265.5 71q102 0 188 -37
t141.5 -110.5t60.5 -170.5h-50q-8 89 -56 149.5t-119 88t-163 30.5h-18q-134 0 -220 -58t-86 -152q0 -164 336 -212q366 -51 366 -276q0 -104 -77.5 -170t-204.5 -86q151 -32 216.5 -86t65.5 -148q0 -127 -102 -192.5t-270 -65.5zM502 282q133 0 224.5 64t91.5 158
q0 100 -92.5 160t-241.5 60q-131 0 -224.5 -62.5t-93.5 -157.5q0 -94 99 -158t237 -64z" />
    <glyph glyph-name="copyright" unicode="&#xa9;" horiz-adv-x="1398" 
d="M698 324q-149 0 -275 74t-198.5 199.5t-72.5 272.5q0 231 162 390q158 158 384 158q147 0 272.5 -73t199.5 -199.5t74 -275.5q0 -226 -160 -386t-386 -160zM698 372q138 0 251.5 65t178 178.5t64.5 250.5q0 211 -143.5 357.5t-352.5 146.5q-137 0 -250.5 -66.5
t-178.5 -181.5t-65 -252q0 -210 144 -354q141 -144 352 -144zM704 568q-124 0 -211 88t-87 214q0 124 88 212t210 88q92 0 167.5 -54t106.5 -144h-50q-28 70 -89 111t-135 41q-104 0 -177 -74t-73 -180q0 -108 72 -182t178 -74q74 0 135 41t89 111h50q-32 -90 -106 -144
t-168 -54z" />
    <glyph glyph-name="ordfeminine" unicode="&#xaa;" horiz-adv-x="402" 
d="M168 1024q-62 0 -101.5 30.5t-40.5 79.5v10q0 54 46 88q53 34 138 34h124v28q0 42 -36.5 68t-97.5 26q-120 0 -126 -82h-34q1 55 44.5 87.5t115.5 32.5q74 0 122 -36t48 -94v-266h-36v86q-59 -92 -166 -92zM168 1060q66 0 113.5 49.5t52.5 120.5l-124 -2
q-70 0 -109 -23.5t-39 -60.5v-8q4 -34 33 -55t73 -21z" />
    <glyph glyph-name="guillemotleft" unicode="&#xab;" horiz-adv-x="1118" 
d="M130 494l530 -436v-56l-560 462v62l560 460v-56zM488 494l530 -436v-56l-560 462v62l560 460v-56z" />
    <glyph glyph-name="registered" unicode="&#xae;" horiz-adv-x="1062" 
d="M530 702q-195 0 -318.5 126.5t-123.5 315.5q0 188 124 318q123 126 318 126q192 0 317 -127.5t125 -316.5q0 -188 -125 -315t-317 -127zM530 750q173 0 281.5 112t108.5 282q0 169 -109 282.5t-281 113.5q-171 0 -280.5 -114.5t-109.5 -281.5q0 -166 108 -280
q105 -114 282 -114zM418 1094v-208h-52v536h222q72 0 116 -45t44 -117q0 -60 -33 -103t-87 -57l138 -214h-62l-140 208h-146zM588 1370h-170v-222h156q75 0 107.5 55.5t5 111t-98.5 55.5z" />
    <glyph glyph-name="degree" unicode="&#xb0;" horiz-adv-x="790" 
d="M395 898q-108 0 -184 75.5t-76 182.5q0 108 76 184t184 76q107 0 183.5 -76t76.5 -184q0 -106 -76.5 -182t-183.5 -76zM395 946q89 0 150.5 61t61.5 147q0 90 -61 152t-151 62q-88 0 -148 -61t-62 -153v-6q0 -83 60 -140q62 -62 150 -62z" />
    <glyph glyph-name="plusminus" unicode="&#xb1;" horiz-adv-x="1250" 
d="M650 616v-394h-50v396h-394l2 48h394v394l48 -2v-392h394v-50h-394zM1042 48l2 -48l-838 -2v50h836z" />
    <glyph glyph-name="uni00B2" unicode="&#xb2;" horiz-adv-x="686" 
d="M586 742l-2 -48h-456v34l290 330q94 106 94 172t-46 107t-120 41q-82 0 -132 -50t-58 -136h-50q9 105 76 172q64 64 164 64q89 0 152.5 -54.5t63.5 -143.5q0 -82 -108 -202l-250 -286h382z" />
    <glyph glyph-name="uni00B3" unicode="&#xb3;" horiz-adv-x="688" 
d="M342 680q-102 0 -174 66t-78 168l50 2q6 -82 62.5 -134t139.5 -52q88 0 143 50t55 130q0 83 -64.5 123.5t-161.5 40.5q-18 0 -66 -4l-18 28l268 266h-378v48h446v-46l-248 -244h8q116 0 189 -58t73 -154q0 -102 -69 -166t-177 -64z" />
    <glyph glyph-name="paragraph" unicode="&#xb6;" horiz-adv-x="1260" 
d="M750 1400v-1400h-50v788q-102 0 -183 7.5t-159 29t-129.5 56t-83 91t-31.5 132.5q0 68 34.5 120.5t90.5 85t134.5 53.5t157.5 29t169 8h50zM1062 1400v-1400h-50v1400h50z" />
    <glyph glyph-name="periodcentered" unicode="&#xb7;" horiz-adv-x="494" 
d="M291 652q-29 -29 -66.5 -13.5t-37.5 55.5q0 26 17.5 43t42.5 17q40 0 55.5 -37.5t-11.5 -64.5z" />
    <glyph glyph-name="uni00B9" unicode="&#xb9;" horiz-adv-x="440" 
d="M310 1412v-726h-50v656l-160 -150l-34 34l194 182v4h50z" />
    <glyph glyph-name="ordmasculine" unicode="&#xba;" horiz-adv-x="518" 
d="M258 1014q-88 0 -148 61t-60 151q0 88 62 150q60 60 146 60t148 -62t62 -148q0 -87 -60 -150q-62 -62 -150 -62zM152 1116q26 -28 61 -39.5t69 -4.5t63 26.5t47 53t18 74.5q0 71 -47 111.5t-104 40.5t-104 -40t-47 -112q0 -66 44 -110z" />
    <glyph glyph-name="guillemotright" unicode="&#xbb;" horiz-adv-x="1118" 
d="M660 526v-62l-560 -462v56l530 436l-530 436v56zM1018 526v-62l-560 -462v56l530 436l-530 436v56z" />
    <glyph glyph-name="questiondown" unicode="&#xbf;" horiz-adv-x="1024" 
d="M593 972q-14 -14 -30.5 -17.5t-31 1.5t-26 16.5t-16.5 26t-1.5 31t17.5 30.5q21 21 46.5 19t41 -19.5t19.5 -41t-19 -46.5zM507 -360q-177 0 -294.5 112.5t-117.5 289.5q0 87 32 148q9 18 19 34t23.5 31l22.5 25t28 24.5t27 20.5t31.5 22t30.5 21q9 6 36.5 25.5
t36.5 26.5l31.5 24.5t31.5 27.5t25 27.5t23 33t15.5 35.5t11.5 42.5t3 47.5v156h50v-164q0 -165 -152 -264l-126 -84q-67 -46 -108.5 -114t-41.5 -154q0 -148 103.5 -246t258.5 -98q74 0 140 23.5t120 70t89 122t43 172.5h50q-12 -207 -135.5 -322.5t-306.5 -115.5z" />
    <glyph glyph-name="Agrave" unicode="&#xc0;" horiz-adv-x="1395" 
d="M557 1788l164 -236h-42l-188 236h66zM305 450l-206 -450h-54l638 1400h28l638 -1400h-54l-206 450h-784zM1067 498l-370 810l-370 -810h740z" />
    <glyph glyph-name="Aacute" unicode="&#xc1;" horiz-adv-x="1395" 
d="M901 1788l-198 -236h-42l164 236h76zM305 450l-206 -450h-54l638 1400h28l638 -1400h-54l-206 450h-784zM1067 498l-370 810l-370 -810h740z" />
    <glyph glyph-name="Acircumflex" unicode="&#xc2;" horiz-adv-x="1395" 
d="M703 1720l-142 -168h-66l174 206h67l174 -206h-66zM305 450l-206 -450h-54l638 1400h28l638 -1400h-54l-206 450h-784zM1067 498l-370 810l-370 -810h740z" />
    <glyph glyph-name="Atilde" unicode="&#xc3;" horiz-adv-x="1395" 
d="M855 1532q-38 0 -72.5 21.5t-61 52.5t-52 62t-57.5 52.5t-67 21.5q-58 0 -94.5 -47.5t-41.5 -124.5h-48q1 97 53.5 158.5t130.5 61.5q39 0 74 -21.5t61 -52.5t51.5 -62t57 -52.5t66.5 -21.5q57 0 94 50.5t38 137.5h48q-1 -105 -52 -170.5t-128 -65.5zM305 450l-206 -450
h-54l638 1400h28l638 -1400h-54l-206 450h-784zM1067 498l-370 810l-370 -810h740z" />
    <glyph glyph-name="Adieresis" unicode="&#xc4;" horiz-adv-x="1395" 
d="M527 1634q-17 -17 -37.5 -19t-36.5 8t-27 25.5t-8.5 36t19.5 37.5q15 17 34.5 19.5t35.5 -7.5t27 -25.5t10 -36t-17 -38.5zM959 1634q-29 -29 -67.5 -13.5t-38.5 57.5q0 26 18.5 44t43.5 18q42 0 57.5 -39t-13.5 -67zM305 450l-206 -450h-54l638 1400h28l638 -1400h-54
l-206 450h-784zM1067 498l-370 810l-370 -810h740z" />
    <glyph glyph-name="Aring" unicode="&#xc5;" horiz-adv-x="1395" 
d="M699 1502q-72 0 -121 48.5t-49 119.5q0 55 30.5 97t74.5 60t95.5 9.5t89.5 -46.5q31 -31 43 -70.5t4 -77t-29 -69.5t-57.5 -51.5t-80.5 -19.5zM699 1548q49 0 85.5 36t36.5 86q0 52 -36 88t-86 36q-51 0 -83 -35t-37 -89v-10q0 -44 32 -76q36 -36 88 -36zM305 450
l-206 -450h-54l638 1400h28l638 -1400h-54l-206 450h-784zM1067 498l-370 810l-370 -810h740z" />
    <glyph glyph-name="AE" unicode="&#xc6;" horiz-adv-x="1902" 
d="M305 450l-206 -450h-54l638 1400h1092v-48h-898v-628h754v-46h-754v-630h898v-48h-948v450h-522zM827 1352h-110l-390 -854h500v854z" />
    <glyph glyph-name="Ccedilla" unicode="&#xc7;" horiz-adv-x="1553" 
d="M688 -402q-64 0 -92 2v54q35 -8 86 -8q35 0 69 3t74.5 11.5t65.5 28t25 47.5q0 47 -74.5 88.5t-161.5 47.5l58 118q-242 24 -416 204q-131 137 -177.5 322t0.5 370t179 322q202 208 494 208q200 0 365.5 -106t252.5 -284l-50 -12q-81 160 -232.5 256t-335.5 96
q-180 0 -328 -89t-232 -241.5t-84 -335.5q0 -182 83.5 -334t231.5 -241t329 -89q184 0 335.5 96t232.5 256l50 -12q-87 -178 -252.5 -284t-365.5 -106h-34l-38 -78q105 -22 164.5 -70.5t59.5 -105.5q0 -43 -31.5 -72t-82.5 -41t-90 -16.5t-78 -4.5z" />
    <glyph glyph-name="Egrave" unicode="&#xc8;" horiz-adv-x="1274" 
d="M531 1788l164 -236h-42l-188 236h66zM1147 48v-48h-948v1400h948v-48h-898v-628h754v-46h-754v-630h898z" />
    <glyph glyph-name="Eacute" unicode="&#xc9;" horiz-adv-x="1274" 
d="M891 1788l-198 -236h-42l164 236h76zM1147 48v-48h-948v1400h948v-48h-898v-628h754v-46h-754v-630h898z" />
    <glyph glyph-name="Ecircumflex" unicode="&#xca;" horiz-adv-x="1274" 
d="M675 1720l-142 -168h-66l174 206h67l174 -206h-66zM1147 48v-48h-948v1400h948v-48h-898v-628h754v-46h-754v-630h898z" />
    <glyph glyph-name="Edieresis" unicode="&#xcb;" horiz-adv-x="1274" 
d="M935 1616q-21 -21 -47.5 -19.5t-42.5 19.5t-20 42t20 48q16 16 36 17.5t36 -9t26.5 -26.5t9 -36t-17.5 -36zM499 1616q-29 -29 -67.5 -13.5t-38.5 57.5q0 28 18 45t44 17q42 0 58 -40t-14 -66zM1147 48v-48h-948v1400h948v-48h-898v-628h754v-46h-754v-630h898z" />
    <glyph glyph-name="Igrave" unicode="&#xcc;" horiz-adv-x="425" 
d="M59 1788l164 -236h-42l-188 236h66zM227 1400v-1400h-50v1400h50z" />
    <glyph glyph-name="Iacute" unicode="&#xcd;" horiz-adv-x="445" 
d="M443 1788l-198 -236h-42l164 236h76zM249 1400v-1400h-50v1400h50z" />
    <glyph glyph-name="Icircumflex" unicode="&#xce;" horiz-adv-x="386" 
d="M196 1720l-142 -168h-66l174 206h67l174 -206h-66zM218 1400v-1400h-50v1400h50z" />
    <glyph glyph-name="Idieresis" unicode="&#xcf;" horiz-adv-x="582" 
d="M118 1634q-28 -29 -67 -13.5t-39 57.5q0 26 18 44t44 18q42 0 57.5 -39t-13.5 -67zM554 1634q-28 -29 -68 -13.5t-40 57.5q0 26 17 44t45 18q42 0 57.5 -38t-11.5 -68zM316 1400v-1400h-50v1400h50z" />
    <glyph glyph-name="Eth" unicode="&#xd0;" horiz-adv-x="1474" 
d="M637 0h-420v676h-210v48h210v676h420q200 0 363.5 -90.5t257 -251t93.5 -358.5t-92.5 -358.5t-256 -251t-365.5 -90.5zM713 676h-446v-628h370q141 0 264 49.5t209.5 136t136.5 207.5t50 259q0 139 -50.5 260t-137.5 207t-209.5 135.5t-262.5 49.5h-370v-628h446v-48z
" />
    <glyph glyph-name="Eth" unicode="&#xf0;" horiz-adv-x="1474" 
d="M637 0h-420v676h-210v48h210v676h420q200 0 363.5 -90.5t257 -251t93.5 -358.5t-92.5 -358.5t-256 -251t-365.5 -90.5zM713 676h-446v-628h370q141 0 264 49.5t209.5 136t136.5 207.5t50 259q0 139 -50.5 260t-137.5 207t-209.5 135.5t-262.5 49.5h-370v-628h446v-48z
" />
    <glyph glyph-name="Ntilde" unicode="&#xd1;" horiz-adv-x="1415" 
d="M855 1532q-38 0 -72.5 21.5t-61 52.5t-52 62t-57.5 52.5t-67 21.5q-58 0 -94.5 -47.5t-41.5 -124.5h-48q1 97 53.5 158.5t130.5 61.5q39 0 74 -21.5t61 -52.5t51.5 -62t57 -52.5t66.5 -21.5q57 0 94 50.5t38 137.5h48q-1 -105 -52 -170.5t-128 -65.5zM249 1312v-1312h-50
v1400h50l918 -1318v1318h50v-1400h-52z" />
    <glyph glyph-name="Ograve" unicode="&#xd2;" horiz-adv-x="1635" 
d="M684 1788l164 -236h-42l-188 236h66zM818 -14q-294 0 -496 208q-131 137 -177.5 322t0.5 370t179 322q202 208 494 208q189 0 348.5 -95t252.5 -259.5t93 -361.5q0 -196 -91 -360t-250.5 -259t-352.5 -95zM818 36q180 0 327.5 88.5t231 240.5t83.5 335q0 182 -84.5 335
t-232 242t-325.5 89q-180 0 -328 -89t-232 -241.5t-84 -335.5q0 -274 184 -470q182 -194 460 -194z" />
    <glyph glyph-name="Oacute" unicode="&#xd3;" horiz-adv-x="1635" 
d="M1044 1788l-198 -236h-42l164 236h76zM818 -14q-294 0 -496 208q-131 137 -177.5 322t0.5 370t179 322q202 208 494 208q189 0 348.5 -95t252.5 -259.5t93 -361.5q0 -196 -91 -360t-250.5 -259t-352.5 -95zM818 36q180 0 327.5 88.5t231 240.5t83.5 335q0 182 -84.5 335
t-232 242t-325.5 89q-180 0 -328 -89t-232 -241.5t-84 -335.5q0 -274 184 -470q182 -194 460 -194z" />
    <glyph glyph-name="Ocircumflex" unicode="&#xd4;" horiz-adv-x="1635" 
d="M829 1720l-142 -168h-66l174 206h67l174 -206h-66zM818 -14q-294 0 -496 208q-131 137 -177.5 322t0.5 370t179 322q202 208 494 208q189 0 348.5 -95t252.5 -259.5t93 -361.5q0 -196 -91 -360t-250.5 -259t-352.5 -95zM818 36q180 0 327.5 88.5t231 240.5t83.5 335
q0 182 -84.5 335t-232 242t-325.5 89q-180 0 -328 -89t-232 -241.5t-84 -335.5q0 -274 184 -470q182 -194 460 -194z" />
    <glyph glyph-name="Otilde" unicode="&#xd5;" horiz-adv-x="1636" 
d="M511 1522h-48q6 106 63 172t143 66q42 0 77 -17.5t60 -43l50 -51t58 -43t73 -17.5q71 0 112 54t42 154h48q-1 -115 -57 -185.5t-145 -70.5q-42 0 -76.5 17.5t-59.5 43l-50 51t-58.5 43t-73.5 17.5q-70 0 -111 -49t-47 -141zM819 -14q-194 0 -354 95t-251 259t-91 360
t91.5 360.5t251.5 260t353 95.5q189 0 348.5 -95t252.5 -259.5t93 -361.5q0 -196 -91 -360t-250.5 -259t-352.5 -95zM819 36q180 0 327.5 88.5t231 240.5t83.5 335q0 182 -84.5 335t-232 242t-325.5 89q-180 0 -328 -89t-232 -241.5t-84 -335.5q0 -274 184 -470
q182 -194 460 -194z" />
    <glyph glyph-name="Odieresis" unicode="&#xd6;" horiz-adv-x="1635" 
d="M652 1616q-28 -29 -67 -13.5t-39 57.5q0 28 18 45t44 17q42 0 58 -40t-14 -66zM1088 1616q-28 -29 -68 -14t-40 58q0 28 17 45t45 17q43 0 58.5 -39.5t-12.5 -66.5zM818 -14q-294 0 -496 208q-131 137 -177.5 322t0.5 370t179 322q202 208 494 208q189 0 348.5 -95
t252.5 -259.5t93 -361.5q0 -196 -91 -360t-250.5 -259t-352.5 -95zM818 36q180 0 327.5 88.5t231 240.5t83.5 335q0 182 -84.5 335t-232 242t-325.5 89q-180 0 -328 -89t-232 -241.5t-84 -335.5q0 -182 83.5 -334t231.5 -241t329 -89z" />
    <glyph glyph-name="multiply" unicode="&#xd7;" horiz-adv-x="1007" 
d="M537 566l266 -266l-34 -34l-266 266l-268 -264l-32 32l268 264l-268 268l34 34l268 -268l266 264l32 -32z" />
    <glyph glyph-name="Oslash" unicode="&#xd8;" horiz-adv-x="1636" 
d="M401 126l-120 -154l-38 28l120 154q-114 102 -177 244t-63 302q0 196 91.5 360.5t251.5 260t353 95.5q234 0 418 -142l120 154l38 -28l-122 -156q240 -213 240 -544q0 -196 -91 -360t-250.5 -259t-352.5 -95q-236 0 -418 140zM395 194l812 1040q-171 132 -388 132
q-180 0 -328 -89t-232 -241.5t-84 -335.5q0 -307 220 -506zM819 36q180 0 327.5 88.5t231 240.5t83.5 335q0 147 -57.5 279.5t-160.5 224.5l-812 -1040q170 -128 388 -128z" />
    <glyph glyph-name="Ugrave" unicode="&#xd9;" horiz-adv-x="1518" 
d="M627 1788l164 -236h-42l-188 236h66zM759 -16q-113 0 -204 34q-102 35 -178 100q-84 67 -131 184.5t-47 267.5v830h50v-830q0 -135 45.5 -242.5t122.5 -169.5q151 -124 342 -124q193 0 344 124q77 61 121.5 169t44.5 243v830h50v-830q0 -151 -48 -268q-87 -211 -308 -284
q-99 -34 -204 -34z" />
    <glyph glyph-name="Uacute" unicode="&#xda;" horiz-adv-x="1518" 
d="M987 1788l-198 -236h-42l164 236h76zM759 -16q-113 0 -204 34q-102 35 -178 100q-84 67 -131 184.5t-47 267.5v830h50v-830q0 -135 45.5 -242.5t122.5 -169.5q151 -124 342 -124q193 0 344 124q77 61 121.5 169t44.5 243v830h50v-830q0 -151 -48 -268q-87 -211 -308 -284
q-99 -34 -204 -34z" />
    <glyph glyph-name="Ucircumflex" unicode="&#xdb;" horiz-adv-x="1518" 
d="M773 1720l-142 -168h-66l174 206h67l174 -206h-66zM759 -16q-113 0 -204 34q-102 35 -178 100q-84 67 -131 184.5t-47 267.5v830h50v-830q0 -135 45.5 -242.5t122.5 -169.5q151 -124 342 -124q193 0 344 124q77 61 121.5 169t44.5 243v830h50v-830q0 -151 -48 -268
q-87 -211 -308 -284q-99 -34 -204 -34z" />
    <glyph glyph-name="Udieresis" unicode="&#xdc;" horiz-adv-x="1518" 
d="M597 1616q-21 -21 -47.5 -19.5t-42.5 19.5t-20 42t20 48q12 12 26 16t26.5 0.5t24 -11t19 -19t11 -24t-0.5 -26.5t-16 -26zM1029 1616q-29 -29 -67.5 -13.5t-38.5 57.5q0 28 18 45t44 17q42 0 58 -40t-14 -66zM759 -16q-113 0 -204 34q-102 35 -178 100
q-84 67 -131 184.5t-47 267.5v830h50v-830q0 -135 45.5 -242.5t122.5 -169.5q151 -124 342 -124q193 0 344 124q77 61 121.5 169t44.5 243v830h50v-830q0 -151 -48 -268q-87 -211 -308 -284q-99 -34 -204 -34z" />
    <glyph glyph-name="Yacute" unicode="&#xdd;" horiz-adv-x="1258" 
d="M848 1788l-198 -236h-42l164 236h76zM656 498v-498h-50v500l-558 900h60l522 -850l520 850h60z" />
    <glyph glyph-name="germandbls" unicode="&#xdf;" horiz-adv-x="1343" 
d="M249 1090v-1574h-50v1576q0 324 300 324h218q71 0 138.5 -13.5t127 -42t104 -68.5t70.5 -96t26 -122q0 -120 -80.5 -208t-203.5 -126q153 -40 234.5 -138t81.5 -234q0 -168 -142 -274q-149 -111 -356 -108l-230 2v46l230 -2q193 2 320.5 96t127.5 246q0 154 -123 246
t-325 94l-230 2v46h230q177 0 296.5 90t119.5 222q0 92 -61 159.5t-153.5 99.5t-201.5 33l-218 2q-250 3 -250 -278z" />
    <glyph glyph-name="agrave" unicode="&#xe0;" horiz-adv-x="1208" 
d="M431 1448l164 -236h-42l-188 236h66zM517 -8q-184 0 -295 81t-113 213q-2 124 92.5 199.5t307.5 76.5l480 2v164q0 140 -115 220t-295 80q-154 0 -257.5 -59t-122.5 -179h-50q17 138 135.5 213t294.5 75q192 0 319 -86.5t139 -229.5l2 -762h-50v280q-35 -79 -100 -150
q-57 -63 -155 -100.5t-217 -37.5zM517 42q219 0 345.5 129.5t126.5 342.5l-480 -2q-126 -1 -208 -33.5t-113.5 -81t-28.5 -111.5q4 -111 104 -177.5t254 -66.5z" />
    <glyph glyph-name="aacute" unicode="&#xe1;" horiz-adv-x="1208" 
d="M791 1448l-198 -236h-42l164 236h76zM517 -8q-184 0 -295 81t-113 213q-2 124 92.5 199.5t307.5 76.5l480 2v164q0 140 -115 220t-295 80q-154 0 -257.5 -59t-122.5 -179h-50q17 138 135.5 213t294.5 75q192 0 319 -86.5t139 -229.5l2 -762h-50v280q-35 -79 -100 -150
q-57 -63 -155 -100.5t-217 -37.5zM517 42q219 0 345.5 129.5t126.5 342.5l-480 -2q-126 -1 -208 -33.5t-113.5 -81t-28.5 -111.5q4 -111 104 -177.5t254 -66.5z" />
    <glyph glyph-name="acircumflex" unicode="&#xe2;" horiz-adv-x="1208" 
d="M572 1381l-142 -168h-66l174 206h67l174 -206h-66zM517 -8q-184 0 -295 81t-113 213q-2 125 92.5 200t307.5 76l480 2v164q0 140 -115 220t-295 80q-154 0 -257.5 -59t-122.5 -179h-50q17 138 135.5 213t294.5 75q192 0 319 -86.5t139 -229.5l2 -762h-50v280
q-35 -79 -100 -150q-57 -63 -155 -100.5t-217 -37.5zM517 42q219 0 345.5 129.5t126.5 342.5l-480 -2q-186 -1 -270.5 -64t-79.5 -162q4 -111 104 -177.5t254 -66.5z" />
    <glyph glyph-name="atilde" unicode="&#xe3;" horiz-adv-x="1208" 
d="M729 1192q-38 0 -72.5 21.5t-61 52.5t-52 62t-57.5 52.5t-67 21.5q-58 0 -94.5 -47.5t-41.5 -124.5h-48q1 97 53.5 158.5t130.5 61.5q39 0 74 -21.5t61 -52.5t51.5 -62t57 -52.5t66.5 -21.5q57 0 94 50.5t38 137.5h48q-1 -105 -52 -170.5t-128 -65.5zM517 -8
q-184 0 -295 81t-113 213q-2 124 92.5 199.5t307.5 76.5l480 2v164q0 140 -115 220t-295 80q-154 0 -257.5 -59t-122.5 -179h-50q17 138 135.5 213t294.5 75q192 0 319 -86.5t139 -229.5l2 -762h-50v280q-35 -79 -100 -150q-57 -63 -155 -100.5t-217 -37.5zM517 42
q219 0 345.5 129.5t126.5 342.5l-480 -2q-126 -1 -208 -33.5t-113.5 -81t-28.5 -111.5q4 -111 104 -177.5t254 -66.5z" />
    <glyph glyph-name="adieresis" unicode="&#xe4;" horiz-adv-x="1208" 
d="M399 1294q-12 -12 -26 -16.5t-27 -1.5t-24.5 10t-18.5 18.5t-10 24.5t1.5 27t16.5 26t26 16.5t27 1.5t24.5 -10t18.5 -18.5t10 -24.5t-1.5 -27t-16.5 -26zM835 1294q-17 -17 -37.5 -19t-36.5 8t-27 25.5t-8.5 36t19.5 37.5q15 17 34.5 19.5t35.5 -7.5t27 -25.5t10 -36
t-17 -38.5zM517 -8q-184 0 -295 81t-113 213q-2 124 92.5 199.5t307.5 76.5l480 2v164q0 140 -115 220t-295 80q-154 0 -257.5 -59t-122.5 -179h-50q17 138 135.5 213t294.5 75q192 0 319 -86.5t139 -229.5l2 -762h-50v280q-35 -79 -100 -150q-57 -63 -155 -100.5
t-217 -37.5zM517 42q219 0 345.5 129.5t126.5 342.5l-480 -2q-126 -1 -208 -33.5t-113.5 -81t-28.5 -111.5q4 -111 104 -177.5t254 -66.5z" />
    <glyph glyph-name="aring" unicode="&#xe5;" horiz-adv-x="1208" 
d="M573 1162q-72 0 -121 48.5t-49 119.5q0 55 30.5 97t74.5 60t95.5 9.5t89.5 -46.5q31 -31 43 -70.5t4 -77t-29 -69.5t-57.5 -51.5t-80.5 -19.5zM573 1208q49 0 85.5 36t36.5 86q0 52 -36 88t-86 36q-51 0 -83 -35t-37 -89v-10q0 -44 32 -76q36 -36 88 -36zM517 -8
q-184 0 -295 81t-113 213q-2 124 92.5 199.5t307.5 76.5l480 2v164q0 140 -115 220t-295 80q-154 0 -257.5 -59t-122.5 -179h-50q17 138 135.5 213t294.5 75q192 0 319 -86.5t139 -229.5l2 -762h-50v280q-35 -79 -100 -150q-57 -63 -155 -100.5t-217 -37.5zM517 42
q219 0 345.5 129.5t126.5 342.5l-480 -2q-126 -1 -208 -33.5t-113.5 -81t-28.5 -111.5q4 -111 104 -177.5t254 -66.5z" />
    <glyph glyph-name="ae" unicode="&#xe6;" horiz-adv-x="2159" 
d="M1529 -16q-180 0 -320.5 105.5t-193.5 276.5q-22 -120 -126 -236q-57 -63 -155 -100.5t-217 -37.5q-184 0 -295 81t-113 213q-2 124 92.5 199.5t307.5 76.5l480 2v164q0 140 -115 220t-295 80q-154 0 -257.5 -59t-122.5 -179h-50q17 138 135.5 213t294.5 75
q192 0 319 -86.5t139 -229.5q67 144 198.5 230t293.5 86q212 0 362.5 -146t167.5 -358q2 -18 2 -58h-1020q4 -135 70.5 -245.5t177 -173.5t240.5 -63q135 0 249.5 68.5t176.5 183.5h58q-68 -138 -198 -220t-286 -82zM1041 564h966q-12 197 -148.5 330.5t-329.5 133.5
q-196 0 -336 -133.5t-152 -330.5zM517 42q219 0 345.5 129.5t126.5 342.5l-480 -2q-126 -1 -208 -33.5t-113.5 -81t-28.5 -111.5q4 -111 104 -177.5t254 -66.5z" />
    <glyph glyph-name="ccedilla" unicode="&#xe7;" horiz-adv-x="1246" 
d="M525 -394q-64 0 -92 2v54q35 -8 86 -8q35 0 69 3t74.5 11.5t65.5 28t25 47.5q0 47 -74.5 88.5t-161.5 47.5l54 108q-201 27 -333.5 181.5t-132.5 362.5q0 228 158 386q157 160 382 160q168 0 302.5 -91.5t197.5 -240.5h-58q-60 127 -178.5 204.5t-263.5 77.5
q-205 0 -346.5 -143.5t-141.5 -352.5q0 -210 142 -354t346 -144q145 0 263.5 77.5t178.5 204.5h58q-63 -149 -197.5 -240.5t-302.5 -91.5h-30l-32 -68q105 -22 164.5 -70.5t59.5 -105.5q0 -43 -31.5 -72t-82.5 -41t-90 -16.5t-78 -4.5z" />
    <glyph glyph-name="egrave" unicode="&#xe8;" horiz-adv-x="1275" 
d="M493 1448l164 -236h-42l-188 236h66zM645 -16q-149 0 -273.5 73t-195.5 199t-71 276q0 228 158 386q157 160 382 160q212 0 362.5 -146t167.5 -358q2 -18 2 -58h-1020q4 -135 70.5 -245.5t177 -173.5t240.5 -63q135 0 249.5 68.5t176.5 183.5h58q-68 -138 -198 -220
t-286 -82zM157 564h966q-12 197 -148.5 330.5t-329.5 133.5q-196 0 -336 -133.5t-152 -330.5z" />
    <glyph glyph-name="eacute" unicode="&#xe9;" horiz-adv-x="1275" 
d="M853 1448l-198 -236h-42l164 236h76zM645 -16q-149 0 -273.5 73t-195.5 199t-71 276q0 228 158 386q157 160 382 160q212 0 362.5 -146t167.5 -358q2 -18 2 -58h-1020q4 -135 70.5 -245.5t177 -173.5t240.5 -63q135 0 249.5 68.5t176.5 183.5h58q-68 -138 -198 -220
t-286 -82zM157 564h966q-12 197 -148.5 330.5t-329.5 133.5q-196 0 -336 -133.5t-152 -330.5z" />
    <glyph glyph-name="ecircumflex" unicode="&#xea;" horiz-adv-x="1275" 
d="M637 1381l-142 -168h-66l174 206h67l174 -206h-66zM645 -16q-149 0 -273.5 73t-195.5 199t-71 276q0 228 158 386q157 160 382 160q212 0 362.5 -146t167.5 -358q2 -18 2 -58h-1020q4 -135 70.5 -245.5t177 -173.5t240.5 -63q135 0 249.5 68.5t176.5 183.5h58
q-68 -138 -198 -220t-286 -82zM157 564h966q-12 197 -148.5 330.5t-329.5 133.5q-196 0 -336 -133.5t-152 -330.5z" />
    <glyph glyph-name="edieresis" unicode="&#xeb;" horiz-adv-x="1275" 
d="M461 1294q-12 -12 -26 -16.5t-27 -1.5t-24.5 10t-18.5 18.5t-10 24.5t1.5 27t16.5 26t26 16.5t27 1.5t24.5 -10t18.5 -18.5t10 -24.5t-1.5 -27t-16.5 -26zM897 1294q-29 -29 -68.5 -13.5t-39.5 57.5q0 26 17 44t45 18q42 0 57.5 -38t-11.5 -68zM645 -16q-149 0 -273.5 73
t-195.5 199t-71 276q0 149 71.5 274.5t196 198.5t272.5 73q212 0 362.5 -146t167.5 -358q2 -18 2 -58h-1020q4 -135 70.5 -245.5t177 -173.5t240.5 -63q135 0 249.5 68.5t176.5 183.5h58q-68 -138 -198 -220t-286 -82zM157 564h966q-12 197 -148.5 330.5t-329.5 133.5
q-196 0 -336 -133.5t-152 -330.5z" />
    <glyph glyph-name="igrave" unicode="&#xec;" horiz-adv-x="364" 
d="M27 1448l164 -236h-42l-188 236h66zM195 1060v-1060h-50v1060h50z" />
    <glyph glyph-name="iacute" unicode="&#xed;" horiz-adv-x="383" 
d="M412 1448l-198 -236h-42l164 236h76zM218 1060v-1060h-50v1060h50z" />
    <glyph glyph-name="icircumflex" unicode="&#xee;" horiz-adv-x="321" 
d="M161 1381l-142 -168h-66l174 206h67l174 -206h-66zM185 1060v-1060h-50v1060h50z" />
    <glyph glyph-name="idieresis" unicode="&#xef;" horiz-adv-x="518" 
d="M86 1276q-28 -29 -67 -13.5t-39 57.5q0 28 18 45t44 17q42 0 58 -40t-14 -66zM522 1276q-28 -29 -68 -14t-40 58q0 28 17 45t45 17q43 0 58.5 -39.5t-12.5 -66.5zM284 1060v-1060h-50v1060h50z" />
    <glyph glyph-name="ntilde" unicode="&#xf1;" horiz-adv-x="1278" 
d="M333 1182h-48q6 105 64 172q57 66 142 66q42 0 77 -17.5t60 -43l50 -51t58 -43t73 -17.5q71 0 112 54t42 154h48q-1 -115 -57 -185.5t-145 -70.5q-42 0 -76.5 17.5t-59.5 43l-50 51t-58.5 43t-73.5 17.5q-70 0 -111 -49t-47 -141zM219 536v-536h-50v1060h50v-268
q51 126 167 206t267 80q193 0 324.5 -125.5t131.5 -328.5v-624h-50v596q0 200 -115.5 317t-290.5 117q-188 0 -311 -138t-123 -356z" />
    <glyph glyph-name="ograve" unicode="&#xf2;" horiz-adv-x="1285" 
d="M505 1448l164 -236h-42l-188 236h66zM645 -16q-149 0 -273.5 73t-195.5 199t-71 276q0 228 158 386q157 160 382 160q149 0 274 -74t196.5 -199.5t71.5 -272.5q0 -149 -72 -275t-197 -199.5t-273 -73.5zM645 34q135 0 247.5 66t177.5 180.5t65 251.5q0 135 -65.5 249
t-178 180.5t-246.5 66.5q-205 0 -346.5 -143.5t-141.5 -352.5q0 -213 144 -354q141 -144 344 -144z" />
    <glyph glyph-name="oacute" unicode="&#xf3;" horiz-adv-x="1285" 
d="M865 1448l-198 -236h-42l164 236h76zM645 -16q-149 0 -273.5 73t-195.5 199t-71 276q0 228 158 386q157 160 382 160q149 0 274 -74t196.5 -199.5t71.5 -272.5q0 -149 -72 -275t-197 -199.5t-273 -73.5zM645 34q135 0 247.5 66t177.5 180.5t65 251.5q0 135 -65.5 249
t-178 180.5t-246.5 66.5q-205 0 -346.5 -143.5t-141.5 -352.5q0 -213 144 -354q141 -144 344 -144z" />
    <glyph glyph-name="ocircumflex" unicode="&#xf4;" horiz-adv-x="1285" 
d="M649 1381l-142 -168h-66l174 206h67l174 -206h-66zM645 -16q-149 0 -273.5 73t-195.5 199t-71 276q0 228 158 386q157 160 382 160q149 0 274 -74t196.5 -199.5t71.5 -272.5q0 -149 -72 -275t-197 -199.5t-273 -73.5zM645 34q135 0 247.5 66t177.5 180.5t65 251.5
q0 135 -65.5 249t-178 180.5t-246.5 66.5q-205 0 -346.5 -143.5t-141.5 -352.5q0 -213 144 -354q141 -144 344 -144z" />
    <glyph glyph-name="otilde" unicode="&#xf5;" horiz-adv-x="1285" 
d="M329 1182h-48q6 106 63 172t143 66q42 0 77 -17.5t60 -43l50 -51t58 -43t73 -17.5q71 0 112 54t42 154h48q-1 -115 -57 -185.5t-145 -70.5q-42 0 -76.5 17.5t-59.5 43l-50 51t-58.5 43t-73.5 17.5q-70 0 -111 -49t-47 -141zM645 -16q-149 0 -273.5 73t-195.5 199t-71 276
q0 228 158 386q157 160 382 160q149 0 274 -74t196.5 -199.5t71.5 -272.5q0 -149 -72 -275t-197 -199.5t-273 -73.5zM645 34q135 0 247.5 66t177.5 180.5t65 251.5q0 135 -65.5 249t-178 180.5t-246.5 66.5q-205 0 -346.5 -143.5t-141.5 -352.5q0 -210 142 -354t346 -144z
" />
    <glyph glyph-name="odieresis" unicode="&#xf6;" horiz-adv-x="1285" 
d="M473 1276q-21 -21 -47.5 -19.5t-42.5 19.5t-20 42t20 48q16 16 36 17.5t36 -9t26.5 -26.5t9 -36t-17.5 -36zM905 1276q-17 -17 -37.5 -19.5t-36 8.5t-25.5 27t-8 36.5t19 37.5q18 16 38.5 17t36 -10t25.5 -27t7.5 -35.5t-19.5 -34.5zM645 -16q-149 0 -273.5 73
t-195.5 199t-71 276q0 228 158 386q157 160 382 160q149 0 274 -74t196.5 -199.5t71.5 -272.5q0 -149 -72 -275t-197 -199.5t-273 -73.5zM645 34q135 0 247.5 66t177.5 180.5t65 251.5q0 135 -65.5 249t-178 180.5t-246.5 66.5q-205 0 -346.5 -143.5t-141.5 -352.5
q0 -210 142 -354t346 -144z" />
    <glyph glyph-name="divide" unicode="&#xf7;" horiz-adv-x="1252" 
d="M1045 592l-2 -48h-836v50z" />
    <glyph glyph-name="oslash" unicode="&#xf8;" horiz-adv-x="1285" 
d="M321 92l-94 -120l-38 28l94 122q-178 163 -178 410q0 149 71.5 274.5t196 198.5t272.5 73q170 0 308 -96l84 106l38 -28l-84 -108q92 -77 144 -187t52 -233q0 -149 -72 -275t-197 -199.5t-273 -73.5q-183 0 -324 108zM315 162l608 780q-128 86 -278 86
q-205 0 -346.5 -143.5t-141.5 -352.5q0 -224 158 -370zM645 34q135 0 247.5 66t177.5 180.5t65 251.5q0 234 -176 380l-608 -780q128 -98 294 -98z" />
    <glyph glyph-name="ugrave" unicode="&#xf9;" horiz-adv-x="1278" 
d="M501 1448l164 -236h-42l-188 236h66zM625 -18q-193 0 -324.5 125.5t-131.5 328.5v624h50v-596q0 -200 115.5 -317t290.5 -117q188 0 311 138t123 356v536h50v-1060h-50v268q-51 -126 -167 -206t-267 -80z" />
    <glyph glyph-name="uacute" unicode="&#xfa;" horiz-adv-x="1278" 
d="M861 1448l-198 -236h-42l164 236h76zM625 -18q-193 0 -324.5 125.5t-131.5 328.5v624h50v-596q0 -200 115.5 -317t290.5 -117q188 0 311 138t123 356v536h50v-1060h-50v268q-51 -126 -167 -206t-267 -80z" />
    <glyph glyph-name="ucircumflex" unicode="&#xfb;" horiz-adv-x="1278" 
d="M649 1381l-142 -168h-66l174 206h67l174 -206h-66zM625 -18q-193 0 -324.5 125.5t-131.5 328.5v624h50v-596q0 -200 115.5 -317t290.5 -117q188 0 311 138t123 356v536h50v-1060h-50v268q-51 -126 -167 -206t-267 -80z" />
    <glyph glyph-name="udieresis" unicode="&#xfc;" horiz-adv-x="1278" 
d="M471 1276q-21 -21 -47.5 -19.5t-42.5 19.5t-20 42t20 48q16 16 36 17.5t36 -9t26.5 -26.5t9 -36t-17.5 -36zM903 1276q-29 -29 -67.5 -13.5t-38.5 57.5q0 28 18 45t44 17q42 0 58 -40t-14 -66zM625 -18q-193 0 -324.5 125.5t-131.5 328.5v624h50v-596q0 -200 115.5 -317
t290.5 -117q188 0 311 138t123 356v536h50v-1060h-50v268q-51 -126 -167 -206t-267 -80z" />
    <glyph glyph-name="yacute" unicode="&#xfd;" horiz-adv-x="1149" 
d="M795 1448l-198 -236h-42l164 236h76zM1073 1062l-676 -1482h-56l206 450l-470 1032h54l444 -970l444 970h54z" />
    <glyph glyph-name="ydieresis" unicode="&#xff;" horiz-adv-x="1149" 
d="M385 1294q-29 -29 -67.5 -13.5t-38.5 57.5q0 26 18.5 44t43.5 18q42 0 57.5 -39t-13.5 -67zM821 1294q-29 -29 -68.5 -13.5t-39.5 57.5q0 26 17 44t45 18q42 0 57.5 -38t-11.5 -68zM1073 1062l-676 -1482h-56l206 450l-470 1032h54l444 -970l444 970h54z" />
    <glyph glyph-name="Amacron" unicode="&#x100;" horiz-adv-x="1395" 
d="M963 1686v-48h-526v48h526zM305 450l-206 -450h-54l638 1400h28l638 -1400h-54l-206 450h-784zM1067 498l-370 810l-370 -810h740z" />
    <glyph glyph-name="amacron" unicode="&#x101;" horiz-adv-x="1208" 
d="M837 1346v-48h-526v48h526zM517 -8q-184 0 -295 81t-113 213q-2 124 92.5 199.5t307.5 76.5l480 2v164q0 140 -115 220t-295 80q-154 0 -257.5 -59t-122.5 -179h-50q17 138 135.5 213t294.5 75q192 0 319 -86.5t139 -229.5l2 -762h-50v280q-35 -79 -100 -150
q-57 -63 -155 -100.5t-217 -37.5zM517 42q219 0 345.5 129.5t126.5 342.5l-480 -2q-126 -1 -208 -33.5t-113.5 -81t-28.5 -111.5q4 -111 104 -177.5t254 -66.5z" />
    <glyph glyph-name="Abreve" unicode="&#x102;" horiz-adv-x="1395" 
d="M699 1552q108 0 182 68q72 69 72 168h-48q0 -61 -30.5 -105.5t-76.5 -64.5t-99 -20t-99 20t-76.5 64.5t-30.5 105.5h-48q0 -100 73 -168t181 -68zM305 450l-206 -450h-54l638 1400h28l638 -1400h-54l-206 450h-784zM1067 498l-370 810l-370 -810h740z" />
    <glyph glyph-name="abreve" unicode="&#x103;" horiz-adv-x="1208" 
d="M573 1212q108 0 182 68q72 69 72 168h-48q0 -46 -17.5 -83t-46.5 -60t-66 -35.5t-76 -12.5t-76 12.5t-66 35.5t-46.5 60t-17.5 83h-48q0 -100 73 -168t181 -68zM517 -8q-184 0 -295 81t-113 213q-2 124 92.5 199.5t307.5 76.5l480 2v164q0 140 -115 220t-295 80
q-154 0 -257.5 -59t-122.5 -179h-50q17 138 135.5 213t294.5 75q192 0 319 -86.5t139 -229.5l2 -762h-50v280q-35 -79 -100 -150q-57 -63 -155 -100.5t-217 -37.5zM517 42q219 0 345.5 129.5t126.5 342.5l-480 -2q-126 -1 -208 -33.5t-113.5 -81t-28.5 -111.5
q4 -111 104 -177.5t254 -66.5z" />
    <glyph glyph-name="Aogonek" unicode="&#x104;" horiz-adv-x="1513" 
d="M1539 -388v-48q-59 -13 -124.5 -15.5t-127.5 8t-111.5 32t-80 59.5t-30.5 88q0 74 58 138q44 49 98 87.5t74 38.5l-206 450h-784l-206 -450h-54l638 1400h28l638 -1400h-2l-22 -12q-41 -22 -85 -58t-82.5 -88.5t-38.5 -97.5q0 -42 27.5 -72.5t73 -45t90 -20.5t91.5 -6
q66 0 138 12zM1067 498l-370 810l-370 -810h740z" />
    <glyph glyph-name="aogonek" unicode="&#x105;" horiz-adv-x="1328" 
d="M1231 -388v-48q-59 -13 -124.5 -15.5t-127.5 8t-111.5 32t-80 59.5t-30.5 88q0 67 54.5 133.5t119.5 100.5l58 30v280q-35 -79 -100 -150q-57 -63 -155 -100.5t-217 -37.5q-184 0 -295 81t-113 213q-2 124 92.5 199.5t307.5 76.5l480 2v164q0 140 -115 220t-295 80
q-154 0 -257.5 -59t-122.5 -179h-50q17 138 135.5 213t294.5 75q192 0 319 -86.5t139 -229.5l2 -762q-1 0 -24 -14l-54 -36q-59 -42 -104.5 -97t-45.5 -109q0 -42 27.5 -72.5t73 -45t90 -20.5t91.5 -6q66 0 138 12zM517 42q219 0 345.5 129.5t126.5 342.5l-480 -2
q-126 -1 -208 -33.5t-113.5 -81t-28.5 -111.5q4 -111 104 -177.5t254 -66.5z" />
    <glyph glyph-name="Cacute" unicode="&#x106;" horiz-adv-x="1553" 
d="M1026 1788l-198 -236h-42l164 236h76zM818 -14q-294 0 -496 208q-131 137 -177.5 322t0.5 370t179 322q202 208 494 208q200 0 365.5 -106t252.5 -284l-50 -12q-81 160 -232.5 256t-335.5 96q-180 0 -328 -89t-232 -241.5t-84 -335.5q0 -182 83.5 -334t231.5 -241
t329 -89q184 0 335.5 96t232.5 256l50 -12q-87 -178 -252.5 -284t-365.5 -106z" />
    <glyph glyph-name="cacute" unicode="&#x107;" horiz-adv-x="1246" 
d="M857 1448l-198 -236h-42l164 236h76zM645 -16q-149 0 -273.5 73t-195.5 199t-71 276q0 228 158 386q157 160 382 160q168 0 302.5 -91.5t197.5 -240.5h-58q-60 127 -178.5 204.5t-263.5 77.5q-205 0 -346.5 -143.5t-141.5 -352.5q0 -210 142 -354t346 -144
q145 0 263.5 77.5t178.5 204.5h58q-63 -149 -197.5 -240.5t-302.5 -91.5z" />
    <glyph glyph-name="Cdotaccent" unicode="&#x10a;" horiz-adv-x="1553" 
d="M852 1620q-17 -17 -37.5 -19.5t-36 8.5t-25.5 27t-8 36.5t19 37.5q18 16 38.5 17t36 -10t25.5 -27t7.5 -35.5t-19.5 -34.5zM818 -14q-294 0 -496 208q-131 137 -177.5 322t0.5 370t179 322q202 208 494 208q200 0 365.5 -106t252.5 -284l-50 -12q-81 160 -232.5 256
t-335.5 96q-180 0 -328 -89t-232 -241.5t-84 -335.5q0 -182 83.5 -334t231.5 -241t329 -89q184 0 335.5 96t232.5 256l50 -12q-87 -178 -252.5 -284t-365.5 -106z" />
    <glyph glyph-name="cdotaccent" unicode="&#x10b;" horiz-adv-x="1246" 
d="M685 1280q-21 -21 -47.5 -19.5t-42.5 19.5t-20 42t20 48q20 20 45.5 17.5t41.5 -20.5t20.5 -41.5t-17.5 -45.5zM645 -16q-149 0 -273.5 73t-195.5 199t-71 276q0 228 158 386q157 160 382 160q168 0 302.5 -91.5t197.5 -240.5h-58q-60 127 -178.5 204.5t-263.5 77.5
q-205 0 -346.5 -143.5t-141.5 -352.5q0 -210 142 -354t346 -144q145 0 263.5 77.5t178.5 204.5h58q-63 -149 -197.5 -240.5t-302.5 -91.5z" />
    <glyph glyph-name="Ccaron" unicode="&#x10c;" horiz-adv-x="1553" 
d="M1018 1758l-174 -206h-67l-174 206h66l142 -168l141 168h66zM818 -14q-294 0 -496 208q-131 137 -177.5 322t0.5 370t179 322q202 208 494 208q200 0 365.5 -106t252.5 -284l-50 -12q-81 160 -232.5 256t-335.5 96q-180 0 -328 -89t-232 -241.5t-84 -335.5
q0 -182 83.5 -334t231.5 -241t329 -89q184 0 335.5 96t232.5 256l50 -12q-87 -178 -252.5 -284t-365.5 -106z" />
    <glyph glyph-name="ccaron" unicode="&#x10d;" horiz-adv-x="1246" 
d="M846 1417l-174 -206h-67l-174 206h66l142 -168l141 168h66zM645 -16q-149 0 -273.5 73t-195.5 199t-71 276q0 228 158 386q157 160 382 160q168 0 302.5 -91.5t197.5 -240.5h-58q-60 127 -178.5 204.5t-263.5 77.5q-205 0 -346.5 -143.5t-141.5 -352.5q0 -210 142 -354
t346 -144q145 0 263.5 77.5t178.5 204.5h58q-63 -149 -197.5 -240.5t-302.5 -91.5z" />
    <glyph glyph-name="Dcaron" unicode="&#x10e;" horiz-adv-x="1456" 
d="M929 1758l-174 -206h-67l-174 206h66l142 -168l141 168h66zM619 0h-420v1400h420q200 0 363.5 -90.5t257 -251t93.5 -358.5t-92.5 -358.5t-256 -251t-365.5 -90.5zM619 1352h-370v-1304h370q141 0 264 49.5t209.5 136t136.5 207.5t50 259q0 139 -50.5 260t-137.5 207
t-209.5 135.5t-262.5 49.5z" />
    <glyph glyph-name="Dcaron" unicode="&#x10f;" horiz-adv-x="1456" 
d="M929 1758l-174 -206h-67l-174 206h66l142 -168l141 168h66zM619 0h-420v1400h420q200 0 363.5 -90.5t257 -251t93.5 -358.5t-92.5 -358.5t-256 -251t-365.5 -90.5zM619 1352h-370v-1304h370q141 0 264 49.5t209.5 136t136.5 207.5t50 259q0 139 -50.5 260t-137.5 207
t-209.5 135.5t-262.5 49.5z" />
    <glyph glyph-name="Emacron" unicode="&#x112;" horiz-adv-x="1274" 
d="M935 1686v-48h-526v48h526zM1147 48v-48h-948v1400h948v-48h-898v-628h754v-46h-754v-630h898z" />
    <glyph glyph-name="emacron" unicode="&#x113;" horiz-adv-x="1275" 
d="M897 1346v-48h-526v48h526zM645 -16q-149 0 -273.5 73t-195.5 199t-71 276q0 228 158 386q157 160 382 160q212 0 362.5 -146t167.5 -358q2 -18 2 -58h-1020q4 -135 70.5 -245.5t177 -173.5t240.5 -63q135 0 249.5 68.5t176.5 183.5h58q-68 -138 -198 -220t-286 -82z
M157 564h966q-12 197 -148.5 330.5t-329.5 133.5q-196 0 -336 -133.5t-152 -330.5z" />
    <glyph glyph-name="Edotaccent" unicode="&#x116;" horiz-adv-x="1274" 
d="M719 1620q-29 -29 -68.5 -14t-39.5 58q0 28 16.5 45t45.5 17q43 0 58.5 -39.5t-12.5 -66.5zM1147 48v-48h-948v1400h948v-48h-898v-628h754v-46h-754v-630h898z" />
    <glyph glyph-name="edotaccent" unicode="&#x117;" horiz-adv-x="1275" 
d="M681 1280q-29 -29 -68.5 -14t-39.5 58q0 28 16.5 45t45.5 17q43 0 58.5 -39.5t-12.5 -66.5zM645 -16q-149 0 -273.5 73t-195.5 199t-71 276q0 228 158 386q157 160 382 160q212 0 362.5 -146t167.5 -358q2 -18 2 -58h-1020q4 -135 70.5 -245.5t177 -173.5t240.5 -63
q135 0 249.5 68.5t176.5 183.5h58q-68 -138 -198 -220t-286 -82zM157 564h966q-12 197 -148.5 330.5t-329.5 133.5q-196 0 -336 -133.5t-152 -330.5z" />
    <glyph glyph-name="Eogonek" unicode="&#x118;" horiz-adv-x="1305" 
d="M1249 -388v-48q-59 -13 -124.5 -15.5t-127.5 8t-111.5 32t-80 59.5t-30.5 88q0 72 60 138q42 48 93.5 83.5t78.5 42.5h-808v1400h948v-48h-898v-628h754v-46h-754v-630h898v-48h-90q-18 0 -56 -27t-76 -65.5t-67 -84.5t-29 -79q0 -42 27.5 -72.5t73 -45t90 -20.5t91.5 -6
q66 0 138 12z" />
    <glyph glyph-name="eogonek" unicode="&#x119;" horiz-adv-x="1275" 
d="M949 -388v-48q-59 -13 -124.5 -15.5t-127.5 8t-111.5 32t-80 59.5t-30.5 88q0 144 200 248h-30q-149 0 -273.5 73t-195.5 199t-71 276q0 149 71.5 274.5t196 198.5t272.5 73q212 0 362.5 -146t167.5 -358q2 -18 2 -58h-1020q4 -135 70.5 -245.5t177 -173.5t240.5 -63
q135 0 249.5 68.5t176.5 183.5h58q-56 -114 -158 -192t-228 -102q-80 -42 -147 -110.5t-67 -137.5q0 -42 27.5 -72.5t73 -45t90 -20.5t91.5 -6q66 0 138 12zM157 564h966q-12 197 -148.5 330.5t-329.5 133.5q-196 0 -336 -133.5t-152 -330.5z" />
    <glyph glyph-name="Ecaron" unicode="&#x11a;" horiz-adv-x="1274" 
d="M883 1758l-174 -206h-67l-174 206h66l142 -168l141 168h66zM1147 48v-48h-948v1400h948v-48h-898v-628h754v-46h-754v-630h898z" />
    <glyph glyph-name="ecaron" unicode="&#x11b;" horiz-adv-x="1275" 
d="M846 1417l-174 -206h-67l-174 206h66l142 -168l141 168h66zM645 -16q-149 0 -273.5 73t-195.5 199t-71 276q0 228 158 386q157 160 382 160q212 0 362.5 -146t167.5 -358q2 -18 2 -58h-1020q4 -135 70.5 -245.5t177 -173.5t240.5 -63q135 0 249.5 68.5t176.5 183.5h58
q-68 -138 -198 -220t-286 -82zM157 564h966q-12 197 -148.5 330.5t-329.5 133.5q-196 0 -336 -133.5t-152 -330.5z" />
    <glyph glyph-name="Gbreve" unicode="&#x11e;" horiz-adv-x="1609" 
d="M808 1552q108 0 182 68q72 69 72 168h-48q0 -61 -30.5 -105.5t-76.5 -64.5t-99 -20t-99 20t-76.5 64.5t-30.5 105.5h-48q0 -100 73 -168t181 -68zM818 -14q-294 0 -496 208q-131 137 -177.5 322t0.5 370t179 322q202 208 494 208q200 0 365.5 -106t252.5 -284l-50 -12
q-81 160 -232.5 256t-335.5 96q-181 0 -329 -89t-231.5 -241.5t-83.5 -335.5q0 -182 83.5 -334t231.5 -241t329 -89q172 0 306 80t209.5 219.5t84.5 318.5h-602v48h656v-4q0 -200 -81 -362t-231 -256t-342 -94z" />
    <glyph glyph-name="gbreve" unicode="&#x11f;" horiz-adv-x="1353" 
d="M645 1212q108 0 182 68q72 69 72 168h-48q0 -46 -17.5 -83t-46.5 -60t-66 -35.5t-76 -12.5t-76 12.5t-66 35.5t-46.5 60t-17.5 83h-48q0 -100 73 -168t181 -68zM671 -454q-118 0 -222.5 41t-182 124.5t-101.5 196.5h50q39 -146 169 -230t287 -84q160 0 298 106
q74 57 119.5 171.5t46.5 266.5v188q-66 -139 -197.5 -220.5t-292.5 -81.5q-150 0 -274 68t-195 189.5t-71 270.5q0 223 156 374.5t384 151.5q162 0 293.5 -81t196.5 -219v282h50v-900q0 -139 -32.5 -252t-87.5 -182q-53 -65 -124 -108q-123 -72 -270 -72zM645 72
q205 0 347.5 138t142.5 342q0 202 -142 340t-348 138q-135 0 -247 -62t-176.5 -171.5t-64.5 -244.5q0 -210 142 -346q140 -134 346 -134z" />
    <glyph glyph-name="Gdotaccent" unicode="&#x120;" horiz-adv-x="1609" 
d="M852 1620q-17 -17 -37.5 -19.5t-36 8.5t-25.5 27t-8 36.5t19 37.5q18 16 38.5 17t36 -10t25.5 -27t7.5 -35.5t-19.5 -34.5zM818 -14q-294 0 -496 208q-131 137 -177.5 322t0.5 370t179 322q202 208 494 208q200 0 365.5 -106t252.5 -284l-50 -12q-81 160 -232.5 256
t-335.5 96q-181 0 -329 -89t-231.5 -241.5t-83.5 -335.5q0 -182 83.5 -334t231.5 -241t329 -89q172 0 306 80t209.5 219.5t84.5 318.5h-602v48h656v-4q0 -200 -81 -362t-231 -256t-342 -94z" />
    <glyph glyph-name="gdotaccent" unicode="&#x121;" horiz-adv-x="1353" 
d="M689 1280q-29 -29 -67.5 -13.5t-38.5 57.5q0 28 18 45t44 17q42 0 58 -40t-14 -66zM671 -454q-118 0 -222.5 41t-182 124.5t-101.5 196.5h50q39 -146 169 -230t287 -84q160 0 298 106q74 57 119.5 171.5t46.5 266.5v188q-66 -139 -197.5 -220.5t-292.5 -81.5
q-150 0 -274 68t-195 189.5t-71 270.5q0 223 156 374.5t384 151.5q162 0 293.5 -81t196.5 -219v282h50v-900q0 -139 -32.5 -252t-87.5 -182q-53 -65 -124 -108q-123 -72 -270 -72zM645 72q205 0 347.5 138t142.5 342q0 202 -142 340t-348 138q-135 0 -247 -62t-176.5 -171.5
t-64.5 -244.5q0 -210 142 -346q140 -134 346 -134z" />
    <glyph glyph-name="Imacron" unicode="&#x12a;" horiz-adv-x="478" 
d="M501 1686v-48h-526v48h526zM263 1400v-1400h-50v1400h50z" />
    <glyph glyph-name="imacron" unicode="&#x12b;" horiz-adv-x="414" 
d="M469 1346v-48h-526v48h526zM231 1060v-1060h-50v1060h50z" />
    <glyph glyph-name="Iogonek" unicode="&#x12e;" horiz-adv-x="640" 
d="M574 -387v-48q-59 -13 -124.5 -15.5t-127.5 8t-111.5 32t-80 59.5t-30.5 88q0 45 23 89t59 75q30 29 80 62t67 38v1399h50v-1400h-4q-29 -7 -81.5 -50.5t-96 -103t-43.5 -101.5t27.5 -72.5t73 -45t90 -20.5t91.5 -6q66 0 138 12z" />
    <glyph glyph-name="iogonek" unicode="&#x12f;" horiz-adv-x="549" 
d="M302 1316q-21 -21 -47.5 -19.5t-42.5 19.5t-20 42t20 48q16 16 36 17.5t36 -9t26.5 -26.5t9 -36t-17.5 -36zM472 -388v-48q-59 -13 -124.5 -15.5t-127.5 8t-111.5 32t-80 59.5t-30.5 88q0 45 24 90q28 52 104.5 113t103.5 61v1060h50v-1060q-18 0 -56 -27t-76 -65.5
t-67 -84.5t-29 -79q0 -42 27.5 -72.5t73 -45t90 -20.5t91.5 -6q66 0 138 12z" />
    <glyph glyph-name="Idotaccent" unicode="&#x130;" horiz-adv-x="471" 
d="M281 1620q-29 -29 -68.5 -14t-39.5 58q0 28 16.5 45t45.5 17q43 0 58.5 -39.5t-12.5 -66.5zM259 1400v-1400h-50v1400h50z" />
    <glyph glyph-name="dotlessi" unicode="&#x131;" horiz-adv-x="350" 
d="M200 1060v-1060h-50v1060h50z" />
    <glyph glyph-name="Lacute" unicode="&#x139;" horiz-adv-x="1249" 
d="M861 1788l-198 -236h-42l164 236h76zM1147 48v-48h-948v1400h50v-1352h898z" />
    <glyph glyph-name="lacute" unicode="&#x13a;" horiz-adv-x="383" 
d="M413 1788l-198 -236h-42l164 236h76zM219 1400v-1400h-50v1400h50z" />
    <glyph glyph-name="Nacute" unicode="&#x143;" horiz-adv-x="1415" 
d="M917 1788l-198 -236h-42l164 236h76zM249 1312v-1312h-50v1400h50l918 -1318v1318h50v-1400h-52z" />
    <glyph glyph-name="nacute" unicode="&#x144;" horiz-adv-x="1278" 
d="M867 1448l-198 -236h-42l164 236h76zM219 536v-536h-50v1060h50v-268q51 126 167 206t267 80q193 0 324.5 -125.5t131.5 -328.5v-624h-50v596q0 200 -115.5 317t-290.5 117q-188 0 -311 -138t-123 -356z" />
    <glyph glyph-name="Ncaron" unicode="&#x147;" horiz-adv-x="1415" 
d="M906 1758l-174 -206h-67l-174 206h66l142 -168l141 168h66zM249 1312v-1312h-50v1400h50l918 -1318v1318h50v-1400h-52z" />
    <glyph glyph-name="ncaron" unicode="&#x148;" horiz-adv-x="1278" 
d="M858 1417l-174 -206h-67l-174 206h66l142 -168l141 168h66zM219 536v-536h-50v1060h50v-268q51 126 167 206t267 80q193 0 324.5 -125.5t131.5 -328.5v-624h-50v596q0 200 -115.5 317t-290.5 117q-188 0 -311 -138t-123 -356z" />
    <glyph glyph-name="Omacron" unicode="&#x14c;" horiz-adv-x="1635" 
d="M1090 1686v-48h-526v48h526zM818 -14q-294 0 -496 208q-131 137 -177.5 322t0.5 370t179 322q202 208 494 208q189 0 348.5 -95t252.5 -259.5t93 -361.5q0 -196 -91 -360t-250.5 -259t-352.5 -95zM818 36q180 0 327.5 88.5t231 240.5t83.5 335q0 182 -84.5 335t-232 242
t-325.5 89q-180 0 -328 -89t-232 -241.5t-84 -335.5q0 -274 184 -470q182 -194 460 -194z" />
    <glyph glyph-name="omacron" unicode="&#x14d;" horiz-adv-x="1285" 
d="M907 1346v-48h-526v48h526zM645 -16q-149 0 -273.5 73t-195.5 199t-71 276q0 228 158 386q157 160 382 160q149 0 274 -74t196.5 -199.5t71.5 -272.5q0 -149 -72 -275t-197 -199.5t-273 -73.5zM645 34q135 0 247.5 66t177.5 180.5t65 251.5q0 135 -65.5 249t-178 180.5
t-246.5 66.5q-205 0 -346.5 -143.5t-141.5 -352.5q0 -213 144 -354q141 -144 344 -144z" />
    <glyph glyph-name="Ohungarumlaut" unicode="&#x150;" horiz-adv-x="1635" 
d="M854 1830l-188 -236h-42l164 236h66zM1216 1830l-188 -236h-42l164 236h66zM818 -14q-294 0 -496 208q-131 137 -177.5 322t0.5 370t179 322q202 208 494 208q189 0 348.5 -95t252.5 -259.5t93 -361.5q0 -196 -91 -360t-250.5 -259t-352.5 -95zM818 36q180 0 327.5 88.5
t231 240.5t83.5 335q0 182 -84.5 335t-232 242t-325.5 89q-180 0 -328 -89t-232 -241.5t-84 -335.5q0 -182 83.5 -334t231.5 -241t329 -89z" />
    <glyph glyph-name="ohungarumlaut" unicode="&#x151;" horiz-adv-x="1285" 
d="M615 1490l-188 -236h-42l164 236h66zM977 1490l-188 -236h-42l164 236h66zM645 -16q-149 0 -273.5 73t-195.5 199t-71 276q0 228 158 386q157 160 382 160q149 0 274 -74t196.5 -199.5t71.5 -272.5q0 -149 -72 -275t-197 -199.5t-273 -73.5zM645 34q135 0 247.5 66
t177.5 180.5t65 251.5q0 135 -65.5 249t-178 180.5t-246.5 66.5q-205 0 -346.5 -143.5t-141.5 -352.5q0 -210 142 -354t346 -144z" />
    <glyph glyph-name="OE" unicode="&#x152;" horiz-adv-x="2539" 
d="M819 -14q-194 0 -354 95t-251 259t-91 360t91.5 360.5t251.5 260t353 95.5q215 0 390 -122.5t254 -323.5v430h948v-48h-898v-628h752v-46h-752v-630h898v-48h-948v430q-79 -201 -252.5 -322.5t-391.5 -121.5zM819 36q180 0 327.5 88.5t231 240.5t83.5 335
q0 182 -84.5 335t-232 242t-325.5 89q-180 0 -328 -89t-232 -241.5t-84 -335.5q0 -182 83.5 -334t231.5 -241t329 -89z" />
    <glyph glyph-name="oe" unicode="&#x153;" horiz-adv-x="2305" 
d="M645 -16q-149 0 -273.5 73t-195.5 199t-71 276q0 149 71.5 274.5t196 198.5t272.5 73q180 0 320.5 -105t195.5 -273q53 168 194 273t320 105q212 0 362.5 -146t167.5 -358q2 -18 2 -58h-1020q4 -135 70.5 -245.5t177 -173.5t240.5 -63q135 0 249.5 68.5t176.5 183.5h58
q-68 -138 -198 -220t-286 -82q-179 0 -320 104.5t-194 273.5q-55 -168 -196.5 -273t-319.5 -105zM645 34q135 0 247.5 66t177.5 180.5t65 251.5q0 135 -65.5 249t-178 180.5t-246.5 66.5q-205 0 -346.5 -143.5t-141.5 -352.5q0 -210 142 -354t346 -144zM1187 564h966
q-12 197 -148.5 330.5t-329.5 133.5q-196 0 -336 -133.5t-152 -330.5z" />
    <glyph glyph-name="Racute" unicode="&#x154;" horiz-adv-x="1243" 
d="M859 1788l-198 -236h-42l164 236h76zM249 594v-594h-50v1400h576q185 0 290.5 -113.5t105.5 -290.5q0 -172 -101 -284t-279 -118l384 -594h-58l-388 594h-480zM775 1352h-526v-710h526q164 0 255 99.5t91 256.5q0 156 -91 255t-255 99z" />
    <glyph glyph-name="racute" unicode="&#x155;" horiz-adv-x="727" 
d="M637 1448l-198 -236h-42l164 236h76zM219 522v-522h-50v1060h50v-282q51 124 160.5 205t251.5 81h82v-48h-60q-188 0 -311 -138t-123 -356z" />
    <glyph glyph-name="Rcaron" unicode="&#x158;" horiz-adv-x="1243" 
d="M850 1758l-174 -206h-67l-174 206h66l142 -168l141 168h66zM249 594v-594h-50v1400h576q185 0 290.5 -113.5t105.5 -290.5q0 -172 -101 -284t-279 -118l384 -594h-58l-388 594h-480zM775 1352h-526v-710h526q164 0 255 99.5t91 256.5q0 156 -91 255t-255 99z" />
    <glyph glyph-name="rcaron" unicode="&#x159;" horiz-adv-x="637" 
d="M580 1417l-174 -206h-67l-174 206h66l142 -168l141 168h66zM174 522v-522h-50v1060h50v-282q51 124 160.5 205t251.5 81h82v-48h-60q-188 0 -311 -138t-123 -356z" />
    <glyph glyph-name="Sacute" unicode="&#x15a;" horiz-adv-x="1292" 
d="M868 1788l-198 -236h-42l164 236h76zM646 -20q-285 0 -436 162q-82 88 -82 210h46q0 -99 68.5 -175t175 -113.5t228.5 -37.5t228 37.5t174.5 113t69.5 173.5q-1 129 -107 207.5t-341 128.5q-219 46 -338 94q-204 83 -204 266q0 122 82 210q151 162 436 162t436 -162
q82 -88 82 -210h-46q0 99 -68.5 175t-175 113.5t-228.5 37.5t-228.5 -37.5t-175 -113.5t-68.5 -175q0 -53 25 -98.5t65 -75.5q37 -29 110 -56q45 -17 92 -31t81.5 -22t118.5 -27q270 -58 383 -146t115 -238q0 -122 -82 -210q-151 -162 -436 -162z" />
    <glyph glyph-name="sacute" unicode="&#x15b;" horiz-adv-x="1014" 
d="M723 1448l-198 -236h-42l164 236h76zM509 -20q-169 0 -283.5 80t-114.5 214h46q-1 -112 103.5 -180t248.5 -68q93 0 171.5 27.5t129 83.5t51.5 129q-1 95 -80 153.5t-254 96.5q-175 36 -260 70q-156 66 -156 208q0 87 56 154t146 100.5t196 33.5q169 0 283.5 -80
t114.5 -214h-46q1 112 -103.5 180t-248.5 68q-93 0 -172 -27.5t-129.5 -84t-50.5 -130.5q0 -38 17.5 -72t46.5 -54q26 -18 84 -42q75 -28 218 -62q208 -43 296 -111.5t88 -184.5q0 -87 -56 -154t-146 -100.5t-196 -33.5z" />
    <glyph glyph-name="Scedilla" unicode="&#x15e;" horiz-adv-x="1292" 
d="M554 -422q-64 0 -92 2v54q35 -8 86 -8q35 0 69 3t74.5 11.5t65.5 28t25 47.5q0 47 -74.5 88.5t-161.5 47.5l62 128q-257 10 -398 162q-82 88 -82 210h46q0 -99 68.5 -175t175 -113.5t228.5 -37.5t228 37.5t174.5 113t69.5 173.5q-1 129 -107 207.5t-341 128.5
q-219 46 -338 94q-204 83 -204 266q0 122 82 210q151 162 436 162t436 -162q82 -88 82 -210h-46q0 99 -68.5 175t-175 113.5t-228.5 37.5t-228.5 -37.5t-175 -113.5t-68.5 -175q0 -53 25 -98.5t65 -75.5q37 -29 110 -56q45 -17 92 -31t81.5 -22t118.5 -27q270 -58 383 -146
t115 -238q0 -122 -82 -210q-148 -159 -426 -162l-44 -92q105 -22 164.5 -70.5t59.5 -105.5q0 -43 -31.5 -72t-82.5 -41t-90 -16.5t-78 -4.5z" />
    <glyph glyph-name="scedilla" unicode="&#x15f;" horiz-adv-x="1014" 
d="M409 -402q-64 0 -92 2v54q35 -8 86 -8q35 0 69 3t74.5 11.5t65.5 28t25 47.5q0 47 -74.5 88.5t-161.5 47.5l54 110q-151 14 -247.5 92t-96.5 200h46q-1 -112 103.5 -180t248.5 -68q93 0 171.5 27.5t129 83.5t51.5 129q-1 95 -80 153.5t-254 96.5q-175 36 -260 70
q-156 66 -156 208q0 87 56 154t146 100.5t196 33.5q169 0 283.5 -80t114.5 -214h-46q1 112 -103.5 180t-248.5 68q-93 0 -172 -27.5t-129.5 -84t-50.5 -130.5q0 -38 17.5 -72t46.5 -54q26 -18 84 -42q75 -28 218 -62q208 -43 296 -111.5t88 -184.5q0 -87 -56 -154
t-146 -100.5t-196 -33.5h-8l-34 -72q105 -22 164.5 -70.5t59.5 -105.5q0 -43 -31.5 -72t-82.5 -41t-90 -16.5t-78 -4.5z" />
    <glyph glyph-name="Scaron" unicode="&#x160;" horiz-adv-x="1292" 
d="M860 1758l-174 -206h-67l-174 206h66l142 -168l141 168h66zM646 -20q-285 0 -436 162q-82 88 -82 210h46q0 -99 68.5 -175t175 -113.5t228.5 -37.5t228 37.5t174.5 113t69.5 173.5q-1 129 -107 207.5t-341 128.5q-219 46 -338 94q-204 83 -204 266q0 122 82 210
q151 162 436 162t436 -162q82 -88 82 -210h-46q0 99 -68.5 175t-175 113.5t-228.5 37.5t-228.5 -37.5t-175 -113.5t-68.5 -175q0 -53 25 -98.5t65 -75.5q37 -29 110 -56q45 -17 92 -31t81.5 -22t118.5 -27q270 -58 383 -146t115 -238q0 -122 -82 -210q-151 -162 -436 -162z
" />
    <glyph glyph-name="scaron" unicode="&#x161;" horiz-adv-x="1014" 
d="M710 1417l-174 -206h-67l-174 206h66l142 -168l141 168h66zM509 -20q-169 0 -283.5 80t-114.5 214h46q-1 -112 103.5 -180t248.5 -68q93 0 171.5 27.5t129 83.5t51.5 129q-1 95 -80 153.5t-254 96.5q-175 36 -260 70q-156 66 -156 208q0 87 56 154t146 100.5t196 33.5
q169 0 283.5 -80t114.5 -214h-46q1 112 -103.5 180t-248.5 68q-93 0 -172 -27.5t-129.5 -84t-50.5 -130.5q0 -38 17.5 -72t46.5 -54q26 -18 84 -42q75 -28 218 -62q208 -43 296 -111.5t88 -184.5q0 -87 -56 -154t-146 -100.5t-196 -33.5z" />
    <glyph glyph-name="Umacron" unicode="&#x16a;" horiz-adv-x="1518" 
d="M1033 1686v-48h-526v48h526zM759 -16q-113 0 -204 34q-102 35 -178 100q-84 67 -131 184.5t-47 267.5v830h50v-830q0 -135 45.5 -242.5t122.5 -169.5q151 -124 342 -124q193 0 344 124q77 61 121.5 169t44.5 243v830h50v-830q0 -151 -48 -268q-87 -211 -308 -284
q-99 -34 -204 -34z" />
    <glyph glyph-name="umacron" unicode="&#x16b;" horiz-adv-x="1278" 
d="M905 1346v-48h-526v48h526zM625 -18q-193 0 -324.5 125.5t-131.5 328.5v624h50v-596q0 -200 115.5 -317t290.5 -117q188 0 311 138t123 356v536h50v-1060h-50v268q-51 -126 -167 -206t-267 -80z" />
    <glyph glyph-name="Uring" unicode="&#x16e;" horiz-adv-x="1518" 
d="M769 1502q-72 0 -121 48.5t-49 119.5q0 55 30.5 97t74.5 60t95.5 9.5t89.5 -46.5q31 -31 43 -70.5t4 -77t-29 -69.5t-57.5 -51.5t-80.5 -19.5zM769 1548q49 0 85.5 36t36.5 86q0 52 -36 88t-86 36q-51 0 -83 -35t-37 -89v-10q0 -44 32 -76q36 -36 88 -36zM759 -16
q-113 0 -204 34q-102 35 -178 100q-84 67 -131 184.5t-47 267.5v830h50v-830q0 -135 45.5 -242.5t122.5 -169.5q151 -124 342 -124q193 0 344 124q77 61 121.5 169t44.5 243v830h50v-830q0 -151 -48 -268q-87 -211 -308 -284q-99 -34 -204 -34z" />
    <glyph glyph-name="uring" unicode="&#x16f;" horiz-adv-x="1278" 
d="M643 1162q-72 0 -121 48.5t-49 119.5q0 55 30.5 97t74.5 60t95.5 9.5t89.5 -46.5q31 -31 43 -70.5t4 -77t-29 -69.5t-57.5 -51.5t-80.5 -19.5zM643 1208q49 0 85.5 36t36.5 86q0 52 -36 88t-86 36q-51 0 -83 -35t-37 -89v-10q0 -44 32 -76q36 -36 88 -36zM625 -18
q-193 0 -324.5 125.5t-131.5 328.5v624h50v-596q0 -200 115.5 -317t290.5 -117q188 0 311 138t123 356v536h50v-1060h-50v268q-51 -126 -167 -206t-267 -80z" />
    <glyph glyph-name="Uhungarumlaut" unicode="&#x170;" horiz-adv-x="1518" 
d="M797 1830l-188 -236h-42l164 236h66zM1159 1830l-188 -236h-42l164 236h66zM759 -16q-113 0 -204 34q-102 35 -178 100q-84 67 -131 184.5t-47 267.5v830h50v-830q0 -135 45.5 -242.5t122.5 -169.5q151 -124 342 -124q193 0 344 124q77 61 121.5 169t44.5 243v830h50
v-830q0 -151 -48 -268q-87 -211 -308 -284q-99 -34 -204 -34z" />
    <glyph glyph-name="uhungarumlaut" unicode="&#x171;" horiz-adv-x="1278" 
d="M613 1490l-188 -236h-42l164 236h66zM975 1490l-188 -236h-42l164 236h66zM625 -18q-193 0 -324.5 125.5t-131.5 328.5v624h50v-596q0 -200 115.5 -317t290.5 -117q188 0 311 138t123 356v536h50v-1060h-50v268q-51 -126 -167 -206t-267 -80z" />
    <glyph glyph-name="Uogonek" unicode="&#x172;" horiz-adv-x="1518" 
d="M1085 -388v-48q-59 -13 -124.5 -15.5t-127.5 8t-111.5 32t-80 59.5t-30.5 88q0 77 59 141.5t143 108.5q-12 -2 -54 -2q-218 0 -382 134q-84 67 -131 184.5t-47 267.5v830h50v-830q0 -135 45.5 -242.5t122.5 -169.5q151 -124 342 -124q193 0 344 124q77 61 121.5 169
t44.5 243v830h50v-830q0 -243 -119 -389.5t-315 -184.5q-28 -14 -62.5 -38.5t-71.5 -57.5t-61.5 -75t-24.5 -81q0 -42 27.5 -72.5t73 -45t90 -20.5t91.5 -6q66 0 138 12z" />
    <glyph glyph-name="uogonek" unicode="&#x173;" horiz-adv-x="1399" 
d="M1301 -388v-48q-59 -13 -124.5 -15.5t-127.5 8t-111.5 32t-80 59.5t-30.5 88q0 45 23 89t59 75q32 30 85 65t65 35v268q-51 -126 -167 -206t-267 -80q-193 0 -324.5 125.5t-131.5 328.5v624h50v-596q0 -200 115.5 -317t290.5 -117q188 0 311 138t123 356v536h50v-1060
q-18 0 -56 -27t-76 -65.5t-67 -84.5t-29 -79q0 -42 27.5 -72.5t73 -45t90 -20.5t91.5 -6q66 0 138 12z" />
    <glyph glyph-name="Wcircumflex" unicode="&#x174;" horiz-adv-x="1670" 
d="M837 1720l-142 -168h-66l174 206h67l174 -206h-66zM835 1314l-394 -1314h-52l-352 1400h54l326 -1302l392 1302h52l392 -1302l326 1302h54l-352 -1400h-52z" />
    <glyph glyph-name="wcircumflex" unicode="&#x175;" horiz-adv-x="1375" 
d="M690 1380l-142 -168h-66l174 206h67l174 -206h-66zM687 988l-296 -982h-46l-268 1068h52l240 -974l296 974h44l296 -974l240 974h52l-268 -1068h-46z" />
    <glyph glyph-name="Ycircumflex" unicode="&#x176;" horiz-adv-x="1258" 
d="M633 1720l-142 -168h-66l174 206h67l174 -206h-66zM656 498v-498h-50v500l-558 900h60l522 -850l520 850h60z" />
    <glyph glyph-name="ycircumflex" unicode="&#x177;" horiz-adv-x="1149" 
d="M561 1380l-142 -168h-66l174 206h67l174 -206h-66zM1073 1062l-676 -1482h-56l206 450l-470 1032h54l444 -970l444 970h54z" />
    <glyph glyph-name="Ydieresis" unicode="&#x178;" horiz-adv-x="1258" 
d="M890 1634q-12 -12 -26 -16.5t-27 -1.5t-24.5 10t-18.5 18.5t-10 24.5t1.5 27t16.5 26q21 21 46.5 19t41 -19.5t19.5 -41t-19 -46.5zM458 1634q-28 -29 -68 -13.5t-40 57.5q0 26 17 44t45 18q42 0 57.5 -38t-11.5 -68zM656 498v-498h-50v500l-558 900h60l522 -850l520 850
h60z" />
    <glyph glyph-name="Zacute" unicode="&#x179;" horiz-adv-x="1262" 
d="M852 1788l-198 -236h-42l164 236h76zM1122 48v-48h-992v48l948 1304h-946v48h1006v-46l-950 -1306h934z" />
    <glyph glyph-name="zacute" unicode="&#x17a;" horiz-adv-x="1042" 
d="M753 1448l-198 -236h-42l164 236h76zM921 48v-48h-790v48l746 964h-744v48h804v-46l-746 -966h730z" />
    <glyph glyph-name="Zdotaccent" unicode="&#x17b;" horiz-adv-x="1262" 
d="M678 1620q-28 -29 -67 -13.5t-39 57.5q0 28 18 45t44 17q42 0 58 -40t-14 -66zM1122 48v-48h-992v48l948 1304h-946v48h1006v-46l-950 -1306h934z" />
    <glyph glyph-name="zdotaccent" unicode="&#x17c;" horiz-adv-x="1042" 
d="M581 1280q-29 -29 -68.5 -14t-39.5 58q0 28 16.5 45t45.5 17q43 0 58.5 -39.5t-12.5 -66.5zM921 48v-48h-790v48l746 964h-744v48h804v-46l-746 -966h730z" />
    <glyph glyph-name="Zcaron" unicode="&#x17d;" horiz-adv-x="1262" 
d="M844 1758l-174 -206h-67l-174 206h66l142 -168l141 168h66zM1122 48v-48h-992v48l948 1304h-946v48h1006v-46l-950 -1306h934z" />
    <glyph glyph-name="zcaron" unicode="&#x17e;" horiz-adv-x="1042" 
d="M740 1417l-174 -206h-67l-174 206h66l142 -168l141 168h66zM921 48v-48h-790v48l746 964h-744v48h804v-46l-746 -966h730z" />
    <glyph glyph-name="uni02BC" unicode="&#x2bc;" horiz-adv-x="550" 
d="M350 1500l-108 -288h-42l84 288h66z" />
    <glyph glyph-name="gravecomb" unicode="&#x300;" 
d="M-364 1448l164 -236h-42l-188 236h66z" />
    <glyph glyph-name="acutecomb" unicode="&#x301;" 
d="M-200 1448l-198 -236h-42l164 236h76z" />
    <glyph glyph-name="uni0302" unicode="&#x302;" 
d="M-407 1380l-142 -168h-66l174 206h67l174 -206h-66z" />
    <glyph glyph-name="tildecomb" unicode="&#x303;" 
d="M-380 1192q-38 0 -72.5 21.5t-61 52.5t-52 62t-57.5 52.5t-67 21.5q-58 0 -94.5 -47.5t-41.5 -124.5h-48q1 97 53.5 158.5t130.5 61.5q39 0 74 -21.5t61 -52.5t51.5 -62t57 -52.5t66.5 -21.5q57 0 94 50.5t38 137.5h48q-1 -105 -52 -170.5t-128 -65.5z" />
    <glyph glyph-name="uni0304" unicode="&#x304;" 
d="M-200 1346v-48h-526v48h526z" />
    <glyph glyph-name="uni0306" unicode="&#x306;" 
d="M-454 1212q109 0 180 68q74 68 74 168h-48q0 -46 -17.5 -83t-46.5 -60t-66 -35.5t-76 -12.5t-76 12.5t-66 35.5t-46.5 60t-17.5 83h-48q0 -100 73 -168t181 -68z" />
    <glyph glyph-name="uni0307" unicode="&#x307;" 
d="M-219 1280q-19 -18 -42.5 -19t-43.5 17t-20 46t16.5 45t45.5 17q43 0 59 -40t-15 -66z" />
    <glyph glyph-name="uni0308" unicode="&#x308;" 
d="M-652 1294q-26 -30 -66 -14t-40 58q0 26 17 44t45 18q42 0 57.5 -39t-13.5 -67zM-218 1294q-28 -29 -67 -13.5t-39 57.5q0 26 18 44t44 18q42 0 57.5 -39t-13.5 -67z" />
    <glyph glyph-name="uni030A" unicode="&#x30a;" 
d="M-369 1162q-72 0 -121 48.5t-49 119.5q0 72 50 122q51 48 120 48q70 0 120 -50q31 -31 43 -70.5t4 -77t-29 -69.5t-57.5 -51.5t-80.5 -19.5zM-369 1208q49 0 85.5 36t36.5 86q0 52 -36 88t-86 36q-51 0 -83 -35t-37 -89v-10q0 -44 32 -76q36 -36 88 -36z" />
    <glyph glyph-name="uni030B" unicode="&#x30b;" 
d="M-562 1448l-188 -236h-42l164 236h66zM-200 1448l-188 -236h-42l164 236h66z" />
    <glyph glyph-name="uni030C" unicode="&#x30c;" 
d="M-200 1418l-174 -206h-67l-174 206h66l142 -168l141 168h66z" />
    <glyph glyph-name="uni0312" unicode="&#x312;" 
d="M-200 1500l-84 -288h-66l108 288h42z" />
    <glyph glyph-name="uni0326" unicode="&#x326;" 
d="M-200 -122l-128 -376h-42l104 376h66z" />
    <glyph glyph-name="uni0327" unicode="&#x327;" 
d="M-482 -382q-64 0 -92 2v54q37 -8 90 -8q44 0 114 10q116 21 116 80q0 47 -74.5 88.5t-161.5 47.5l80 162l38 -18l-52 -108q105 -22 164.5 -70.5t59.5 -105.5q0 -43 -31.5 -72t-82.5 -41t-90 -16.5t-78 -4.5z" />
    <glyph glyph-name="uni0328" unicode="&#x328;" 
d="M-200 -346v-48q-59 -13 -124.5 -15.5t-127.5 8t-111.5 32t-80 59.5t-30.5 88q0 45 23 89t59 75q32 30 85 65t65 35h50q-18 0 -56 -27t-76 -65.5t-67 -84.5t-29 -79q0 -42 27.5 -72.5t73 -45t90 -20.5t91.5 -6q66 0 138 12z" />
    <glyph glyph-name="Wgrave" unicode="&#x1e80;" horiz-adv-x="1670" 
d="M693 1788l164 -236h-42l-188 236h66zM835 1314l-394 -1314h-52l-352 1400h54l326 -1302l392 1302h52l392 -1302l326 1302h54l-352 -1400h-52z" />
    <glyph glyph-name="wgrave" unicode="&#x1e81;" horiz-adv-x="1375" 
d="M547 1448l164 -236h-42l-188 236h66zM687 988l-296 -982h-46l-268 1068h52l240 -974l296 974h44l296 -974l240 974h52l-268 -1068h-46z" />
    <glyph glyph-name="Wacute" unicode="&#x1e82;" horiz-adv-x="1670" 
d="M1053 1788l-198 -236h-42l164 236h76zM835 1314l-394 -1314h-52l-352 1400h54l326 -1302l392 1302h52l392 -1302l326 1302h54l-352 -1400h-52z" />
    <glyph glyph-name="wacute" unicode="&#x1e83;" horiz-adv-x="1375" 
d="M907 1448l-198 -236h-42l164 236h76zM687 988l-296 -982h-46l-268 1068h52l240 -974l296 974h44l296 -974l240 974h52l-268 -1068h-46z" />
    <glyph glyph-name="Wdieresis" unicode="&#x1e84;" horiz-adv-x="1670" 
d="M663 1634q-29 -29 -68.5 -13.5t-39.5 57.5q0 26 17 44t45 18q42 0 57.5 -38t-11.5 -68zM1095 1634q-29 -29 -67.5 -13.5t-38.5 57.5q0 26 18.5 44t43.5 18q42 0 57.5 -39t-13.5 -67zM835 1314l-394 -1314h-52l-352 1400h54l326 -1302l392 1302h52l392 -1302l326 1302h54
l-352 -1400h-52z" />
    <glyph glyph-name="wdieresis" unicode="&#x1e85;" horiz-adv-x="1375" 
d="M515 1294q-29 -29 -67.5 -13.5t-38.5 57.5q0 26 18.5 44t43.5 18q42 0 57.5 -39t-13.5 -67zM951 1294q-29 -29 -68.5 -13.5t-39.5 57.5q0 26 17 44t45 18q42 0 57.5 -38t-11.5 -68zM687 988l-296 -982h-46l-268 1068h52l240 -974l296 974h44l296 -974l240 974h52
l-268 -1068h-46z" />
    <glyph glyph-name="Ygrave" unicode="&#x1ef2;" horiz-adv-x="1258" 
d="M488 1788l164 -236h-42l-188 236h66zM656 498v-498h-50v500l-558 900h60l522 -850l520 850h60z" />
    <glyph glyph-name="ygrave" unicode="&#x1ef3;" horiz-adv-x="1149" 
d="M417 1448l164 -236h-42l-188 236h66zM1073 1062l-676 -1482h-56l206 450l-470 1032h54l444 -970l444 970h54z" />
    <glyph glyph-name="endash" unicode="&#x2013;" horiz-adv-x="846" 
d="M846 594v-48h-846v48h846z" />
    <glyph glyph-name="emdash" unicode="&#x2014;" horiz-adv-x="1544" 
d="M1544 594v-48h-1544v48h1544z" />
    <glyph glyph-name="quoteleft" unicode="&#x2018;" horiz-adv-x="484" 
d="M223 1460l104 -376h-42l-128 376h66z" />
    <glyph glyph-name="quoteright" unicode="&#x2019;" horiz-adv-x="484" 
d="M327 1460l-128 -376h-42l104 376h66z" />
    <glyph glyph-name="quotesinglbase" unicode="&#x201a;" horiz-adv-x="484" 
d="M327 154l-128 -376h-42l104 376h66z" />
    <glyph glyph-name="quotedblleft" unicode="&#x201c;" horiz-adv-x="676" 
d="M223 1460l104 -376h-42l-128 376h66zM415 1460l104 -376h-42l-128 376h66z" />
    <glyph glyph-name="quotedblright" unicode="&#x201d;" horiz-adv-x="676" 
d="M327 1460l-128 -376h-42l104 376h66zM519 1460l-128 -376h-42l104 376h66z" />
    <glyph glyph-name="quotedblbase" unicode="&#x201e;" horiz-adv-x="484" 
d="M327 154l-128 -376h-42l104 376h66z" />
    <glyph glyph-name="dagger" unicode="&#x2020;" horiz-adv-x="1028" 
d="M529 1070v-476h-50v476h-318v50h318v280h50v-280h318v-50h-318z" />
    <glyph glyph-name="daggerdbl" unicode="&#x2021;" horiz-adv-x="742" 
d="M395 708v-294h-50v294h-318v50h318v302h-318v50h318v290h50v-290h318v-50h-318v-302h318v-50h-318z" />
    <glyph glyph-name="bullet" unicode="&#x2022;" horiz-adv-x="794" 
d="M329 596q0 53 42 74.5t84 0t42 -74.5q0 -39 -26.5 -61t-57.5 -22t-57.5 22t-26.5 61z" />
    <glyph glyph-name="ellipsis" unicode="&#x2026;" horiz-adv-x="1039" 
d="M290 2q-28 -29 -68 -13.5t-40 57.5q0 26 17 44t45 18q42 0 57.5 -38t-11.5 -68zM580 2q-28 -29 -68 -13.5t-40 57.5q0 26 17 44t45 18q42 0 57.5 -38t-11.5 -68zM862 2q-28 -29 -68 -13.5t-40 57.5q0 26 17 44t45 18q42 0 57.5 -38t-11.5 -68z" />
    <glyph glyph-name="perthousand" unicode="&#x2030;" horiz-adv-x="2216" 
d="M437 850q-120 0 -204 83.5t-84 202.5q0 69 24.5 124.5t65.5 89.5t92.5 52.5t105.5 18.5t105.5 -18.5t92.5 -52.5t65.5 -89.5t24.5 -124.5q0 -118 -84.5 -202t-203.5 -84zM1357 1400l-1092 -1400h-60l1092 1400h60zM197 1134q0 -64 26.5 -114.5t69 -76.5t93.5 -38t102 0
t93.5 38t69 76.5t26.5 114.5q0 58 -20.5 105t-54.5 75.5t-77 44t-88 15.5t-88 -15.5t-77 -44t-54.5 -75.5t-20.5 -105zM1067 -16q-120 0 -204 83.5t-84 202.5q0 69 24.5 124.5t65.5 89.5t92.5 52.5t105.5 18.5t105.5 -18.5t92.5 -52.5t65.5 -89.5t24.5 -124.5
q0 -118 -84.5 -202t-203.5 -84zM1777 -16q-120 0 -204 83.5t-84 202.5q0 69 24.5 124.5t65.5 89.5t92.5 52.5t105.5 18.5t105.5 -18.5t92.5 -52.5t65.5 -89.5t24.5 -124.5q0 -118 -84.5 -202t-203.5 -84zM827 268q0 -64 26.5 -114.5t69 -76.5t93.5 -38t102 0t93.5 38
t69 76.5t26.5 114.5q0 58 -20.5 105t-54.5 75.5t-77 44t-88 15.5t-88 -15.5t-77 -44t-54.5 -75.5t-20.5 -105zM1537 268q0 -64 26.5 -114.5t69 -76.5t93.5 -38t102 0t93.5 38t69 76.5t26.5 114.5q0 58 -20.5 105t-54.5 75.5t-77 44t-88 15.5t-88 -15.5t-77 -44t-54.5 -75.5
t-20.5 -105z" />
    <glyph glyph-name="guilsinglleft" unicode="&#x2039;" horiz-adv-x="860" 
d="M167 494l534 -436v-56l-560 456v74l560 454v-56z" />
    <glyph glyph-name="guilsinglright" unicode="&#x203a;" horiz-adv-x="860" 
d="M713 532v-74l-560 -456v56l534 436l-534 436v56z" />
    <glyph glyph-name="fraction" unicode="&#x2044;" horiz-adv-x="445" 
d="M739 1400l-972 -1400h-60l972 1400h60z" />
    <glyph glyph-name="Euro" unicode="&#x20ac;" horiz-adv-x="1670" 
d="M946 -16q-269 0 -467.5 170.5t-246.5 435.5h-130l-2 48h126q-6 45 -6 92q0 66 8 106h-126l-2 48h136q50 260 248 427t462 167q201 0 369.5 -104.5t260.5 -281.5h-62q-86 156 -235.5 245t-332.5 89q-245 1 -426.5 -150t-229.5 -392l868 2v-50h-876q-8 -40 -8 -106
q0 -47 6 -92l878 2v-50h-870q47 -243 228.5 -398.5t429.5 -155.5q186 0 336 89t236 247h62q-91 -178 -259.5 -283t-374.5 -105z" />
    <glyph glyph-name="trademark" unicode="&#x2122;" horiz-adv-x="1244" 
d="M314 1350v-510h-50v510h-198v50h438v-50h-190zM616 1378v-538h-50v560h94l204 -538l204 538h98v-560h-50v538l-210 -538h-82z" />
    <glyph glyph-name="arrowleft" unicode="&#x2190;" horiz-adv-x="1290" 
d="M212 634l524 -426l-30 -34l-556 460v50l556 460l30 -34l-524 -426h1048v-50h-1048z" />
    <glyph glyph-name="arrowup" unicode="&#x2191;" horiz-adv-x="1150" 
d="M600 1176v-1048h-50v1048l-426 -524l-34 30l460 556h50l460 -556l-34 -30z" />
    <glyph glyph-name="arrowright" unicode="&#x2192;" horiz-adv-x="1250" 
d="M1150 744v-50l-556 -460l-30 36l524 424l-1048 2v50l1048 -2l-526 426l32 34z" />
    <glyph glyph-name="arrowdown" unicode="&#x2193;" horiz-adv-x="1150" 
d="M1060 704l-460 -556h-50l-460 556l34 30l426 -524v1048h50v-1048l426 524z" />
    <glyph glyph-name="arrowboth" unicode="&#x2194;" horiz-adv-x="1972" 
d="M1822 730v-50l-556 -460l-30 36l524 424l-1538 2l524 -426l-30 -34l-556 460v50l556 460l30 -34l-524 -426l1538 -2l-526 426l32 34z" />
    <glyph glyph-name="arrowupdn" unicode="&#x2195;" horiz-adv-x="1380" 
d="M1226 430l-460 -556h-50l-460 556l36 30l424 -524l2 1538l-426 -524l-34 30l460 556h50l460 -556l-34 -30l-426 524l-2 -1538l426 526z" />
    <glyph glyph-name="uni2196" unicode="&#x2196;" horiz-adv-x="1000" 
d="M212 990l740 -742l-36 -36l-740 742l70 -672l-46 -2l-68 718l36 36l718 -68l-4 -46z" />
    <glyph glyph-name="uni2197" unicode="&#x2197;" horiz-adv-x="1000" 
d="M754 358l70 670l-742 -740l-36 36l742 740l-672 -70l-2 46l718 68l36 -36l-68 -718z" />
    <glyph glyph-name="uni2198" unicode="&#x2198;" horiz-adv-x="1000" 
d="M800 1086l68 -718l-36 -36l-718 68l4 46l670 -70l-740 742l36 36l740 -742l-70 672z" />
    <glyph glyph-name="uni2199" unicode="&#x2199;" horiz-adv-x="1000" 
d="M884 412l2 -46l-718 -68l-36 36l68 718l46 -4l-70 -670l742 740l36 -36l-742 -740z" />
    <glyph glyph-name="emptyset" unicode="&#x2205;" horiz-adv-x="1337" 
d="M367 84l-214 -274h-60l236 302q-190 163 -190 420q0 149 71.5 274.5t196 198.5t272.5 73q178 0 320 -106l186 238h60l-208 -268q184 -163 184 -410q0 -149 -72 -275t-197 -199.5t-273 -73.5q-176 0 -312 100zM361 152l608 780q-132 96 -290 96q-205 0 -346.5 -143.5
t-141.5 -352.5q0 -234 170 -380zM679 34q135 0 247.5 66t177.5 180.5t65 251.5q0 224 -164 370l-608 -778q123 -90 282 -90z" />
    <glyph glyph-name="minus" unicode="&#x2212;" horiz-adv-x="1252" 
d="M1043 586l2 -48l-838 -2v50h836z" />
    <glyph glyph-name="approxequal" unicode="&#x2248;" horiz-adv-x="1062" 
d="M216 622h-48q6 106 63 172t143 66q42 0 77 -17.5t60 -43l50 -51t58 -43t73 -17.5q71 0 112 54t42 154h48q-1 -115 -57 -185.5t-145 -70.5q-42 0 -76.5 17.5t-59.5 43l-50 51t-58.5 43t-73.5 17.5q-70 0 -111 -49t-47 -141zM216 292h-48q6 106 63 172t143 66
q42 0 77 -17.5t60 -43l50 -51t58 -43t73 -17.5q71 0 112 54t42 154h48q-1 -115 -57 -185.5t-145 -70.5q-42 0 -76.5 17.5t-59.5 43l-50 51t-58.5 43t-73.5 17.5q-70 0 -111 -49t-47 -141z" />
    <glyph glyph-name="notequal" unicode="&#x2260;" horiz-adv-x="1305" 
d="M565 348l-164 -316h-56l164 316h-246v50h272l168 322l-440 -2v50h464l146 280h56l-146 -280h256l2 -48h-282l-168 -322h448l2 -48z" />
    <glyph glyph-name="lessequal" unicode="&#x2264;" horiz-adv-x="1374" 
d="M262 692l893 -510v-56l-940 538v57l940 536v-56zM215 50h943v-50l-943 2v48z" />
    <glyph glyph-name="greaterequal" unicode="&#x2265;" horiz-adv-x="1381" 
d="M1162 721v-57l-940 -538v56l893 510l-893 509v56zM1162 50v-48l-943 -2v50h943z" />
    <glyph glyph-name="uniF8FF" unicode="&#xf8ff;" horiz-adv-x="2479" 
d="M1227 -176q-190 0 -363.5 74.5t-298.5 201t-199.5 300.5t-74.5 364t75 363.5t200.5 299t299.5 200t364 74.5t363.5 -74.5t299.5 -200t200.5 -299t74.5 -363.5q0 -192 -74.5 -366t-200 -299.5t-300 -200t-366.5 -74.5zM1229 -64q168 0 321 65.5t264 176t176.5 263.5
t65.5 321t-65 320.5t-175 263.5t-262.5 177t-320.5 66q-169 0 -322.5 -65t-264.5 -175t-177 -263t-66 -321q0 -169 65 -322t175.5 -264t263.5 -177t322 -66zM964 294h-2q13 13 39 37q25 22 43 75q8 24 23.5 67t28 78.5t23.5 67.5q47 132 96 220v4q-3 -4 -6 -7.5t-6.5 -7.5
t-5.5 -6q-4 -5 -9.5 -12t-7.5 -9q-38 -56 -53 -96q-5 -10 -14 -10q-170 8 -295 115q-33 29 -98 92q-9 8 -22 28q3 -1 18 -7q85 -34 166 -45q58 -7 120 4q46 9 79 19q1 0 26 10q-7 4 -26.5 13.5t-28.5 15t-22 15.5t-22 21h29q71 2 126 32q115 68 231 102q49 14 96 17
q8 0 33.5 1.5t39.5 0.5q93 -3 149 -55q11 -9 27 -29.5t20 -25.5q-1 -2 -1 -3q-7 2 -8 3q-76 29 -139.5 6.5t-104.5 -89.5q-15 -26 -42 -94q-12 -26 -39 -89.5t-42 -97.5q-52 -106 -107 -171q-36 -45 -110 -97q-72 -54 -197 -92q-1 0 -3 -1h-2zM1526 -341v-73h-24v73h-9v15h9
v14q3 24 34 24h10v-17q-18 3 -20 -8v-13h19v-15h-19zM694 -417q-18 0 -28 13t-10 34q0 23 12 35.5t30 12.5q13 0 21 -5l7 -9v45h22v-123h-22v14l-7 -10q-11 -7 -25 -7zM962 -315q-12 0 -12 12q0 11 12 11q13 0 13 -11q0 -12 -13 -12zM1808 -400v-16h-15q-25 0 -25 19v56h-14
v15h14v23h24v-23h17v-15h-17v-49q1 -7 4 -9t12 -1zM807 -417q-19 0 -31.5 12t-12.5 36q0 20 13 33.5t34 13.5q19 0 30.5 -13t11.5 -33q0 -3 -2 -8h-62q1 -24 20 -24q16 0 19 16h23q-8 -33 -43 -33zM899 -417q-34 0 -39 29h23q3 -14 16 -14q14 0 14 11q0 8 -22 15
q-28 9 -28 27q0 12 10 19.5t26 7.5q33 0 35 -28h-22q-3 12 -14 12q-12 0 -12 -9q0 -8 21 -14q29 -9 29 -29q0 -27 -37 -27zM1035 -450q-41 0 -43 31v1h22v-1q3 -14 21 -14q21 0 25 22v13l-7 -11q-8 -5 -23 -5q-19 0 -30 12t-11 32q0 23 12.5 35.5t31.5 12.5q13 0 21 -5l6 -9
v12h23v-67q0 -13 -1 -19q0 -40 -47 -40zM1126 -374v-40h-22v90h22v-16l8 12q10 6 22 6q28 0 31 -25q2 -6 2 -16v-51h-25v59q0 17 -16 17q-22 0 -22 -36zM1248 -417q-21 0 -33 13t-12 35q0 21 12 34t33 13q22 0 34.5 -13t12.5 -34t-12.5 -34.5t-34.5 -13.5zM1430 -417
q-12 0 -20.5 7.5t-8.5 19.5q0 30 50 30h5v3q0 4 -1 8q0 11 -12 11q-17 0 -17 -16h-22q0 15 11.5 23.5t27.5 8.5q33 0 36 -26v-43q0 -13 1 -23h-22l-2 12l-4 -9q-8 -6 -22 -6zM1597 -417q-21 0 -33 13t-12 35q0 21 12 34t33 13q22 0 34.5 -13t12.5 -34t-12.5 -34.5
t-34.5 -13.5zM1682 -374v-40h-23v90h23v-16l7 12q11 6 22 6q27 0 32 -25q1 -6 1 -16v-51h-25v59q-2 17 -16 17q-21 0 -21 -36zM1857 -417q-37 0 -39 29h22q3 -14 17 -14q12 0 12 11q0 8 -20 15q-28 8 -28 27q0 12 9.5 19.5t25.5 7.5q30 0 37 -28h-25q-2 12 -14 12
q-9 0 -9 -9t19 -14q30 -10 30 -29q0 -27 -37 -27zM1986 -417q-43 0 -43 47q0 22 13 35t32 13q38 0 40 -34h-22q-3 18 -18 18q-22 0 -22 -31t22 -31q14 0 18 17h22q-5 -34 -42 -34zM2085 -417q-23 0 -35 13t-12 35q0 21 12 34t35 13q21 0 33 -13t12 -34q0 -22 -12 -35
t-33 -13zM2168 -368v-46h-22v90h22v-14l7 11q10 5 19 5q21 0 28 -18l8 13q10 5 20 5q11 0 19 -6.5t9 -14.5q1 -6 1 -18v-53h-22v46q0 3 -0.5 8t-0.5 7q-2 15 -17 15t-15 -30v-46h-23v61q-1 15 -16 15q-17 0 -17 -30zM270 -347l-15 -67h-26l-29 90h27l15 -71l14 69h28l15 -69
l16 71h25l-28 -90h-27zM411 -347l-17 -67h-26l-28 90h25l16 -71l16 69h28l15 -69l15 71h25l-28 -90h-26zM550 -347l-15 -67h-27l-28 90h26l15 -71l15 69h28l15 -69l17 71h24l-29 -90h-26zM974 -324v-90h-22v90h22zM1396 -324l-35 -90h-27l-33 90h25l22 -73l22 73h26z
M701 -400q25 0 25 30v3q0 14 -7 21.5t-16 7.5q-24 0 -24 -31t22 -31zM788 -361h40q-5 23 -20 23q-17 0 -20 -23zM1035 -398q25 0 25 29v2q0 29 -24 29q-23 0 -23 -30t22 -30zM1248 -400q23 0 23 31t-23 31q-22 0 -22 -31t22 -31zM1597 -400q24 0 24 31t-24 31q-22 0 -22 -31
t22 -31zM2085 -400q22 0 22 31t-22 31q-24 0 -24 -31t24 -31zM1438 -400q7 0 12.5 5.5t5.5 12.5v8q-31 5 -31 -15q0 -11 13 -11zM630 -417q-13 0 -13 14t13 14q14 0 14 -14t-14 -14zM1917 -417q-14 0 -14 14t14 14t14 -14t-14 -14z" />
    <glyph glyph-name="_Fontastica" horiz-adv-x="1458" 
d="M356 512v-312h-180q-3 0 -4.5 2t-1.5 4v1v1082h812v-160h-626v-450h626v-167h-626zM1288 1289v-1089h-811v169h626v443h-626v172h626v305h185zM828 33q-34 0 -56 19l12 26q19 -19 43 -19q10 0 12 2q5 3 5 8q0 4 -4 7q-10 7 -20 8q-15 5 -22 8q-9 3 -13 9q-5 8 -5 18
q0 20 14 30t34 10q24 0 48 -14l-12 -26q-20 13 -37 13q-14 0 -14 -8q0 -10 22 -16q18 -4 22 -6q8 -5 14 -11q5 -10 5 -20q0 -19 -14.5 -28.5t-33.5 -9.5zM337 32q-28 0 -46.5 17.5t-18.5 45.5t18.5 45.5t46.5 17.5t46.5 -17.5t18.5 -45.5q0 -27 -18.5 -45t-46.5 -18z
M1109 32q-26 0 -44 18.5t-18 44.5q0 27 18.5 45t45.5 18q30 0 49 -21l-18 -22q-13 16 -31 16q-13 0 -23 -9.5t-10 -27.5q0 -10 5 -16q11 -18 29 -18q16 0 30 14l19 -19q-25 -23 -52 -23zM206 78v-43h-31v121h91v-25h-60v-27h54v-26h-54zM448 107v-72h-30v121h28l56 -73
l-1 73h30v-121h-28zM611 130v-95h-30v95h-37v26h104v-26h-37zM676 56l-8 -21h-32l51 121h32l52 -121h-33l-10 21h-52zM951 130v-95h-33v95h-35v26h102v-26h-34zM1030 156v-121h-31v121h31zM1200 56l-8 -21h-32l51 121h33l51 -121h-34l-8 21h-53zM337 59q14 0 23.5 11t9.5 24
q0 7 -4 19q-7 18 -28 18q-15 0 -24.5 -10.5t-9.5 -25.5q0 -14 9.5 -25t23.5 -11zM718 80l-14 44l-19 -44h33zM1243 80l-16 44l-17 -44h33z" />
    <glyph glyph-name="_VendorID" horiz-adv-x="1123" 
d="M779 755q-104 0 -168 53.5t-53 127.5h73q-16 -44 29.5 -78.5t118.5 -34.5q62 0 105 26.5t43 65.5q0 68 -155 91q-99 15 -150 54.5t-51 98.5q0 66 58 109.5t145 43.5q96 0 158 -51.5t50 -122.5h-74q17 40 -24.5 72.5t-109.5 32.5q-56 0 -94.5 -24t-38.5 -58q0 -66 140 -86
q106 -15 161.5 -56t55.5 -104q0 -69 -62.5 -114.5t-156.5 -45.5zM190 999v-233h-70v535h413v-69h-343v-164h323v-69h-323zM780 126q-103 0 -168 53t-54 128h73q-16 -43 29.5 -77t118.5 -34q62 0 105 25.5t43 63.5q0 70 -152 93q-100 14 -152 53.5t-52 99.5q0 66 58.5 109.5
t145.5 43.5q96 0 157 -51.5t50 -122.5h-74q17 40 -24.5 72.5t-108.5 32.5q-56 0 -95 -24t-39 -59q0 -64 139 -84q218 -32 218 -162q0 -69 -62 -114.5t-156 -45.5zM190 370v-233h-70v535h413v-68h-343v-164h323v-70h-323zM699 69v-34h-12v34h-4v7h4v7q2 11 16 11h5v-8
q-9 2 -9 -4v-6h9v-7h-9zM306 33q-18 0 -18 23q0 22 20 22q6 0 10 -2l3 -4v21h11v-58h-11v6l-3 -4q-6 -4 -12 -4zM433 81q-6 0 -6 6q0 5 6 5t6 -5q0 -6 -6 -6zM832 41v-7h-7q-12 0 -12 9v26h-7v7h7v11h11v-11h8v-7h-8v-23q2 -6 8 -5zM359 33q-20 0 -20 23q0 22 22 22
q20 0 20 -22q0 -1 -1 -3h-30q1 -12 10 -12q7 0 9 8h11q-5 -16 -21 -16zM403 33q-16 0 -19 14h11q2 -7 8 -7t6 6q0 3 -10 7q-13 4 -13 12q0 13 17 13q16 0 16 -13h-10q-1 6 -7 6q-5 0 -5 -5q0 -3 10 -6q13 -4 13 -14q0 -13 -17 -13zM467 18q-20 0 -20 14v1h10v-1q1 -6 10 -6
t12 10v6l-4 -5q-4 -2 -10 -2q-20 0 -20 21q0 22 21 22q6 0 10 -2l3 -4v5h11v-31q0 -7 -1 -9q0 -19 -22 -19zM510 54v-19h-10v42h10v-7l4 5q4 3 10 3q14 0 15 -12q1 -2 1 -7v-24h-12v28q0 8 -8 8q-10 0 -10 -17zM568 33q-22 0 -22 23q0 22 22 22t22 -22q0 -23 -22 -23z
M653 33q-13 0 -13 13q0 14 23 14h3v2q0 2 -1 3q0 6 -5 6q-8 0 -8 -8h-11q0 15 19 15q15 0 17 -12v-31h-10l-1 5l-2 -4q-6 -3 -11 -3zM732 33q-21 0 -21 23q0 22 21 22q22 0 22 -22q0 -23 -22 -23zM772 54v-19h-11v42h11v-7l4 5q4 3 10 3q14 0 15 -12q1 -2 1 -7v-24h-12v28
q-2 8 -8 8q-10 0 -10 -17zM855 33q-17 0 -19 14h11q2 -7 8 -7t6 6q0 3 -10 7q-13 3 -13 12q0 13 16 13q15 0 18 -13h-12q0 6 -7 6q-4 0 -4 -5q0 -3 9 -6q14 -5 14 -14q0 -13 -17 -13zM916 33q-21 0 -21 23q0 22 22 22q17 0 19 -16h-11q-1 9 -8 9q-11 0 -11 -15t11 -15
q6 0 8 8h11q-3 -16 -20 -16zM962 33q-22 0 -22 23q0 22 22 22t22 -22q0 -23 -22 -23zM1002 56v-21h-11v42h11v-6l3 5q6 2 9 2q10 0 13 -8l4 6q6 2 9 2q12 0 14 -10v-33h-10v21q0 2 -0.5 4.5t-0.5 3.5q0 7 -8 7q-7 0 -7 -15v-21h-11v29q0 7 -7 7q-8 0 -8 -15zM106 66l-7 -31
h-12l-14 42h13l7 -33l6 32h14l7 -32l7 33h12l-13 -42h-13zM173 66l-8 -31h-13l-13 42h12l7 -33l8 32h13l7 -32l7 33h12l-13 -42h-12zM238 66l-7 -31h-13l-13 42h12l7 -33l8 32h13l7 -32l8 33h11l-14 -42h-12zM438 77v-42h-10v42h10zM637 77l-16 -42h-13l-15 42h11l11 -34
l10 34h12zM309 41q12 0 12 15v1q0 14 -11 14t-11 -15t10 -15zM350 60h19q-2 11 -9 11q-8 0 -10 -11zM467 42q12 0 12 14v1q0 14 -12 14q-10 0 -10 -15q0 -14 10 -14zM568 41q10 0 10 15t-10 15q-11 0 -11 -15t11 -15zM732 41q12 0 12 15t-12 15q-10 0 -10 -15t10 -15z
M962 41q11 0 11 15t-11 15t-11 -15t11 -15zM657 41q9 0 9 9v4q-15 2 -15 -7q0 -6 6 -6zM276 33q-6 0 -6 7t6 7q7 0 7 -7t-7 -7zM883 33q-6 0 -6 7t6 7q7 0 7 -7t-7 -7z" />
    <glyph glyph-name="_Designova" horiz-adv-x="1655" 
d="M826 27q-170 0 -314 84.5t-228 229.5t-84 315q0 127 50 243t134 200t200.5 133.5t243.5 49.5t243 -49.5t200 -133.5t134 -200t50 -243q0 -128 -49.5 -244.5t-134 -201t-201 -134t-244.5 -49.5zM827 102q150 0 277.5 74t201.5 201t74 277t-73.5 277.5t-200.5 201.5
t-276 74q-113 0 -216 -43.5t-177 -117.5t-118 -176t-44 -214q0 -113 43.5 -215.5t117.5 -176.5t176 -118t215 -44zM650 341h-2l26 25q20 16 29 50q40 112 50 143q31 85 65 146v3q-4 -5 -13 -14q-9 -11 -10 -14q-24 -32 -36 -64q-4 -7 -9 -7q-112 6 -198 77q-19 17 -65 61
q-5 5 -15 19q2 0 4 -1t4.5 -2t3.5 -1q52 -22 111 -31q41 -3 80 3q36 8 53 13q3 0 17 7l-17 8.5t-19 10t-14.5 10.5t-14.5 14h19q47 2 84 21q78 46 155 69q32 10 63 11q4 0 25 1t25 0q62 -2 99 -37q7 -6 18.5 -19.5t13.5 -16.5q-1 -1 -1 -2q-1 0 -2.5 0.5t-2.5 1.5
q-52 19 -94 4t-70 -59q-9 -16 -28 -63q-6 -13 -24.5 -57t-29.5 -68q-35 -72 -72 -115q-23 -30 -73 -65q-48 -36 -131 -61h-2z" />
    </font>
</defs>
</svg>
