<?xml version="1.0" standalone="no"?>
<!DOCTYPE svg PUBLIC "-//W3C//DTD SVG 1.1//EN" "http://www.w3.org/Graphics/SVG/1.1/DTD/svg11.dtd" >
<svg xmlns="http://www.w3.org/2000/svg" xmlns:xlink="http://www.w3.org/1999/xlink" version="1.1">
<metadata>
Created by FontForge 20170731 at Thu Apr 20 16:13:26 2023
 By Aleksey,,,
Copyright (c) 2023 by Designova. All rights reserved.
</metadata>
<defs>
<font id="EthosNova-MediumItalic" horiz-adv-x="0" >
  <font-face 
    font-family="Ethos Nova Medium"
    font-weight="500"
    font-style="italic"
    font-stretch="normal"
    units-per-em="2048"
    panose-1="0 0 6 0 0 0 0 0 0 0"
    ascent="1638"
    descent="-410"
    x-height="1084"
    cap-height="1400"
    bbox="-775 -463 2591 1868.12"
    underline-thickness="50"
    underline-position="-150"
    slope="-9"
    unicode-range="U+0020-F8FF"
  />
<missing-glyph horiz-adv-x="1366" 
d="M1388 1400l-222 -1398h-966l222 1398h966zM1169 1267h-570l214 -437zM1198 1094l-319 -393l194 -395zM708 701l-194 391l-124 -783zM990 138l-217 435l-351 -435h568z" />
    <glyph glyph-name=".notdef" horiz-adv-x="1366" 
d="M1388 1400l-222 -1398h-966l222 1398h966zM1169 1267h-570l214 -437zM1198 1094l-319 -393l194 -395zM708 701l-194 391l-124 -783zM990 138l-217 435l-351 -435h568z" />
    <glyph glyph-name=".null" 
 />
    <glyph glyph-name="nonmarkingreturn" horiz-adv-x="682" 
 />
    <glyph glyph-name="space" unicode=" " horiz-adv-x="506" 
 />
    <glyph glyph-name="exclam" unicode="!" horiz-adv-x="615" 
d="M497 724l-84 -479h-131l69 479l107 676h146zM386 15q-28 -24 -61 -29t-58.5 6.5t-40.5 37.5t-10 60q7 44 42.5 74.5t79.5 30.5q45 0 71 -30.5t20 -73.5t-43 -76z" />
    <glyph glyph-name="quotedbl" unicode="&#x22;" horiz-adv-x="794" 
d="M611 1400l-78 -447h-136l50 447h164zM791 1400l-79 -447h-134l49 447h164z" />
    <glyph glyph-name="numbersign" unicode="#" horiz-adv-x="1589" 
d="M603 400l-193 -400h-156l193 400h-358l80 143h348l154 320h-373l78 143h365l191 394h156l-191 -394h321l191 394h155l-190 -394h346l-79 -143h-338l-152 -320h361l-80 -143h-352l-193 -400h-157l193 400h-320zM1147 863h-321l-152 -320h320z" />
    <glyph glyph-name="dollar" unicode="$" horiz-adv-x="1332" 
d="M739 -14l-27 -169h-146l27 173q-229 26 -328.5 167.5t-51.5 373.5h146q-37 -171 29 -271.5t229 -122.5l80 510q-214 44 -310 139t-73 240q24 155 165 263.5t340 126.5l23 144h146l-23 -148q219 -26 321 -159t62 -341h-145q28 150 -39 240.5t-223 112.5l-79 -498
q227 -40 324 -134t72 -251q-28 -171 -167.5 -277.5t-351.5 -118.5zM721 793l75 477q-133 -14 -228 -82.5t-109 -161.5q-13 -84 51.5 -141t210.5 -92zM839 620l-77 -489q149 11 241.5 77t109.5 174q14 93 -52.5 151t-221.5 87z" />
    <glyph glyph-name="percent" unicode="%" horiz-adv-x="1583" 
d="M593 790q-132 0 -211 92.5t-58 223.5q22 136 133 226q109 91 236 91q132 0 212 -93.5t59 -223.5q-20 -130 -129 -223t-242 -93zM1656 1400l-1326 -1400h-181l1326 1400h181zM616 934q75 0 133 48.5t70 121.5q16 104 -58 151q-63 40 -147 16q-89 -26 -128 -108
q-13 -27 -18 -59q-11 -68 33 -118q43 -52 115 -52zM1058 -15q-133 0 -212 92.5t-58 222.5q26 164 159 251q113 73 245 60q129 -12 195 -101q61 -84 41 -210q-21 -130 -130 -222.5t-240 -92.5zM1080 128q74 0 132.5 49t69.5 121q16 104 -58 151q-63 40 -147 16
q-89 -26 -128 -108q-13 -27 -18 -59q-10 -70 34 -118q42 -52 115 -52z" />
    <glyph glyph-name="ampersand" unicode="&#x26;" horiz-adv-x="1330" 
d="M498 -15q-174 0 -269 100t-70 256q10 60 43.5 121t82.5 107q66 62 218 129q-138 173 -108 363q26 159 151 258t303 99q165 0 252 -90t64 -236q-42 -264 -419 -439l206 -236l185 219l110 -73q-146 -187 -185 -226l-21 -21l268 -313l-199 -5l-178 204
q-114 -112 -218.5 -164.5t-215.5 -52.5zM651 765l5 -6q153 62 251 151.5t113 181.5q13 83 -39.5 131.5t-155.5 48.5q-115 0 -192 -57t-92 -154q-22 -142 110 -296zM519 130q83 0 160.5 40t167.5 131l-248 288q-47 -18 -79.5 -32t-73.5 -37.5t-67 -47.5t-47 -58t-27 -73
q-14 -92 46.5 -151.5t167.5 -59.5z" />
    <glyph glyph-name="quotesingle" unicode="'" horiz-adv-x="613" 
d="M611 1400l-92 -447h-135l63 447h164z" />
    <glyph glyph-name="parenleft" unicode="(" horiz-adv-x="790" 
d="M655 -137l-27 -54h-127q-117 119 -170.5 351t-16.5 462q37 233 160 460q131 239 287 356h128l9 -56q-132 -73 -267 -298.5t-172 -461.5q-38 -236 24 -457.5t172 -301.5z" />
    <glyph glyph-name="parenright" unicode=")" horiz-adv-x="790" 
d="M227 -191h-129l-9 54q63 36 132 114t130.5 179t109.5 225.5t67 242.5q37 235 -25 457.5t-171 300.5l27 56h127q117 -117 170 -350t17 -464q-37 -232 -165 -467t-281 -348z" />
    <glyph glyph-name="asterisk" unicode="*" horiz-adv-x="1008" 
d="M709 889l-24 -282h-170l65 282l-265 -155l-61 147l278 122l-240 127l109 145l215 -157l25 282h170l-66 -282l266 155l61 -147l-278 -123l240 -127l-109 -144z" />
    <glyph glyph-name="plus" unicode="+" horiz-adv-x="1292" 
d="M797 500l-57 -363l-147 -8l59 369h-371l23 146h369l58 366h147l-58 -366h364l-15 -144h-372z" />
    <glyph glyph-name="comma" unicode="," horiz-adv-x="641" 
d="M467 241l-225 -447h-142l198 447h169z" />
    <glyph glyph-name="hyphen" unicode="-" horiz-adv-x="1073" 
d="M1031 651l-23 -143h-781l23 143h781z" />
    <glyph glyph-name="period" unicode="." horiz-adv-x="588" 
d="M377 19q-29 -25 -63 -31t-60.5 5t-42 37.5t-9.5 61.5q7 44 42.5 75t81.5 31q45 0 70.5 -30.5t21 -73t-40.5 -75.5z" />
    <glyph glyph-name="slash" unicode="/" horiz-adv-x="820" 
d="M998 1400l-798 -1400h-157l799 1400h156z" />
    <glyph glyph-name="zero" unicode="0" horiz-adv-x="1356" 
d="M301 194q-76 131 -81 317t59.5 373.5t181.5 321.5q92 103 210 157.5t230 54.5t213 -54.5t161 -157.5q76 -135 81.5 -321t-58.5 -371.5t-183 -317.5q-122 -138 -283.5 -188t-306.5 -0.5t-224 186.5zM697 130q183 0 321 158q143 167 181.5 414t-53.5 412q-90 158 -269 158
q-181 0 -320 -160t-179 -413q-39 -245 53 -411q89 -158 266 -158z" />
    <glyph glyph-name="one" unicode="1" horiz-adv-x="772" 
d="M795 1400l-222 -1400h-145l185 1170l-246 -204l-85 101l363 301l5 32h145z" />
    <glyph glyph-name="two" unicode="2" horiz-adv-x="1271" 
d="M1139 143l-31 -143h-910l16 103l651 618l31 32q6 6 11 8q38 38 64 67v1q43 44 74 98t38 97l1 6q17 107 -52 174.5t-197 67.5q-130 0 -228 -76t-140 -208h-149q58 197 205 313.5t336 116.5q190 0 293.5 -110.5t75.5 -283.5q-15 -96 -73 -181t-196 -214l-509 -486h689z" />
    <glyph glyph-name="three" unicode="3" horiz-adv-x="1303" 
d="M659 -15q-211 0 -331.5 140t-89.5 351h144q-19 -150 66 -248t234 -98q152 0 262 86t131 222q22 133 -69 206.5t-276 73.5q-82 0 -142 -12l-43 90l543 461h-670l23 143h891l-20 -124l-492 -416q212 -11 320.5 -126t79.5 -296q-31 -198 -189 -325.5t-372 -127.5z" />
    <glyph glyph-name="four" unicode="4" horiz-adv-x="1395" 
d="M1071 315l-50 -315h-146l50 315l-750 -2l17 112l906 975h145l-150 -943h251l-22 -142h-251zM947 457l110 707l-660 -709z" />
    <glyph glyph-name="five" unicode="5" horiz-adv-x="1266" 
d="M649 -15q-211 0 -330 138.5t-93 352.5h147q-26 -139 63.5 -242.5t235.5 -103.5q143 0 259.5 100t138.5 242q22 140 -63.5 239.5t-227.5 99.5q-210 0 -367 -163h-122l178 752h851l-23 -143h-713l-98 -386q155 86 318 86q132 0 235 -65.5t151.5 -177t27.5 -242.5
q-33 -208 -196 -347.5t-372 -139.5z" />
    <glyph glyph-name="six" unicode="6" horiz-adv-x="1276" 
d="M660 -15q-246 0 -362.5 190.5t-65.5 511.5q50 319 225 523q182 208 428 208q182 0 293 -119t109 -313h-153q-1 130 -76.5 208t-200.5 78q-160 0 -281.5 -132t-180.5 -368q84 87 193.5 136t225.5 49q132 0 234.5 -65.5t151 -177t27.5 -242.5q-22 -136 -103.5 -248
t-204 -175.5t-259.5 -63.5zM683 130q148 0 262 97.5t137 244.5q27 170 -83 265q-90 78 -229 71q-146 -6 -252 -101q-101 -92 -124 -235q-23 -146 61 -242q76 -100 228 -100z" />
    <glyph glyph-name="seven" unicode="7" horiz-adv-x="1097" 
d="M1201 1297l-825 -1297h-164l801 1257h-717l23 143h894z" />
    <glyph glyph-name="eight" unicode="8" horiz-adv-x="1294" 
d="M645 -13q-229 0 -358.5 114t-101.5 291q18 114 88.5 204.5t183.5 145.5q-80 54 -116 134t-22 172q28 175 202 278q154 91 355 89q195 -1 318 -89q142 -102 114 -278q-15 -93 -76.5 -173t-159.5 -133q96 -55 137.5 -145.5t23.5 -204.5q-29 -182 -201 -295
q-164 -110 -387 -110zM775 807q148 0 258.5 69t127.5 172q18 115 -99 177q-109 57 -268 43q-164 -14 -257 -95q-61 -54 -73 -125q-16 -99 69 -167q93 -74 242 -74zM668 132q168 0 284.5 73.5t135.5 191.5q19 122 -72 194.5t-264 72.5t-287.5 -72.5t-133.5 -194.5
q-19 -119 74 -189q98 -76 263 -76z" />
    <glyph glyph-name="nine" unicode="9" horiz-adv-x="1276" 
d="M613 -15q-182 0 -293.5 119t-109.5 312h152q2 -131 77.5 -208.5t200.5 -77.5q159 0 281 132.5t181 367.5q-84 -87 -194 -136t-225 -49q-132 0 -234.5 65.5t-151 177.5t-27.5 243q22 136 104 248t204.5 175.5t259.5 63.5q246 0 362 -191t65 -512q-49 -316 -225 -523
q-181 -207 -427 -207zM415 931q-27 -171 83 -265q90 -78 229 -72q146 6 252 102q101 91 124 235t-61 242q-80 99 -228 99t-262 -97.5t-137 -243.5z" />
    <glyph glyph-name="colon" unicode=":" horiz-adv-x="589" 
d="M507 848q-28 -23 -58 -29t-53.5 3t-40 28t-21.5 43.5t5.5 53.5t37.5 53q27 22 57 27.5t53 -3.5t39.5 -28.5t22 -43.5t-4.5 -52.5t-37 -51.5zM375 15q-28 -23 -58 -29t-53.5 2.5t-40 28t-21.5 44t5.5 53.5t37.5 53q27 22 57 27.5t53 -3.5t39.5 -28.5t22 -44t-4.5 -52.5
t-37 -51z" />
    <glyph glyph-name="semicolon" unicode=";" horiz-adv-x="599" 
d="M486 848q-42 -30 -83 -30.5t-68 30t-20 75.5q7 44 43 75t80 31t69.5 -31t20.5 -74.5t-42 -75.5zM445 204l-198 -354h-138l166 354h170z" />
    <glyph glyph-name="less" unicode="&#x3c;" horiz-adv-x="1425" 
d="M507 573l716 -444l-26 -167l-893 557l18 111l1069 554l-27 -166z" />
    <glyph glyph-name="equal" unicode="=" horiz-adv-x="1359" 
d="M1216 813l-15 -144l-832 -1l23 145h824zM1161 469l-15 -144l-832 -2l23 146h824z" />
    <glyph glyph-name="greater" unicode="&#x3e;" horiz-adv-x="1425" 
d="M1303 632l-17 -111l-1070 -557l27 167l858 444l-717 445l26 166z" />
    <glyph glyph-name="question" unicode="?" horiz-adv-x="1070" 
d="M641 421l-31 -194h-146l32 202q13 86 68 160.5t143 127.5l130 75q131 83 152 209q18 118 -52.5 194.5t-195.5 76.5q-148 0 -250 -97.5t-128 -262.5h-144q32 225 183.5 365.5t362.5 140.5q188 0 292.5 -120t75.5 -303q-18 -102 -62 -162q-11 -17 -23.5 -33t-23.5 -28
t-27 -26t-26 -21.5t-29 -20.5t-27 -18t-29.5 -17.5t-27.5 -16.5q-13 -9 -42.5 -27.5t-40.5 -26t-33 -23.5t-31.5 -25.5t-24 -25.5t-21.5 -30t-14 -33t-10 -40zM580 12q-34 -28 -70 -31.5t-60 14t-38 44.5t-5 62t42 64q28 23 58 29t54 -3t40.5 -28.5t21.5 -44.5t-5.5 -53.5
t-37.5 -52.5z" />
    <glyph glyph-name="at" unicode="@" horiz-adv-x="1720" 
d="M874 -154q-171 0 -312.5 60.5t-233 165t-130.5 251t-12 312.5q52 328 313 551q264 220 602 220q196 0 344.5 -65.5t218.5 -182.5q122 -208 81 -463q-34 -212 -136.5 -332.5t-248.5 -120.5q-127 0 -159 100q-69 -60 -153 -94t-168 -34q-201 0 -294 138
q-78 116 -53.5 278.5t137.5 280.5q138 143 343 143q162 0 262 -106l15 93h146l-94 -594q-10 -60 45 -60q69 0 123 70q63 78 87 234q42 263 -97.5 416.5t-421.5 153.5q-280 0 -490.5 -177t-253.5 -449q-30 -184 32 -331.5t201 -230.5t329 -83q171 0 284 47l22 -138
q-188 -53 -328 -53zM897 357h6q112 1 203 81.5t111 194.5l1 6q18 112 -48.5 191.5t-179.5 79.5q-114 0 -205.5 -80.5t-110.5 -196.5q-18 -116 46.5 -196t176.5 -80z" />
    <glyph glyph-name="A" unicode="A" horiz-adv-x="1466" 
d="M463 418l-259 -418h-159l864 1400h91l420 -1400h-159l-127 418h-671zM1093 562l-179 586l-363 -586h542z" />
    <glyph glyph-name="B" unicode="B" horiz-adv-x="1371" 
d="M785 0h-586l222 1400h586q191 0 289 -106t70 -281q-15 -98 -65.5 -177.5t-128.5 -129.5q168 -87 132 -324q-30 -186 -162.5 -284t-356.5 -98zM984 1257h-441l-77 -487h422q141 0 228 63.5t106 180.5q18 115 -44.5 179t-193.5 64zM865 627h-422l-76 -484h441
q164 0 247.5 57t103.5 184q19 125 -52.5 184t-241.5 59z" />
    <glyph glyph-name="C" unicode="C" horiz-adv-x="1591" 
d="M822 -13q-296 0 -468 210q-110 136 -127.5 320.5t59 368.5t230.5 319q238 211 532 211q215 0 373 -121.5t207 -324.5l-151 -33q-42 154 -163.5 243.5t-288.5 89.5q-154 0 -293.5 -75t-233 -205.5t-118.5 -288.5q-19 -118 7.5 -223.5t88 -181.5t158 -120t211.5 -44
q167 0 316.5 90t241.5 245l139 -36q-113 -203 -309 -323.5t-411 -120.5z" />
    <glyph glyph-name="D" unicode="D" horiz-adv-x="1484" 
d="M642 0h-443l222 1400h443q152 0 277 -53.5t205.5 -146.5t114.5 -222.5t11 -276.5q-23 -148 -98.5 -278.5t-185.5 -223t-252 -146t-294 -53.5zM841 1257h-298l-176 -1114h298q162 0 304 71.5t235.5 199.5t118.5 287q38 241 -98.5 398.5t-383.5 157.5z" />
    <glyph glyph-name="E" unicode="E" horiz-adv-x="1315" 
d="M1211 143l-23 -143h-989l222 1400h989l-23 -143h-844l-77 -485h709l-22 -142h-709l-77 -487h844z" />
    <glyph glyph-name="F" unicode="F" horiz-adv-x="1325" 
d="M444 630l-100 -630h-145l222 1400h989l-23 -143h-844l-77 -485h709l-22 -142h-709z" />
    <glyph glyph-name="G" unicode="G" horiz-adv-x="1624" 
d="M822 -13q-296 0 -468 210q-110 136 -127.5 320.5t59 368.5t230.5 319q238 211 532 211q215 0 373 -121.5t207 -324.5l-151 -33q-42 154 -163.5 243.5t-288.5 89.5q-155 0 -294 -74.5t-232.5 -205t-118.5 -289.5q-19 -118 7.5 -223.5t88 -181.5t158 -120t211.5 -44
q206 0 365 129.5t220 347.5h-561l23 142h714l-8 -52q-33 -204 -143.5 -366.5t-276.5 -254t-356 -91.5z" />
    <glyph glyph-name="H" unicode="H" horiz-adv-x="1488" 
d="M443 627l-99 -627h-145l222 1400h145l-100 -630h799l100 630h146l-222 -1400h-146l99 627h-799z" />
    <glyph glyph-name="I" unicode="I" horiz-adv-x="542" 
d="M566 1400l-222 -1400h-145l222 1400h145z" />
    <glyph glyph-name="J" unicode="J" horiz-adv-x="1291" 
d="M587 -13q-146 0 -255.5 75t-153 202t-6.5 271h147q-25 -81 -11.5 -154t52 -129t105 -89t145.5 -33q177 0 286.5 125t148.5 371l123 774h147l-123 -774q-48 -303 -207 -471t-398 -168z" />
    <glyph glyph-name="K" unicode="K" horiz-adv-x="1368" 
d="M406 394l-62 -394h-145l222 1400h145l-126 -796l906 798h102l42 -51l-694 -614l523 -737h-195l-448 632z" />
    <glyph glyph-name="L" unicode="L" horiz-adv-x="1290" 
d="M1211 143l-23 -143h-989l222 1400h145l-199 -1257h844z" />
    <glyph glyph-name="M" unicode="M" horiz-adv-x="1688" 
d="M1504 1007l-601 -1007h-115l-285 1007l-159 -1007h-145l222 1400h130l331 -1171l700 1171h130l-222 -1400h-145z" />
    <glyph glyph-name="N" unicode="N" horiz-adv-x="1451" 
d="M520 1114l-176 -1114h-145l222 1400h123l608 -1119l177 1119h146l-222 -1400h-125z" />
    <glyph glyph-name="O" unicode="O" horiz-adv-x="1648" 
d="M822 -13q-296 0 -468 210q-110 136 -127.5 320.5t59 368.5t230.5 319q238 211 532 211q191 0 337.5 -95.5t214 -260t36.5 -359.5q-31 -197 -149.5 -361t-295 -258.5t-369.5 -94.5zM845 132q155 0 293.5 74.5t231.5 205t118 289.5q19 118 -7.5 223.5t-88 181t-157 120
t-210.5 44.5q-154 0 -293.5 -75t-233 -205.5t-118.5 -288.5q-19 -118 7.5 -223.5t88 -181.5t158 -120t211.5 -44z" />
    <glyph glyph-name="P" unicode="P" horiz-adv-x="1328" 
d="M431 552l-87 -552h-145l222 1400h590q189 0 286.5 -117t67.5 -307q-30 -189 -165.5 -306.5t-323.5 -117.5h-445zM988 1257h-445l-89 -561h445q128 0 213.5 75t106.5 206q20 130 -42 205t-189 75z" />
    <glyph glyph-name="Q" unicode="Q" horiz-adv-x="1711" 
d="M822 -13q-296 0 -468 210q-110 136 -127.5 320.5t59 368.5t230.5 319q238 211 532 211q191 0 337.5 -95.5t214 -260t36.5 -359.5q-21 -132 -84.5 -254.5t-161.5 -218.5l198 -228h-206l-113 128q-210 -141 -447 -141zM845 132q178 0 336 100l-223 254h205l137 -158
q155 160 188 373q19 118 -7.5 223.5t-88 181t-157 120t-210.5 44.5q-154 0 -293.5 -75t-233 -205.5t-118.5 -288.5q-19 -118 7.5 -223.5t88 -181.5t158 -120t211.5 -44z" />
    <glyph glyph-name="R" unicode="R" horiz-adv-x="1325" 
d="M431 552l-87 -552h-145l222 1400h590q189 0 286.5 -117t67.5 -307q-26 -162 -130 -273t-257 -140l279 -563h-174l-277 552h-375zM988 1257h-445l-89 -561h445q128 0 213.5 75t106.5 206q20 130 -42 205t-189 75z" />
    <glyph glyph-name="S" unicode="S" horiz-adv-x="1328" 
d="M661 -19q-288 0 -419 168q-87 112 -45 277h146q-33 -82 1 -152t124 -111t215 -41q167 0 291.5 72.5t142.5 180.5q14 98 -65 159.5t-274 103.5q-201 43 -314 90q-207 91 -174 294q20 131 126 228q185 168 473 168q287 0 418 -168q89 -116 44 -277h-145q34 82 0 151.5
t-124.5 110.5t-215.5 41q-168 0 -292.5 -72.5t-141.5 -181.5q-13 -76 46 -122q23 -22 82 -45q62 -27 205 -61l51 -11q262 -60 364 -154t79 -253q-22 -132 -126 -227q-185 -168 -472 -168z" />
    <glyph glyph-name="T" unicode="T" horiz-adv-x="1328" 
d="M943 1257l-199 -1257h-146l199 1257h-497l23 143h1128l-23 -143h-485z" />
    <glyph glyph-name="U" unicode="U" horiz-adv-x="1548" 
d="M772 -15q-121 0 -204 35q-97 35 -164 99q-77 70 -106.5 191.5t-6.5 268.5l130 821h145l-130 -821q-18 -111 4 -201t79 -143q114 -105 276 -105q163 0 309 105q73 52 123 142t68 202l130 821h146l-130 -821q-24 -149 -91 -269q-129 -218 -365 -290q-107 -35 -213 -35z" />
    <glyph glyph-name="V" unicode="V" horiz-adv-x="1466" 
d="M1642 1400l-864 -1400h-91l-420 1400h159l346 -1147l711 1147h159z" />
    <glyph glyph-name="W" unicode="W" horiz-adv-x="1696" 
d="M1023 1103l-509 -1103h-125l-130 1400h153l102 -1074l495 1074h121l156 -1074l442 1074h153l-575 -1400h-124z" />
    <glyph glyph-name="X" unicode="X" horiz-adv-x="1382" 
d="M785 584l-556 -584h-180l664 701l-442 699h180l371 -584l553 584h180l-663 -699l441 -699h-180z" />
    <glyph glyph-name="Y" unicode="Y" horiz-adv-x="1365" 
d="M836 499l-79 -499h-146l79 501l-420 899h172l346 -744l579 744h172z" />
    <glyph glyph-name="Z" unicode="Z" horiz-adv-x="1299" 
d="M1183 143l-23 -143h-1030l17 110l1025 1147h-841l23 143h1043l-17 -108l-1026 -1149h829z" />
    <glyph glyph-name="bracketleft" unicode="[" horiz-adv-x="966" 
d="M821 -97l-23 -145h-606l275 1738h606l-23 -144h-460l-229 -1449h460z" />
    <glyph glyph-name="backslash" unicode="\" horiz-adv-x="819" 
d="M422 1400l354 -1400h-156l-355 1400h157z" />
    <glyph glyph-name="bracketright" unicode="]" horiz-adv-x="966" 
d="M973 1496l-275 -1738h-606l23 145h460l229 1449h-460l23 144h606z" />
    <glyph glyph-name="asciicircum" unicode="^" horiz-adv-x="1079" 
d="M713 1207l-358 -500h-168l504 693h107l285 -693h-168z" />
    <glyph glyph-name="underscore" unicode="_" horiz-adv-x="946" 
d="M982 99l-23 -144h-987l23 144h987z" />
    <glyph glyph-name="a" unicode="a" horiz-adv-x="1249" 
d="M540 -8q-192 0 -297.5 89.5t-83.5 234.5q22 146 143.5 225t328.5 80l402 2l16 103q16 106 -64 168t-235 62q-151 0 -241 -57.5t-104 -163.5h-146q22 166 163 266t351 100q203 0 321 -94t105 -246l-119 -761h-146l23 147q-2 -5 -9 -9q-71 -68 -180.5 -107t-227.5 -39z
M563 138q168 0 286.5 90t158.5 250l-400 -2q-138 -1 -217 -42t-87 -116q-9 -81 62.5 -130.5t196.5 -49.5z" />
    <glyph glyph-name="b" unicode="b" horiz-adv-x="1387" 
d="M722 -17q-116 0 -216 47.5t-165 131.5l-26 -162h-146l222 1400h146l-76 -480q92 85 206.5 132t231.5 47q114 0 210.5 -44t158.5 -118.5t89.5 -178t9.5 -218.5q-24 -152 -118.5 -280t-234.5 -202.5t-292 -74.5zM745 126q172 0 309.5 120.5t165.5 293.5q27 175 -72.5 295.5
t-271.5 120.5q-171 0 -309.5 -121t-165.5 -295q-28 -171 74 -295q96 -119 270 -119z" />
    <glyph glyph-name="c" unicode="c" horiz-adv-x="1300" 
d="M659 -15q-153 0 -269 74.5t-169.5 203t-29.5 281.5q36 227 224 395q191 162 420 162q188 0 319.5 -112.5t154.5 -294.5h-156q-28 120 -120.5 191t-220.5 71q-173 0 -309 -118.5t-164 -293.5q-28 -174 71.5 -294t271.5 -120q127 0 242.5 71.5t180.5 190.5h156
q-80 -182 -246.5 -294.5t-355.5 -112.5z" />
    <glyph glyph-name="d" unicode="d" horiz-adv-x="1386" 
d="M658 -17q-152 0 -268 74.5t-169.5 202.5t-29.5 280q37 232 221 395q188 164 423 164q117 0 217 -46.5t165 -132.5l76 480h146l-222 -1400h-146l26 162q-92 -85 -207 -132t-232 -47zM681 126q171 0 309.5 121t166.5 293q27 174 -73 295t-272 121t-309 -120.5t-164 -295.5
q-28 -172 73 -295q95 -119 269 -119z" />
    <glyph glyph-name="e" unicode="e" horiz-adv-x="1308" 
d="M659 -15q-153 0 -269 74.5t-169.5 203t-29.5 281.5q36 227 224 395q191 162 420 162q216 0 349.5 -147.5t116.5 -367.5q-4 -38 -15 -106h-953q-2 -152 96.5 -251t252.5 -99q121 0 231 63.5t175 170.5h160q-87 -171 -248.5 -275t-340.5 -104zM358 623h795
q-4 146 -99.5 239.5t-241.5 93.5q-149 0 -276.5 -93.5t-177.5 -239.5z" />
    <glyph glyph-name="f" unicode="f" horiz-adv-x="912" 
d="M653 941l-149 -941h-146l149 941h-263l23 143h263q30 163 128 249t254 86q100 0 200 -28l-23 -148q-126 33 -194 33q-95 0 -147.5 -46.5t-71.5 -145.5h379l-23 -143h-379z" />
    <glyph glyph-name="g" unicode="g" horiz-adv-x="1385" 
d="M618 -422q-217 0 -347 122.5t-115 312.5h144q-1 -127 95.5 -209.5t245.5 -82.5q134 0 264 88q70 49 121.5 146.5t72.5 222.5l3 16q-92 -82 -206.5 -127t-231.5 -45q-156 0 -272 71t-169 195t-29 275q36 227 221 382.5t420 155.5q117 0 217.5 -44.5t165.5 -126.5l25 154
h146l-141 -886q-21 -133 -71 -247.5t-119 -185.5q-64 -66 -147 -114q-143 -73 -293 -73zM687 165q173 0 310 114.5t163 283.5q26 167 -74 281t-273 114q-175 0 -309.5 -113t-161.5 -282q-28 -175 71 -287q99 -111 274 -111z" />
    <glyph glyph-name="h" unicode="h" horiz-adv-x="1318" 
d="M402 548l-87 -548h-146l222 1400h146l-71 -448q81 71 180.5 110t200.5 39q207 0 320.5 -133.5t81.5 -338.5l-100 -629h-145l96 604q25 160 -50.5 257t-224.5 97q-157 0 -275.5 -115t-147.5 -295z" />
    <glyph glyph-name="i" unicode="i" horiz-adv-x="499" 
d="M525 1237q-30 -24 -64.5 -29t-60.5 6.5t-41 38t-10 61.5q8 47 43 77t83 30q45 0 71 -31.5t20.5 -75.5t-41.5 -77zM493 1084l-172 -1084h-146l172 1084h146z" />
    <glyph glyph-name="j" unicode="j" horiz-adv-x="619" 
d="M638 1237q-28 -24 -61 -28.5t-58.5 7t-40 38t-9.5 60.5q8 45 43.5 76t81.5 31q47 0 72.5 -33t18 -77.5t-46.5 -73.5zM81 -395l-184 2l23 144l178 -2q42 -1 67.5 4.5t52 25.5t43.5 63.5t28 113.5l179 1128h147l-179 -1130q-28 -177 -115.5 -263t-239.5 -86z" />
    <glyph glyph-name="k" unicode="k" horiz-adv-x="1190" 
d="M351 227l-36 -227h-146l222 1400h146l-153 -964l737 650h201l-583 -517l404 -567h-195l-328 463z" />
    <glyph glyph-name="l" unicode="l" horiz-adv-x="484" 
d="M537 1400l-222 -1400h-146l222 1400h146z" />
    <glyph glyph-name="m" unicode="m" horiz-adv-x="1929" 
d="M410 602l-95 -602h-146l172 1084h146l-17 -108q67 60 152 92.5t172 32.5q115 0 198 -53.5t121 -151.5q72 97 178.5 151t224.5 54q190 0 284 -129t60 -343l-100 -629h-147l96 604q26 169 -29.5 261.5t-185.5 92.5q-131 0 -234 -101.5t-128 -254.5l-95 -602h-146l96 604
q26 165 -31 259.5t-184 94.5q-131 0 -234 -101.5t-128 -254.5z" />
    <glyph glyph-name="n" unicode="n" horiz-adv-x="1318" 
d="M402 548l-87 -548h-146l172 1084h146l-21 -132q81 71 180.5 110t200.5 39q207 0 320.5 -133.5t81.5 -338.5l-100 -629h-145l96 604q25 160 -50.5 257t-224.5 97q-157 0 -275.5 -115t-147.5 -295z" />
    <glyph glyph-name="o" unicode="o" horiz-adv-x="1317" 
d="M659 -15q-153 0 -269 74.5t-169.5 203t-29.5 281.5q36 227 224 395q191 162 420 162q151 0 268 -74.5t171.5 -203t30.5 -279.5q-24 -153 -119 -281.5t-235 -203t-292 -74.5zM682 130q172 0 309.5 120t165.5 294q27 172 -73.5 292t-271.5 120q-173 0 -309 -118.5
t-164 -293.5q-28 -174 71.5 -294t271.5 -120z" />
    <glyph glyph-name="p" unicode="p" horiz-adv-x="1387" 
d="M341 164l-88 -555h-146l234 1475h146l-26 -162q93 86 207 132.5t231 46.5q152 0 268.5 -74.5t170 -202.5t29.5 -280q-37 -233 -224.5 -396t-419.5 -163q-116 0 -216 47t-166 132zM745 128q172 0 309.5 120.5t165.5 295.5q28 174 -71.5 294t-271.5 120
q-111 0 -214.5 -55.5t-173.5 -150.5t-88 -208q-27 -173 74 -297q98 -119 270 -119z" />
    <glyph glyph-name="q" unicode="q" horiz-adv-x="1386" 
d="M1389 1084l-234 -1475h-146l88 555q-93 -85 -207.5 -132t-230.5 -47q-153 0 -269 74.5t-169.5 203t-29.5 281.5q36 227 224 395q191 162 420 162q116 0 216 -47t166 -132l26 162h146zM681 128q172 0 310.5 121.5t165.5 294.5q27 172 -73.5 293t-270.5 121
q-172 0 -309 -120t-165 -294q-28 -175 71 -295.5t271 -120.5z" />
    <glyph glyph-name="r" unicode="r" horiz-adv-x="816" 
d="M400 534l-85 -534h-146l172 1084h146l-23 -143q77 70 171 108.5t189 38.5h126l-22 -143h-105q-158 0 -276.5 -115t-146.5 -296z" />
    <glyph glyph-name="s" unicode="s" horiz-adv-x="1067" 
d="M531 -19q-157 0 -259 68.5t-115 181.5q-6 58 14 123h136q-40 -94 34 -163t212 -69q120 0 208 49.5t101 125.5q9 67 -47.5 109.5t-196.5 73.5q-158 32 -243 68q-165 75 -138 239q22 138 155.5 228t316.5 90q204 0 308 -106.5t55 -265.5h-136q39 92 -35.5 161t-213.5 69
q-121 0 -209 -50t-100 -126q-8 -49 28 -77q13 -12 63 -32q13 -6 23.5 -10t24.5 -8.5t20.5 -7t25.5 -7t25 -6t33 -8t35 -8.5q205 -44 286.5 -120.5t61.5 -204.5q-22 -137 -155.5 -227t-317.5 -90z" />
    <glyph glyph-name="t" unicode="t" horiz-adv-x="901" 
d="M823 128l-22 -143l-186 -2q-150 -2 -210.5 84.5t-32.5 264.5l96 609h-244l23 143h244l50 316h145l-50 -316h361l-23 -143h-361l-96 -607q-8 -47 -8.5 -82.5t6.5 -58t17.5 -36.5t29 -21t37 -9t45.5 -1z" />
    <glyph glyph-name="u" unicode="u" horiz-adv-x="1318" 
d="M643 -17q-207 0 -320.5 133.5t-81.5 337.5l100 630h146l-96 -603q-25 -160 50.5 -257.5t224.5 -97.5q157 0 275.5 115t147.5 295l87 548h145l-172 -1084h-145l21 133q-80 -72 -180 -111t-202 -39z" />
    <glyph glyph-name="v" unicode="v" horiz-adv-x="1239" 
d="M1335 1086l-669 -1086h-91l-326 1086h159l252 -833l516 833h159z" />
    <glyph glyph-name="w" unicode="w" horiz-adv-x="1425" 
d="M837 791l-368 -795h-119l-101 1092h151l70 -769l357 769h113l116 -769l311 769h152l-448 -1092h-119z" />
    <glyph glyph-name="x" unicode="x" horiz-adv-x="1231" 
d="M684 426l-405 -426h-180l513 542l-341 542h180l270 -426l403 426h181l-513 -542l341 -542h-181z" />
    <glyph glyph-name="y" unicode="y" horiz-adv-x="1239" 
d="M1335 1086l-912 -1477h-162l292 468l-304 1009h159l252 -833l516 833h159z" />
    <glyph glyph-name="z" unicode="z" horiz-adv-x="1091" 
d="M995 143l-23 -143h-841l17 110l780 831h-646l23 143h853l-18 -109l-778 -832h633z" />
    <glyph glyph-name="braceleft" unicode="{" horiz-adv-x="873" 
d="M728 -97l-23 -143h-114q-154 0 -206 98.5t-16 321.5l6 42q2 12 6.5 39.5t7 43.5t6.5 44.5t5.5 43t4 38.5t2 31t-1.5 20q-11 43 -26 52t-76 9h-70l28 178h64q86 0 109 28q30 39 60 221l18 115q35 223 118 321.5t237 98.5h114l-22 -143h-114q-87 0 -125 -55t-64 -222
q-45 -278 -65 -327q-28 -80 -84 -124q16 -16 23 -39q21 -55 22 -115t-12 -127l-27 -173q-20 -109 -15.5 -170.5t30.5 -84t86 -22.5h114z" />
    <glyph glyph-name="bar" unicode="|" horiz-adv-x="630" 
d="M610 1400l-284 -1791h-146l284 1791h146z" />
    <glyph glyph-name="braceright" unicode="}" horiz-adv-x="872" 
d="M208 -240h-116l23 143h116q85 0 122.5 55t64.5 222l8 55q40 245 76 315q25 49 66 83q-35 38 -43 99q-9 72 31 321l5 32q26 167 6.5 222t-105.5 55h-116l22 143h116q152 0 204 -98.5t17 -321.5l-6 -39q-41 -245 -31 -273q13 -33 28.5 -42.5t58.5 -9.5h85l-28 -178h-87
q-69 -3 -92 -37q-28 -46 -60 -252l-11 -74q-36 -223 -119 -321.5t-235 -98.5z" />
    <glyph glyph-name="asciitilde" unicode="~" horiz-adv-x="1118" 
d="M373 385h-143q13 137 97 228t197 91q43 0 79.5 -17t53 -33t40.5 -44q20 -25 30.5 -36.5t28 -20t40.5 -8.5q107 0 125 194h144q-11 -146 -94 -241.5t-197 -95.5q-42 0 -79 17.5t-54 34t-40 44.5q-39 43 -56 53q-19 11 -44 11q-104 0 -128 -177z" />
    <glyph glyph-name="exclamdown" unicode="&#xa1;" horiz-adv-x="615" 
d="M448 889q-44 0 -69.5 31t-18.5 75q5 33 28 59t52 37t60.5 6t52.5 -28q25 -37 18.5 -77t-42.5 -71.5t-81 -31.5zM439 360l-107 -677h-146l107 677l83 478h131z" />
    <glyph glyph-name="cent" unicode="&#xa2;" horiz-adv-x="1293" 
d="M760 148l-23 -146h-146l23 145q-134 17 -233 95t-143 199.5t-22 260.5q35 223 215 383q158 147 357 170l24 155h149l-24 -156q161 -23 267.5 -133t121.5 -271h-153q-29 120 -119.5 192t-216.5 72q-173 0 -309 -118.5t-164 -293.5q-28 -174 71.5 -294t271.5 -120
q125 0 238.5 72t179.5 192h154q-70 -163 -210.5 -272.5t-308.5 -131.5z" />
    <glyph glyph-name="sterling" unicode="&#xa3;" horiz-adv-x="1220" 
d="M1050 145l-23 -145h-890l18 112q155 170 191 260q36 83 49 159q3 16 5 51l-173 2l23 145h140q-1 4 -1 13l-4 14q-1 1 -1 4v3q0 1 -1 2l-1 2q-25 155 -9 255q28 178 162 287t325 109q190 0 287 -110t73 -298h-145q13 121 -51.5 191.5t-187.5 70.5q-124 0 -207.5 -67
t-103.5 -183q-11 -71 8 -204q1 -4 1.5 -7t0.5 -6l12 -78l446 -2l-23 -145l-415 2q-2 -31 -5 -46q-30 -191 -185 -391h685z" />
    <glyph glyph-name="currency" unicode="&#xa4;" horiz-adv-x="1062" 
d="M441 513l-188 -161l-88 102l189 162q-36 70 -22 168q16 96 74 170l-137 159l120 102l135 -159q83 47 176 47h55q55 -3 114 -48l186 160l86 -103l-189 -162q34 -71 20 -163l-8 -49q-12 -56 -67 -121l138 -163l-118 -100l-138 163q-76 -46 -128 -46l-54 -2q-89 0 -156 44z
M617 610q42 4 91 29t87 65t42 92t-43 111q-40 51 -72 54h-45q-69 0 -129 -50q-63 -58 -75 -127q-11 -69 34 -123q47 -51 110 -51z" />
    <glyph glyph-name="yen" unicode="&#xa5;" horiz-adv-x="1314" 
d="M769 233l-37 -233h-145l37 233h-358l15 142h365l14 86h-358l16 144h298l-371 795h172l346 -744l579 744h172l-619 -794h311l-23 -145h-378l-13 -84h378l-23 -144h-378z" />
    <glyph glyph-name="brokenbar" unicode="&#xa6;" horiz-adv-x="465" 
d="M527 1400l-123 -773h-145l123 773h145zM366 385l-123 -774h-145l123 774h145z" />
    <glyph glyph-name="section" unicode="&#xa7;" horiz-adv-x="1037" 
d="M485 -227q-201 0 -295.5 106t-54.5 286h144q-24 -116 34.5 -180t192.5 -69h17q106 0 178 41t83 106q4 26 -6.5 46.5t-29 34.5t-55.5 26.5t-71 20.5t-90 19q-186 39 -269.5 116t-65.5 192q26 164 193 240q-75 38 -104 89.5t-17 124.5q20 128 144.5 209.5t299.5 81.5
q190 0 292 -113.5t61 -280.5h-144q24 117 -35 180.5t-195 68.5h-16q-106 0 -178.5 -40.5t-82.5 -105.5q-8 -54 54.5 -91.5t195.5 -56.5q186 -26 271.5 -103.5t65.5 -202.5q-25 -157 -189 -238q141 -68 117 -217q-22 -135 -140.5 -212.5t-304.5 -77.5zM584 361
q103 0 182.5 45.5t89.5 111.5q11 70 -54.5 112.5t-185.5 42.5q-103 0 -183 -45t-90 -110q-10 -64 61 -110.5t180 -46.5z" />
    <glyph glyph-name="copyright" unicode="&#xa9;" horiz-adv-x="1400" 
d="M699 316q-148 0 -274 73t-199.5 198t-73.5 272q0 228 161 388q161 156 386 156q148 0 274 -73t199.5 -198.5t73.5 -272.5q0 -111 -43.5 -211.5t-116.5 -173t-174.5 -115.5t-212.5 -43zM699 430q182 0 305.5 122t123.5 303q0 183 -124.5 308.5t-306.5 125.5
q-180 0 -304.5 -125t-124.5 -305q0 -183 126 -305q120 -124 305 -124zM705 543q-131 0 -223 92.5t-92 223.5q0 127 92 222q93 90 223 90q111 0 195.5 -71t104.5 -182h-116q-17 64 -67.5 103t-116.5 39q-85 0 -143 -58.5t-58 -142.5q0 -87 57.5 -145.5t143.5 -58.5
q66 0 116.5 38.5t67.5 102.5h116q-22 -113 -105.5 -183t-194.5 -70z" />
    <glyph glyph-name="ordfeminine" unicode="&#xaa;" horiz-adv-x="448" 
d="M358 992q-76 0 -119 37t-35 96q10 61 60 94.5t133 34.5l135 1l4 24q5 32 -21.5 51t-77.5 19q-56 0 -85 -21t-27 -60h-83q5 72 62.5 118t145.5 46q80 0 127.5 -39t43.5 -101l-47 -296h-83l5 34q-59 -38 -138 -38zM371 1075q112 0 146 98h-133q-93 0 -96 -46q-4 -24 19 -38
t64 -14z" />
    <glyph glyph-name="guillemotleft" unicode="&#xab;" horiz-adv-x="1160" 
d="M337 509l407 -383l-29 -180l-542 512l16 103l705 510l-29 -180zM673 509l407 -383l-29 -180l-542 512l16 103l705 510l-29 -180z" />
    <glyph glyph-name="registered" unicode="&#xae;" horiz-adv-x="1077" 
d="M537 667q-194 0 -321.5 126.5t-127.5 319.5q0 188 125 318q127 129 324 129q193 0 321.5 -127.5t128.5 -319.5q0 -191 -128.5 -318.5t-321.5 -127.5zM537 782q146 0 239 93t93 238q0 146 -93.5 240t-238.5 94q-143 0 -237 -95t-94 -239q0 -141 92 -238q88 -93 239 -93z
M456 1064v-168h-78v459h197q64 0 104 -40.5t40 -105.5q0 -48 -23 -84t-64 -52l115 -177h-92l-112 168h-87zM575 1279h-119v-138h119q66 0 66 69q0 32 -17.5 50.5t-48.5 18.5z" />
    <glyph glyph-name="degree" unicode="&#xb0;" horiz-adv-x="856" 
d="M560 835q-122 0 -194 84.5t-53 205.5q20 119 117 207q104 84 222 84q121 0 194 -85.5t53 -205.5q-19 -120 -118 -205t-221 -85zM583 978q63 0 113 42t60 103q10 64 -26.5 106.5t-100.5 42.5q-63 0 -110.5 -42t-59.5 -107l-1 -6q-5 -29 3 -52q22 -47 50.5 -67t71.5 -20z
" />
    <glyph glyph-name="plusminus" unicode="&#xb1;" horiz-adv-x="1303" 
d="M814 573l-58 -367h-145l58 368h-372l30 144h367l58 369l142 -7l-57 -362h371l-23 -145h-371zM1112 143l-15 -143l-888 -2l23 145h880z" />
    <glyph glyph-name="uni00B2" unicode="&#xb2;" horiz-adv-x="737" 
d="M759 773l-23 -112h-503l12 79l338 322q96 92 105 142q8 49 -22 78.5t-87 29.5q-72 0 -120 -47.5t-58 -129.5h-115q20 132 117 222q85 69 194 69q103 0 162 -63.5t44 -158.5q-15 -92 -146 -214l-227 -217h329z" />
    <glyph glyph-name="uni00B3" unicode="&#xb3;" horiz-adv-x="736" 
d="M468 647q-121 0 -188 83.5t-42 204.5l116 6q-18 -78 19.5 -128.5t113.5 -50.5q70 0 119 38t60 100q9 59 -33.5 90.5t-131.5 31.5q-41 0 -82 -5l-31 66l253 216h-316l17 112h496l-14 -91l-226 -191q96 -17 145 -78.5t36 -150.5q-18 -111 -105.5 -182t-205.5 -71z" />
    <glyph glyph-name="paragraph" unicode="&#xb6;" horiz-adv-x="1300" 
d="M1032 1400l-222 -1400h-146l116 733q-278 7 -400 91.5t-96 251.5q26 157 194 240.5t458 83.5h96zM1324 1400l-222 -1400h-145l222 1400h145z" />
    <glyph glyph-name="periodcentered" unicode="&#xb7;" horiz-adv-x="585" 
d="M468 619q-42 -29 -83 -29.5t-68 30t-20 75.5q7 43 43 73.5t80 30.5q45 0 70 -30.5t20 -73.5t-42 -76z" />
    <glyph glyph-name="uni00B9" unicode="&#xb9;" horiz-adv-x="513" 
d="M606 1411l-120 -758h-115l92 580l-137 -112l-70 79l232 188l3 23h115z" />
    <glyph glyph-name="ordmasculine" unicode="&#xba;" horiz-adv-x="569" 
d="M436 965q-98 0 -155 68t-41 167q15 97 95 168q78 66 175 66q96 0 155 -69.5t44 -164.5t-93 -164q-80 -71 -180 -71zM384 1118q20 -26 52.5 -31.5t63.5 7t55.5 41t30.5 65.5q11 71 -44 99q-50 26 -107 -1q-61 -29 -72 -98q-7 -48 21 -82z" />
    <glyph glyph-name="guillemotright" unicode="&#xbb;" horiz-adv-x="1160" 
d="M813 561l-16 -103l-706 -512l29 180l529 383l-408 382l29 180zM1149 561l-16 -103l-706 -512l29 180l529 383l-408 382l29 180z" />
    <glyph glyph-name="questiondown" unicode="&#xbf;" horiz-adv-x="1072" 
d="M793 917q-24 -20 -50 -27.5t-47 -2.5t-39 17.5t-27.5 32.5t-11 42t10 46.5t35.5 45.5q24 20 50 27.5t47 2.5t39 -17.5t27.5 -32.5t11 -42t-10 -46.5t-35.5 -45.5zM479 -335q-189 0 -294 120.5t-76 302.5q15 94 62 160q12 20 25.5 37.5t30.5 33.5t28.5 26.5t33 25
t30.5 20.5t34 21t31 19q10 6 42 26.5t41 26.5t33 23t32 25.5l24 25.5t22 30.5t13.5 32.5t10.5 40l31 195h146l-32 -202q-14 -88 -68.5 -162t-143.5 -127l-130 -75q-131 -84 -151 -209q-19 -117 51.5 -194t196.5 -77q147 0 249 97.5t127 263.5h146q-32 -226 -183.5 -366
t-361.5 -140z" />
    <glyph glyph-name="Agrave" unicode="&#xc0;" horiz-adv-x="1466" 
d="M913 1802l174 -318h-159l-206 318h191zM463 418l-259 -418h-159l864 1400h91l420 -1400h-159l-127 418h-671zM1093 562l-179 586l-363 -586h542z" />
    <glyph glyph-name="Aacute" unicode="&#xc1;" horiz-adv-x="1466" 
d="M1314 1800l-318 -318h-159l274 318h203zM463 418l-259 -418h-159l864 1400h91l420 -1400h-159l-127 418h-671zM1093 562l-179 586l-363 -586h542z" />
    <glyph glyph-name="Acircumflex" unicode="&#xc2;" horiz-adv-x="1466" 
d="M994 1618l-130 -129h-192l294 289h108l201 -289h-191zM463 418l-259 -418h-159l864 1400h91l420 -1400h-159l-127 418h-671zM1093 562l-179 586l-363 -586h542z" />
    <glyph glyph-name="Atilde" unicode="&#xc3;" horiz-adv-x="1466" 
d="M1114 1469q-32 0 -59 10.5t-49 32t-34 36t-30 41.5q-22 31 -31 42t-24.5 22.5t-32.5 11.5q-40 0 -68.5 -44t-34.5 -115h-142q4 126 82 214t185 88q33 0 60 -10t49.5 -32t34 -36t30.5 -41q28 -42 45.5 -59t40.5 -17q40 0 69 51t30 124h146q-10 -137 -86 -228t-181 -91z
M463 418l-259 -418h-159l864 1400h91l420 -1400h-159l-127 418h-671zM1093 562l-179 586l-363 -586h542z" />
    <glyph glyph-name="Adieresis" unicode="&#xc4;" horiz-adv-x="1466" 
d="M856 1559q-55 -47 -112.5 -28t-64.5 71t44 104q31 30 66.5 35t60.5 -12t39.5 -43.5t6.5 -62t-40 -64.5zM1261 1555q-29 -24 -62.5 -28.5t-59.5 7t-41 38.5t-10 61q7 43 43.5 74.5t81.5 31.5t70.5 -31.5t20 -75.5t-42.5 -77zM463 418l-259 -418h-159l864 1400h91
l420 -1400h-159l-127 418h-671zM1093 562l-179 586l-363 -586h542z" />
    <glyph glyph-name="Aring" unicode="&#xc5;" horiz-adv-x="1466" 
d="M463 418l-259 -418h-159l864 1400h11q-73 13 -113 69.5t-28 132.5q10 67 56 118.5t103.5 74t119.5 12.5t102 -57q37 -45 39.5 -103t-23 -108.5t-75 -90t-109.5 -48.5h8l420 -1400h-159l-127 418h-671zM978 1538q26 0 49 19t27 45q4 28 -12.5 47.5t-43.5 19.5
q-26 0 -45.5 -18.5t-27.5 -51.5l-1 -6v-15q12 -24 22.5 -32t31.5 -8zM1093 562l-179 586l-363 -586h542z" />
    <glyph glyph-name="AE" unicode="&#xc6;" horiz-adv-x="1920" 
d="M463 418l-259 -418h-159l864 1400h1106l-23 -143h-842l-77 -485h708l-22 -142h-708l-77 -487h842l-23 -143h-988l66 418h-408zM1004 1257h-21l-432 -695h343z" />
    <glyph glyph-name="Ccedilla" unicode="&#xc7;" horiz-adv-x="1591" 
d="M643 -374q-91 0 -135 7l29 187l5 1q12 -31 33.5 -41.5t84.5 -10.5q62 0 118 11.5t58 23.5q3 20 -47.5 44.5t-106.5 31.5t-92 -12l-2 3l87 130q-193 40 -321 196q-110 136 -127.5 320.5t59 368.5t230.5 319q238 211 532 211q215 0 373 -121.5t207 -324.5l-151 -33
q-42 154 -163.5 243.5t-288.5 89.5q-154 0 -293.5 -75t-233 -205.5t-118.5 -288.5q-19 -118 7.5 -223.5t88 -181.5t158 -120t211.5 -44q167 0 316.5 90t241.5 245l139 -36q-109 -196 -297.5 -316t-398.5 -128q76 -30 112.5 -79t26.5 -108q-13 -82 -103 -128t-239 -46z" />
    <glyph glyph-name="Egrave" unicode="&#xc8;" horiz-adv-x="1315" 
d="M875 1820l172 -317h-158l-205 317h191zM1211 143l-23 -143h-989l222 1400h989l-23 -143h-844l-77 -485h709l-22 -142h-709l-77 -487h844z" />
    <glyph glyph-name="Eacute" unicode="&#xc9;" horiz-adv-x="1315" 
d="M1291 1820l-318 -317h-158l273 317h203zM1211 143l-23 -143h-989l222 1400h989l-23 -143h-844l-77 -485h709l-22 -142h-709l-77 -487h844z" />
    <glyph glyph-name="Ecircumflex" unicode="&#xca;" horiz-adv-x="1315" 
d="M953 1632l-130 -129h-192l293 289h109l201 -289h-191zM1211 143l-23 -143h-989l222 1400h989l-23 -143h-844l-77 -485h709l-22 -142h-709l-77 -487h844z" />
    <glyph glyph-name="Edieresis" unicode="&#xcb;" horiz-adv-x="1315" 
d="M1225 1575q-28 -24 -58.5 -30t-54.5 3t-41 28.5t-22.5 45t5 54.5t38.5 54q33 27 69 30.5t60.5 -14.5t38.5 -45t5.5 -62t-40.5 -64zM811 1575q-41 -30 -81 -30t-67 31t-20 76t43 76t82 31t72 -33t18.5 -77.5t-47.5 -73.5zM1211 143l-23 -143h-989l222 1400h989l-23 -143
h-844l-77 -485h709l-22 -142h-709l-77 -487h844z" />
    <glyph glyph-name="Igrave" unicode="&#xcc;" horiz-adv-x="605" 
d="M471 1820l174 -317h-158l-206 317h190zM586 1400l-222 -1400h-145l222 1400h145z" />
    <glyph glyph-name="Iacute" unicode="&#xcd;" horiz-adv-x="628" 
d="M914 1820l-319 -317h-158l274 317h203zM610 1400l-222 -1400h-146l222 1400h146z" />
    <glyph glyph-name="Icircumflex" unicode="&#xce;" horiz-adv-x="574" 
d="M548 1632l-130 -129h-192l293 289h109l201 -289h-192zM582 1400l-222 -1400h-145l222 1400h145z" />
    <glyph glyph-name="Idieresis" unicode="&#xcf;" horiz-adv-x="646" 
d="M449 1592q-43 -31 -84 -31t-68.5 31.5t-20.5 76.5q7 43 44 74.5t81 31.5q45 0 71 -31.5t20.5 -75t-43.5 -76.5zM859 1595q-43 -32 -84.5 -33t-70 30t-21.5 77q8 44 43.5 75t80.5 31t71 -30t21.5 -73t-40.5 -77zM618 1400l-222 -1400h-146l222 1400h146z" />
    <glyph glyph-name="Eth" unicode="&#xd0;" horiz-adv-x="1490" 
d="M647 0h-443l100 629h-197l22 143h197l100 628h443q152 0 277 -53.5t205.5 -146.5t115 -222.5t11.5 -276.5q-31 -198 -150 -358.5t-298.5 -251.5t-382.5 -91zM868 629h-418l-77 -486h297q163 0 305 71.5t235.5 199.5t118.5 287q25 158 -28.5 285.5t-173 199t-281.5 71.5
h-297l-77 -485h418z" />
    <glyph glyph-name="Eth" unicode="&#xf0;" horiz-adv-x="1490" 
d="M647 0h-443l100 629h-197l22 143h197l100 628h443q152 0 277 -53.5t205.5 -146.5t115 -222.5t11.5 -276.5q-31 -198 -150 -358.5t-298.5 -251.5t-382.5 -91zM868 629h-418l-77 -486h297q163 0 305 71.5t235.5 199.5t118.5 287q25 158 -28.5 285.5t-173 199t-281.5 71.5
h-297l-77 -485h418z" />
    <glyph glyph-name="Ntilde" unicode="&#xd1;" horiz-adv-x="1451" 
d="M1090 1424q-25 0 -46.5 11.5t-39.5 36t-27.5 40t-24.5 45.5q-6 10 -14 25.5t-10 19.5q-20 29 -30.5 42t-26 23.5t-32.5 10.5q-41 0 -69 -43.5t-34 -115.5h-142q4 127 82.5 215t185.5 88q33 0 60.5 -10.5t49 -31t34 -37t28.5 -40.5q21 -30 31.5 -42.5t25.5 -23t31 -10.5
q40 0 68.5 51t29.5 124h145q-5 -95 -46 -183t-103 -141.5t-126 -53.5zM520 1114l-176 -1114h-145l222 1400h123l608 -1119l177 1119h146l-222 -1400h-125z" />
    <glyph glyph-name="Ograve" unicode="&#xd2;" horiz-adv-x="1648" 
d="M1013 1820l173 -317h-158l-205 317h190zM822 -13q-296 0 -468 210q-110 136 -127.5 320.5t59 368.5t230.5 319q238 211 532 211q191 0 337.5 -95.5t214 -260t36.5 -359.5q-31 -197 -149.5 -361t-295 -258.5t-369.5 -94.5zM845 132q155 0 293.5 74.5t231.5 205t118 289.5
q19 118 -7.5 223.5t-88 181t-157 120t-210.5 44.5q-154 0 -293.5 -75t-233 -205.5t-118.5 -288.5q-37 -234 95 -406q133 -163 370 -163z" />
    <glyph glyph-name="Oacute" unicode="&#xd3;" horiz-adv-x="1648" 
d="M1430 1820l-319 -317h-158l273 317h204zM822 -13q-296 0 -468 210q-110 136 -127.5 320.5t59 368.5t230.5 319q238 211 532 211q191 0 337.5 -95.5t214 -260t36.5 -359.5q-31 -197 -149.5 -361t-295 -258.5t-369.5 -94.5zM845 132q155 0 293.5 74.5t231.5 205t118 289.5
q19 118 -7.5 223.5t-88 181t-157 120t-210.5 44.5q-154 0 -293.5 -75t-233 -205.5t-118.5 -288.5q-37 -234 95 -406q133 -163 370 -163z" />
    <glyph glyph-name="Ocircumflex" unicode="&#xd4;" horiz-adv-x="1648" 
d="M1093 1632l-131 -129h-191l293 289h109l201 -289h-192zM822 -13q-296 0 -468 210q-110 136 -127.5 320.5t59 368.5t230.5 319q238 211 532 211q191 0 337.5 -95.5t214 -260t36.5 -359.5q-31 -197 -149.5 -361t-295 -258.5t-369.5 -94.5zM845 132q155 0 293.5 74.5
t231.5 205t118 289.5q19 118 -7.5 223.5t-88 181t-157 120t-210.5 44.5q-154 0 -293.5 -75t-233 -205.5t-118.5 -288.5q-37 -234 95 -406q133 -163 370 -163z" />
    <glyph glyph-name="Otilde" unicode="&#xd5;" horiz-adv-x="1649" 
d="M818 1474h-143q12 136 96.5 228t196.5 92q33 0 60 -8t50.5 -26t33.5 -28t31 -33q28 -36 47.5 -50.5t51.5 -14.5q53 0 85 50t39 143h144q-10 -145 -93 -240.5t-198 -95.5q-43 0 -80 17.5t-53.5 34t-39.5 44.5q-19 24 -30.5 35t-30 20t-40.5 9q-103 0 -127 -177zM823 -13
q-145 0 -266.5 55.5t-200 150.5t-112 227.5t-10.5 280.5q31 196 150 360.5t295.5 259.5t369.5 95q191 0 337.5 -95.5t214 -260t36.5 -359.5q-31 -197 -149.5 -361t-295 -258.5t-369.5 -94.5zM846 132q155 0 293.5 74.5t231.5 205t118 289.5q19 118 -7.5 223.5t-88 181
t-157 120t-210.5 44.5q-154 0 -293.5 -75t-233 -205.5t-118.5 -288.5q-37 -234 95 -406q133 -163 370 -163z" />
    <glyph glyph-name="Odieresis" unicode="&#xd6;" horiz-adv-x="1648" 
d="M950 1575q-41 -30 -81.5 -30t-67.5 31t-20 76t43.5 76t82.5 31t71.5 -33t18 -77.5t-46.5 -73.5zM1362 1575q-43 -31 -84 -31.5t-69 31t-20 77.5q7 46 42.5 76.5t81.5 30.5t72 -31.5t20 -75.5t-43 -77zM822 -13q-296 0 -468 210q-110 136 -127.5 320.5t59 368.5t230.5 319
q238 211 532 211q191 0 337.5 -95.5t214 -260t36.5 -359.5q-31 -197 -149.5 -361t-295 -258.5t-369.5 -94.5zM845 132q155 0 293.5 74.5t231.5 205t118 289.5q19 118 -7.5 223.5t-88 181t-157 120t-210.5 44.5q-154 0 -293.5 -75t-233 -205.5t-118.5 -288.5
q-19 -118 7.5 -223.5t88 -181.5t158 -120t211.5 -44z" />
    <glyph glyph-name="multiply" unicode="&#xd7;" horiz-adv-x="1108" 
d="M746 575l210 -247l-116 -100l-211 247l-290 -245l-84 98l290 245l-212 250l117 100l213 -249l289 246l82 -99z" />
    <glyph glyph-name="Oslash" unicode="&#xd8;" horiz-adv-x="1649" 
d="M458 99l-135 -145l-102 86l140 148q-84 100 -117 234t-10 279q31 196 150 360.5t295.5 259.5t369.5 95q212 0 365 -114l135 144l102 -85l-142 -150q177 -207 128 -510q-31 -197 -149.5 -361t-295 -258.5t-369.5 -94.5q-213 0 -365 112zM471 304l836 883q-116 83 -281 83
q-154 0 -293.5 -75t-233 -205.5t-118.5 -288.5q-37 -239 90 -397zM846 132q155 0 293.5 74.5t231.5 205t118 289.5q18 111 -5 213.5t-83 180.5l-834 -882q113 -81 279 -81z" />
    <glyph glyph-name="Ugrave" unicode="&#xd9;" horiz-adv-x="1548" 
d="M965 1820l173 -317h-158l-206 317h191zM772 -15q-121 0 -204 35q-97 35 -164 99q-77 70 -106.5 191.5t-6.5 268.5l130 821h145l-130 -821q-18 -111 4 -201t79 -143q114 -105 276 -105q163 0 309 105q73 52 123 142t68 202l130 821h146l-130 -821q-24 -149 -91 -269
q-129 -218 -365 -290q-107 -35 -213 -35z" />
    <glyph glyph-name="Uacute" unicode="&#xda;" horiz-adv-x="1548" 
d="M1382 1820l-319 -317h-158l273 317h204zM772 -15q-121 0 -204 35q-97 35 -164 99q-77 70 -106.5 191.5t-6.5 268.5l130 821h145l-130 -821q-18 -111 4 -201t79 -143q114 -105 276 -105q163 0 309 105q73 52 123 142t68 202l130 821h146l-130 -821q-24 -149 -91 -269
q-129 -218 -365 -290q-107 -35 -213 -35z" />
    <glyph glyph-name="Ucircumflex" unicode="&#xdb;" horiz-adv-x="1548" 
d="M1047 1641l-131 -129h-192l293 290h109l201 -290h-192zM772 -15q-121 0 -204 35q-97 35 -164 99q-77 70 -106.5 191.5t-6.5 268.5l130 821h145l-130 -821q-18 -111 4 -201t79 -143q114 -105 276 -105q163 0 309 105q73 52 123 142t68 202l130 821h146l-130 -821
q-24 -149 -91 -269q-129 -218 -365 -290q-107 -35 -213 -35z" />
    <glyph glyph-name="Udieresis" unicode="&#xdc;" horiz-adv-x="1548" 
d="M907 1575q-34 -29 -71 -32.5t-61.5 14.5t-38 45t-4 63t43.5 65q23 20 49 27.5t47 2t39 -18t27.5 -33t11.5 -42t-9 -46t-34 -45.5zM1309 1575q-42 -30 -82 -30t-67 31t-20 76t43 76t82 31t72 -33t18.5 -77.5t-46.5 -73.5zM772 -15q-121 0 -204 35q-97 35 -164 99
q-77 70 -106.5 191.5t-6.5 268.5l130 821h145l-130 -821q-18 -111 4 -201t79 -143q114 -105 276 -105q163 0 309 105q73 52 123 142t68 202l130 821h146l-130 -821q-24 -149 -91 -269q-129 -218 -365 -290q-107 -35 -213 -35z" />
    <glyph glyph-name="Yacute" unicode="&#xdd;" horiz-adv-x="1365" 
d="M1281 1820l-318 -317h-159l274 317h203zM836 499l-79 -499h-146l79 501l-420 899h172l346 -744l579 744h172z" />
    <glyph glyph-name="germandbls" unicode="&#xdf;" horiz-adv-x="1379" 
d="M512 1063l-239 -1513h-145l240 1515q27 171 126 261t260 90h204q213 0 334 -103.5t95 -264.5q-15 -93 -76.5 -173t-158.5 -133q96 -55 137.5 -145.5t23.5 -204.5q-29 -181 -200 -295q-173 -113 -381 -110l-265 2l23 141l264 -2q164 2 279.5 76.5t134.5 192.5
q19 121 -70 193t-259 74l-265 2l23 141h265q145 0 253.5 69t125.5 172q16 97 -70 159t-236 63l-204 2q-97 1 -149 -48.5t-70 -160.5z" />
    <glyph glyph-name="agrave" unicode="&#xe0;" horiz-adv-x="1249" 
d="M725 1504l173 -318h-159l-205 318h191zM540 -8q-192 0 -297.5 89.5t-83.5 234.5q22 146 143.5 225t328.5 80l402 2l16 103q16 106 -64 168t-235 62q-151 0 -241 -57.5t-104 -163.5h-146q22 166 163 266t351 100q203 0 321 -94t105 -246l-119 -761h-146l23 147
q-2 -5 -9 -9q-71 -68 -180.5 -107t-227.5 -39zM563 138q168 0 286.5 90t158.5 250l-400 -2q-138 -1 -217 -42t-87 -116q-9 -81 62.5 -130.5t196.5 -49.5z" />
    <glyph glyph-name="aacute" unicode="&#xe1;" horiz-adv-x="1249" 
d="M1143 1513l-319 -317h-159l275 317h203zM540 -8q-192 0 -297.5 89.5t-83.5 234.5q22 146 143.5 225t328.5 80l402 2l16 103q16 106 -64 168t-235 62q-151 0 -241 -57.5t-104 -163.5h-146q22 166 163 266t351 100q203 0 321 -94t105 -246l-119 -761h-146l23 147
q-2 -5 -9 -9q-71 -68 -180.5 -107t-227.5 -39zM563 138q168 0 286.5 90t158.5 250l-400 -2q-138 -1 -217 -42t-87 -116q-9 -81 62.5 -130.5t196.5 -49.5z" />
    <glyph glyph-name="acircumflex" unicode="&#xe2;" horiz-adv-x="1249" 
d="M801 1317l-131 -130h-190l292 290h108l200 -290h-190zM540 -8q-192 0 -297.5 89.5t-83.5 234.5q22 146 144 225t328 80l402 2l16 103q16 106 -64 168t-235 62q-151 0 -241 -57.5t-104 -163.5h-146q22 166 163 266t351 100q203 0 321 -94t105 -246l-119 -761h-146l23 147
q-2 -5 -9 -9q-71 -68 -180.5 -107t-227.5 -39zM563 138q168 0 286.5 90t158.5 250l-400 -2q-139 -1 -217 -41.5t-87 -116.5q-9 -81 62.5 -130.5t196.5 -49.5z" />
    <glyph glyph-name="atilde" unicode="&#xe3;" horiz-adv-x="1249" 
d="M925 1168q-42 0 -78 21.5t-52.5 41.5t-40.5 55q-22 30 -31.5 42.5t-25 23.5t-32.5 11q-40 0 -68.5 -44.5t-34.5 -115.5h-142q4 127 82.5 215t185.5 88q32 0 59 -10.5t49.5 -32t34 -36t29.5 -41.5q29 -42 46.5 -59t40.5 -17q40 0 69 51t30 124h145q-7 -135 -84 -226
t-182 -91zM540 -8q-192 0 -297.5 89.5t-83.5 234.5q22 146 143.5 225t328.5 80l402 2l16 103q16 106 -64 168t-235 62q-151 0 -241 -57.5t-104 -163.5h-146q22 166 163 266t351 100q203 0 321 -94t105 -246l-119 -761h-146l23 147q-2 -5 -9 -9q-71 -68 -180.5 -107
t-227.5 -39zM563 138q168 0 286.5 90t158.5 250l-400 -2q-138 -1 -217 -42t-87 -116q-9 -81 62.5 -130.5t196.5 -49.5z" />
    <glyph glyph-name="adieresis" unicode="&#xe4;" horiz-adv-x="1249" 
d="M668 1275q-33 -28 -69 -31.5t-60.5 14.5t-38.5 44.5t-5 62t42 64.5q34 28 70 31.5t60.5 -14t38 -44.5t4.5 -62.5t-42 -64.5zM1079 1279q-56 -47 -113.5 -28t-64.5 71t44 103q30 30 65.5 35t60.5 -11.5t40.5 -43t7.5 -61.5t-40 -65zM540 -8q-192 0 -297.5 89.5
t-83.5 234.5q22 146 143.5 225t328.5 80l402 2l16 103q16 106 -64 168t-235 62q-151 0 -241 -57.5t-104 -163.5h-146q22 166 163 266t351 100q203 0 321 -94t105 -246l-119 -761h-146l23 147q-2 -5 -9 -9q-71 -68 -180.5 -107t-227.5 -39zM563 138q168 0 286.5 90t158.5 250
l-400 -2q-138 -1 -217 -42t-87 -116q-9 -81 62.5 -130.5t196.5 -49.5z" />
    <glyph glyph-name="aring" unicode="&#xe5;" horiz-adv-x="1249" 
d="M773 1139q-88 0 -139 59.5t-37 145.5q10 67 56 118.5t103 74t119 12.5t103 -57q39 -47 39 -110t-31 -116t-88.5 -90t-124.5 -37zM796 1281q27 0 48.5 18.5t26.5 44.5q5 28 -11 47.5t-44 19.5q-26 0 -45.5 -18.5t-27.5 -50.5l-1 -6q-4 -20 11 -38q14 -17 43 -17zM540 -8
q-192 0 -297.5 89.5t-83.5 234.5q22 146 143.5 225t328.5 80l402 2l16 103q16 106 -64 168t-235 62q-151 0 -241 -57.5t-104 -163.5h-146q22 166 163 266t351 100q203 0 321 -94t105 -246l-119 -761h-146l23 147q-2 -5 -9 -9q-71 -68 -180.5 -107t-227.5 -39zM563 138
q168 0 286.5 90t158.5 250l-400 -2q-138 -1 -217 -42t-87 -116q-9 -81 62.5 -130.5t196.5 -49.5z" />
    <glyph glyph-name="ae" unicode="&#xe6;" horiz-adv-x="2137" 
d="M1488 -15q-149 0 -265 72.5t-169 199.5q-45 -64 -106 -119q-71 -68 -180.5 -107t-227.5 -39q-192 0 -297.5 89.5t-83.5 234.5q22 146 143.5 225t328.5 80l402 2l16 103q16 106 -64 168t-235 62q-151 0 -241 -57.5t-104 -163.5h-146q22 166 163 266t351 100
q157 0 266 -58.5t145 -162.5q95 104 222 162.5t258 58.5q217 0 350 -147.5t116 -367.5q-4 -38 -15 -106h-952q-2 -152 96 -251t252 -99q121 0 231 63.5t176 170.5h160q-87 -171 -249 -275t-341 -104zM1188 623h794q-3 146 -99 239.5t-242 93.5q-149 0 -276 -93.5
t-177 -239.5zM563 138q168 0 286.5 90t158.5 250l-400 -2q-138 -1 -217 -42t-87 -116q-9 -81 62.5 -130.5t196.5 -49.5z" />
    <glyph glyph-name="ccedilla" unicode="&#xe7;" horiz-adv-x="1300" 
d="M491 -366q-93 0 -135 6l30 188l4 1q11 -30 34.5 -41.5t83.5 -11.5q61 0 117 11.5t58 23.5q3 15 -27.5 33.5t-72 30.5t-83.5 14.5t-64 -14.5l-2 3l84 124q-176 47 -267 198t-60 344q36 227 224 395q191 162 420 162q188 0 319.5 -112.5t154.5 -294.5h-156
q-28 120 -120.5 191t-220.5 71q-173 0 -309 -118.5t-164 -293.5q-28 -174 71.5 -294t271.5 -120q127 0 242.5 71.5t180.5 190.5h156q-75 -168 -224.5 -277.5t-323.5 -126.5q65 -32 96 -79t23 -101q-14 -83 -103.5 -128.5t-237.5 -45.5z" />
    <glyph glyph-name="egrave" unicode="&#xe8;" horiz-adv-x="1308" 
d="M783 1504l173 -318h-158l-205 318h190zM659 -15q-153 0 -269 74.5t-169.5 203t-29.5 281.5q36 227 224 395q191 162 420 162q216 0 349.5 -147.5t116.5 -367.5q-4 -38 -15 -106h-953q-2 -152 96.5 -251t252.5 -99q121 0 231 63.5t175 170.5h160q-87 -171 -248.5 -275
t-340.5 -104zM358 623h795q-4 146 -99.5 239.5t-241.5 93.5q-149 0 -276.5 -93.5t-177.5 -239.5z" />
    <glyph glyph-name="eacute" unicode="&#xe9;" horiz-adv-x="1308" 
d="M1200 1504l-319 -318h-158l274 318h203zM659 -15q-153 0 -269 74.5t-169.5 203t-29.5 281.5q36 227 224 395q191 162 420 162q216 0 349.5 -147.5t116.5 -367.5q-4 -38 -15 -106h-953q-2 -152 96.5 -251t252.5 -99q121 0 231 63.5t175 170.5h160q-87 -171 -248.5 -275
t-340.5 -104zM358 623h795q-4 146 -99.5 239.5t-241.5 93.5q-149 0 -276.5 -93.5t-177.5 -239.5z" />
    <glyph glyph-name="ecircumflex" unicode="&#xea;" horiz-adv-x="1308" 
d="M862 1317l-131 -130h-190l291 290h109l200 -290h-191zM659 -15q-153 0 -269 74.5t-169.5 203t-29.5 281.5q36 227 224 395q191 162 420 162q216 0 349.5 -147.5t116.5 -367.5q-4 -38 -15 -106h-953q-2 -152 96.5 -251t252.5 -99q121 0 231 63.5t175 170.5h160
q-87 -171 -248.5 -275t-340.5 -104zM358 623h795q-4 146 -99.5 239.5t-241.5 93.5q-149 0 -276.5 -93.5t-177.5 -239.5z" />
    <glyph glyph-name="edieresis" unicode="&#xeb;" horiz-adv-x="1308" 
d="M726 1275q-28 -23 -58 -29t-53.5 3t-40 28.5t-22 44.5t5.5 54t38 53q33 28 69 31.5t60.5 -14t38 -44.5t4.5 -62.5t-42 -64.5zM1136 1279q-42 -32 -83.5 -33.5t-70 29.5t-21.5 77q8 45 43.5 76t80.5 31t71 -30.5t21 -73.5t-41 -76zM659 -15q-153 0 -269 74.5t-169.5 203
t-29.5 281.5q24 152 118.5 280t234 202.5t291.5 74.5q216 0 349.5 -147.5t116.5 -367.5q-4 -38 -15 -106h-953q-2 -152 96.5 -251t252.5 -99q121 0 231 63.5t175 170.5h160q-87 -171 -248.5 -275t-340.5 -104zM358 623h795q-4 146 -99.5 239.5t-241.5 93.5
q-149 0 -276.5 -93.5t-177.5 -239.5z" />
    <glyph glyph-name="igrave" unicode="&#xec;" horiz-adv-x="543" 
d="M387 1494l173 -318h-158l-204 318h189zM503 1084l-172 -1084h-146l172 1084h146z" />
    <glyph glyph-name="iacute" unicode="&#xed;" horiz-adv-x="566" 
d="M833 1504l-319 -318h-158l274 318h203zM528 1084l-172 -1084h-145l172 1084h145z" />
    <glyph glyph-name="icircumflex" unicode="&#xee;" horiz-adv-x="506" 
d="M463 1317l-132 -130h-190l292 290h109l199 -290h-190zM497 1084l-172 -1084h-145l172 1084h145z" />
    <glyph glyph-name="idieresis" unicode="&#xef;" horiz-adv-x="583" 
d="M360 1258q-41 -30 -81.5 -29.5t-67 31.5t-19.5 76q7 44 42.5 75t80.5 31q47 0 73 -33t19 -77.5t-47 -73.5zM773 1258q-43 -30 -84.5 -30t-69.5 31t-20 77q7 46 42 76t82 30q46 0 72 -31.5t20.5 -75.5t-42.5 -77zM536 1084l-172 -1084h-146l172 1084h146z" />
    <glyph glyph-name="ntilde" unicode="&#xf1;" horiz-adv-x="1318" 
d="M604 1158h-143q16 152 111 241q78 78 182 78q33 0 60 -8t50 -25.5t34.5 -28.5t30.5 -33q27 -36 46.5 -50t52.5 -14q109 0 124 193h144q-11 -146 -93.5 -241.5t-197.5 -95.5q-43 0 -80 18t-53 34t-40 45q-21 25 -31.5 35.5t-29 19.5t-40.5 9q-103 0 -127 -177zM402 548
l-87 -548h-146l172 1084h146l-21 -132q81 71 180.5 110t200.5 39q207 0 320.5 -133.5t81.5 -338.5l-100 -629h-145l96 604q25 160 -50.5 257t-224.5 97q-157 0 -275.5 -115t-147.5 -295z" />
    <glyph glyph-name="ograve" unicode="&#xf2;" horiz-adv-x="1317" 
d="M794 1504l173 -318h-158l-205 318h190zM659 -15q-153 0 -269 74.5t-169.5 203t-29.5 281.5q36 227 224 395q191 162 420 162q151 0 268 -74.5t171.5 -203t30.5 -279.5q-24 -153 -119 -281.5t-235 -203t-292 -74.5zM682 130q172 0 309.5 120t165.5 294q27 172 -73.5 292
t-271.5 120q-173 0 -309 -118.5t-164 -293.5q-28 -180 76 -293q95 -121 267 -121z" />
    <glyph glyph-name="oacute" unicode="&#xf3;" horiz-adv-x="1317" 
d="M1211 1504l-318 -318h-158l272 318h204zM659 -15q-153 0 -269 74.5t-169.5 203t-29.5 281.5q36 227 224 395q191 162 420 162q151 0 268 -74.5t171.5 -203t30.5 -279.5q-24 -153 -119 -281.5t-235 -203t-292 -74.5zM682 130q172 0 309.5 120t165.5 294q27 172 -73.5 292
t-271.5 120q-173 0 -309 -118.5t-164 -293.5q-28 -180 76 -293q95 -121 267 -121z" />
    <glyph glyph-name="ocircumflex" unicode="&#xf4;" horiz-adv-x="1317" 
d="M874 1317l-132 -130h-190l292 290h109l200 -290h-191zM659 -15q-153 0 -269 74.5t-169.5 203t-29.5 281.5q36 227 224 395q191 162 420 162q151 0 268 -74.5t171.5 -203t30.5 -279.5q-24 -153 -119 -281.5t-235 -203t-292 -74.5zM682 130q172 0 309.5 120t165.5 294
q27 172 -73.5 292t-271.5 120q-173 0 -309 -118.5t-164 -293.5q-28 -180 76 -293q95 -121 267 -121z" />
    <glyph glyph-name="otilde" unicode="&#xf5;" horiz-adv-x="1317" 
d="M596 1158h-143q12 135 96.5 227t196.5 92q43 0 79.5 -17t55 -34t40.5 -45q27 -35 46.5 -49t52.5 -14q109 0 124 193h144q-11 -146 -93.5 -241.5t-197.5 -95.5q-42 0 -79 18t-53 34t-41 45q-21 25 -31.5 35.5t-29 19.5t-40.5 9q-103 0 -127 -177zM659 -15
q-153 0 -269 74.5t-169.5 203t-29.5 281.5q36 227 224 395q191 162 420 162q151 0 268 -74.5t171.5 -203t30.5 -279.5q-24 -153 -119 -281.5t-235 -203t-292 -74.5zM682 130q172 0 309.5 120t165.5 294q27 172 -73.5 292t-271.5 120q-173 0 -309 -118.5t-164 -293.5
q-28 -174 71.5 -294t271.5 -120z" />
    <glyph glyph-name="odieresis" unicode="&#xf6;" horiz-adv-x="1317" 
d="M735 1258q-29 -23 -59.5 -29t-54 3t-40.5 29t-22 45t5.5 54.5t38.5 54.5q28 22 57.5 27.5t53 -4t40.5 -29t22.5 -44.5t-4.5 -54t-37 -53zM1136 1258q-54 -47 -109 -26t-60 75t47 108q34 27 70 29t59.5 -17.5t36 -47t1.5 -61.5t-45 -60zM659 -15q-153 0 -269 74.5
t-169.5 203t-29.5 281.5q36 227 224 395q191 162 420 162q151 0 268 -74.5t171.5 -203t30.5 -279.5q-24 -153 -119 -281.5t-235 -203t-292 -74.5zM682 130q172 0 309.5 120t165.5 294q27 172 -73.5 292t-271.5 120q-173 0 -309 -118.5t-164 -293.5q-28 -174 71.5 -294
t271.5 -120z" />
    <glyph glyph-name="divide" unicode="&#xf7;" horiz-adv-x="1302" 
d="M1198 649l-31 -143h-880l23 145z" />
    <glyph glyph-name="oslash" unicode="&#xf8;" horiz-adv-x="1317" 
d="M378 67l-107 -113l-101 86l109 119q-123 159 -88 385q24 152 118.5 280t234 202.5t291.5 74.5q151 0 267 -72l96 101l101 -86l-97 -104q66 -78 93.5 -181.5t9.5 -214.5q-24 -153 -119 -281.5t-235 -203t-292 -74.5q-160 0 -281 82zM391 275l601 637q-76 44 -180 44
q-173 0 -309 -118.5t-164 -293.5q-25 -161 52 -269zM682 130q172 0 309.5 120t165.5 294q26 169 -64 282l-607 -642q80 -54 196 -54z" />
    <glyph glyph-name="ugrave" unicode="&#xf9;" horiz-adv-x="1318" 
d="M794 1504l174 -318h-158l-206 318h190zM643 -17q-207 0 -320.5 133.5t-81.5 337.5l100 630h146l-96 -603q-25 -160 50.5 -257.5t224.5 -97.5q157 0 275.5 115t147.5 295l87 548h145l-172 -1084h-145l21 133q-80 -72 -180 -111t-202 -39z" />
    <glyph glyph-name="uacute" unicode="&#xfa;" horiz-adv-x="1318" 
d="M1212 1504l-319 -318h-158l272 318h205zM643 -17q-207 0 -320.5 133.5t-81.5 337.5l100 630h146l-96 -603q-25 -160 50.5 -257.5t224.5 -97.5q157 0 275.5 115t147.5 295l87 548h145l-172 -1084h-145l21 133q-80 -72 -180 -111t-202 -39z" />
    <glyph glyph-name="ucircumflex" unicode="&#xfb;" horiz-adv-x="1318" 
d="M878 1317l-132 -130h-190l292 290h108l201 -290h-191zM643 -17q-207 0 -320.5 133.5t-81.5 337.5l100 630h146l-96 -603q-25 -160 50.5 -257.5t224.5 -97.5q157 0 275.5 115t147.5 295l87 548h145l-172 -1084h-145l21 133q-80 -72 -180 -111t-202 -39z" />
    <glyph glyph-name="udieresis" unicode="&#xfc;" horiz-adv-x="1318" 
d="M737 1258q-28 -24 -58.5 -30t-54.5 3.5t-41 29.5t-22 45t5.5 54.5t38.5 54.5q33 27 69 29.5t60 -15.5t38 -45t5.5 -62t-40.5 -64zM1138 1258q-28 -23 -60.5 -27.5t-58 7t-40 38t-9.5 60.5q7 44 42.5 75t81.5 31q47 0 72.5 -33t18 -77.5t-46.5 -73.5zM643 -17
q-207 0 -320.5 133.5t-81.5 337.5l100 630h146l-96 -603q-25 -160 50.5 -257.5t224.5 -97.5q157 0 275.5 115t147.5 295l87 548h145l-172 -1084h-145l21 133q-80 -72 -180 -111t-202 -39z" />
    <glyph glyph-name="yacute" unicode="&#xfd;" horiz-adv-x="1239" 
d="M1169 1494l-319 -318h-158l273 318h204zM1335 1086l-912 -1477h-162l292 468l-304 1009h159l252 -833l516 833h159z" />
    <glyph glyph-name="ydieresis" unicode="&#xff;" horiz-adv-x="1239" 
d="M678 1265q-42 -30 -83 -30t-68.5 31t-20.5 76q7 44 43 75.5t80 31.5q46 0 72 -31.5t20.5 -75.5t-43.5 -77zM1088 1269q-43 -32 -84.5 -33t-69.5 29.5t-21 76.5q7 45 42.5 76t81.5 31q45 0 71 -30.5t21 -73.5t-41 -76zM1335 1086l-912 -1477h-162l292 468l-304 1009h159
l252 -833l516 833h159z" />
    <glyph glyph-name="Amacron" unicode="&#x100;" horiz-adv-x="1466" 
d="M1305 1727l-23 -143h-592l23 143h592zM463 418l-259 -418h-159l864 1400h91l420 -1400h-159l-127 418h-671zM1093 562l-179 586l-363 -586h542z" />
    <glyph glyph-name="amacron" unicode="&#x101;" horiz-adv-x="1249" 
d="M1113 1409l-22 -143h-592l22 143h592zM540 -8q-192 0 -297.5 89.5t-83.5 234.5q22 146 143.5 225t328.5 80l402 2l16 103q16 106 -64 168t-235 62q-151 0 -241 -57.5t-104 -163.5h-146q22 166 163 266t351 100q203 0 321 -94t105 -246l-119 -761h-146l23 147q-2 -5 -9 -9
q-71 -68 -180.5 -107t-227.5 -39zM563 138q168 0 286.5 90t158.5 250l-400 -2q-138 -1 -217 -42t-87 -116q-9 -81 62.5 -130.5t196.5 -49.5z" />
    <glyph glyph-name="Abreve" unicode="&#x102;" horiz-adv-x="1466" 
d="M967 1478q-137 0 -206.5 95t-26.5 223h148q-42 -100 20 -151q48 -39 124 -24q78 16 112 81q22 41 16 94h149q-5 -150 -122 -242q-93 -76 -214 -76zM463 418l-259 -418h-159l864 1400h91l420 -1400h-159l-127 418h-671zM1093 562l-179 586l-363 -586h542z" />
    <glyph glyph-name="abreve" unicode="&#x103;" horiz-adv-x="1249" 
d="M780 1184q-137 0 -207 94.5t-28 223.5h150q-43 -100 18 -151q48 -39 122 -24q79 15 113 79q22 43 16 96h151q-3 -148 -122 -242q-93 -76 -213 -76zM540 -8q-192 0 -297.5 89.5t-83.5 234.5q22 146 144 225t328 80l402 2l16 103q16 106 -64 168t-235 62q-151 0 -241 -57.5
t-104 -163.5h-146q22 166 163 266t351 100q203 0 321 -94t105 -246l-119 -761h-146l23 147q-2 -5 -9 -9q-71 -68 -180.5 -107t-227.5 -39zM563 138q168 0 286.5 90t158.5 250l-400 -2q-139 -1 -217.5 -41.5t-86.5 -116.5q-9 -81 62.5 -130.5t196.5 -49.5z" />
    <glyph glyph-name="Aogonek" unicode="&#x104;" horiz-adv-x="1547" 
d="M1533 -251l-22 -143q-77 -23 -170 -23.5t-175 19.5t-131.5 73t-37.5 129q14 89 93 160q71 69 149 109l-105 345h-671l-259 -418h-159l864 1400h91l420 -1400h-65l-11 -5q-77 -40 -133.5 -93t-62.5 -91q-6 -39 48 -62t154 -23q88 0 183 23zM1093 562l-179 586l-363 -586
h542z" />
    <glyph glyph-name="aogonek" unicode="&#x105;" horiz-adv-x="1357" 
d="M1220 -251l-22 -143q-77 -23 -169.5 -23.5t-174.5 19.5t-131 73t-37 129q11 70 77 145t153 115l30 14l11 69q-2 -5 -9 -9q-71 -68 -180.5 -107t-227.5 -39q-192 0 -297.5 89.5t-83.5 234.5q22 146 143.5 225t328.5 80l402 2l16 103q16 106 -64 168t-235 62
q-151 0 -241 -57.5t-104 -163.5h-146q22 166 163 266t351 100q203 0 321 -94t105 -246l-113 -724l-25 -26l-82 -48q-60 -39 -99.5 -80.5t-43.5 -71.5q-6 -39 48 -62t154 -23q90 0 182 23zM563 138q168 0 286.5 90t158.5 250l-400 -2q-138 -1 -217 -42t-87 -116
q-9 -81 62.5 -130.5t196.5 -49.5z" />
    <glyph glyph-name="Cacute" unicode="&#x106;" horiz-adv-x="1591" 
d="M1411 1806l-319 -317h-158l274 317h203zM822 -13q-296 0 -468 210q-110 136 -127.5 320.5t59 368.5t230.5 319q238 211 532 211q215 0 373 -121.5t207 -324.5l-151 -33q-42 154 -163.5 243.5t-288.5 89.5q-154 0 -293.5 -75t-233 -205.5t-118.5 -288.5
q-19 -118 7.5 -223.5t88 -181.5t158 -120t211.5 -44q167 0 316.5 90t241.5 245l139 -36q-113 -203 -309 -323.5t-411 -120.5z" />
    <glyph glyph-name="cacute" unicode="&#x107;" horiz-adv-x="1300" 
d="M1204 1504l-319 -318h-158l273 318h204zM659 -15q-153 0 -269 74.5t-169.5 203t-29.5 281.5q36 227 224 395q191 162 420 162q188 0 319.5 -112.5t154.5 -294.5h-156q-28 120 -120.5 191t-220.5 71q-173 0 -309 -118.5t-164 -293.5q-28 -174 71.5 -294t271.5 -120
q127 0 242.5 71.5t180.5 190.5h156q-80 -182 -246.5 -294.5t-355.5 -112.5z" />
    <glyph glyph-name="Cdotaccent" unicode="&#x10a;" horiz-adv-x="1591" 
d="M1130 1520q-54 -47 -109 -26.5t-60.5 75t45.5 107.5q25 20 51 26.5t47 0t38.5 -19.5t26 -33.5t9.5 -42t-11.5 -45t-36.5 -42.5zM822 -13q-296 0 -468 210q-110 136 -127.5 320.5t59 368.5t230.5 319q238 211 532 211q215 0 373 -121.5t207 -324.5l-151 -33
q-42 154 -163.5 243.5t-288.5 89.5q-154 0 -293.5 -75t-233 -205.5t-118.5 -288.5q-19 -118 7.5 -223.5t88 -181.5t158 -120t211.5 -44q167 0 316.5 90t241.5 245l139 -36q-113 -203 -309 -323.5t-411 -120.5z" />
    <glyph glyph-name="cdotaccent" unicode="&#x10b;" horiz-adv-x="1300" 
d="M932 1253q-24 -21 -50.5 -28.5t-47.5 -2.5t-39.5 17.5t-28 33t-11.5 42.5t10 47t36 46q27 23 57 29t53.5 -3.5t40.5 -29.5t22.5 -45t-5 -53.5t-37.5 -52.5zM659 -15q-153 0 -269 74.5t-169.5 203t-29.5 281.5q36 227 224 395q191 162 420 162q188 0 319.5 -112.5
t154.5 -294.5h-156q-28 120 -120.5 191t-220.5 71q-173 0 -309 -118.5t-164 -293.5q-28 -174 71.5 -294t271.5 -120q127 0 242.5 71.5t180.5 190.5h156q-80 -182 -246.5 -294.5t-355.5 -112.5z" />
    <glyph glyph-name="Ccaron" unicode="&#x10c;" horiz-adv-x="1591" 
d="M1401 1792l-291 -289h-110l-199 289h190l89 -130l132 130h189zM822 -13q-296 0 -468 210q-110 136 -127.5 320.5t59 368.5t230.5 319q238 211 532 211q215 0 373 -121.5t207 -324.5l-151 -33q-42 154 -163.5 243.5t-288.5 89.5q-154 0 -293.5 -75t-233 -205.5
t-118.5 -288.5q-19 -118 7.5 -223.5t88 -181.5t158 -120t211.5 -44q167 0 316.5 90t241.5 245l139 -36q-113 -203 -309 -323.5t-411 -120.5z" />
    <glyph glyph-name="ccaron" unicode="&#x10d;" horiz-adv-x="1300" 
d="M1189 1475l-292 -290h-109l-199 290h190l89 -130l130 130h191zM659 -15q-153 0 -269 74.5t-169.5 203t-29.5 281.5q36 227 224 395q191 162 420 162q188 0 319.5 -112.5t154.5 -294.5h-156q-28 120 -120.5 191t-220.5 71q-173 0 -309 -118.5t-164 -293.5
q-28 -174 71.5 -294t271.5 -120q127 0 242.5 71.5t180.5 190.5h156q-80 -182 -246.5 -294.5t-355.5 -112.5z" />
    <glyph glyph-name="Dcaron" unicode="&#x10e;" horiz-adv-x="1484" 
d="M1324 1792l-293 -289h-109l-201 289h192l89 -130l131 130h191zM642 0h-443l222 1400h443q152 0 277 -53.5t205.5 -146.5t114.5 -222.5t11 -276.5q-23 -148 -98.5 -278.5t-185.5 -223t-252 -146t-294 -53.5zM841 1257h-298l-176 -1114h298q162 0 304 71.5t235.5 199.5
t118.5 287q38 241 -98.5 398.5t-383.5 157.5z" />
    <glyph glyph-name="Dcaron" unicode="&#x10f;" horiz-adv-x="1484" 
d="M1324 1792l-293 -289h-109l-201 289h192l89 -130l131 130h191zM642 0h-443l222 1400h443q152 0 277 -53.5t205.5 -146.5t114.5 -222.5t11 -276.5q-23 -148 -98.5 -278.5t-185.5 -223t-252 -146t-294 -53.5zM841 1257h-298l-176 -1114h298q162 0 304 71.5t235.5 199.5
t118.5 287q38 241 -98.5 398.5t-383.5 157.5z" />
    <glyph glyph-name="Emacron" unicode="&#x112;" horiz-adv-x="1315" 
d="M1261 1725l-22 -143h-592l22 143h592zM1211 143l-23 -143h-989l222 1400h989l-23 -143h-844l-77 -485h709l-22 -142h-709l-77 -487h844z" />
    <glyph glyph-name="emacron" unicode="&#x113;" horiz-adv-x="1308" 
d="M1170 1409l-22 -143h-593l22 143h593zM659 -15q-153 0 -269 74.5t-169.5 203t-29.5 281.5q36 227 224 395q191 162 420 162q216 0 349.5 -147.5t116.5 -367.5q-4 -38 -15 -106h-953q-2 -152 96.5 -251t252.5 -99q121 0 231 63.5t175 170.5h160q-87 -171 -248.5 -275
t-340.5 -104zM358 623h795q-4 146 -99.5 239.5t-241.5 93.5q-149 0 -276.5 -93.5t-177.5 -239.5z" />
    <glyph glyph-name="Edotaccent" unicode="&#x116;" horiz-adv-x="1315" 
d="M1022 1579q-29 -24 -63 -29t-60 6.5t-41 38t-10 60.5q7 47 42 77.5t82 30.5q46 0 72.5 -31.5t20.5 -75.5t-43 -77zM1211 143l-23 -143h-989l222 1400h989l-23 -143h-844l-77 -485h709l-22 -142h-709l-77 -487h844z" />
    <glyph glyph-name="edotaccent" unicode="&#x117;" horiz-adv-x="1308" 
d="M931 1262q-43 -30 -84.5 -30t-69.5 30.5t-21 76.5t42.5 76.5t81.5 30.5t72.5 -31t21 -75t-42.5 -78zM659 -15q-153 0 -269 74.5t-169.5 203t-29.5 281.5q36 227 224 395q191 162 420 162q216 0 349.5 -147.5t116.5 -367.5q-4 -38 -15 -106h-953q-2 -152 96.5 -251
t252.5 -99q121 0 231 63.5t175 170.5h160q-87 -171 -248.5 -275t-340.5 -104zM358 623h795q-4 146 -99.5 239.5t-241.5 93.5q-149 0 -276.5 -93.5t-177.5 -239.5z" />
    <glyph glyph-name="Eogonek" unicode="&#x118;" horiz-adv-x="1339" 
d="M1243 -251l-22 -143q-77 -23 -169.5 -23.5t-174.5 19.5t-131.5 73t-37.5 129q14 86 95 160q14 14 41 36h-645l222 1400h989l-23 -143h-844l-77 -485h709l-22 -142h-709l-77 -487h844l-23 -143h-134q-24 0 -106 -72.5t-89 -116.5q-6 -39 48.5 -62t153.5 -23q89 0 182 23z
" />
    <glyph glyph-name="eogonek" unicode="&#x119;" horiz-adv-x="1308" 
d="M956 -251l-22 -143q-77 -23 -170 -23.5t-174.5 19.5t-131 73t-37.5 129q17 107 125 193q-187 40 -286.5 193t-68.5 354q24 152 118.5 280t234 202.5t291.5 74.5q216 0 349.5 -147.5t116.5 -367.5q-4 -38 -15 -106h-953q-2 -152 96.5 -251t252.5 -99q121 0 231 63.5
t175 170.5h157q-67 -139 -196 -239.5t-280 -129.5q-79 -40 -135.5 -92t-62.5 -92q-6 -39 48 -62t154 -23q88 0 183 23zM358 623h795q-4 146 -99.5 239.5t-241.5 93.5q-149 0 -276.5 -93.5t-177.5 -239.5z" />
    <glyph glyph-name="Ecaron" unicode="&#x11a;" horiz-adv-x="1315" 
d="M1281 1792l-293 -289h-109l-201 289h192l89 -130l131 130h191zM1211 143l-23 -143h-989l222 1400h989l-23 -143h-844l-77 -485h709l-22 -142h-709l-77 -487h844z" />
    <glyph glyph-name="ecaron" unicode="&#x11b;" horiz-adv-x="1308" 
d="M1189 1475l-292 -290h-109l-199 290h190l89 -130l130 130h191zM659 -15q-153 0 -269 74.5t-169.5 203t-29.5 281.5q36 227 224 395q191 162 420 162q216 0 349.5 -147.5t116.5 -367.5q-4 -38 -15 -106h-953q-2 -152 96.5 -251t252.5 -99q121 0 231 63.5t175 170.5h160
q-87 -171 -248.5 -275t-340.5 -104zM358 623h795q-4 146 -99.5 239.5t-241.5 93.5q-149 0 -276.5 -93.5t-177.5 -239.5z" />
    <glyph glyph-name="Gbreve" unicode="&#x11e;" horiz-adv-x="1624" 
d="M1049 1497q-137 0 -206.5 94t-27.5 223h148q-42 -100 20 -150q49 -39 124 -24q79 16 112 80q21 41 15 94h150q-3 -149 -121 -241q-91 -76 -214 -76zM822 -13q-296 0 -468 210q-110 136 -127.5 320.5t59 368.5t230.5 319q238 211 532 211q215 0 373 -121.5t207 -324.5
l-151 -33q-42 154 -163.5 243.5t-288.5 89.5q-155 0 -294 -74.5t-232.5 -205t-118.5 -289.5q-19 -118 7.5 -223.5t88 -181.5t158 -120t211.5 -44q206 0 365 129.5t220 347.5h-561l23 142h714l-8 -52q-33 -204 -143.5 -366.5t-276.5 -254t-356 -91.5z" />
    <glyph glyph-name="gbreve" unicode="&#x11f;" horiz-adv-x="1385" 
d="M848 1184q-137 0 -207 94.5t-27 223.5h149q-43 -100 18 -150q48 -40 123 -25q79 16 113 81q21 42 16 94h150q-3 -149 -122 -242q-93 -76 -213 -76zM618 -422q-217 0 -347 122.5t-115 312.5h144q-1 -127 95.5 -209.5t245.5 -82.5q134 0 264 88q70 49 121.5 146.5
t72.5 222.5l3 16q-92 -82 -206.5 -127t-231.5 -45q-156 0 -272 71t-169 195t-29 275q36 227 221 382.5t420 155.5q117 0 217.5 -44.5t165.5 -126.5l25 154h146l-141 -886q-21 -133 -71 -247.5t-119 -185.5q-64 -66 -147 -114q-143 -73 -293 -73zM687 165q173 0 310 114.5
t163 283.5q26 167 -74 281t-273 114q-175 0 -309.5 -113t-161.5 -282q-28 -175 71 -287q99 -111 274 -111z" />
    <glyph glyph-name="Gdotaccent" unicode="&#x120;" horiz-adv-x="1624" 
d="M1139 1579q-54 -48 -109 -27t-60 75t46 107q34 27 70 29.5t59.5 -16.5t36 -46.5t2 -61.5t-44.5 -60zM822 -13q-296 0 -468 210q-110 136 -127.5 320.5t59 368.5t230.5 319q238 211 532 211q215 0 373 -121.5t207 -324.5l-151 -33q-42 154 -163.5 243.5t-288.5 89.5
q-155 0 -294 -74.5t-232.5 -205t-118.5 -289.5q-19 -118 7.5 -223.5t88 -181.5t158 -120t211.5 -44q206 0 365 129.5t220 347.5h-561l23 142h714l-8 -52q-33 -204 -143.5 -366.5t-276.5 -254t-356 -91.5z" />
    <glyph glyph-name="gdotaccent" unicode="&#x121;" horiz-adv-x="1385" 
d="M925 1204q-28 -24 -61 -28.5t-58.5 7t-40 38t-9.5 60.5q7 44 43 75t82 31q47 0 72.5 -33t18 -77t-46.5 -73zM618 -422q-217 0 -347 122.5t-115 312.5h144q-1 -127 95.5 -209.5t245.5 -82.5q134 0 264 88q70 49 121.5 146.5t72.5 222.5l3 16q-92 -82 -206.5 -127
t-231.5 -45q-156 0 -272 71t-169 195t-29 275q36 227 221 382.5t420 155.5q117 0 217.5 -44.5t165.5 -126.5l25 154h146l-141 -886q-21 -133 -71 -247.5t-119 -185.5q-64 -66 -147 -114q-143 -73 -293 -73zM687 165q173 0 310 114.5t163 283.5q26 167 -74 281t-273 114
q-175 0 -309.5 -113t-161.5 -282q-28 -175 71 -287q99 -111 274 -111z" />
    <glyph glyph-name="Imacron" unicode="&#x12a;" horiz-adv-x="544" 
d="M840 1725l-22 -143h-592l22 143h592zM566 1400l-222 -1400h-145l222 1400h145z" />
    <glyph glyph-name="imacron" unicode="&#x12b;" horiz-adv-x="481" 
d="M758 1399l-23 -143h-593l23 143h593zM484 1084l-172 -1084h-146l172 1084h146z" />
    <glyph glyph-name="Iogonek" unicode="&#x12e;" horiz-adv-x="709" 
d="M603 -250l-22 -143q-77 -23 -169.5 -23.5t-174 19.5t-131 73t-37.5 129q8 50 41.5 101t82.5 88q59 48 135 86l209 1320h146l-222 -1400h-45q-44 -17 -116.5 -82t-79.5 -106q-6 -39 48 -62t154 -23q90 0 181 23z" />
    <glyph glyph-name="iogonek" unicode="&#x12f;" horiz-adv-x="620" 
d="M566 1237q-35 -28 -71.5 -32t-61 14t-38.5 45.5t-4.5 63t42.5 65.5q28 23 57.5 28.5t53 -4t40.5 -29.5t22.5 -44.5t-4 -53.5t-36.5 -53zM503 -251l-22 -143q-77 -23 -170 -23.5t-175 19.5t-131.5 73t-37.5 129q9 55 47 106q26 40 93.5 94t121.5 79l159 1001h146
l-166 -1049l-41 -35l-24 11q-177 -148 -185 -200q-6 -39 48 -62t154 -23q88 0 183 23z" />
    <glyph glyph-name="Idotaccent" unicode="&#x130;" horiz-adv-x="563" 
d="M610 1579q-29 -24 -63 -29t-60.5 6.5t-41.5 38t-10 60.5q8 47 43 77.5t82 30.5q46 0 72 -31.5t20.5 -75.5t-42.5 -77zM575 1400l-222 -1400h-145l222 1400h145z" />
    <glyph glyph-name="dotlessi" unicode="&#x131;" horiz-adv-x="446" 
d="M468 1084l-172 -1084h-146l172 1084h146z" />
    <glyph glyph-name="Lacute" unicode="&#x139;" horiz-adv-x="1290" 
d="M1264 1820l-319 -317h-158l272 317h205zM1211 143l-23 -143h-989l222 1400h145l-199 -1257h844z" />
    <glyph glyph-name="lacute" unicode="&#x13a;" horiz-adv-x="566" 
d="M884 1820l-319 -317h-158l274 317h203zM579 1400l-222 -1400h-145l222 1400h145z" />
    <glyph glyph-name="Nacute" unicode="&#x143;" horiz-adv-x="1451" 
d="M1315 1820l-317 -317h-160l274 317h203zM520 1114l-176 -1114h-145l222 1400h123l608 -1119l177 1119h146l-222 -1400h-125z" />
    <glyph glyph-name="nacute" unicode="&#x144;" horiz-adv-x="1318" 
d="M1216 1504l-318 -318h-159l274 318h203zM402 548l-87 -548h-146l172 1084h146l-21 -132q81 71 180.5 110t200.5 39q207 0 320.5 -133.5t81.5 -338.5l-100 -629h-145l96 604q25 160 -50.5 257t-224.5 97q-157 0 -275.5 -115t-147.5 -295z" />
    <glyph glyph-name="Ncaron" unicode="&#x147;" horiz-adv-x="1451" 
d="M1303 1792l-294 -289h-108l-201 289h191l90 -130l130 130h192zM520 1114l-176 -1114h-145l222 1400h123l608 -1119l177 1119h146l-222 -1400h-125z" />
    <glyph glyph-name="ncaron" unicode="&#x148;" horiz-adv-x="1318" 
d="M1205 1475l-293 -290h-108l-200 290h190l90 -130l130 130h191zM402 548l-87 -548h-146l172 1084h146l-21 -132q81 71 180.5 110t200.5 39q207 0 320.5 -133.5t81.5 -338.5l-100 -629h-145l96 604q25 160 -50.5 257t-224.5 97q-157 0 -275.5 -115t-147.5 -295z" />
    <glyph glyph-name="Omacron" unicode="&#x14c;" horiz-adv-x="1648" 
d="M1402 1725l-22 -143h-592l22 143h592zM822 -13q-296 0 -468 210q-110 136 -127.5 320.5t59 368.5t230.5 319q238 211 532 211q191 0 337.5 -95.5t214 -260t36.5 -359.5q-31 -197 -149.5 -361t-295 -258.5t-369.5 -94.5zM845 132q155 0 293.5 74.5t231.5 205t118 289.5
q19 118 -7.5 223.5t-88 181t-157 120t-210.5 44.5q-154 0 -293.5 -75t-233 -205.5t-118.5 -288.5q-37 -234 95 -406q133 -163 370 -163z" />
    <glyph glyph-name="omacron" unicode="&#x14d;" horiz-adv-x="1317" 
d="M1179 1409l-22 -143h-592l22 143h592zM659 -15q-153 0 -269 74.5t-169.5 203t-29.5 281.5q36 227 224 395q191 162 420 162q151 0 268 -74.5t171.5 -203t30.5 -279.5q-24 -153 -119 -281.5t-235 -203t-292 -74.5zM682 130q172 0 309.5 120t165.5 294q27 172 -73.5 292
t-271.5 120q-173 0 -309 -118.5t-164 -293.5q-28 -180 76 -293q95 -121 267 -121z" />
    <glyph glyph-name="Ohungarumlaut" unicode="&#x150;" horiz-adv-x="1648" 
d="M1254 1859l-305 -318h-158l272 318h191zM1594 1859l-306 -318h-158l273 318h191zM822 -13q-296 0 -468 210q-110 136 -127.5 320.5t59 368.5t230.5 319q238 211 532 211q191 0 337.5 -95.5t214 -260t36.5 -359.5q-31 -197 -149.5 -361t-295 -258.5t-369.5 -94.5zM845 132
q155 0 293.5 74.5t231.5 205t118 289.5q19 118 -7.5 223.5t-88 181t-157 120t-210.5 44.5q-154 0 -293.5 -75t-233 -205.5t-118.5 -288.5q-19 -118 7.5 -223.5t88 -181.5t158 -120t211.5 -44z" />
    <glyph glyph-name="ohungarumlaut" unicode="&#x151;" horiz-adv-x="1317" 
d="M974 1513l-306 -317h-158l275 317h189zM1314 1513l-306 -317h-158l274 317h190zM659 -15q-153 0 -269 74.5t-169.5 203t-29.5 281.5q36 227 224 395q191 162 420 162q151 0 268 -74.5t171.5 -203t30.5 -279.5q-24 -153 -119 -281.5t-235 -203t-292 -74.5zM682 130
q172 0 309.5 120t165.5 294q27 172 -73.5 292t-271.5 120q-173 0 -309 -118.5t-164 -293.5q-28 -174 71.5 -294t271.5 -120z" />
    <glyph glyph-name="OE" unicode="&#x152;" horiz-adv-x="2497" 
d="M823 -13q-145 0 -266.5 55.5t-200 150.5t-112 227.5t-10.5 280.5q31 196 150 360.5t295.5 259.5t369.5 95q163 0 298 -73t213 -204l42 261h989l-23 -143h-843l-77 -485h706l-22 -142h-706l-77 -487h843l-23 -143h-989l41 262q-120 -130 -276.5 -202.5t-321.5 -72.5z
M846 132q155 0 293.5 74.5t231.5 205t118 289.5q19 118 -7.5 223.5t-88 181t-157 120t-210.5 44.5q-154 0 -293.5 -75t-233 -205.5t-118.5 -288.5q-19 -118 7.5 -223.5t88 -181.5t158 -120t211.5 -44z" />
    <glyph glyph-name="oe" unicode="&#x153;" horiz-adv-x="2274" 
d="M659 -15q-153 0 -269 74.5t-169.5 203t-29.5 281.5q24 152 118.5 280t234 202.5t291.5 74.5q151 0 269 -75t171 -205q95 130 236 205t290 75q216 0 349.5 -147.5t116.5 -367.5q-4 -38 -15 -106h-952q-2 -152 96.5 -251t251.5 -99q121 0 231 63.5t175 170.5h161
q-87 -171 -249 -275t-341 -104q-151 0 -268.5 75t-169.5 204q-95 -129 -237 -204t-291 -75zM682 130q172 0 309.5 120t165.5 294q27 172 -73.5 292t-271.5 120q-173 0 -309 -118.5t-164 -293.5q-28 -174 71.5 -294t271.5 -120zM1325 623h794q-3 146 -99 239.5t-242 93.5
q-149 0 -276 -93.5t-177 -239.5z" />
    <glyph glyph-name="Racute" unicode="&#x154;" horiz-adv-x="1325" 
d="M1262 1820l-319 -317h-158l272 317h205zM431 552l-87 -552h-145l222 1400h590q189 0 286.5 -117t67.5 -307q-26 -162 -130 -273t-257 -140l279 -563h-174l-277 552h-375zM988 1257h-445l-89 -561h445q128 0 213.5 75t106.5 206q20 130 -42 205t-189 75z" />
    <glyph glyph-name="racute" unicode="&#x155;" horiz-adv-x="792" 
d="M1001 1504l-318 -318h-158l272 318h204zM400 534l-85 -534h-146l172 1084h146l-23 -143q77 70 171 108.5t189 38.5h126l-22 -143h-105q-158 0 -276.5 -115t-146.5 -296z" />
    <glyph glyph-name="Rcaron" unicode="&#x158;" horiz-adv-x="1325" 
d="M1251 1802l-293 -290h-109l-201 290h191l91 -130l129 130h192zM431 552l-87 -552h-145l222 1400h590q189 0 286.5 -117t67.5 -307q-26 -162 -130 -273t-257 -140l279 -563h-174l-277 552h-375zM988 1257h-445l-89 -561h445q128 0 213.5 75t106.5 206q20 130 -42 205
t-189 75z" />
    <glyph glyph-name="rcaron" unicode="&#x159;" horiz-adv-x="720" 
d="M959 1475l-292 -290h-109l-200 290h190l90 -130l130 130h191zM372 534l-85 -534h-145l172 1084h145l-23 -143q78 70 171.5 108.5t188.5 38.5h127l-22 -143h-105q-158 0 -277 -115t-147 -296z" />
    <glyph glyph-name="Sacute" unicode="&#x15a;" horiz-adv-x="1328" 
d="M1265 1820l-318 -317h-158l273 317h203zM661 -19q-288 0 -419 168q-87 112 -45 277h146q-33 -82 1 -152t124 -111t215 -41q167 0 291.5 72.5t142.5 180.5q14 98 -65 159.5t-274 103.5q-201 43 -314 90q-207 91 -174 294q20 131 126 228q185 168 473 168q287 0 418 -168
q89 -116 44 -277h-145q34 82 0 151.5t-124.5 110.5t-215.5 41q-168 0 -292.5 -72.5t-141.5 -181.5q-13 -76 46 -122q23 -22 82 -45q62 -27 205 -61l51 -11q262 -60 364 -154t79 -253q-22 -132 -126 -227q-185 -168 -472 -168z" />
    <glyph glyph-name="sacute" unicode="&#x15b;" horiz-adv-x="1067" 
d="M1078 1494l-320 -318h-158l274 318h204zM531 -19q-157 0 -259 68.5t-115 181.5q-6 58 14 123h136q-40 -94 34 -163t212 -69q120 0 208 49.5t101 125.5q9 67 -47.5 109.5t-196.5 73.5q-158 32 -243 68q-165 75 -138 239q22 138 155.5 228t316.5 90q204 0 308 -106.5
t55 -265.5h-136q39 92 -35.5 161t-213.5 69q-121 0 -209 -50t-100 -126q-8 -49 28 -77q13 -12 63 -32q13 -6 23.5 -10t24.5 -8.5t20.5 -7t25.5 -7t25 -6t33 -8t35 -8.5q205 -44 286.5 -120.5t61.5 -204.5q-22 -137 -155.5 -227t-317.5 -90z" />
    <glyph glyph-name="Scedilla" unicode="&#x15e;" horiz-adv-x="1328" 
d="M516 -393q-93 0 -135 7l29 186l4 1q13 -30 35 -40t84 -10t117.5 11t57.5 23q3 20 -47.5 44.5t-106.5 32t-92 -11.5l-2 2l90 136q-206 29 -308 161q-87 112 -45 277h146q-33 -82 1 -152t124 -111t215 -41q167 0 291.5 72.5t142.5 180.5q14 98 -65 159.5t-274 103.5
q-201 43 -314 90q-207 91 -174 294q20 131 126 228q185 168 473 168q287 0 418 -168q89 -116 44 -277h-145q34 82 0 151.5t-124.5 110.5t-215.5 41q-168 0 -292.5 -72.5t-141.5 -181.5q-13 -76 46 -122q23 -22 82 -45q62 -27 205 -61l51 -11q262 -60 364 -154t79 -253
q-22 -132 -126 -227q-168 -154 -431 -168l-3 -4q85 -31 126 -82.5t31 -113.5q-13 -82 -102.5 -128t-237.5 -46z" />
    <glyph glyph-name="scedilla" unicode="&#x15f;" horiz-adv-x="1067" 
d="M381 -374q-91 0 -135 7l29 187l5 1q12 -31 33.5 -41.5t84.5 -10.5q62 0 118 11.5t58 23.5q3 20 -47 44t-105 31.5t-92 -10.5l-2 3l78 123q-108 22 -173.5 84.5t-75.5 151.5q-6 58 14 123h136q-40 -94 34 -163t212 -69q120 0 208 49.5t101 125.5q9 67 -47.5 109.5
t-196.5 73.5q-158 32 -243 68q-165 75 -138 239q22 138 155.5 228t316.5 90q204 0 308 -106.5t55 -265.5h-136q39 92 -35.5 161t-213.5 69q-121 0 -209 -50t-100 -126q-8 -49 28 -77q13 -12 63 -32q13 -6 23.5 -10t24.5 -8.5t20.5 -7t25.5 -7t25 -6t33 -8t35 -8.5
q205 -44 286.5 -120.5t61.5 -204.5q-19 -124 -133 -210.5t-276 -103.5q70 -32 103.5 -80t24.5 -104q-13 -82 -103 -128t-239 -46z" />
    <glyph glyph-name="Scaron" unicode="&#x160;" horiz-adv-x="1328" 
d="M1257 1802l-294 -290h-108l-201 290h191l91 -130l129 130h192zM661 -19q-288 0 -419 168q-87 112 -45 277h146q-33 -82 1 -152t124 -111t215 -41q167 0 291.5 72.5t142.5 180.5q14 98 -65 159.5t-274 103.5q-201 43 -314 90q-207 91 -174 294q20 131 126 228
q185 168 473 168q287 0 418 -168q89 -116 44 -277h-145q34 82 0 151.5t-124.5 110.5t-215.5 41q-168 0 -292.5 -72.5t-141.5 -181.5q-13 -76 46 -122q23 -22 82 -45q62 -27 205 -61l51 -11q262 -60 364 -154t79 -253q-22 -132 -126 -227q-185 -168 -472 -168z" />
    <glyph glyph-name="scaron" unicode="&#x161;" horiz-adv-x="1067" 
d="M1062 1475l-291 -290h-109l-200 290h191l89 -130l130 130h190zM531 -19q-157 0 -259 68.5t-115 181.5q-6 58 14 123h136q-40 -94 34 -163t212 -69q120 0 208 49.5t101 125.5q9 67 -47.5 109.5t-196.5 73.5q-158 32 -243 68q-165 75 -138 239q22 138 155.5 228t316.5 90
q204 0 308 -106.5t55 -265.5h-136q39 92 -35.5 161t-213.5 69q-121 0 -209 -50t-100 -126q-8 -49 28 -77q13 -12 63 -32q13 -6 23.5 -10t24.5 -8.5t20.5 -7t25.5 -7t25 -6t33 -8t35 -8.5q205 -44 286.5 -120.5t61.5 -204.5q-22 -137 -155.5 -227t-317.5 -90z" />
    <glyph glyph-name="Umacron" unicode="&#x16a;" horiz-adv-x="1548" 
d="M1344 1667l-23 -144h-592l23 144h592zM772 -15q-121 0 -204 35q-97 35 -164 99q-77 70 -106.5 191.5t-6.5 268.5l130 821h145l-130 -821q-18 -111 4 -201t79 -143q114 -105 276 -105q163 0 309 105q73 52 123 142t68 202l130 821h146l-130 -821q-24 -149 -91 -269
q-129 -218 -365 -290q-107 -35 -213 -35z" />
    <glyph glyph-name="umacron" unicode="&#x16b;" horiz-adv-x="1318" 
d="M1180 1399l-23 -143h-592l23 143h592zM643 -17q-207 0 -320.5 133.5t-81.5 337.5l100 630h146l-96 -603q-25 -160 50.5 -257.5t224.5 -97.5q157 0 275.5 115t147.5 295l87 548h145l-172 -1084h-145l21 133q-80 -72 -180 -111t-202 -39z" />
    <glyph glyph-name="Uring" unicode="&#x16e;" horiz-adv-x="1548" 
d="M1014 1456q-88 0 -139.5 59.5t-37.5 145.5q10 67 56 118.5t103.5 73.5t119.5 12t102 -57t40 -110t-30.5 -115.5t-88.5 -89.5t-125 -37zM1036 1596q26 0 49 19.5t27 45.5q4 28 -12 47t-43 19t-46.5 -18.5t-26.5 -50.5l-1 -6q0 -3 -0.5 -8.5t-1.5 -7.5q12 -24 23 -32t32 -8
zM772 -15q-121 0 -204 35q-97 35 -164 99q-77 70 -106.5 191.5t-6.5 268.5l130 821h145l-130 -821q-18 -111 4 -201t79 -143q114 -105 276 -105q163 0 309 105q73 52 123 142t68 202l130 821h146l-130 -821q-24 -149 -91 -269q-129 -218 -365 -290q-107 -35 -213 -35z" />
    <glyph glyph-name="uring" unicode="&#x16f;" horiz-adv-x="1318" 
d="M843 1139q-88 0 -139 59.5t-37 145.5q10 67 56 119t103 74t119 12t102 -57q39 -47 39 -110t-30.5 -116t-88 -90t-124.5 -37zM866 1281q26 0 48 18.5t27 44.5q4 28 -12 47.5t-43 19.5q-26 0 -45.5 -18.5t-27.5 -50.5l-1 -6q-1 -4 -1 -16q12 -23 22.5 -31t32.5 -8zM643 -17
q-207 0 -320.5 133.5t-81.5 337.5l100 630h146l-96 -603q-25 -160 50.5 -257.5t224.5 -97.5q157 0 275.5 115t147.5 295l87 548h145l-172 -1084h-145l21 133q-80 -72 -180 -111t-202 -39z" />
    <glyph glyph-name="Uhungarumlaut" unicode="&#x170;" horiz-adv-x="1548" 
d="M1205 1859l-305 -318h-158l273 318h190zM1545 1859l-305 -318h-158l273 318h190zM772 -15q-121 0 -204 35q-97 35 -164 99q-77 70 -106.5 191.5t-6.5 268.5l130 821h145l-130 -821q-18 -111 4 -201t79 -143q114 -105 276 -105q163 0 309 105q73 52 123 142t68 202
l130 821h146l-130 -821q-24 -149 -91 -269q-129 -218 -365 -290q-107 -35 -213 -35z" />
    <glyph glyph-name="uhungarumlaut" unicode="&#x171;" horiz-adv-x="1318" 
d="M976 1513l-306 -317h-158l275 317h189zM1316 1513l-306 -317h-158l274 317h190zM643 -17q-207 0 -320.5 133.5t-81.5 337.5l100 630h146l-96 -603q-25 -160 50.5 -257.5t224.5 -97.5q157 0 275.5 115t147.5 295l87 548h145l-172 -1084h-145l21 133q-80 -72 -180 -111
t-202 -39z" />
    <glyph glyph-name="Uogonek" unicode="&#x172;" horiz-adv-x="1548" 
d="M1089 -251l-22 -143q-77 -23 -169.5 -23.5t-174.5 19.5t-131 73t-37 129q15 100 121 189q-158 22 -271 126q-78 70 -107.5 191t-6.5 269l130 821h145l-130 -821q-18 -111 4 -201t79 -143q114 -105 276 -105q163 0 309 105q73 52 123 142t68 202l130 821h146l-130 -821
q-37 -232 -177.5 -385.5t-354.5 -194.5q-65 -32 -130.5 -85.5t-73.5 -102.5q-6 -39 48 -62t154 -23q90 0 182 23z" />
    <glyph glyph-name="uogonek" unicode="&#x173;" horiz-adv-x="1428" 
d="M1290 -251l-22 -143q-77 -23 -169.5 -23.5t-174.5 19.5t-131.5 73t-37.5 129q7 49 41 100t84 88q50 46 137 89l8 52q-80 -72 -180 -111t-202 -39q-207 0 -320.5 133.5t-81.5 337.5l100 630h146l-96 -603q-25 -160 50.5 -257.5t224.5 -97.5q157 0 275.5 115t147.5 295
l87 548h145l-166 -1049l-39 -34l-24 10q-83 -68 -133 -121t-54 -79q-6 -38 49 -61.5t154 -23.5q89 0 182 23z" />
    <glyph glyph-name="Wcircumflex" unicode="&#x174;" horiz-adv-x="1696" 
d="M1108 1632l-131 -129h-191l293 289h108l201 -289h-191zM1023 1103l-509 -1103h-125l-130 1400h153l102 -1074l495 1074h121l156 -1074l442 1074h153l-575 -1400h-124z" />
    <glyph glyph-name="wcircumflex" unicode="&#x175;" horiz-adv-x="1425" 
d="M923 1316l-131 -130h-190l292 290h108l201 -290h-191zM839 801l-368 -795h-119l-101 1091h151l69 -769l358 769h113l115 -769l312 769h152l-448 -1091h-119z" />
    <glyph glyph-name="Ycircumflex" unicode="&#x176;" horiz-adv-x="1365" 
d="M944 1632l-131 -129h-189l291 289h108l202 -289h-192zM836 499l-79 -499h-146l79 501l-420 899h172l346 -744l579 744h172z" />
    <glyph glyph-name="ycircumflex" unicode="&#x177;" horiz-adv-x="1239" 
d="M815 1316l-130 -130h-191l293 290h108l199 -290h-189zM1335 1086l-912 -1477h-162l292 468l-304 1009h159l252 -833l516 833h159z" />
    <glyph glyph-name="Ydieresis" unicode="&#x178;" horiz-adv-x="1365" 
d="M1218 1611q-34 -28 -70 -31.5t-60 14t-37.5 44.5t-4.5 62t42 64q33 28 69 31.5t60.5 -14t38 -44t4.5 -62t-42 -64.5zM814 1615q-43 -32 -84.5 -33t-70 29.5t-21.5 76.5q8 45 43.5 76t80.5 31t71.5 -30.5t21.5 -73.5t-41 -76zM836 499l-79 -499h-146l79 501l-420 899h172
l346 -744l579 744h172z" />
    <glyph glyph-name="Zacute" unicode="&#x179;" horiz-adv-x="1299" 
d="M1251 1820l-319 -317h-158l274 317h203zM1183 143l-23 -143h-1030l17 110l1025 1147h-841l23 143h1043l-17 -108l-1026 -1149h829z" />
    <glyph glyph-name="zacute" unicode="&#x17a;" horiz-adv-x="1091" 
d="M1107 1494l-320 -318h-158l275 318h203zM995 143l-23 -143h-841l17 110l780 831h-646l23 143h853l-18 -109l-778 -832h633z" />
    <glyph glyph-name="Zdotaccent" unicode="&#x17b;" horiz-adv-x="1299" 
d="M976 1579q-41 -30 -81.5 -30.5t-67.5 30.5t-20 76q7 46 43.5 77t81.5 31q46 0 72 -33.5t18.5 -78t-46.5 -72.5zM1183 143l-23 -143h-1030l17 110l1025 1147h-841l23 143h1043l-17 -108l-1026 -1149h829z" />
    <glyph glyph-name="zdotaccent" unicode="&#x17c;" horiz-adv-x="1091" 
d="M839 1262q-43 -30 -84.5 -30t-69.5 30.5t-21 76.5t42.5 76.5t81.5 30.5t72.5 -31t21 -75t-42.5 -78zM995 143l-23 -143h-841l17 110l780 831h-646l23 143h853l-18 -109l-778 -832h633z" />
    <glyph glyph-name="Zcaron" unicode="&#x17d;" horiz-adv-x="1299" 
d="M1240 1792l-293 -289h-109l-199 289h190l89 -130l130 130h192zM1183 143l-23 -143h-1030l17 110l1025 1147h-841l23 143h1043l-17 -108l-1026 -1149h829z" />
    <glyph glyph-name="zcaron" unicode="&#x17e;" horiz-adv-x="1091" 
d="M1091 1475l-291 -290h-109l-200 290h190l90 -130l131 130h189zM995 143l-23 -143h-841l17 110l780 831h-646l23 143h853l-18 -109l-778 -832h633z" />
    <glyph glyph-name="uni02BC" unicode="&#x2bc;" horiz-adv-x="627" 
d="M661 1475l-178 -329h-101l150 329h129z" />
    <glyph glyph-name="gravecomb" unicode="&#x300;" 
d="M-193 1445l171 -318h-158l-204 318h191z" />
    <glyph glyph-name="acutecomb" unicode="&#x301;" 
d="M29 1445l-320 -318h-158l275 318h203z" />
    <glyph glyph-name="uni0302" unicode="&#x302;" 
d="M-301 1257l-131 -130h-191l293 291h109l199 -291h-190z" />
    <glyph glyph-name="tildecomb" unicode="&#x303;" 
d="M-243 1109q-32 0 -59 10.5t-48.5 31t-34.5 36t-30 40.5q-21 31 -30.5 43t-25 23t-32.5 11q-40 0 -68.5 -43.5t-36.5 -116.5h-141q5 127 83 215t185 88q32 0 59.5 -10.5t50 -31.5t35 -36.5t29.5 -40.5q28 -42 45.5 -59t40.5 -17q40 0 69 50t30 124h146
q-10 -136 -86.5 -226.5t-180.5 -90.5z" />
    <glyph glyph-name="uni0304" unicode="&#x304;" 
d="M14 1350l-23 -142h-592l23 142h592z" />
    <glyph glyph-name="uni0306" unicode="&#x306;" 
d="M-310 1127q-137 0 -206.5 94.5t-26.5 223.5h147q-42 -100 19 -150q49 -39 124 -24q79 16 113 80q22 41 17 94h148q-2 -149 -121 -241q-92 -77 -214 -77z" />
    <glyph glyph-name="uni0307" unicode="&#x307;" 
d="M-42 1204q-27 -25 -60.5 -30t-59.5 6.5t-41.5 38.5t-10.5 62q8 46 43 76t81 30q47 0 73 -32t20 -76t-45 -75z" />
    <glyph glyph-name="uni0308" unicode="&#x308;" 
d="M-446 1220q-38 -33 -79 -34.5t-70.5 30t-22.5 78.5q7 44 43 75t81 31q46 0 71.5 -30.5t20 -73.5t-43.5 -76zM-38 1216q-43 -30 -84 -30t-68.5 31t-20.5 77q7 43 44 74.5t81 31.5q45 0 71 -31.5t20.5 -75.5t-43.5 -77z" />
    <glyph glyph-name="uni030A" unicode="&#x30a;" 
d="M-237 1081q-88 0 -139 59.5t-37 145.5q13 86 87 149q67 59 155 59q85 0 138 -61q39 -47 39 -110t-30.5 -115.5t-88 -89.5t-124.5 -37zM-214 1222q26 0 48 19t27 45q4 28 -12 47t-43 19q-26 0 -46 -18t-29 -50l-1 -7q-3 -22 11 -37q15 -18 45 -18z" />
    <glyph glyph-name="uni030B" unicode="&#x30b;" 
d="M-311 1445l-306 -318h-158l275 318h189zM29 1445l-306 -318h-158l274 318h190z" />
    <glyph glyph-name="uni030C" unicode="&#x30c;" 
d="M25 1418l-293 -291h-109l-199 291h191l89 -130l131 130h190z" />
    <glyph glyph-name="uni0312" unicode="&#x312;" 
d="M37 1494l-168 -367h-170l201 367h137z" />
    <glyph glyph-name="uni0326" unicode="&#x326;" 
d="M-203 -16l-223 -447h-143l197 447h169z" />
    <glyph glyph-name="uni0327" unicode="&#x327;" 
d="M-569 -356q-93 0 -135 7l26 164q51 -27 129 -27q37 0 102 9q68 13 70 25q2 15 -28 34t-71 31t-83 14.5t-63 -15.5l-3 2l183 277l116 -59l-60 -92q84 -29 125.5 -81t31.5 -115q-13 -82 -102.5 -128t-237.5 -46z" />
    <glyph glyph-name="uni0328" unicode="&#x328;" 
d="M-234 -212l-22 -143q-77 -23 -170 -23.5t-174.5 19.5t-131 73t-37.5 129q8 50 42 101t82 87q45 39 106 73t84 34h83l-12 -73l-41 -32l-2 2q3 7 -4 4q-30 -11 -98 -71q-83 -75 -90 -117q-6 -39 48 -62t154 -23q92 0 183 22z" />
    <glyph glyph-name="Wgrave" unicode="&#x1e80;" horiz-adv-x="1696" 
d="M1029 1820l174 -317h-158l-206 317h190zM1023 1103l-509 -1103h-125l-130 1400h153l102 -1074l495 1074h121l156 -1074l442 1074h153l-575 -1400h-124z" />
    <glyph glyph-name="wgrave" unicode="&#x1e81;" horiz-adv-x="1425" 
d="M844 1494l172 -318h-158l-204 318h190zM839 801l-368 -795h-119l-101 1091h151l69 -769l358 769h113l115 -769l312 769h152l-448 -1091h-119z" />
    <glyph glyph-name="Wacute" unicode="&#x1e82;" horiz-adv-x="1696" 
d="M1446 1820l-318 -317h-159l273 317h204zM1023 1103l-509 -1103h-125l-130 1400h153l102 -1074l495 1074h121l156 -1074l442 1074h153l-575 -1400h-124z" />
    <glyph glyph-name="wacute" unicode="&#x1e83;" horiz-adv-x="1425" 
d="M1261 1504l-317 -318h-159l273 318h203zM839 801l-368 -795h-119l-101 1091h151l69 -769l358 769h113l115 -769l312 769h152l-448 -1091h-119z" />
    <glyph glyph-name="Wdieresis" unicode="&#x1e84;" horiz-adv-x="1696" 
d="M976 1595q-43 -32 -84.5 -33t-70 30t-21.5 77q8 44 43.5 75t80.5 31t71 -30.5t21.5 -73.5t-40.5 -76zM1380 1592q-42 -31 -83.5 -31t-69.5 31.5t-21 76.5q7 43 44 74.5t82 31.5t71 -31.5t20 -75t-43 -76.5zM1023 1103l-509 -1103h-125l-130 1400h153l102 -1074l495 1074
h121l156 -1074l442 1074h153l-575 -1400h-124z" />
    <glyph glyph-name="wdieresis" unicode="&#x1e85;" horiz-adv-x="1425" 
d="M789 1275q-29 -24 -63 -28.5t-60 7t-41 38t-10 60.5q7 44 43.5 75.5t82.5 31.5q45 0 70.5 -31.5t20 -75.5t-42.5 -77zM1199 1279q-43 -32 -84.5 -33t-70 29.5t-21.5 76.5q8 45 43.5 76t80.5 31t71 -30.5t21.5 -73.5t-40.5 -76zM839 801l-368 -795h-119l-101 1091h151
l69 -769l358 769h113l115 -769l312 769h152l-448 -1091h-119z" />
    <glyph glyph-name="Ygrave" unicode="&#x1ef2;" horiz-adv-x="1365" 
d="M864 1820l174 -317h-158l-205 317h189zM836 499l-79 -499h-146l79 501l-420 899h172l346 -744l579 744h172z" />
    <glyph glyph-name="ygrave" unicode="&#x1ef3;" horiz-adv-x="1239" 
d="M736 1494l172 -318h-159l-204 318h191zM1335 1086l-912 -1477h-162l292 468l-304 1009h159l252 -833l516 833h159z" />
    <glyph glyph-name="endash" unicode="&#x2013;" horiz-adv-x="893" 
d="M996 651l-23 -143h-893l23 143h893z" />
    <glyph glyph-name="emdash" unicode="&#x2014;" horiz-adv-x="1548" 
d="M1651 651l-23 -143h-1548l23 143h1548z" />
    <glyph glyph-name="quoteleft" unicode="&#x2018;" horiz-adv-x="609" 
d="M556 1457l56 -449h-142l-82 449h168z" />
    <glyph glyph-name="quoteright" unicode="&#x2019;" horiz-adv-x="609" 
d="M683 1457l-224 -449h-142l198 449h168z" />
    <glyph glyph-name="quotesinglbase" unicode="&#x201a;" horiz-adv-x="609" 
d="M490 241l-224 -447h-142l198 447h168z" />
    <glyph glyph-name="quotedblleft" unicode="&#x201c;" horiz-adv-x="790" 
d="M556 1457l56 -449h-142l-82 449h168zM737 1457l56 -449h-143l-82 449h169z" />
    <glyph glyph-name="quotedblright" unicode="&#x201d;" horiz-adv-x="790" 
d="M683 1457l-224 -449h-142l198 449h168zM864 1457l-225 -449h-142l198 449h169z" />
    <glyph glyph-name="quotedblbase" unicode="&#x201e;" horiz-adv-x="609" 
d="M490 241l-224 -447h-142l198 447h168z" />
    <glyph glyph-name="dagger" unicode="&#x2020;" horiz-adv-x="1084" 
d="M762 996l-71 -444h-145l71 444h-298l23 144h298l41 260h145l-41 -260h299l-23 -144h-299z" />
    <glyph glyph-name="daggerdbl" unicode="&#x2021;" horiz-adv-x="798" 
d="M575 658l-43 -273h-146l43 273h-298l23 145h298l29 183h-298l23 144h298l43 270h146l-43 -270h298l-23 -144h-298l-29 -183h298l-23 -145h-298z" />
    <glyph glyph-name="bullet" unicode="&#x2022;" horiz-adv-x="883" 
d="M425 604q12 80 84 112q63 28 119 2q63 -30 55 -105l-1 -9q-13 -79 -85 -111q-64 -29 -120 -2q-62 30 -53 106z" />
    <glyph glyph-name="ellipsis" unicode="&#x2026;" horiz-adv-x="1094" 
d="M372 19q-29 -25 -63 -31t-60.5 5t-42 37.5t-9.5 61.5q7 44 42.5 75t81.5 31q45 0 71 -30.5t21 -73t-41 -75.5zM644 19q-29 -25 -63 -31t-60.5 5t-42 37.5t-9.5 61.5q7 44 43 75t80 31q45 0 71 -30t21.5 -73t-40.5 -76zM908 19q-42 -32 -83.5 -33.5t-70 29.5t-20.5 77
q7 45 42.5 75.5t80.5 30.5t71.5 -30.5t21.5 -73t-42 -75.5z" />
    <glyph glyph-name="perthousand" unicode="&#x2030;" horiz-adv-x="2196" 
d="M593 790q-132 0 -211 92.5t-58 223.5q26 163 159 250q113 74 245 61q129 -13 194 -101q62 -84 42 -210q-20 -130 -129 -223t-242 -93zM1656 1400l-1326 -1400h-181l1326 1400h181zM468 1104q-16 -99 59 -145q64 -39 148 -16q90 26 127 106q12 25 17 55q16 104 -58 151
q-63 40 -147 16q-89 -26 -128 -108q-13 -27 -18 -59zM1058 -15q-133 0 -212 92.5t-58 222.5q26 164 159 251q113 73 245 60q129 -12 195 -101q61 -84 41 -210q-21 -130 -130 -222.5t-240 -92.5zM1724 -15q-133 0 -212 92.5t-58 222.5q26 163 160 251q112 73 244 60
q128 -12 194 -101q61 -84 41 -210q-21 -130 -129 -222.5t-240 -92.5zM931 298q-16 -99 59 -145q65 -40 149 -15q90 25 127 106q11 26 16 54q16 104 -58 151q-63 40 -147 16q-89 -26 -128 -108q-13 -27 -18 -59zM1597 298q-15 -99 59 -145q65 -39 149 -16q90 26 127 106
q12 25 17 55q16 105 -59 152q-64 39 -148 14q-88 -26 -127 -107q-13 -27 -18 -59z" />
    <glyph glyph-name="guilsinglleft" unicode="&#x2039;" horiz-adv-x="924" 
d="M376 509l409 -383l-28 -179l-544 505l18 115l703 501l-28 -177z" />
    <glyph glyph-name="guilsinglright" unicode="&#x203a;" horiz-adv-x="924" 
d="M867 567l-18 -115l-704 -505l28 179l533 383l-412 382l28 177z" />
    <glyph glyph-name="fraction" unicode="&#x2044;" horiz-adv-x="573" 
d="M1089 1400l-1203 -1400h-179l1203 1400h179z" />
    <glyph glyph-name="Euro" unicode="&#x20ac;" horiz-adv-x="1707" 
d="M944 -15q-257 0 -428.5 156t-192.5 408h-128l15 143h116q0 10 4 36l10 50h-109l15 142h140q101 246 320.5 399.5t472.5 153.5q222 0 384.5 -124.5t211.5 -332.5h-165q-50 147 -170 229t-284 82q-195 1 -363 -110.5t-253 -296.5l800 2l-23 -144h-827l-10 -50
q-3 -18 -3 -36l827 2l-23 -145h-803q26 -188 160 -302.5t329 -114.5q168 0 313.5 81.5t242.5 231.5h164q-115 -211 -316.5 -335.5t-426.5 -124.5z" />
    <glyph glyph-name="trademark" unicode="&#x2122;" horiz-adv-x="1246" 
d="M368 1270v-474h-116v474h-186v115h615l168 -437l169 437h150v-589h-117v352l-139 -352h-123l-137 350v-350h-117v474h-167z" />
    <glyph glyph-name="arrowleft" unicode="&#x2190;" horiz-adv-x="1320" 
d="M490 590l370 -341l-111 -107l-501 474l14 92l652 474l77 -107l-478 -340h893l-23 -145h-893z" />
    <glyph glyph-name="arrowup" unicode="&#x2191;" horiz-adv-x="1230" 
d="M847 1005l-140 -886h-145l140 886l-411 -421l-94 93l570 573h93l387 -573l-123 -93z" />
    <glyph glyph-name="arrowright" unicode="&#x2192;" horiz-adv-x="1282" 
d="M1303 764l-15 -92l-654 -475l-73 110l474 339l-892 2l22 144l893 -2l-371 344l116 103z" />
    <glyph glyph-name="arrowdown" unicode="&#x2193;" horiz-adv-x="1230" 
d="M1252 710l-568 -572h-93l-389 572l124 93l278 -420l140 885h145l-140 -885l410 420z" />
    <glyph glyph-name="arrowboth" unicode="&#x2194;" horiz-adv-x="1968" 
d="M1937 751l-15 -93l-653 -473l-73 109l474 338l-1163 2l371 -340l-111 -107l-502 473l14 92l652 475l77 -107l-477 -340l1162 -2l-370 344l115 102z" />
    <glyph glyph-name="arrowupdn" unicode="&#x2195;" horiz-adv-x="1458" 
d="M1377 452l-570 -569h-93l-386 572l123 91l276 -418l185 1154l-410 -420l-93 93l568 572h93l387 -572l-122 -93l-277 420l-185 -1154l414 423z" />
    <glyph glyph-name="uni2196" unicode="&#x2196;" horiz-adv-x="1071" 
d="M536 908l531 -629l-119 -102l-532 626l-27 -538l-146 -7l47 740l76 65l735 -69l-33 -145z" />
    <glyph glyph-name="uni2197" unicode="&#x2197;" horiz-adv-x="1071" 
d="M778 336l143 537l-732 -625l-87 103l731 625l-553 -58l16 145l757 68l55 -65l-186 -740z" />
    <glyph glyph-name="uni2198" unicode="&#x2198;" horiz-adv-x="1071" 
d="M1046 1111l-48 -740l-76 -65l-735 69l32 145l534 -59l-533 628l121 103l532 -626l27 538z" />
    <glyph glyph-name="uni2199" unicode="&#x2199;" horiz-adv-x="1071" 
d="M1013 488l-15 -145l-756 -68l-56 65l187 740l143 -10l-143 -538l732 626l87 -103l-730 -624z" />
    <glyph glyph-name="emptyset" unicode="&#x2205;" horiz-adv-x="1469" 
d="M471 61l-226 -238h-180l308 326q-136 160 -99 395q24 152 118.5 280t234 202.5t291.5 74.5q159 0 279 -81l194 204h180l-277 -294q131 -159 94 -386q-24 -153 -118.5 -281.5t-235 -203t-292.5 -74.5q-154 0 -271 76zM483 265l606 639q-84 52 -194 52q-173 0 -309 -118.5
t-164 -293.5q-26 -169 61 -279zM765 130q173 0 310.5 120t165.5 294q26 158 -58 271l-603 -638q79 -47 185 -47z" />
    <glyph glyph-name="minus" unicode="&#x2212;" horiz-adv-x="1302" 
d="M1189 644l-15 -144l-888 -2l23 146h880z" />
    <glyph glyph-name="approxequal" unicode="&#x2248;" horiz-adv-x="1118" 
d="M355 272h-143q13 136 97 227.5t197 91.5q42 0 79 -17.5t53.5 -33.5t40.5 -44q29 -36 48 -50.5t51 -14.5q104 0 125 185q-48 -21 -99 -21q-33 0 -60.5 8.5t-49 25.5t-34 30t-28.5 33q-23 26 -32 35t-27.5 18.5t-40.5 9.5q-104 0 -128 -177h-143q13 137 96.5 228.5
t196.5 91.5q43 0 79.5 -17t54 -34t39.5 -44q20 -25 31 -36t28.5 -19.5t40.5 -8.5q105 0 125 193h144q-8 -105 -56 -186.5t-121 -121.5h128q-11 -145 -94 -240.5t-197 -95.5q-43 0 -79.5 17.5t-54.5 34.5t-39 44q-22 26 -32 35.5t-28 19t-40 9.5q-104 0 -128 -176z" />
    <glyph glyph-name="notequal" unicode="&#x2260;" horiz-adv-x="1359" 
d="M676 323l-200 -294h-164l201 294h-199l23 146h275l137 200l-380 -1l23 145h456l177 260h165l-179 -260h205l-15 -144h-287l-138 -200h385l-15 -144z" />
    <glyph glyph-name="lessequal" unicode="&#x2264;" horiz-adv-x="1415" 
d="M1218 140h3l-23 -146l-984 2l23 144h968l-881 548l18 111l1068 554l-26 -166l-857 -444l716 -445z" />
    <glyph glyph-name="greaterequal" unicode="&#x2265;" horiz-adv-x="1422" 
d="M1225 140l-23 -144l-984 -2l23 146h3l25 158l859 445l-718 444l26 166l894 -554l-18 -111l-1054 -548h967z" />
    <glyph glyph-name="uniF8FF" unicode="&#xf8ff;" horiz-adv-x="2351" 
d="M1164 -114q-178 0 -341 69.5t-280.5 186.5t-187.5 278.5t-70 339.5q0 177 70.5 338.5t188.5 278.5t281 186t342 69q178 0 341 -69.5t281 -186t188 -278t70 -338.5q0 -178 -69.5 -340t-188 -279t-282 -186t-343.5 -69zM1166 -11q158 0 301.5 61t247.5 164t165.5 245.5
t61.5 298.5t-61 298t-164.5 245t-246.5 164.5t-300 61.5q-212 0 -391 -102t-283.5 -278.5t-104.5 -385.5q0 -157 61 -299.5t164.5 -246t247.5 -165t302 -61.5zM918 322h-2q8 9 36 35q23 20 41 70q69 195 70 198q42 120 90 204v4q-2 -2 -8 -8.5t-9 -10.5l-16 -20
q-35 -50 -50 -90q-4 -8 -13 -8q-160 8 -276 106q-9 8 -93 86q-9 9 -21 26q5 -1 18 -6q80 -32 155 -42q55 -7 113 4q46 8 74 17q5 1 24 10q-7 4 -24.5 12.5t-26 13.5t-21 14t-20.5 19h27q65 2 118 31q106 61 217 95q43 12 90 15q7 0 31 1.5t37 0.5q88 -3 140 -51
q10 -8 26 -28t18 -23q-1 -1 -1 -2l-7 2q-71 27 -131 5.5t-98 -83.5q-11 -18 -40 -87q-9 -20 -35 -80.5t-41 -93.5q-51 -102 -100 -159q-33 -41 -103 -90q-68 -50 -185 -86zM1445 -268v-68h-22v68h-9v14h9v13q1 22 31 22h10v-15q-18 1 -19 -8v-12h18v-14h-18zM664 -339
q-17 0 -26.5 12.5t-9.5 31.5q0 22 11 33.5t28 11.5q13 0 21 -5l6 -9v42h20v-114h-20v14l-6 -10q-10 -7 -24 -7zM916 -244q-12 0 -12 11q0 10 12 10q11 0 11 -10q0 -11 -11 -11zM1709 -322v-16h-14q-23 0 -23 18v52h-13v14h13v21h22v-21h16v-14h-16v-46q1 -10 15 -8z
M770 -339q-18 0 -29.5 11.5t-11.5 33.5q0 19 12.5 31.5t31.5 12.5q18 0 28.5 -12.5t10.5 -30.5q0 -3 -2 -8h-58q1 -21 19 -21q15 0 18 14h21q-7 -31 -40 -31zM856 -339q-31 0 -36 27h21q3 -12 15 -12q14 0 14 9q0 8 -21 14q-26 9 -26 25q0 11 9 18.5t24 7.5q14 0 23 -7.5
t10 -18.5h-20q-3 11 -14 11t-11 -9q0 -8 20 -12q27 -10 27 -28q0 -25 -35 -25zM984 -369q-39 0 -40 28v1h20v-1q3 -13 20 -13q19 0 23 21v12l-6 -10q-8 -5 -22 -5q-17 0 -27.5 11t-10.5 30q0 21 11.5 33t29.5 12q12 0 20 -5l5 -9v12h22v-63q0 -11 -1 -17q0 -37 -44 -37z
M1069 -299v-37h-21v84h21v-15l8 11q11 6 20 6q27 0 30 -24q2 -5 2 -14v-48h-24v55q0 16 -15 16q-21 0 -21 -34zM1184 -339q-20 0 -31.5 12.5t-11.5 32.5q0 19 11.5 31.5t31.5 12.5t32 -12.5t12 -31.5q0 -20 -11.5 -32.5t-32.5 -12.5zM1354 -339q-10 0 -18 7t-8 18
q0 29 47 29h4v2q0 4 -1 7q0 11 -11 11q-16 0 -16 -15h-21q0 13 11 21.5t26 8.5q31 0 33 -25v-40q0 -11 1 -21h-20l-2 12l-3 -9q-8 -6 -22 -6zM1512 -339q-20 0 -31 12.5t-11 32.5t11 32t31 12t31.5 -12.5t11.5 -31.5q0 -20 -11.5 -32.5t-31.5 -12.5zM1591 -299v-37h-22v84
h22v-15l7 11q9 6 20 6q25 0 30 -24q1 -5 1 -14v-48h-23v55q-2 16 -15 16q-20 0 -20 -34zM1755 -339q-34 0 -36 27h20q3 -12 16 -12q12 0 12 9t-19 14q-26 8 -26 25q0 26 33 26q27 0 34 -26h-23q-2 11 -13 11q-9 0 -9 -9q0 -8 18 -12q28 -10 28 -28q0 -25 -35 -25zM1876 -339
q-18 0 -29 11.5t-11 32.5q0 20 12 32.5t30 12.5q17 0 27 -9t11 -23h-21q-1 17 -17 17q-21 0 -21 -29q0 -28 21 -28q14 0 17 15h21q-5 -32 -40 -32zM1969 -339q-21 0 -32.5 12.5t-11.5 32.5q0 19 11.5 31.5t32.5 12.5q20 0 31.5 -12.5t11.5 -31.5q0 -20 -11.5 -32.5
t-31.5 -12.5zM2047 -293v-43h-21v84h21v-13l7 10q10 5 17 5q20 0 27 -17l8 12q7 5 18 5t18.5 -6.5t7.5 -13.5q1 -6 1 -16v-50h-20v43q0 3 -0.5 7.5t-0.5 6.5q-2 14 -17 14q-13 0 -13 -28v-43h-22v57q-2 14 -15 14q-16 0 -16 -28zM266 -274l-14 -62h-24l-28 84h26l13 -67
l14 65h27l13 -65l16 67h23l-26 -84h-25zM399 -274l-17 -62h-24l-26 84h24l14 -67l15 65h26l15 -65l14 67h23l-26 -84h-25zM529 -274l-14 -62h-25l-27 84h25l13 -67l15 65h26l14 -65l16 67h22l-26 -84h-25zM926 -252v-84h-20v84h20zM1323 -252l-33 -84h-26l-31 84h24l21 -68
l21 68h24zM670 -322q24 0 24 27v3q0 13 -6.5 20t-15.5 7t-15.5 -8t-6.5 -21q0 -28 20 -28zM752 -286h38q-5 21 -19 21q-16 0 -19 -21zM984 -321q23 0 23 27v2q0 27 -22 27t-22 -28t21 -28zM1184 -322q22 0 22 28q0 29 -22 29q-21 0 -21 -29q0 -28 21 -28zM1512 -322
q22 0 22 28q0 29 -22 29q-21 0 -21 -29q0 -28 21 -28zM1969 -322q21 0 21 28q0 29 -21 29q-23 0 -23 -29q0 -28 23 -28zM1362 -322q17 0 17 16v7q-29 5 -29 -14q0 -9 12 -9zM604 -339q-12 0 -12 14q0 12 12 12q13 0 13 -12q0 -14 -13 -14zM1811 -339q-12 0 -12 14
q0 12 12 12q14 0 14 -12q0 -14 -14 -14z" />
    <glyph glyph-name="_Fontastica" horiz-adv-x="1389" 
d="M345 526v-291h-169q-3 0 -4.5 1.5t-1.5 3.5v1v1007h762v-149h-587v-418h587v-155h-587zM1219 1248v-1013h-761v158h587v411h-587v160h587v284h174zM788 80q-34 0 -53 18l12 24q6 -7 19 -12.5t21 -5.5q9 0 11 2q5 0 5 7q0 4 -4 7q-12 6 -18 7q-15 5 -22 8q-9 5 -12 8
q-4 8 -4 17q0 19 13 28t32 9q22 0 44 -13l-10 -24q-21 12 -35 12q-13 0 -13 -8t20 -15q14 -2 21 -5t14 -10q3 -9 3 -19q0 -17 -13 -26t-31 -9zM327 79q-26 0 -43.5 17t-17.5 42t17.5 41.5t43.5 16.5t43.5 -16.5t17.5 -41.5q0 -26 -17 -42.5t-44 -16.5zM1051 79
q-24 0 -40.5 17t-16.5 42t16.5 41.5t42.5 16.5q29 0 46 -19l-16 -21q-13 15 -30 15q-12 0 -21.5 -9t-9.5 -25q0 -10 5 -15q10 -17 27 -17q16 0 29 13l17 -17q-22 -22 -49 -22zM204 122v-40h-29v112h85v-23h-56v-25h51v-24h-51zM431 149v-67h-28v112h26l53 -68l-1 68h28v-112
h-26zM584 170v-88h-28v88h-35v24h98v-24h-35zM645 102l-7 -20h-30l48 112h30l48 -112h-30l-10 20h-49zM903 170v-88h-30v88h-34v24h96v-24h-32zM977 194v-112h-29v112h29zM1136 102l-6 -20h-31l48 112h31l48 -112h-32l-8 20h-50zM327 104q13 0 22 10.5t9 22.5q0 2 -3 17
q-7 17 -27 17q-14 0 -23 -9.5t-9 -23.5q0 -13 9 -23.5t22 -10.5zM685 123l-14 41l-17 -41h31zM1177 123l-15 41l-16 -41h31z" />
    <glyph glyph-name="_VendorID" horiz-adv-x="1063" 
d="M736 751q-97 0 -157.5 50t-49.5 118h68q-15 -40 28 -72t111 -32q58 0 98 24.5t40 60.5q0 63 -145 85q-93 13 -141 50t-48 92q0 62 54.5 102t136.5 40q90 0 148 -47.5t47 -113.5h-69q16 37 -23 67.5t-103 30.5q-52 0 -88 -23t-36 -54q0 -61 131 -80q99 -13 151 -51.5
t52 -97.5q0 -64 -58.5 -106.5t-146.5 -42.5zM183 978v-216h-66v497h388v-64h-322v-153h304v-64h-304zM737 166q-96 0 -157.5 49.5t-50.5 119.5h68q-15 -40 27.5 -71.5t111.5 -31.5q58 0 98 23.5t40 59.5q0 65 -142 86q-93 13 -142.5 49.5t-49.5 92.5q0 62 55 102t137 40
q90 0 147.5 -47.5t46.5 -113.5h-69q16 37 -23 67t-102 30q-53 0 -89 -22t-36 -55q0 -59 130 -78q204 -30 204 -150q0 -65 -58 -107.5t-146 -42.5zM183 394v-217h-66v497h388v-63h-322v-153h304v-64h-304zM660 113v-31h-10v31h-4v7h4v6q2 11 14 11h5v-8q-9 1 -9 -4v-5h9v-7
h-9zM292 80q-16 0 -16 22q0 20 18 20q5 0 9 -2l3 -4v20h11v-54h-11v5l-3 -3q-4 -4 -11 -4zM411 124q-5 0 -5 6q0 5 5 5q6 0 6 -5q0 -6 -6 -6zM786 87v-6h-7q-11 0 -11 8v24h-7v7h7v10h10v-10h8v-7h-8v-21q2 -6 8 -5zM342 80q-19 0 -19 22q0 20 21 20q8 0 13.5 -6t5.5 -14
q0 -1 -1 -3h-29q1 -12 10 -12q6 0 8 8h11q-4 -15 -20 -15zM383 80q-15 0 -18 13h10q2 -7 8 -7t6 6q0 3 -10 7q-12 3 -12 10q0 13 16 13q15 0 15 -13h-9q-1 6 -7 6q-5 0 -5 -5q0 -4 10 -5q12 -3 12 -13q0 -12 -16 -12zM444 65q-20 0 -20 14v1h10v-1q2 -6 10 -6q7 0 10 10v5
l-4 -4q-4 -2 -8 -2q-20 0 -20 20t21 20q4 0 8 -2l3 -4v5h11v-29q0 -7 -1 -8q0 -19 -20 -19zM484 100v-18h-10v39h10v-7l4 5q3 3 8 3q14 0 15 -12q1 -2 1 -6v-22h-12v25q0 8 -8 8t-8 -15zM538 80q-21 0 -21 22q0 20 21 20t21 -20q0 -22 -21 -22zM618 80q-12 0 -12 12
q0 13 21 13h3v1q0 2 -1 3q0 6 -5 6q-7 0 -7 -8h-10q0 15 17 15q14 0 16 -12v-28h-9l-1 4l-2 -3q-6 -3 -10 -3zM692 80q-20 0 -20 22q0 8 5.5 14t14.5 6t14.5 -6t5.5 -14q0 -22 -20 -22zM729 100v-18h-10v39h10v-7l4 5q5 3 10 3q11 0 13 -12q1 -2 1 -6v-22h-11v25q-2 8 -7 8
q-10 0 -10 -15zM807 80q-17 0 -18 13h10q2 -7 8 -7t6 6q0 3 -10 7q-12 3 -12 10q0 13 15 13t17 -13h-11q0 6 -7 6q-4 0 -4 -5q0 -4 9 -5q13 -3 13 -13q0 -12 -16 -12zM865 80q-20 0 -20 22q0 20 21 20q15 0 17 -16h-10q-1 9 -7 9q-11 0 -11 -13q0 -15 11 -15q5 0 7 8h10
q-3 -15 -18 -15zM908 80q-21 0 -21 22q0 20 21 20q9 0 14.5 -6t5.5 -14q0 -22 -20 -22zM945 102v-20h-10v39h10v-6l3 5q6 2 9 2q8 0 11 -8l4 6q6 2 9 2q11 0 13 -10v-30h-9v20l-1 6q0 7 -8 7q-7 0 -7 -13v-20h-10v26q0 7 -6 7q-8 0 -8 -13zM105 110l-7 -28h-11l-14 39h13
l6 -31l6 30h13l6 -30l7 31h11l-12 -39h-12zM167 110l-8 -28h-11l-13 39h12l6 -31l7 30h13l7 -30l6 31h11l-12 -39h-11zM229 110l-7 -28h-13l-12 39h11l7 -31l8 30h12l6 -30l8 31h10l-13 -39h-11zM416 121v-39h-10v39h10zM603 121l-16 -39h-12l-13 39h10l10 -32l9 32h12z
M295 87q11 0 11 15v1q0 12 -10 12q-11 0 -11 -13q0 -15 10 -15zM333 105h18q-2 10 -8 10q-8 0 -10 -10zM444 88q10 0 10 14v1q0 12 -10 12t-10 -13q0 -14 10 -14zM538 87q9 0 9 15q0 13 -9 13q-10 0 -10 -13q0 -15 10 -15zM692 87q11 0 11 15q0 13 -11 13q-10 0 -10 -13
q0 -15 10 -15zM908 87q9 0 9 15q0 13 -9 13q-11 0 -11 -13q0 -15 11 -15zM621 87q9 0 9 9v4q-14 2 -14 -7q0 -6 5 -6zM264 80q-6 0 -6 6q0 7 6 7q7 0 7 -7q0 -6 -7 -6zM833 80q-5 0 -5 6q0 7 5 7q7 0 7 -7q0 -6 -7 -6z" />
    <glyph glyph-name="_Designova" horiz-adv-x="1578" 
d="M788 74q-159 0 -294.5 78.5t-214.5 213.5t-79 293q0 118 47 226t126 186t188 124.5t229 46.5q159 0 294.5 -78t214.5 -212.5t79 -292.5q0 -159 -78.5 -293.5t-214.5 -213t-297 -78.5zM789 144q141 0 260 69t188.5 187t69.5 258q0 212 -151 362.5t-365 150.5
q-142 0 -261.5 -68.5t-189 -186t-69.5 -257.5t69 -258.5t188 -187.5t261 -69zM622 366h-1l24 24q17 13 27 46q45 125 47 133q28 79 62 135v3l-13 -12q-8 -10 -9 -13q-23 -30 -34 -60q-4 -6 -9 -6q-103 4 -185 71q-11 10 -32.5 30t-28.5 26q-5 5 -15 19q2 0 4 -1t4.5 -2
t3.5 -1q39 -18 104 -29q37 -3 75 3l50 11q3 0 15 7q-6 3 -16.5 8.5t-16.5 9t-14 9.5t-13 13h17q43 1 80 20q74 45 145 64q33 9 59 10q4 0 24 1t23 0q60 -2 92 -34q7 -6 17.5 -18t13.5 -15q-1 -1 -1 -2q-1 0 -2.5 0.5t-2.5 1.5q-48 17 -88 3t-66 -55q-4 -7 -26 -59
q-5 -12 -23 -53t-28 -63q-30 -64 -67 -106q-22 -28 -69 -61q-46 -34 -123 -57q-1 0 -2 -1h-2z" />
    </font>
</defs>
</svg>
