<?xml version="1.0" standalone="no"?>
<!DOCTYPE svg PUBLIC "-//W3C//DTD SVG 1.1//EN" "http://www.w3.org/Graphics/SVG/1.1/DTD/svg11.dtd" >
<svg xmlns="http://www.w3.org/2000/svg" xmlns:xlink="http://www.w3.org/1999/xlink" version="1.1">
<metadata>
Created by FontForge 20170731 at Wed Apr 19 00:46:42 2023
 By Aleksey,,,
Copyright (c) 2023 by Designova. All rights reserved.
</metadata>
<defs>
<font id="EthosNova-BoldItalic" horiz-adv-x="1315" >
  <font-face 
    font-family="Ethos Nova"
    font-weight="700"
    font-style="italic"
    font-stretch="normal"
    units-per-em="2048"
    panose-1="0 0 8 0 0 0 0 0 0 0"
    ascent="1638"
    descent="-410"
    x-height="1089"
    cap-height="1398"
    bbox="-810 -450 2562 1915.74"
    underline-thickness="50"
    underline-position="-150"
    slope="-9"
    unicode-range="U+0020-F8FF"
  />
<missing-glyph horiz-adv-x="1367" 
d="M1388 1398l-220 -1393h-967l220 1393h967zM1138 1243h-515l195 -394zM1173 1048l-281 -347l171 -348zM697 701l-169 344l-110 -689zM967 163l-195 391l-318 -391h513z" />
    <glyph glyph-name=".notdef" horiz-adv-x="1367" 
d="M1388 1398l-220 -1393h-967l220 1393h967zM1138 1243h-515l195 -394zM1173 1048l-281 -347l171 -348zM697 701l-169 344l-110 -689zM967 163l-195 391l-318 -391h513z" />
    <glyph glyph-name=".null" horiz-adv-x="0" 
 />
    <glyph glyph-name="nonmarkingreturn" horiz-adv-x="682" 
 />
    <glyph glyph-name="space" unicode=" " horiz-adv-x="496" 
 />
    <glyph glyph-name="exclam" unicode="!" horiz-adv-x="633" 
d="M515 724l-74 -412h-149l58 412l106 674h165zM403 21l-1 -1q-30 -27 -65.5 -32.5t-63.5 7.5t-44.5 42t-10.5 66q8 48 46.5 82t87.5 34t76 -33.5t21 -80.5t-46 -84z" />
    <glyph glyph-name="quotedbl" unicode="&#x22;" horiz-adv-x="849" 
d="M629 1400l-82 -465h-154l53 463zM846 1400l-81 -465h-154l53 463z" />
    <glyph glyph-name="numbersign" unicode="#" horiz-adv-x="1590" 
d="M616 394l-188 -391h-177l189 391h-352l92 165h341l137 288h-366l91 165h355l186 386h177l-186 -386h289l186 386h177l-186 -386h341l-91 -165h-329l-139 -288h356l-93 -165h-344l-188 -391h-177l188 391h-289zM1124 847h-289l-137 -288h289z" />
    <glyph glyph-name="dollar" unicode="$" horiz-adv-x="1331" 
d="M748 -10l-26 -166h-165l27 171q-226 29 -322.5 173t-45.5 380h166q-76 -335 229 -385l75 475q-419 89 -374 381q25 155 163 264t334 129l22 142h165l-23 -146q217 -29 315.5 -165.5t55.5 -347.5h-165q29 145 -30 232t-203 112l-73 -463q220 -39 315 -134.5t70 -252.5
q-27 -170 -164.5 -277t-345.5 -122zM713 807l69 437q-121 -16 -207 -78.5t-99 -146.5q-11 -74 47.5 -126.5t189.5 -85.5zM846 607l-71 -450q136 13 219 73.5t99 158.5q13 84 -47 137t-200 81z" />
    <glyph glyph-name="percent" unicode="%" horiz-adv-x="1602" 
d="M608 776q-134 0 -214 94t-59 227q22 139 135 231q109 92 240 92q134 0 214 -95t59 -228q-21 -132 -131 -226.5t-244 -94.5zM1674 1398l-1319 -1395h-206l1319 1395h206zM634 942q68 0 122 44.5t64 109.5q15 97 -56 139q-61 36 -139 10q-83 -27 -114 -106q-8 -20 -12 -43
q-6 -40 4 -65q26 -49 55 -69t76 -20zM1061 -11q-134 0 -214 93.5t-59 226.5q26 165 161 254q114 75 248 63q130 -12 197 -103q63 -85 43 -214q-21 -132 -131.5 -226t-244.5 -94zM1087 153q67 0 121 44.5t65 109.5q15 97 -56 139q-61 36 -139 10q-83 -27 -114 -106
q-8 -20 -12 -43q-6 -40 3 -65q27 -49 56 -69t76 -20z" />
    <glyph glyph-name="ampersand" unicode="&#x26;" horiz-adv-x="1343" 
d="M500 -11q-173 0 -269 101.5t-71 258.5q10 60 44 122t84 109q60 58 201 122q-126 170 -97 352q25 160 152 260.5t304 100.5q165 0 253.5 -91.5t65.5 -239.5q-42 -260 -401 -433l183 -209l178 212l125 -84q-150 -193 -191 -233l-11 -12l273 -318l-227 -6l-170 195
q-112 -107 -215 -157t-211 -50zM663 774v-2q143 60 234.5 143.5t104.5 168.5q12 75 -36 119.5t-144 44.5q-108 0 -180 -52.5t-86 -141.5q-21 -133 107 -280zM525 155q78 0 149.5 36.5t153.5 117.5l-233 268q-54 -21 -92 -39.5t-80 -46t-66.5 -63.5t-31.5 -79
q-13 -84 43.5 -139t156.5 -55z" />
    <glyph glyph-name="quotesingle" unicode="'" horiz-adv-x="632" 
d="M629 1398l-93 -463h-154l64 463h183z" />
    <glyph glyph-name="parenleft" unicode="(" horiz-adv-x="805" 
d="M673 -113l-35 -72h-136q-118 117 -171.5 348t-16.5 461q36 230 159 454q132 238 287 357h138l12 -73q-88 -45 -180 -165.5t-160.5 -275.5t-91.5 -297q-20 -152 -3.5 -298t70.5 -267.5t128 -171.5z" />
    <glyph glyph-name="parenright" unicode=")" horiz-adv-x="805" 
d="M242 -185h-137l-12 72q88 46 180 166.5t160 275.5t91 297q20 152 3.5 298t-70.5 268t-128 170l34 73h137q118 -116 171.5 -347.5t16.5 -461.5q-37 -233 -165 -466t-281 -345z" />
    <glyph glyph-name="asterisk" unicode="*" horiz-adv-x="1025" 
d="M726 862l-23 -265h-191l62 265l-251 -146l-68 166l260 115l-225 119l123 163l203 -147l22 266h191l-61 -266l248 146l70 -166l-259 -115l224 -118l-124 -164z" />
    <glyph glyph-name="plus" unicode="+" horiz-adv-x="1296" 
d="M807 492l-56 -355l-166 -9l58 362h-363l26 168h361l57 358h166l-57 -358h355l-16 -166h-365z" />
    <glyph glyph-name="comma" unicode="," horiz-adv-x="666" 
d="M496 264l-233 -463h-162l206 463h189z" />
    <glyph glyph-name="hyphen" unicode="-" horiz-adv-x="1077" 
d="M1037 664l-26 -164h-785l26 164h785z" />
    <glyph glyph-name="period" unicode="." horiz-adv-x="607" 
d="M394 24l-1 -1q-46 -34 -91.5 -35t-75.5 33t-22 84q7 49 46 83t89 34q49 0 77 -33.5t22.5 -81t-44.5 -83.5z" />
    <glyph glyph-name="slash" unicode="/" horiz-adv-x="842" 
d="M1019 1398l-795 -1395h-181l796 1395h180z" />
    <glyph glyph-name="zero" unicode="0" horiz-adv-x="1354" 
d="M300 198q-75 130 -80 315t59 371t181 319q92 103 209.5 157.5t229.5 54.5t213 -54.5t161 -157.5q76 -135 81.5 -319.5t-58.5 -368.5t-182 -315q-92 -103 -210 -158t-230 -55t-213.5 54t-160.5 157zM700 155q175 0 304 150q136 159 173 397t-49 395q-84 151 -255 151
q-172 0 -305 -153t-171 -396q-37 -234 51 -394q82 -150 252 -150z" />
    <glyph glyph-name="one" unicode="1" horiz-adv-x="792" 
d="M814 1398l-221 -1395h-166l180 1131l-227 -189l-99 114l361 300l6 39h166z" />
    <glyph glyph-name="two" unicode="2" horiz-adv-x="1276" 
d="M1147 167l-35 -164h-912l19 117l640 609l31 32l9 9q42 41 63 64l1 1q40 40 69.5 91t35.5 91l1 6q16 100 -49 162.5t-185 62.5q-123 0 -217.5 -74.5t-134.5 -204.5h-168q57 204 205.5 325t340.5 121q191 0 295.5 -111.5t76.5 -286.5q-15 -95 -73 -181t-194 -214l-477 -455
h658z" />
    <glyph glyph-name="three" unicode="3" horiz-adv-x="1306" 
d="M661 -11q-214 0 -335 144.5t-85 359.5h165q-24 -147 56.5 -242.5t225.5 -95.5t248 80t123 209q20 124 -66 193t-262 69q-83 0 -144 -13l-50 104l514 436h-636l26 165h894l-22 -140l-463 -391q200 -18 301 -132t73 -291q-31 -199 -190 -327t-373 -128z" />
    <glyph glyph-name="four" unicode="4" horiz-adv-x="1393" 
d="M1072 311l-49 -308h-164l49 308l-734 -2l20 127l892 962h158l-146 -923h247l-26 -164h-247zM934 475l100 645l-603 -647z" />
    <glyph glyph-name="five" unicode="5" horiz-adv-x="1265" 
d="M649 -11q-215 0 -333.5 142t-86.5 362h167q-31 -135 53 -236.5t227 -101.5q134 0 244 94t132 228q20 131 -61 225t-214 94q-205 0 -354 -159h-138l180 761h854l-26 -165h-699l-86 -344q147 76 296 76q132 0 234.5 -65.5t151 -178t27.5 -244.5q-22 -136 -104 -248
t-204.5 -176t-259.5 -64z" />
    <glyph glyph-name="six" unicode="6" horiz-adv-x="1276" 
d="M659 -11q-246 0 -361.5 190t-65.5 508q50 319 224 519q183 209 427 209q180 0 291 -116t112 -306h-172q-6 118 -76 186.5t-185 68.5q-145 0 -257.5 -116.5t-171.5 -325.5q81 75 183 117t207 42q132 0 235 -65.5t151.5 -178t27.5 -244.5q-33 -208 -196 -348t-373 -140z
M686 155q140 0 247 92t130 230q26 163 -81 252q-88 74 -222 65q-141 -10 -239 -105q-87 -84 -107 -212q-12 -78 3 -134q40 -97 104 -142.5t165 -45.5z" />
    <glyph glyph-name="seven" unicode="7" horiz-adv-x="1099" 
d="M1201 1282l-813 -1279h-185l783 1230h-694l26 165h896z" />
    <glyph glyph-name="eight" unicode="8" horiz-adv-x="1294" 
d="M645 -10q-229 0 -358 115.5t-101 293.5q17 110 83 198.5t172 144.5q-74 55 -106 133t-18 166q28 177 202 281q154 91 353 91q196 -1 319 -90q142 -104 115 -282q-14 -89 -71 -167t-146 -132q87 -56 124.5 -144.5t20.5 -198.5q-29 -184 -202 -299q-167 -110 -387 -110z
M776 817q140 0 245 64.5t120 159.5q17 107 -97 164q-106 53 -259 38q-159 -16 -244 -95q-49 -47 -59 -107q-14 -93 63 -153q89 -71 231 -71zM672 157q159 0 269.5 68.5t127.5 177.5q18 114 -68.5 182t-250.5 68t-272.5 -68t-126.5 -182q-17 -109 68 -174q98 -72 253 -72z
" />
    <glyph glyph-name="nine" unicode="9" horiz-adv-x="1276" 
d="M613 -12q-179 0 -290 116t-112 306h172q6 -118 76.5 -186.5t184.5 -68.5q145 0 258 116.5t172 325.5q-82 -75 -184 -117t-207 -42q-133 0 -235.5 65.5t-150.5 178t-27 244.5q33 208 196 348t372 140q246 0 362 -190t65 -508q-50 -317 -224 -519q-180 -209 -428 -209z
M434 926q-26 -162 81 -252q88 -73 222 -65q141 9 239 103q88 86 109 214q12 74 -6 134q-39 97 -102.5 142.5t-164.5 45.5q-141 0 -248.5 -92t-129.5 -230z" />
    <glyph glyph-name="colon" unicode=":" horiz-adv-x="606" 
d="M519 836h-1q-36 -30 -74.5 -34t-64.5 15.5t-40 48.5t-4 67.5t46 69.5l1 1q25 21 52.5 28.5t49.5 1.5t41.5 -19.5t29 -35.5t11.5 -45t-10 -49.5t-37 -48.5zM390 21l-1 -1q-36 -30 -74.5 -33.5t-64.5 15.5t-40 48t-4 67.5t46 69.5l1 1q25 21 52.5 28.5t49.5 2t41.5 -19.5
t29 -35.5t11.5 -45t-10 -49.5t-37 -48z" />
    <glyph glyph-name="semicolon" unicode=";" horiz-adv-x="627" 
d="M503 836h-1q-45 -32 -89 -32.5t-73 33t-21 82.5q7 48 46 81.5t86 33.5q49 0 77 -33.5t21.5 -81t-46.5 -83.5zM477 228l-208 -372h-159l174 372h193z" />
    <glyph glyph-name="less" unicode="&#x3c;" horiz-adv-x="1426" 
d="M538 576l690 -427l-31 -192l-893 558l19 125l1070 554l-30 -190z" />
    <glyph glyph-name="equal" unicode="=" horiz-adv-x="1364" 
d="M1220 823l-16 -165l-837 -1l26 166h827zM1167 487l-16 -166l-837 -2l26 168h827z" />
    <glyph glyph-name="greater" unicode="&#x3e;" horiz-adv-x="1426" 
d="M1306 641l-20 -124l-1070 -558l30 192l825 427l-690 428l30 190z" />
    <glyph glyph-name="question" unicode="?" horiz-adv-x="1075" 
d="M655 427l-24 -147h-166l25 155q30 183 214 292l127 74q123 79 141 194q17 110 -48.5 181.5t-183.5 71.5q-142 0 -239 -95t-119 -258h-165q30 231 182.5 375.5t366.5 144.5q188 0 294 -121.5t77 -304.5q-15 -94 -64 -164q-12 -20 -25.5 -37.5t-31.5 -34t-28 -26.5t-34 -26
l-30 -20t-34 -21t-30 -18q-11 -7 -37.5 -23.5t-35 -22.5t-29 -20t-28 -21t-22 -20t-20.5 -23t-14 -24t-12 -29t-7 -32zM590 17q-31 -25 -63.5 -31.5t-58 3.5t-43.5 31.5t-24 48.5t5.5 58.5t41.5 57.5l1 1q37 31 76 34.5t65 -16t40.5 -49.5t4.5 -68.5t-45 -69.5z" />
    <glyph glyph-name="at" unicode="@" horiz-adv-x="1707" 
d="M868 -148q-170 0 -310 60t-230.5 163.5t-129 249.5t-12.5 312q52 326 310 548q262 218 597 218q195 0 342.5 -65t216.5 -182q121 -206 80 -461q-34 -213 -137 -334t-251 -121q-122 0 -159 90q-140 -118 -311 -118q-201 0 -296 138q-79 116 -54 281q24 164 138 283
q139 145 346 145q149 0 246 -92l13 80h166l-94 -594q-4 -25 3.5 -36t30.5 -11q64 0 110 63q62 77 84 222q40 252 -94.5 399t-405.5 147q-177 0 -330.5 -77t-255 -214.5t-128.5 -308.5q-28 -177 31.5 -318.5t193 -221t316.5 -79.5q176 0 285 50l24 -160q-193 -56 -335 -56z
M894 377h6q105 2 191 76.5t105 181.5l1 6q16 104 -47.5 178t-168.5 74q-107 0 -192 -74.5t-102 -183.5q-17 -108 43 -183t164 -75z" />
    <glyph glyph-name="A" unicode="A" horiz-adv-x="1475" 
d="M481 412l-255 -409h-181l862 1395h102l420 -1395h-181l-125 409h-642zM1074 577l-161 535l-331 -535h492z" />
    <glyph glyph-name="B" unicode="B" horiz-adv-x="1371" 
d="M784 3h-585l221 1395h585q191 0 290 -107t71 -284q-31 -194 -179 -298q153 -95 118 -320q-30 -188 -163.5 -287t-357.5 -99zM979 1233h-419l-71 -452h400q134 0 215 58.5t98 168.5q17 107 -41.5 166t-181.5 59zM863 617h-400l-72 -450h419q156 0 234 53t97 171
q18 116 -49 171t-229 55z" />
    <glyph glyph-name="C" unicode="C" horiz-adv-x="1587" 
d="M819 -10q-293 0 -464 209q-110 135 -128 318.5t58.5 367.5t230.5 319q238 209 529 209q217 0 375 -125t201 -332l-167 -39q-39 152 -156.5 240.5t-279.5 88.5q-225 0 -403 -157.5t-215 -387.5q-24 -151 26.5 -276t161 -196.5t258.5 -71.5q163 0 308 88.5t232 241.5
l155 -41q-109 -207 -306.5 -331.5t-415.5 -124.5z" />
    <glyph glyph-name="D" unicode="D" horiz-adv-x="1482" 
d="M644 3h-445l221 1395h445q201 0 350.5 -91t217.5 -251t37 -355q-31 -197 -149.5 -357t-297 -250.5t-379.5 -90.5zM839 1233h-279l-169 -1066h279q237 0 415.5 151.5t215.5 382.5q37 230 -94 381t-368 151z" />
    <glyph glyph-name="E" unicode="E" 
d="M1214 167l-26 -164h-989l221 1395h989l-26 -165h-823l-71 -450h691l-26 -164h-691l-72 -452h823z" />
    <glyph glyph-name="F" unicode="F" horiz-adv-x="1325" 
d="M463 619l-98 -616h-166l221 1395h989l-26 -165h-823l-71 -450h691l-26 -164h-691z" />
    <glyph glyph-name="G" unicode="G" horiz-adv-x="1618" 
d="M819 -10q-293 0 -464 209q-110 135 -128 318.5t58.5 367.5t230.5 319q238 209 529 209q217 0 375 -125t201 -332l-167 -39q-39 152 -156.5 240.5t-279.5 88.5q-148 0 -281.5 -71.5t-223 -196.5t-113.5 -277q-24 -151 26.5 -276t161 -196.5t258.5 -71.5q193 0 343.5 120
t212.5 321h-548l26 165h722l-10 -64q-32 -202 -142.5 -364t-276.5 -253.5t-354 -91.5z" />
    <glyph glyph-name="H" unicode="H" horiz-adv-x="1487" 
d="M463 617l-98 -614h-166l221 1395h166l-97 -617h757l97 617h166l-221 -1395h-166l98 614h-757z" />
    <glyph glyph-name="I" unicode="I" horiz-adv-x="563" 
d="M586 1398l-221 -1395h-166l221 1395h166z" />
    <glyph glyph-name="J" unicode="J" horiz-adv-x="1291" 
d="M587 -10q-148 0 -258 77t-152 207t-1 278h166q-28 -79 -16.5 -150.5t48 -126.5t100 -87.5t140.5 -32.5q167 0 271 119.5t141 353.5l122 770h166l-122 -770q-47 -301 -207 -469.5t-398 -168.5z" />
    <glyph glyph-name="K" unicode="K" horiz-adv-x="1383" 
d="M428 395l-63 -392h-166l221 1395h166l-120 -763l866 765h108l53 -63l-680 -601l521 -733h-223l-433 614z" />
    <glyph glyph-name="L" unicode="L" horiz-adv-x="1290" 
d="M1214 167l-26 -164h-989l221 1395h166l-195 -1231h823z" />
    <glyph glyph-name="M" unicode="M" horiz-adv-x="1683" 
d="M515 948l-150 -945h-166l221 1395h146l319 -1130l676 1130h145l-221 -1395h-166l150 945l-566 -945h-126z" />
    <glyph glyph-name="N" unicode="N" horiz-adv-x="1451" 
d="M534 1069l-169 -1066h-166l221 1395h137l582 -1071l169 1071h166l-221 -1395h-139z" />
    <glyph glyph-name="O" unicode="O" horiz-adv-x="1641" 
d="M819 -10q-293 0 -464 209q-110 135 -128 318.5t58.5 367.5t230.5 319q238 209 529 209q142 0 262.5 -56t198.5 -151t112 -227t11 -278q-31 -196 -149.5 -359.5t-293.5 -257.5t-367 -94zM846 157q225 0 401.5 156t213.5 388q18 113 -7.5 214t-84.5 173.5t-150.5 115
t-200.5 42.5q-225 0 -403 -157.5t-215 -387.5q-24 -151 26.5 -276t161 -196.5t258.5 -71.5z" />
    <glyph glyph-name="P" unicode="P" horiz-adv-x="1328" 
d="M451 543l-86 -540h-166l221 1395h589q190 0 287.5 -118t67.5 -310q-30 -190 -166 -308.5t-324 -118.5h-423zM983 1233h-423l-83 -525h423q119 0 199.5 70.5t99.5 192.5t-38.5 192t-177.5 70z" />
    <glyph glyph-name="Q" unicode="Q" horiz-adv-x="1720" 
d="M819 -10q-293 0 -464 209q-110 135 -128 318.5t58.5 367.5t230.5 319q238 209 529 209q142 0 262.5 -56t198.5 -151t112 -227t11 -278q-42 -263 -237 -462l205 -236h-235l-107 122q-206 -135 -436 -135zM846 157q163 0 307 87l-226 259h234l129 -149q139 147 171 347
q18 113 -7.5 214t-84.5 173.5t-150.5 115t-200.5 42.5q-225 0 -403 -157.5t-215 -387.5q-24 -151 26.5 -276t161 -196.5t258.5 -71.5z" />
    <glyph glyph-name="R" unicode="R" horiz-adv-x="1334" 
d="M451 543l-86 -540h-166l221 1395h589q190 0 287.5 -118t67.5 -310q-25 -158 -125 -268.5t-246 -144.5l273 -554h-197l-270 540h-348zM983 1233h-423l-83 -525h423q119 0 199.5 70.5t99.5 192.5t-38.5 192t-177.5 70z" />
    <glyph glyph-name="S" unicode="S" horiz-adv-x="1326" 
d="M661 -15q-287 0 -418 167q-92 120 -41 293h168q-47 -123 43 -210.5t273 -87.5q159 0 277 67.5t135 167.5q13 91 -62 148.5t-264 97.5q-206 45 -307 88q-208 91 -175 299q22 136 128 233q182 167 469 167q286 0 418 -167q91 -124 40 -293h-168q41 124 -46 210t-270 86
q-160 0 -277.5 -68t-133.5 -168q-11 -66 40 -110q26 -19 81 -42q72 -30 224 -65q16 -3 24 -5q259 -58 361.5 -153t78.5 -257q-22 -136 -129 -231q-181 -167 -469 -167z" />
    <glyph glyph-name="T" unicode="T" horiz-adv-x="1326" 
d="M948 1233l-195 -1230h-165l195 1230h-487l26 165h1126l-26 -165h-474z" />
    <glyph glyph-name="U" unicode="U" horiz-adv-x="1545" 
d="M771 -11q-119 0 -202 34q-97 35 -164 99q-77 71 -107 191.5t-7 268.5l129 816h166l-129 -816q-17 -106 3.5 -192t74.5 -135q111 -100 263 -100q158 0 294 100q70 49 117 134.5t64 192.5l129 816h165l-129 -816q-24 -152 -90 -268q-129 -217 -366 -292q-102 -33 -211 -33z
" />
    <glyph glyph-name="V" unicode="V" horiz-adv-x="1475" 
d="M1650 1398l-862 -1395h-102l-420 1395h181l336 -1108l686 1108h181z" />
    <glyph glyph-name="W" unicode="W" horiz-adv-x="1691" 
d="M1012 1054l-484 -1051h-139l-131 1395h172l97 -1021l471 1021h136l149 -1021l419 1021h173l-574 -1395h-138z" />
    <glyph glyph-name="X" unicode="X" horiz-adv-x="1404" 
d="M794 568l-538 -565h-207l662 698l-441 697h207l359 -565l533 565h206l-659 -697l440 -696h-207z" />
    <glyph glyph-name="Y" unicode="Y" horiz-adv-x="1378" 
d="M853 500l-79 -497h-165l80 499l-420 896h196l333 -719l558 719h195z" />
    <glyph glyph-name="Z" unicode="Z" horiz-adv-x="1299" 
d="M1185 167l-26 -164h-1029l20 124l987 1106h-810l26 165h1043l-19 -123l-989 -1108h797z" />
    <glyph glyph-name="bracketleft" unicode="[" horiz-adv-x="975" 
d="M834 -67l-26 -167h-615l273 1725h615l-26 -165h-450l-221 -1393h450z" />
    <glyph glyph-name="backslash" unicode="\" horiz-adv-x="841" 
d="M445 1398l353 -1395h-180l-354 1395h181z" />
    <glyph glyph-name="bracketright" unicode="]" horiz-adv-x="975" 
d="M981 1491l-273 -1725h-615l26 167h449l221 1393h-449l26 165h615z" />
    <glyph glyph-name="asciicircum" unicode="^" horiz-adv-x="1101" 
d="M721 1173l-345 -478h-191l512 703h117l289 -703h-190z" />
    <glyph glyph-name="underscore" unicode="_" horiz-adv-x="946" 
d="M986 124l-26 -165h-987l26 165h987z" />
    <glyph glyph-name="a" unicode="a" horiz-adv-x="1250" 
d="M542 -5q-193 0 -298.5 90.5t-83.5 238.5q22 149 145.5 229.5t331.5 82.5l380 2l14 88q16 98 -60.5 155.5t-222.5 57.5q-147 0 -232 -57t-93 -160h-165q18 173 160.5 278t355.5 105q202 0 320 -95.5t105 -249.5l-118 -757h-165l20 125q-72 -62 -177.5 -97.5t-216.5 -35.5z
M569 163q157 0 267 81t151 226l-377 -2q-131 -1 -204.5 -37.5t-79.5 -103.5q-9 -74 58 -119t185 -45z" />
    <glyph glyph-name="b" unicode="b" horiz-adv-x="1385" 
d="M722 -13q-109 0 -204.5 41.5t-160.5 116.5l-23 -142h-165l221 1395h165l-71 -453q90 75 198 116.5t217 41.5q152 0 268 -74t169.5 -203t28.5 -282q-37 -232 -224.5 -394.5t-418.5 -162.5zM748 151q163 0 293.5 114t156.5 279t-68 280t-257 115t-295 -115t-158 -280
q-25 -163 71 -279q92 -114 257 -114z" />
    <glyph glyph-name="c" unicode="c" horiz-adv-x="1303" 
d="M658 -11q-152 0 -268 74t-169.5 203t-28.5 282q37 231 224 396q189 161 419 161q193 0 325 -117.5t150 -305.5h-176q-23 116 -112 186.5t-213 70.5q-164 0 -294 -113t-156 -278q-26 -166 68 -279.5t258 -113.5q124 0 235 70t171 186h176q-78 -188 -247.5 -305
t-361.5 -117z" />
    <glyph glyph-name="d" unicode="d" horiz-adv-x="1384" 
d="M658 -13q-114 0 -209.5 44t-158 118t-90 177.5t-9.5 217.5q37 233 223 396q187 163 421 163q110 0 204.5 -41.5t160.5 -116.5l71 453h165l-221 -1395h-165l23 142q-90 -75 -197.5 -116.5t-217.5 -41.5zM684 151q163 0 294.5 115t157.5 278q26 165 -69 280t-258 115
t-294 -115t-157 -280q-25 -166 70 -279q90 -114 256 -114z" />
    <glyph glyph-name="e" unicode="e" horiz-adv-x="1306" 
d="M658 -11q-152 0 -268 74t-169.5 203t-28.5 282q37 231 224 396q189 161 419 161q216 0 349 -147.5t115 -367.5q-1 -14 -16 -118h-928q3 -138 95.5 -227.5t234.5 -89.5q116 0 223 62.5t168 166.5h178q-84 -178 -248 -286.5t-348 -108.5zM383 638h748q-8 133 -97.5 217
t-224.5 84q-138 0 -257 -84.5t-169 -216.5z" />
    <glyph glyph-name="f" unicode="f" horiz-adv-x="917" 
d="M663 923l-146 -920h-165l146 920h-257l26 166h257l-4 -28q27 172 127 263.5t262 91.5q107 0 207 -31l-26 -169q-127 35 -201 35q-86 0 -133 -38t-66 -124h369l-26 -166h-370z" />
    <glyph glyph-name="g" unicode="g" horiz-adv-x="1383" 
d="M619 -410q-220 0 -350 126.5t-111 323.5h163q-7 -123 86 -204.5t238 -81.5q126 0 251 84q65 45 112.5 134t69.5 206q-89 -74 -196 -113.5t-218 -39.5q-155 0 -271 70.5t-169 194.5t-29 276q24 150 116.5 273.5t231 194.5t292.5 71q111 0 205.5 -39.5t160.5 -112.5l21 136
h165l-139 -880q-21 -132 -71 -246t-119 -187q-61 -62 -148 -113h-1q-142 -73 -290 -73zM690 189q165 0 294.5 109t155.5 268q25 158 -70.5 266.5t-260.5 108.5t-293.5 -107.5t-153.5 -267.5q-26 -166 67 -271q97 -106 261 -106z" />
    <glyph glyph-name="h" unicode="h" horiz-adv-x="1320" 
d="M421 552l-87 -549h-165l221 1395h165l-67 -424q77 62 170.5 96.5t189.5 34.5q207 0 321 -134t82 -340l-100 -628h-166l96 603q24 151 -47 243t-212 92q-150 0 -261.5 -108.5t-139.5 -280.5z" />
    <glyph glyph-name="i" unicode="i" horiz-adv-x="517" 
d="M536 1217l-1 -1q-32 -26 -68.5 -31t-64.5 7.5t-44.5 42t-10.5 66.5q8 51 47 84t89 33t78 -34.5t21.5 -82.5t-46.5 -84zM512 1089l-172 -1086h-166l172 1086h166z" />
    <glyph glyph-name="j" unicode="j" horiz-adv-x="631" 
d="M644 1215q-31 -25 -66.5 -29.5t-63 8t-43.5 41.5t-10 66q8 50 47.5 83.5t88.5 33.5q50 0 78 -36.5t20 -85t-51 -81.5zM90 -383l-191 2l26 165l185 -2q84 -2 121 37.5t55 152.5l176 1117h165l-177 -1119q-55 -353 -360 -353z" />
    <glyph glyph-name="k" unicode="k" horiz-adv-x="1209" 
d="M371 231l-37 -228h-165l221 1395h165l-147 -928l704 621h230l-585 -519l403 -567h-221l-318 448z" />
    <glyph glyph-name="l" unicode="l" horiz-adv-x="503" 
d="M555 1398l-221 -1395h-165l221 1395h165z" />
    <glyph glyph-name="m" unicode="m" horiz-adv-x="1916" 
d="M430 604l-96 -601h-165l172 1086h165l-14 -92q138 108 304 108q111 0 192 -49.5t122 -141.5q73 90 176.5 140.5t216.5 50.5q190 0 284 -129.5t60 -344.5l-100 -628h-165l96 603q25 160 -27 247.5t-174 87.5q-124 0 -220.5 -95.5t-119.5 -241.5l-96 -601h-166l96 603
q25 157 -28.5 246t-172.5 89q-124 0 -221 -96t-119 -241z" />
    <glyph glyph-name="n" unicode="n" horiz-adv-x="1320" 
d="M421 552l-87 -549h-165l172 1086h165l-18 -115q77 62 170.5 96.5t189.5 34.5q207 0 321 -134t82 -340l-100 -628h-166l96 603q24 151 -47 243t-212 92q-150 0 -261.5 -108.5t-139.5 -280.5z" />
    <glyph glyph-name="o" unicode="o" 
d="M658 -11q-152 0 -268 74t-169.5 203t-28.5 282q37 231 224 396q189 161 419 161q151 0 267.5 -74.5t171 -203t30.5 -279.5q-24 -152 -119 -281t-235 -203.5t-292 -74.5zM685 155q165 0 295.5 113.5t156.5 279.5q26 162 -70 276.5t-258 114.5q-164 0 -294 -113t-156 -278
q-26 -166 68 -279.5t258 -113.5z" />
    <glyph glyph-name="p" unicode="p" horiz-adv-x="1385" 
d="M357 147l-83 -527h-165l232 1469h165l-22 -143q189 159 415 159q114 0 209.5 -44t158 -118t90 -177.5t9.5 -217.5q-25 -154 -119 -282.5t-233.5 -202.5t-291.5 -74q-109 0 -203.5 41t-161.5 117zM748 153q163 0 294 114.5t157 280.5q26 165 -68.5 279t-257.5 114
q-162 0 -294 -115t-158 -278q-27 -164 70 -281q92 -114 257 -114z" />
    <glyph glyph-name="q" unicode="q" horiz-adv-x="1384" 
d="M1387 1089l-232 -1469h-165l83 527q-189 -158 -415 -158q-152 0 -268 74t-169.5 203t-28.5 282q37 231 224 396q189 161 419 161q110 0 204 -41t161 -118l22 143h165zM684 153q163 0 295 115t158 280q17 107 -21 197.5t-119.5 143t-187.5 52.5q-163 0 -293.5 -114.5
t-156.5 -278.5q-26 -166 68 -280.5t257 -114.5z" />
    <glyph glyph-name="r" unicode="r" horiz-adv-x="825" 
d="M419 538l-85 -535h-165l172 1086h165l-19 -125q156 129 339 129h134l-26 -166h-114q-150 0 -261.5 -108.5t-139.5 -280.5z" />
    <glyph glyph-name="s" unicode="s" horiz-adv-x="1081" 
d="M541 -15l-1 -1q-206 0 -309.5 111.5t-58.5 278.5l156 -1q-32 -92 37.5 -159t200.5 -67q113 0 195 45.5t94 113.5q8 60 -46 99t-187 68q-165 35 -238 67q-167 78 -142 246q22 140 157.5 231.5t319.5 91.5q205 0 309 -111.5t58 -278.5l-156 1q32 91 -37.5 158t-199.5 67
q-114 0 -196 -45t-93 -114q-6 -42 23 -65q15 -12 61 -31q54 -24 181 -53q204 -44 285.5 -121.5t61.5 -208.5q-22 -141 -156.5 -231.5t-318.5 -90.5z" />
    <glyph glyph-name="t" unicode="t" horiz-adv-x="908" 
d="M833 153l-26 -164l-191 -2q-153 -2 -215 86t-33 267l92 583h-239l26 166h239l49 309h165l-49 -309h353l-26 -166h-353l-92 -581q-18 -113 6.5 -153t107.5 -38z" />
    <glyph glyph-name="u" unicode="u" horiz-adv-x="1320" 
d="M645 -13q-208 0 -322 133.5t-81 339.5l99 629h165l-95 -603q-24 -151 47.5 -243t212.5 -92q149 0 260.5 108.5t139.5 280.5l86 549h166l-172 -1086h-166l19 115q-162 -131 -359 -131z" />
    <glyph glyph-name="v" unicode="v" horiz-adv-x="1254" 
d="M1351 1091l-672 -1088h-103l-326 1088h182l242 -801l496 801h181z" />
    <glyph glyph-name="w" unicode="w" horiz-adv-x="1427" 
d="M832 749l-346 -750h-133l-103 1094h171l66 -723l336 723h128l107 -723l293 723h171l-448 -1094h-133z" />
    <glyph glyph-name="x" unicode="x" horiz-adv-x="1257" 
d="M695 413l-390 -410h-206l513 543l-341 543h206l260 -411l388 411h206l-514 -543l342 -543h-206z" />
    <glyph glyph-name="y" unicode="y" horiz-adv-x="1254" 
d="M1351 1091l-908 -1471h-183l292 471l-302 1000h182l242 -801l496 801h181z" />
    <glyph glyph-name="z" unicode="z" horiz-adv-x="1095" 
d="M1001 167l-26 -164h-844l20 125l746 795h-619l26 166h858l-19 -124l-748 -798h606z" />
    <glyph glyph-name="braceleft" unicode="{" horiz-adv-x="882" 
d="M741 -67l-26 -165h-124q-155 0 -207.5 100t-17.5 323l7 41q2 11 6.5 38.5t6.5 42t6.5 43.5t5.5 41.5t4 36.5t2 29t-2 19q-11 38 -22.5 45t-67.5 7h-80l31 199h74q79 0 96 22q29 40 56 210l18 112q35 223 119.5 323t239.5 100h124l-26 -164h-124q-79 0 -112 -50t-58 -209
q-43 -270 -66 -324q-25 -73 -75 -117q12 -17 17 -32q21 -56 22 -117t-12 -127l-27 -169q-19 -104 -15 -161t26.5 -77t76.5 -20h124z" />
    <glyph glyph-name="bar" unicode="|" horiz-adv-x="649" 
d="M628 1398l-281 -1778h-165l281 1778h165z" />
    <glyph glyph-name="braceright" unicode="}" horiz-adv-x="881" 
d="M217 -232h-124l26 165h124q79 0 112 50t58 208l9 55q38 239 75 311q23 45 60 78q-31 35 -40 93q-8 71 32 318l5 31q19 104 15 161.5t-26.5 77.5t-76.5 20h-124l26 164h124q155 0 208 -100t18 -323l-6 -38q-39 -240 -32 -262q12 -29 25 -36.5t52 -7.5h94l-31 -199h-95
q-61 -3 -79 -29q-25 -37 -57 -241l-12 -73q-35 -223 -120 -323t-240 -100z" />
    <glyph glyph-name="asciitilde" unicode="~" horiz-adv-x="1123" 
d="M392 380h-162q10 143 97 240t205 97q44 0 81 -17.5t55.5 -35t39.5 -44.5q20 -24 30 -34t25 -17.5t35 -7.5q98 0 110 189h163q-8 -151 -94 -252.5t-205 -101.5q-43 0 -81 18t-55.5 35t-39.5 44q-21 25 -30 34t-24.5 17.5t-35.5 8.5q-48 0 -76 -41.5t-38 -131.5z" />
    <glyph glyph-name="exclamdown" unicode="&#xa1;" horiz-adv-x="633" 
d="M455 872q-48 0 -76.5 34t-20.5 82q6 37 32 66t58 42t66 7.5t55 -32.5v-1q26 -41 19 -85t-45.5 -78.5t-87.5 -34.5zM458 367l-107 -674h-165l107 674l73 412h149z" />
    <glyph glyph-name="cent" unicode="&#xa2;" horiz-adv-x="1295" 
d="M770 149l-23 -144h-166l22 143q-198 29 -309 187t-78 368q37 225 215 384q152 140 346 168l24 152h170l-25 -154q160 -26 264.5 -140t114.5 -278h-173q-23 118 -110 188t-209 70q-164 0 -294 -112.5t-156 -277.5q-26 -166 68 -279.5t258 -113.5q121 0 230.5 70t170.5 188
h174q-67 -167 -207 -280.5t-307 -138.5z" />
    <glyph glyph-name="sterling" unicode="&#xa3;" horiz-adv-x="1222" 
d="M1058 169l-27 -166h-894l20 126q153 164 190 254q35 84 46 151q2 24 5 39l-172 2l26 166h133q-2 8 -2 10l-1 3q0 4 -1 5l1 3q-28 147 -11 253q28 180 163 290t325 110q193 0 290.5 -114.5t69.5 -309.5h-163q16 119 -44 188t-179 69q-116 0 -193.5 -62.5t-96.5 -170.5
q-12 -78 9 -208l11 -68l439 -2l-27 -166l-404 2l-5 -33q-29 -182 -169 -371h661z" />
    <glyph glyph-name="currency" unicode="&#xa4;" horiz-adv-x="1075" 
d="M452 503l-188 -160l-98 117l185 159q-32 77 -18 163q13 87 69 163l-134 159l135 117l135 -157q80 43 169 43h54q55 -3 110 -45l185 160l97 -119l-187 -160q30 -69 16 -157l-7 -50q-12 -55 -64 -115l138 -161l-134 -115l-137 161q-69 -42 -123 -42l-51 -2q-90 0 -152 41z
M625 624q41 5 85.5 27.5t79 58.5t38 83t-39.5 100q-40 48 -63 51h-43q-64 0 -120 -46q-57 -55 -67 -116q-10 -63 30 -110q45 -48 100 -48z" />
    <glyph glyph-name="yen" unicode="&#xa5;" horiz-adv-x="1327" 
d="M785 230l-36 -227h-165l36 227h-349l17 165h359l9 59h-349l16 165h285l-364 779h196l334 -719l558 719h194l-605 -778h294l-26 -166h-368l-9 -57h368l-27 -167h-368z" />
    <glyph glyph-name="brokenbar" unicode="&#xa6;" horiz-adv-x="486" 
d="M547 1398l-123 -781h-166l123 781h166zM390 404l-124 -782h-166l124 782h166z" />
    <glyph glyph-name="section" unicode="&#xa7;" horiz-adv-x="1043" 
d="M488 -219q-204 0 -298.5 110.5t-49.5 297.5h164q-29 -113 24.5 -176t184.5 -67h16q98 0 165.5 36.5t76.5 93.5q8 48 -42.5 76.5t-197.5 56.5q-184 38 -268 116.5t-65 196.5q24 157 173 235q-125 73 -103 210q21 130 147 213.5t302 83.5q95 0 172 -31.5t123 -86.5
t63 -130.5t-8 -162.5h-164q28 115 -26 177t-185 67h-17q-98 0 -165 -36.5t-76 -93.5q-8 -47 51 -81t184 -52q186 -26 272 -105t66 -207q-25 -149 -170 -231q121 -70 99 -215q-22 -138 -141.5 -216.5t-306.5 -78.5zM589 380q95 0 169 42t84 100q10 63 -51 101.5t-173 38.5
q-97 0 -171 -41.5t-83 -98.5t57.5 -99.5t167.5 -42.5z" />
    <glyph glyph-name="copyright" unicode="&#xa9;" horiz-adv-x="1371" 
d="M684 326q-144 0 -266.5 71t-194 193t-71.5 266q0 222 156 378q157 152 376 152q144 0 267 -71.5t194.5 -193.5t71.5 -265q0 -144 -71 -266t-194 -193t-268 -71zM684 434q179 0 300 120t121 298q0 180 -122 303t-301 123q-177 0 -299 -122.5t-122 -299.5t124 -300
q118 -122 299 -122zM690 549q-128 0 -217 89.5t-89 217.5q0 121 89 216q94 88 217 88q107 0 189.5 -69t103.5 -175h-111q-18 63 -67.5 100.5t-114.5 37.5q-83 0 -140 -57.5t-57 -140.5q0 -86 56 -144t141 -58q65 0 114.5 37.5t67.5 101.5h111q-23 -109 -104 -176.5
t-189 -67.5z" />
    <glyph glyph-name="ordfeminine" unicode="&#xaa;" horiz-adv-x="518" 
d="M378 901q-92 0 -142.5 47.5t-39.5 124.5t72 119t160 43l119 1q2 20 -21.5 32.5t-64.5 12.5q-43 0 -66.5 -12t-22.5 -33h-137q12 85 81.5 137t167.5 52q95 0 150.5 -49t48.5 -127l-54 -344h-135l4 20q-61 -24 -120 -24zM401 1046q72 0 107 47l-103 -1q-21 0 -39 -3
t-26 -6.5t-9 -6.5q-1 -12 19 -21t51 -9z" />
    <glyph glyph-name="guillemotleft" unicode="&#xab;" horiz-adv-x="1161" 
d="M365 513l390 -368l-33 -207l-550 519l18 114l714 517l-33 -208zM693 513l391 -368l-33 -207l-551 519l18 114l715 517l-33 -208z" />
    <glyph glyph-name="registered" unicode="&#xae;" horiz-adv-x="1053" 
d="M525 670q-190 0 -313.5 123t-123.5 311q0 184 121 311q124 125 316 125q188 0 313 -124.5t125 -311.5q0 -186 -125 -310t-313 -124zM525 778q143 0 234.5 91.5t91.5 234.5t-92 236t-234 93q-141 0 -233 -93.5t-92 -235.5q0 -139 90 -233q87 -93 235 -93zM444 1058v-164
h-72v445h190q63 0 101.5 -39t38.5 -102q0 -47 -23 -82t-64 -50l113 -172h-87l-108 164h-89zM562 1269h-118v-139h118q32 0 49.5 18t17.5 51q0 32 -18 51t-49 19z" />
    <glyph glyph-name="degree" unicode="&#xb0;" horiz-adv-x="867" 
d="M564 820q-124 0 -197.5 86.5t-54.5 209.5q18 120 120 211l1 1q104 85 225 85q122 0 196 -87.5t55 -209.5t-121 -209t-224 -87zM590 985q56 0 101.5 37.5t53.5 91.5q9 56 -23.5 95t-89.5 39t-100.5 -38t-54.5 -96l-1 -6q-3 -23 2 -43q21 -43 46 -61.5t66 -18.5z" />
    <glyph glyph-name="plusminus" unicode="&#xb1;" horiz-adv-x="1308" 
d="M825 563l-57 -358h-165l57 360h-357l27 165h359l56 354h163l-56 -354h362l-27 -167h-362zM236 167h882l-26 -167l-882 1z" />
    <glyph glyph-name="uni00B2" unicode="&#xb2;" horiz-adv-x="804" 
d="M834 823l-46 -215h-565l24 151l328 313q71 67 75 92q6 42 -55 42q-54 0 -81 -41t-23 -121h-216q2 106 54 198q41 82 124 132t177 50q116 0 183.5 -74.5t49.5 -185.5q-17 -107 -157 -236l-108 -105h236z" />
    <glyph glyph-name="uni00B3" unicode="&#xb3;" horiz-adv-x="799" 
d="M491 595q-136 0 -209.5 95t-44.5 230l210 -2q-12 -47 10 -75.5t69 -28.5q44 0 70.5 18.5t31.5 51.5q5 27 -22 41.5t-85 14.5q-27 0 -69 -5l-93 127l155 133h-208l34 215h561l-26 -164l-148 -126q65 -35 94.5 -96.5t17.5 -139.5q-19 -125 -118 -207t-230 -82z" />
    <glyph glyph-name="paragraph" unicode="&#xb6;" horiz-adv-x="1301" 
d="M1038 1398l-221 -1395h-164l114 718q-271 8 -390.5 93t-93.5 254q25 160 193 245t456 85h106zM1324 1398l-221 -1395h-164l221 1395h164z" />
    <glyph glyph-name="periodcentered" unicode="&#xb7;" horiz-adv-x="604" 
d="M483 613l-1 -1q-31 -25 -67 -30t-64 7t-44 40.5t-10 65.5q7 48 46 81.5t87 33.5q49 0 76.5 -34t21.5 -81t-45 -82z" />
    <glyph glyph-name="uni00B9" unicode="&#xb9;" horiz-adv-x="620" 
d="M713 1410l-128 -810h-212l82 515l-66 -54l-131 149l243 198v2h212z" />
    <glyph glyph-name="ordmasculine" unicode="&#xba;" horiz-adv-x="637" 
d="M458 887q-113 0 -178 79t-46 194q17 115 109 194l2 1q88 76 200 76q109 0 176 -80.5t50 -190.5q-19 -114 -108 -191q-93 -82 -205 -82zM418 1088l3 -3q18 -22 47.5 -26t58 7.5t51.5 37.5t28 58q9 61 -44 85q-50 23 -103 -3q-51 -25 -60 -82q-4 -25 0 -39t19 -35z" />
    <glyph glyph-name="guillemotright" unicode="&#xbb;" horiz-adv-x="1161" 
d="M822 571l-18 -114l-714 -519l33 207l507 368l-391 367l33 208zM1151 571l-18 -114l-715 -519l33 207l508 368l-392 367l33 208z" />
    <glyph glyph-name="questiondown" unicode="&#xbf;" horiz-adv-x="1074" 
d="M798 907l-2 -1q-36 -31 -74.5 -34.5t-64 16t-40 49.5t-4.5 68.5t45 69.5q26 22 54 30t51 2t42.5 -19.5t29.5 -35.5t12 -45.5t-10.5 -50.5t-38.5 -49zM482 -323q-188 0 -294 121.5t-77 304.5q15 95 62 164q13 20 27 37.5t31 34t29 27t33.5 25t30 20.5t33.5 21l30 18
q12 8 41.5 26.5t39 25t31.5 22t30 23.5t22 23t20 28t12.5 30.5t9.5 36.5l24 147h164l-25 -155q-14 -89 -68.5 -164.5t-143.5 -127.5l-128 -74q-123 -80 -141 -194q-17 -110 49 -181.5t184 -71.5q142 0 238.5 95t118.5 258h165q-29 -231 -182 -375.5t-366 -144.5z" />
    <glyph glyph-name="Agrave" unicode="&#xc0;" horiz-adv-x="1475" 
d="M935 1861l183 -336h-183l-217 336h217zM481 412l-255 -409h-181l862 1395h102l420 -1395h-181l-125 409h-642zM1074 577l-161 535l-331 -535h492z" />
    <glyph glyph-name="Aacute" unicode="&#xc1;" horiz-adv-x="1475" 
d="M1348 1849l-338 -336h-182l288 336h232zM481 412l-255 -409h-181l862 1395h102l420 -1395h-181l-125 409h-642zM1074 577l-161 535l-331 -535h492z" />
    <glyph glyph-name="Acircumflex" unicode="&#xc2;" horiz-adv-x="1475" 
d="M1003 1640l-123 -120h-218l313 308h115l214 -308h-218zM481 412l-255 -409h-181l862 1395h102l420 -1395h-181l-125 409h-642zM1074 577l-161 535l-331 -535h492z" />
    <glyph glyph-name="Atilde" unicode="&#xc3;" horiz-adv-x="1475" 
d="M1123 1521q-43 0 -80 21.5t-55.5 43.5t-39.5 55q-31 43 -46.5 57t-33.5 14q-35 0 -60 -42t-29 -114h-160q1 132 82.5 226.5t192.5 94.5q27 0 51.5 -8.5t42 -19.5t35 -29t27 -31t22.5 -32q30 -44 44.5 -57.5t32.5 -13.5q35 0 60 49.5t24 121.5h164q-5 -142 -84.5 -239
t-189.5 -97zM481 412l-255 -409h-181l862 1395h102l420 -1395h-181l-125 409h-642zM1074 577l-161 535l-331 -535h492z" />
    <glyph glyph-name="Adieresis" unicode="&#xc4;" horiz-adv-x="1475" 
d="M877 1592l-1 -1q-26 -22 -54.5 -30.5t-51.5 -3.5t-43.5 18.5t-30.5 35t-12 44.5t10.5 50t39.5 49q33 32 71.5 37t65 -13.5t42.5 -47.5t7.5 -67.5t-43.5 -70.5zM1272 1589l-1 -1q-31 -26 -67 -31t-64 7.5t-44 42t-10 66.5q7 48 47 82t87 34q50 0 78 -34.5t21.5 -82.5
t-47.5 -83zM481 412l-255 -409h-181l862 1395h102l420 -1395h-181l-125 409h-642zM1074 577l-161 535l-331 -535h492z" />
    <glyph glyph-name="Aring" unicode="&#xc5;" horiz-adv-x="1475" 
d="M972 1472q-90 0 -143 62t-39 151q15 92 91 156q72 60 159 60q89 0 143 -62q41 -49 41 -114t-32 -120.5t-91.5 -94t-128.5 -38.5zM998 1636q20 0 38.5 15t21.5 34q3 22 -9.5 37.5t-34.5 15.5q-44 0 -59 -55l-1 -6q-2 -9 0 -12q10 -18 17.5 -23.5t26.5 -5.5zM481 412
l-255 -409h-181l862 1395h102l420 -1395h-181l-125 409h-642zM1074 577l-161 535l-331 -535h492z" />
    <glyph glyph-name="AE" unicode="&#xc6;" horiz-adv-x="1913" 
d="M481 412l-255 -409h-181l862 1395h1100l-26 -165h-825l-71 -450h693l-26 -164h-693l-72 -452h825l-26 -164h-989l65 409h-381zM992 1233h-3l-407 -656h306z" />
    <glyph glyph-name="Ccedilla" unicode="&#xc7;" horiz-adv-x="1587" 
d="M646 -363q-98 0 -144 8l25 158q139 -55 248 -26q63 17 72 49t-48 49q-59 19 -170 10l-23 43l59 78q-188 44 -310 193q-110 135 -128 318.5t58.5 367.5t230.5 319q238 209 529 209q217 0 375 -125t201 -332l-167 -39q-39 152 -156.5 240.5t-279.5 88.5q-225 0 -403 -157.5
t-215 -387.5q-24 -151 26.5 -276t161 -196.5t258.5 -71.5q163 0 308 88.5t232 241.5l155 -41q-98 -188 -273.5 -309.5t-373.5 -142.5q115 -66 97 -175q-13 -87 -104 -134.5t-241 -47.5z" />
    <glyph glyph-name="Egrave" unicode="&#xc8;" 
d="M891 1869l183 -336h-183l-217 336h217zM1214 167l-26 -164h-989l221 1395h989l-26 -165h-823l-71 -450h691l-26 -164h-691l-72 -452h823z" />
    <glyph glyph-name="Eacute" unicode="&#xc9;" 
d="M1320 1869l-338 -336h-182l289 336h231zM1214 167l-26 -164h-989l221 1395h989l-26 -165h-823l-71 -450h691l-26 -164h-691l-72 -452h823z" />
    <glyph glyph-name="Ecircumflex" unicode="&#xca;" 
d="M958 1654l-123 -121h-218l313 308h115l214 -308h-218zM1214 167l-26 -164h-989l221 1395h989l-26 -165h-823l-71 -450h691l-26 -164h-691l-72 -452h823z" />
    <glyph glyph-name="Edieresis" unicode="&#xcb;" 
d="M1232 1607q-27 -22 -55.5 -30.5t-51.5 -2.5t-43 19.5t-30 36t-11.5 46.5t11.5 51.5t39 50.5q26 21 53.5 29t50.5 2t42.5 -20t29.5 -36t12 -46t-10 -51t-37 -49zM828 1606q-31 -25 -66.5 -29.5t-63 8t-43.5 41.5t-10 66q7 49 46.5 83t89.5 34q51 0 79 -36.5t19.5 -85.5
t-51.5 -81zM1214 167l-26 -164h-989l221 1395h989l-26 -165h-823l-71 -450h691l-26 -164h-691l-72 -452h823z" />
    <glyph glyph-name="Igrave" unicode="&#xcc;" horiz-adv-x="644" 
d="M506 1869l183 -336h-183l-217 336h217zM614 1398l-221 -1395h-166l221 1395h166z" />
    <glyph glyph-name="Iacute" unicode="&#xcd;" horiz-adv-x="668" 
d="M962 1869l-337 -336h-183l289 336h231zM639 1398l-221 -1395h-166l221 1395h166z" />
    <glyph glyph-name="Icircumflex" unicode="&#xce;" horiz-adv-x="612" 
d="M571 1654l-123 -121h-217l312 308h115l214 -308h-217zM610 1398l-221 -1395h-166l221 1395h166z" />
    <glyph glyph-name="Idieresis" unicode="&#xcf;" horiz-adv-x="655" 
d="M469 1624l-1 -1q-45 -33 -89.5 -33t-74 34t-21.5 84q7 48 47 82.5t87 34.5q50 0 78 -34.5t21.5 -82.5t-47.5 -84zM871 1627l-1 -1q-46 -34 -91.5 -35t-75.5 33t-22 84q7 49 46 83t89 34q49 0 77 -33.5t22.5 -81t-44.5 -83.5zM631 1398l-221 -1395h-165l221 1395h165z" />
    <glyph glyph-name="Eth" unicode="&#xd0;" horiz-adv-x="1482" 
d="M644 3h-445l98 616h-192l26 164h192l97 615h445q201 0 350.5 -91t217.5 -251t37 -355q-31 -197 -149.5 -357t-296.5 -250.5t-380 -90.5zM871 619h-409l-72 -452h280q237 0 415.5 151.5t215.5 382.5q37 230 -94.5 381t-367.5 151h-280l-71 -450h409z" />
    <glyph glyph-name="Eth" unicode="&#xf0;" horiz-adv-x="1482" 
d="M644 3h-445l98 616h-192l26 164h192l97 615h445q201 0 350.5 -91t217.5 -251t37 -355q-31 -197 -149.5 -357t-296.5 -250.5t-380 -90.5zM871 619h-409l-72 -452h280q237 0 415.5 151.5t215.5 382.5q37 230 -94.5 381t-367.5 151h-280l-71 -450h409z" />
    <glyph glyph-name="Ntilde" unicode="&#xd1;" horiz-adv-x="1451" 
d="M1099 1503q-105 0 -150 89q-19 37 -24 43q-29 43 -44.5 56.5t-33.5 13.5q-36 0 -61 -42t-29 -114h-161q1 133 82.5 227.5t194.5 94.5q43 0 80.5 -22t56.5 -44t40 -55q29 -44 44 -57.5t33 -13.5q34 0 59 49.5t25 122.5h164q-6 -149 -88 -248.5t-188 -99.5zM534 1069
l-169 -1066h-166l221 1395h137l582 -1071l169 1071h166l-221 -1395h-139z" />
    <glyph glyph-name="Ograve" unicode="&#xd2;" horiz-adv-x="1641" 
d="M1017 1809l181 -336h-182l-216 336h217zM819 -10q-293 0 -464 209q-110 135 -128 318.5t58.5 367.5t230.5 319q238 209 529 209q142 0 262.5 -56t198.5 -151t112 -227t11 -278q-31 -196 -149.5 -359.5t-293.5 -257.5t-367 -94zM846 157q225 0 401.5 156t213.5 388
q18 113 -7.5 214t-84.5 173.5t-150.5 115t-200.5 42.5q-225 0 -403 -157.5t-215 -387.5q-36 -224 92 -387q125 -157 354 -157z" />
    <glyph glyph-name="Oacute" unicode="&#xd3;" horiz-adv-x="1641" 
d="M1454 1869l-337 -336h-182l288 336h231zM819 -10q-293 0 -464 209q-110 135 -128 318.5t58.5 367.5t230.5 319q238 209 529 209q142 0 262.5 -56t198.5 -151t112 -227t11 -278q-31 -196 -149.5 -359.5t-293.5 -257.5t-367 -94zM846 157q225 0 401.5 156t213.5 388
q18 113 -7.5 214t-84.5 173.5t-150.5 115t-200.5 42.5q-225 0 -403 -157.5t-215 -387.5q-36 -224 92 -387q125 -157 354 -157z" />
    <glyph glyph-name="Ocircumflex" unicode="&#xd4;" horiz-adv-x="1641" 
d="M1093 1654l-122 -121h-218l312 308h115l214 -308h-217zM819 -10q-293 0 -464 209q-110 135 -128 318.5t58.5 367.5t230.5 319q238 209 529 209q142 0 262.5 -56t198.5 -151t112 -227t11 -278q-31 -196 -149.5 -359.5t-293.5 -257.5t-367 -94zM846 157q225 0 401.5 156
t213.5 388q18 113 -7.5 214t-84.5 173.5t-150.5 115t-200.5 42.5q-225 0 -403 -157.5t-215 -387.5q-36 -224 92 -387q125 -157 354 -157z" />
    <glyph glyph-name="Otilde" unicode="&#xd5;" horiz-adv-x="1640" 
d="M836 1505h-162q10 144 97 241t204 97q44 0 81.5 -17.5t55.5 -34.5t41 -45q27 -34 44 -47t45 -13q98 0 110 189h163q-8 -151 -93.5 -252t-205.5 -101q-33 0 -61.5 8.5t-51 25.5t-35 29.5t-29.5 32.5q-21 26 -29.5 35t-24.5 17.5t-36 8.5q-47 0 -74.5 -41.5t-38.5 -132.5z
M819 -10q-192 0 -337.5 94t-212 257.5t-35.5 359.5t149.5 359.5t294 258t367.5 94.5q142 0 262 -56t198 -151t112 -227t11 -278q-31 -196 -149 -359.5t-293 -257.5t-367 -94zM846 157q225 0 401.5 156t213.5 388q18 113 -7.5 214t-84.5 173.5t-150.5 115t-200.5 42.5
q-225 0 -403 -157.5t-215 -387.5q-36 -224 92 -387q125 -157 354 -157z" />
    <glyph glyph-name="Odieresis" unicode="&#xd6;" horiz-adv-x="1641" 
d="M953 1546q-31 -25 -66.5 -29.5t-63 8t-43.5 41.5t-10 66q8 49 47 83t88 34q50 0 78 -36.5t20.5 -85.5t-50.5 -81zM1357 1548l-1 -1q-46 -33 -91 -33t-75 34t-22 84q8 51 46.5 84t88.5 33t78.5 -34.5t22 -83t-46.5 -83.5zM819 -10q-293 0 -464 209q-110 135 -128 318.5
t58.5 367.5t230.5 319q238 209 529 209q142 0 262.5 -56t198.5 -151t112 -227t11 -278q-31 -196 -149.5 -359.5t-293.5 -257.5t-367 -94zM846 157q225 0 401.5 156t213.5 388q18 113 -7.5 214t-84.5 173.5t-150.5 115t-200.5 42.5q-225 0 -403 -157.5t-215 -387.5
q-24 -151 26.5 -276t161 -196.5t258.5 -71.5z" />
    <glyph glyph-name="multiply" unicode="&#xd7;" horiz-adv-x="1128" 
d="M772 578l205 -241l-134 -115l-207 242l-283 -240l-97 113l284 239l-207 244l134 115l207 -244l284 241l95 -114z" />
    <glyph glyph-name="Oslash" unicode="&#xd8;" horiz-adv-x="1640" 
d="M464 96l-133 -142l-116 98l138 146q-80 100 -111 230t-8 273q31 196 149.5 359.5t294 258t367.5 94.5q203 0 355 -107l132 140l117 -96l-141 -148q167 -205 120 -501q-31 -196 -149 -359.5t-293 -257.5t-367 -94q-207 0 -355 106zM478 331l799 842q-109 73 -259 73
q-225 0 -403 -157.5t-215 -387.5q-34 -220 78 -370zM846 157q225 0 401.5 156t213.5 388q34 212 -77 368l-796 -842q109 -70 258 -70z" />
    <glyph glyph-name="Ugrave" unicode="&#xd9;" horiz-adv-x="1545" 
d="M979 1869l183 -336h-183l-217 336h217zM771 -11q-119 0 -202 34q-97 35 -164 99q-77 71 -107 191.5t-7 268.5l129 816h166l-129 -816q-17 -106 3.5 -192t74.5 -135q111 -100 263 -100q158 0 294 100q70 49 117 134.5t64 192.5l129 816h165l-129 -816q-24 -152 -90 -268
q-129 -217 -366 -292q-102 -33 -211 -33z" />
    <glyph glyph-name="Uacute" unicode="&#xda;" horiz-adv-x="1545" 
d="M1408 1869l-337 -336h-183l289 336h231zM771 -11q-119 0 -202 34q-97 35 -164 99q-77 71 -107 191.5t-7 268.5l129 816h166l-129 -816q-17 -106 3.5 -192t74.5 -135q111 -100 263 -100q158 0 294 100q70 49 117 134.5t64 192.5l129 816h165l-129 -816q-24 -152 -90 -268
q-129 -217 -366 -292q-102 -33 -211 -33z" />
    <glyph glyph-name="Ucircumflex" unicode="&#xdb;" horiz-adv-x="1545" 
d="M1049 1663l-123 -120h-218l313 308h115l213 -308h-216zM771 -11q-119 0 -202 34q-97 35 -164 99q-77 71 -107 191.5t-7 268.5l129 816h166l-129 -816q-17 -106 3.5 -192t74.5 -135q111 -100 263 -100q158 0 294 100q70 49 117 134.5t64 192.5l129 816h165l-129 -816
q-24 -152 -90 -268q-129 -217 -366 -292q-102 -33 -211 -33z" />
    <glyph glyph-name="Udieresis" unicode="&#xdc;" horiz-adv-x="1545" 
d="M922 1607q-37 -31 -77 -34.5t-66.5 16t-41 49.5t-4 69t47.5 71q26 21 53.5 29t50 2t42.5 -20t30 -36t12.5 -46t-10 -51t-37.5 -49zM1314 1606q-31 -25 -66.5 -29.5t-62.5 8t-43 41.5t-10 66q7 49 46.5 83t88.5 34q50 0 78 -36.5t20 -85.5t-51 -81zM771 -11
q-119 0 -202 34q-97 35 -164 99q-77 71 -107 191.5t-7 268.5l129 816h166l-129 -816q-17 -106 3.5 -192t74.5 -135q111 -100 263 -100q158 0 294 100q70 49 117 134.5t64 192.5l129 816h165l-129 -816q-24 -152 -90 -268q-129 -217 -366 -292q-102 -33 -211 -33z" />
    <glyph glyph-name="Yacute" unicode="&#xdd;" horiz-adv-x="1378" 
d="M1316 1869l-337 -336h-183l289 336h231zM853 500l-79 -497h-165l80 499l-420 896h196l333 -719l558 719h195z" />
    <glyph glyph-name="germandbls" unicode="&#xdf;" horiz-adv-x="1379" 
d="M532 1055l-236 -1493h-166l236 1495q28 172 129 264t263 92h201q212 0 332 -104.5t95 -267.5q-14 -89 -70.5 -167t-145.5 -132q86 -56 123.5 -144.5t20.5 -198.5q-29 -184 -202 -299q-171 -112 -379 -110l-270 2l26 163l270 -2q155 1 264 71.5t126 178.5q18 113 -66 181
t-245 69l-270 2l25 162h271q137 0 239.5 64.5t117.5 159.5q14 89 -66.5 146.5t-222.5 58.5l-200 2q-90 1 -137 -44t-63 -149z" />
    <glyph glyph-name="agrave" unicode="&#xe0;" horiz-adv-x="1250" 
d="M742 1559l182 -336h-182l-216 336h216zM542 -5q-193 0 -298.5 90.5t-83.5 238.5q22 149 145.5 229.5t331.5 82.5l380 2l14 88q16 98 -60.5 155.5t-222.5 57.5q-147 0 -232 -57t-93 -160h-165q18 173 160.5 278t355.5 105q202 0 320 -95.5t105 -249.5l-118 -757h-165
l20 125q-72 -62 -177.5 -97.5t-216.5 -35.5zM569 163q157 0 267 81t151 226l-377 -2q-131 -1 -204.5 -37.5t-79.5 -103.5q-9 -74 58 -119t185 -45z" />
    <glyph glyph-name="aacute" unicode="&#xe1;" horiz-adv-x="1250" 
d="M1173 1569l-338 -336h-182l289 336h231zM542 -5q-193 0 -298.5 90.5t-83.5 238.5q22 149 145.5 229.5t331.5 82.5l380 2l14 88q16 98 -60.5 155.5t-222.5 57.5q-147 0 -232 -57t-93 -160h-165q18 173 160.5 278t355.5 105q202 0 320 -95.5t105 -249.5l-118 -757h-165
l20 125q-72 -62 -177.5 -97.5t-216.5 -35.5zM569 163q157 0 267 81t151 226l-377 -2q-131 -1 -204.5 -37.5t-79.5 -103.5q-9 -74 58 -119t185 -45z" />
    <glyph glyph-name="acircumflex" unicode="&#xe2;" horiz-adv-x="1250" 
d="M807 1346l-123 -122h-218l312 309h117l212 -309h-218zM542 -5q-193 0 -298.5 90.5t-83.5 238.5q22 149 146.5 230t330.5 82l380 2l14 88q16 98 -60.5 155.5t-222.5 57.5q-147 0 -232 -57t-93 -160h-165q18 173 160.5 278t355.5 105q202 0 320 -95.5t105 -249.5l-118 -757
h-165l20 125q-72 -62 -177.5 -97.5t-216.5 -35.5zM569 163q157 0 267 81t151 226l-377 -2q-131 -1 -204 -37.5t-80 -104.5q-9 -73 58 -118t185 -45z" />
    <glyph glyph-name="atilde" unicode="&#xe3;" horiz-adv-x="1250" 
d="M928 1205q-32 0 -59.5 10.5t-50.5 32t-35 37t-30 40.5q-30 43 -45.5 57t-33.5 14q-36 0 -60.5 -42.5t-28.5 -113.5h-161q1 132 83 226.5t193 94.5q33 0 61.5 -11t51 -32t36 -37.5t29.5 -40.5q29 -44 43.5 -57t32.5 -13q34 0 59 49t25 122h165q-6 -142 -85.5 -239
t-189.5 -97zM542 -5q-193 0 -298.5 90.5t-83.5 238.5q22 149 145.5 229.5t331.5 82.5l380 2l14 88q16 98 -60.5 155.5t-222.5 57.5q-147 0 -232 -57t-93 -160h-165q18 173 160.5 278t355.5 105q202 0 320 -95.5t105 -249.5l-118 -757h-165l20 125q-72 -62 -177.5 -97.5
t-216.5 -35.5zM569 163q157 0 267 81t151 226l-377 -2q-131 -1 -204.5 -37.5t-79.5 -103.5q-9 -74 58 -119t185 -45z" />
    <glyph glyph-name="adieresis" unicode="&#xe4;" horiz-adv-x="1250" 
d="M686 1314l-1 -1q-31 -25 -63.5 -31t-57.5 4t-43 31.5t-23.5 49t6 59t41.5 57.5h1q26 22 54 30t51 2t42.5 -19.5t29.5 -35.5t12 -46t-10.5 -50.5t-38.5 -49.5zM1088 1317l-2 -1q-36 -31 -75.5 -35t-66.5 15t-42.5 48t-5 67t46.5 69q34 32 72 37t65 -13.5t43.5 -47.5
t8 -67.5t-43.5 -71.5zM542 -5q-193 0 -298.5 90.5t-83.5 238.5q22 149 145.5 229.5t331.5 82.5l380 2l14 88q16 98 -60.5 155.5t-222.5 57.5q-147 0 -232 -57t-93 -160h-165q18 173 160.5 278t355.5 105q202 0 320 -95.5t105 -249.5l-118 -757h-165l20 125
q-72 -62 -177.5 -97.5t-216.5 -35.5zM569 163q157 0 267 81t151 226l-377 -2q-131 -1 -204.5 -37.5t-79.5 -103.5q-9 -74 58 -119t185 -45z" />
    <glyph glyph-name="aring" unicode="&#xe5;" horiz-adv-x="1250" 
d="M781 1178q-90 0 -143 61.5t-39 151.5q11 69 58.5 122.5t106.5 77t123 13t106 -58.5q40 -49 40 -114.5t-32 -120.5t-91.5 -93.5t-128.5 -38.5zM806 1341q21 0 39.5 15t21.5 35q4 21 -9 36.5t-35 15.5q-44 0 -59 -55l-1 -6q-1 -7 0 -11q11 -19 18 -24.5t25 -5.5zM542 -5
q-193 0 -298.5 90.5t-83.5 238.5q22 149 145.5 229.5t331.5 82.5l380 2l14 88q16 98 -60.5 155.5t-222.5 57.5q-147 0 -232 -57t-93 -160h-165q18 173 160.5 278t355.5 105q202 0 320 -95.5t105 -249.5l-118 -757h-165l20 125q-72 -62 -177.5 -97.5t-216.5 -35.5zM569 163
q157 0 267 81t151 226l-377 -2q-131 -1 -204.5 -37.5t-79.5 -103.5q-9 -74 58 -119t185 -45z" />
    <glyph glyph-name="ae" unicode="&#xe6;" horiz-adv-x="2117" 
d="M1469 -11q-143 0 -256 68t-169 187q-42 -56 -94 -103q-72 -68 -181.5 -107t-226.5 -39q-193 0 -298.5 90.5t-83.5 238.5q22 149 145.5 229.5t331.5 82.5l380 2l14 88q16 98 -60.5 155.5t-222.5 57.5q-147 0 -232 -57t-93 -160h-165q18 173 160.5 278t355.5 105
q152 0 259 -54.5t147 -152.5q95 98 217 152.5t249 54.5q216 0 349 -147.5t115 -367.5q-1 -14 -16 -118h-928q3 -138 95.5 -227.5t234.5 -89.5q116 0 223 62.5t168 166.5h179q-85 -178 -249.5 -286.5t-347.5 -108.5zM1194 638h748q-8 133 -97.5 217t-224.5 84
q-138 0 -257 -84.5t-169 -216.5zM569 163q157 0 267 81t151 226l-377 -2q-131 -1 -204.5 -37.5t-79.5 -103.5q-9 -74 58 -119t185 -45z" />
    <glyph glyph-name="ccedilla" unicode="&#xe7;" horiz-adv-x="1303" 
d="M493 -353q-97 0 -143 8l25 158q139 -55 248 -26q63 17 72 49t-48 49q-59 19 -170 10l-23 43l48 72q-168 52 -254 200.5t-56 337.5q37 231 224 396q189 161 419 161q193 0 325 -117.5t150 -305.5h-176q-23 116 -112 186.5t-213 70.5q-164 0 -294 -113t-156 -278
q-26 -166 68 -279.5t258 -113.5q124 0 235 70t171 186h176q-68 -164 -207 -275.5t-305 -139.5q102 -66 85 -167q-13 -87 -104.5 -134.5t-242.5 -47.5z" />
    <glyph glyph-name="egrave" unicode="&#xe8;" horiz-adv-x="1306" 
d="M799 1559l183 -336h-183l-216 336h216zM658 -11q-152 0 -268 74t-169.5 203t-28.5 282q37 231 224 396q189 161 419 161q216 0 349 -147.5t115 -367.5q-1 -14 -16 -118h-928q3 -138 95.5 -227.5t234.5 -89.5q116 0 223 62.5t168 166.5h178q-84 -178 -248 -286.5
t-348 -108.5zM383 638h748q-8 133 -97.5 217t-224.5 84q-138 0 -257 -84.5t-169 -216.5z" />
    <glyph glyph-name="eacute" unicode="&#xe9;" horiz-adv-x="1306" 
d="M1228 1559l-337 -336h-182l288 336h231zM658 -11q-152 0 -268 74t-169.5 203t-28.5 282q37 231 224 396q189 161 419 161q216 0 349 -147.5t115 -367.5q-1 -14 -16 -118h-928q3 -138 95.5 -227.5t234.5 -89.5q116 0 223 62.5t168 166.5h178q-84 -178 -248 -286.5
t-348 -108.5zM383 638h748q-8 133 -97.5 217t-224.5 84q-138 0 -257 -84.5t-169 -216.5z" />
    <glyph glyph-name="ecircumflex" unicode="&#xea;" horiz-adv-x="1306" 
d="M865 1346l-122 -122h-217l311 309h116l214 -309h-218zM658 -11q-152 0 -268 74t-169.5 203t-28.5 282q37 231 224 396q189 161 419 161q216 0 349 -147.5t115 -367.5q-1 -14 -16 -118h-928q3 -138 95.5 -227.5t234.5 -89.5q116 0 223 62.5t168 166.5h178
q-84 -178 -248 -286.5t-348 -108.5zM383 638h748q-8 133 -97.5 217t-224.5 84q-138 0 -257 -84.5t-169 -216.5z" />
    <glyph glyph-name="edieresis" unicode="&#xeb;" horiz-adv-x="1306" 
d="M743 1314l-1 -1q-31 -25 -63.5 -31t-58 4t-43.5 31.5t-23 49t6.5 59t41.5 57.5h1q26 22 54 30t51 2t42.5 -19.5t29.5 -35.5t12 -46t-10.5 -50.5t-38.5 -49.5zM1145 1317l-2 -1q-31 -26 -68 -32t-65.5 6t-45.5 41t-11 67q8 49 47.5 83t88.5 34t77 -33.5t23 -80.5t-44 -84z
M658 -11q-152 0 -268 74t-169.5 203t-28.5 282q37 232 224.5 394.5t418.5 162.5q216 0 349 -147.5t115 -367.5q-1 -14 -16 -118h-928q3 -138 95.5 -227.5t234.5 -89.5q116 0 223 62.5t168 166.5h178q-84 -178 -248 -286.5t-348 -108.5zM383 638h748q-8 133 -97.5 217
t-224.5 84q-138 0 -257 -84.5t-169 -216.5z" />
    <glyph glyph-name="igrave" unicode="&#xec;" horiz-adv-x="582" 
d="M423 1549l182 -335h-182l-217 335h217zM532 1089l-172 -1086h-165l172 1086h165z" />
    <glyph glyph-name="iacute" unicode="&#xed;" horiz-adv-x="606" 
d="M882 1559l-338 -336h-182l289 336h231zM558 1089l-172 -1086h-165l172 1086h165z" />
    <glyph glyph-name="icircumflex" unicode="&#xee;" horiz-adv-x="547" 
d="M487 1346l-123 -122h-217l312 309h116l213 -309h-218zM527 1089l-172 -1086h-164l172 1086h164z" />
    <glyph glyph-name="idieresis" unicode="&#xef;" horiz-adv-x="591" 
d="M372 1236q-30 -25 -66 -29.5t-63.5 8t-43.5 41.5t-10 66q8 49 47 83t88 34q51 0 79 -36.5t20 -85t-51 -81.5zM776 1238l-1 -1q-46 -33 -91 -33t-75 34t-22 84q8 51 46.5 84t88.5 33t78.5 -34.5t22 -82.5t-46.5 -84zM550 1089l-172 -1086h-165l172 1086h165z" />
    <glyph glyph-name="ntilde" unicode="&#xf1;" horiz-adv-x="1320" 
d="M628 1196h-163q13 163 114 257q82 80 188 80q43 0 81 -17.5t56 -34.5t40 -44q27 -35 44 -47.5t45 -12.5q98 0 110 190h164q-8 -152 -94 -253.5t-206 -101.5q-43 0 -81 18t-55.5 35t-39.5 44q-20 24 -29.5 34t-25 18t-35.5 8q-94 0 -113 -173zM421 552l-87 -549h-165
l172 1086h165l-18 -115q77 62 170.5 96.5t189.5 34.5q207 0 321 -134t82 -340l-100 -628h-166l96 603q24 151 -47 243t-212 92q-150 0 -261.5 -108.5t-139.5 -280.5z" />
    <glyph glyph-name="ograve" unicode="&#xf2;" 
d="M810 1559l183 -336h-183l-217 336h217zM658 -11q-152 0 -268 74t-169.5 203t-28.5 282q37 231 224 396q189 161 419 161q151 0 267.5 -74.5t171 -203t30.5 -279.5q-24 -152 -119 -281t-235 -203.5t-292 -74.5zM685 155q165 0 295.5 113.5t156.5 279.5q26 162 -70 276.5
t-258 114.5q-164 0 -294 -113t-156 -278q-15 -93 7 -164q92 -229 319 -229z" />
    <glyph glyph-name="oacute" unicode="&#xf3;" 
d="M1239 1559l-337 -336h-183l289 336h231zM658 -11q-152 0 -268 74t-169.5 203t-28.5 282q37 231 224 396q189 161 419 161q151 0 267.5 -74.5t171 -203t30.5 -279.5q-24 -152 -119 -281t-235 -203.5t-292 -74.5zM685 155q165 0 295.5 113.5t156.5 279.5q26 162 -70 276.5
t-258 114.5q-164 0 -294 -113t-156 -278q-15 -93 7 -164q92 -229 319 -229z" />
    <glyph glyph-name="ocircumflex" unicode="&#xf4;" 
d="M877 1346l-123 -122h-217l311 309h117l213 -309h-218zM658 -11q-152 0 -268 74t-169.5 203t-28.5 282q37 231 224 396q189 161 419 161q151 0 267.5 -74.5t171 -203t30.5 -279.5q-24 -152 -119 -281t-235 -203.5t-292 -74.5zM685 155q165 0 295.5 113.5t156.5 279.5
q26 162 -70 276.5t-258 114.5q-164 0 -294 -113t-156 -278q-15 -93 7 -164q92 -229 319 -229z" />
    <glyph glyph-name="otilde" unicode="&#xf5;" 
d="M619 1196h-163q10 143 97.5 240t205.5 97q43 0 81 -17.5t56 -34.5t40 -44q27 -35 44 -47.5t45 -12.5q98 0 110 190h163q-8 -152 -94 -253.5t-205 -101.5q-44 0 -82 18t-55.5 35t-39.5 44q-20 24 -29.5 34t-25 18t-34.5 8q-95 0 -114 -173zM658 -11q-152 0 -268 74
t-169.5 203t-28.5 282q37 231 224 396q189 161 419 161q151 0 267.5 -74.5t171 -203t30.5 -279.5q-24 -152 -119 -281t-235 -203.5t-292 -74.5zM685 155q165 0 295.5 113.5t156.5 279.5q26 162 -70 276.5t-258 114.5q-164 0 -294 -113t-156 -278q-26 -166 68 -279.5
t258 -113.5z" />
    <glyph glyph-name="odieresis" unicode="&#xf6;" 
d="M1144 1297q-60 -51 -119 -28t-64 82.5t50 117.5l1 1q37 29 75.5 31t64 -19t39 -51t2 -68t-48.5 -66zM752 1298l-2 -1q-27 -22 -55.5 -30t-51.5 -2.5t-42.5 19.5t-29.5 36t-11.5 46t11.5 51.5t39 50.5l1 1q26 21 53.5 28.5t50 1.5t42.5 -20t30 -36t12.5 -46t-10 -50.5
t-37.5 -48.5zM658 -11q-152 0 -268 74t-169.5 203t-28.5 282q37 231 224 396q189 161 419 161q151 0 267.5 -74.5t171 -203t30.5 -279.5q-24 -152 -119 -281t-235 -203.5t-292 -74.5zM685 155q165 0 295.5 113.5t156.5 279.5q26 162 -70 276.5t-258 114.5q-164 0 -294 -113
t-156 -278q-26 -166 68 -279.5t258 -113.5z" />
    <glyph glyph-name="divide" unicode="&#xf7;" horiz-adv-x="1306" 
d="M1204 663l-36 -165h-882l26 166z" />
    <glyph glyph-name="oslash" unicode="&#xf8;" 
d="M386 66l-106 -112l-115 98l110 118q-118 154 -83 378q37 232 224.5 394.5t418.5 162.5q145 0 259 -69l95 102l115 -98l-97 -103q63 -77 88.5 -179t8.5 -210q-24 -152 -119 -281t-235 -203.5t-292 -74.5q-161 0 -272 77zM402 303l567 600q-74 36 -160 36q-164 0 -294 -113
t-156 -278q-23 -143 43 -245zM685 155q165 0 295.5 113.5t156.5 279.5q23 153 -54 257l-574 -607q74 -43 176 -43z" />
    <glyph glyph-name="ugrave" unicode="&#xf9;" horiz-adv-x="1320" 
d="M811 1559l183 -336h-183l-217 336h217zM645 -13q-208 0 -322 133.5t-81 339.5l99 629h165l-95 -603q-24 -151 47.5 -243t212.5 -92q149 0 260.5 108.5t139.5 280.5l86 549h166l-172 -1086h-166l19 115q-162 -131 -359 -131z" />
    <glyph glyph-name="uacute" unicode="&#xfa;" horiz-adv-x="1320" 
d="M1238 1539l-338 -336h-183l289 336h232zM645 -13q-208 0 -322 133.5t-81 339.5l99 629h165l-95 -603q-24 -151 47.5 -243t212.5 -92q149 0 260.5 108.5t139.5 280.5l86 549h166l-172 -1086h-166l19 115q-162 -131 -359 -131z" />
    <glyph glyph-name="ucircumflex" unicode="&#xfb;" horiz-adv-x="1320" 
d="M882 1346l-123 -122h-218l312 309h117l213 -309h-218zM645 -13q-208 0 -322 133.5t-81 339.5l99 629h165l-95 -603q-24 -151 47.5 -243t212.5 -92q149 0 260.5 108.5t139.5 280.5l86 549h166l-172 -1086h-166l19 115q-162 -131 -359 -131z" />
    <glyph glyph-name="udieresis" unicode="&#xfc;" horiz-adv-x="1320" 
d="M755 1298l-2 -1q-27 -22 -55.5 -30t-51.5 -2.5t-42.5 19.5t-29.5 36t-11.5 46t11.5 51.5t39 50.5l1 1q26 21 53.5 28.5t50 1.5t42.5 -20t30 -36t12.5 -46t-10 -50.5t-37.5 -48.5zM1147 1296q-31 -25 -66.5 -29.5t-63 8t-43.5 41.5t-10 66q7 49 46 83t89 34t78.5 -36.5
t20.5 -85t-51 -81.5zM645 -13q-208 0 -322 133.5t-81 339.5l99 629h165l-95 -603q-24 -151 47.5 -243t212.5 -92q149 0 260.5 108.5t139.5 280.5l86 549h166l-172 -1086h-166l19 115q-162 -131 -359 -131z" />
    <glyph glyph-name="yacute" unicode="&#xfd;" horiz-adv-x="1254" 
d="M1206 1549l-339 -335h-182l289 335h232zM1351 1091l-908 -1471h-183l292 471l-302 1000h182l242 -801l496 801h181z" />
    <glyph glyph-name="ydieresis" unicode="&#xff;" horiz-adv-x="1254" 
d="M704 1305l-1 -1q-46 -33 -90.5 -33t-74 34t-21.5 84q8 48 47 82t87 34q50 0 78 -34.5t22 -82.5t-47 -83zM1105 1308l-1 -1q-46 -34 -91 -35t-75.5 33t-22.5 84q7 49 46.5 82.5t87.5 33.5q49 0 77 -33.5t23 -80.5t-44 -83zM1351 1091l-908 -1471h-183l292 471l-302 1000
h182l242 -801l496 801h181z" />
    <glyph glyph-name="Amacron" unicode="&#x100;" horiz-adv-x="1475" 
d="M1322 1778l-27 -165h-602l27 165h602zM481 412l-255 -409h-181l862 1395h102l420 -1395h-181l-125 409h-642zM1074 577l-161 535l-331 -535h492z" />
    <glyph glyph-name="amacron" unicode="&#x101;" horiz-adv-x="1250" 
d="M1128 1466l-26 -164h-602l26 164h602zM542 -5q-193 0 -298.5 90.5t-83.5 238.5q22 149 145.5 229.5t331.5 82.5l380 2l14 88q16 98 -60.5 155.5t-222.5 57.5q-147 0 -232 -57t-93 -160h-165q18 173 160.5 278t355.5 105q202 0 320 -95.5t105 -249.5l-118 -757h-165
l20 125q-72 -62 -177.5 -97.5t-216.5 -35.5zM569 163q157 0 267 81t151 226l-377 -2q-131 -1 -204.5 -37.5t-79.5 -103.5q-9 -74 58 -119t185 -45z" />
    <glyph glyph-name="Abreve" unicode="&#x102;" horiz-adv-x="1475" 
d="M977 1509q-141 0 -212 100t-21 236h168q-49 -97 7 -147q43 -37 113 -25q74 14 104 73q22 43 12 99h170q3 -158 -125 -258q-92 -78 -216 -78zM481 412l-255 -409h-181l862 1395h102l420 -1395h-181l-125 409h-642zM1074 577l-161 535l-331 -535h492z" />
    <glyph glyph-name="abreve" unicode="&#x103;" horiz-adv-x="1250" 
d="M787 1222q-142 0 -213 99.5t-21 235.5h169q-50 -98 7 -147q43 -38 113 -24q74 14 104 74q21 42 11 97h171q1 -76 -31.5 -143t-93.5 -115q-94 -77 -216 -77zM542 -5q-193 0 -298.5 90.5t-83.5 238.5q22 149 146.5 230t330.5 82l380 2l14 88q16 98 -60.5 155.5t-222.5 57.5
q-147 0 -232 -57t-93 -160h-165q18 173 160.5 278t355.5 105q202 0 320 -95.5t105 -249.5l-118 -757h-165l20 125q-72 -62 -177.5 -97.5t-216.5 -35.5zM569 163q157 0 267 81t151 226l-377 -2q-132 -1 -205 -37t-79 -104q-9 -74 58 -119t185 -45z" />
    <glyph glyph-name="Aogonek" unicode="&#x104;" horiz-adv-x="1543" 
d="M1535 -216l-26 -164q-59 -19 -132.5 -25t-146 5t-131 36t-90.5 74t-22 113q14 93 95 166q60 58 139 104l-98 319h-642l-255 -409h-181l862 1395h102l420 -1395h-81l-8 -4q-71 -37 -124.5 -85.5t-58.5 -82.5q-5 -31 45.5 -51t142.5 -20q83 0 190 24zM1074 577l-161 535
l-331 -535h492z" />
    <glyph glyph-name="aogonek" unicode="&#x105;" horiz-adv-x="1354" 
d="M1223 -216l-26 -164q-75 -24 -169 -25.5t-178 18.5t-135.5 75t-38.5 135q11 73 78.5 149t155.5 117l22 10l4 29q-72 -62 -177.5 -97.5t-216.5 -35.5q-193 0 -298.5 90.5t-83.5 238.5q22 149 145.5 229.5t331.5 82.5l380 2l14 88q16 98 -60.5 155.5t-222.5 57.5
q-147 0 -232 -57t-93 -160h-165q18 173 160.5 278t355.5 105q202 0 320 -95.5t105 -249.5l-111 -713l-29 -32l-81 -47q-56 -34 -92 -72.5t-41 -64.5q-5 -31 45.5 -51t142.5 -20q85 0 190 24zM569 163q157 0 267 81t151 226l-377 -2q-131 -1 -204.5 -37.5t-79.5 -103.5
q-9 -74 58 -119t185 -45z" />
    <glyph glyph-name="Cacute" unicode="&#x106;" horiz-adv-x="1587" 
d="M1436 1855l-337 -335h-183l289 335h231zM819 -10q-293 0 -464 209q-110 135 -128 318.5t58.5 367.5t230.5 319q238 209 529 209q217 0 375 -125t201 -332l-167 -39q-39 152 -156.5 240.5t-279.5 88.5q-225 0 -403 -157.5t-215 -387.5q-24 -151 26.5 -276t161 -196.5
t258.5 -71.5q163 0 308 88.5t232 241.5l155 -41q-109 -207 -306.5 -331.5t-415.5 -124.5z" />
    <glyph glyph-name="cacute" unicode="&#x107;" horiz-adv-x="1303" 
d="M1232 1559l-337 -336h-183l289 336h231zM658 -11q-152 0 -268 74t-169.5 203t-28.5 282q37 231 224 396q189 161 419 161q193 0 325 -117.5t150 -305.5h-176q-23 116 -112 186.5t-213 70.5q-164 0 -294 -113t-156 -278q-26 -166 68 -279.5t258 -113.5q124 0 235 70
t171 186h176q-78 -188 -247.5 -305t-361.5 -117z" />
    <glyph glyph-name="Cdotaccent" unicode="&#x10a;" horiz-adv-x="1587" 
d="M1137 1553q-59 -52 -118 -29t-64.5 82.5t49.5 117.5v1q27 21 55.5 28.5t51 0.5t42 -21.5t28.5 -37t9.5 -46t-13 -49.5t-40.5 -47zM819 -10q-293 0 -464 209q-110 135 -128 318.5t58.5 367.5t230.5 319q238 209 529 209q217 0 375 -125t201 -332l-167 -39
q-39 152 -156.5 240.5t-279.5 88.5q-225 0 -403 -157.5t-215 -387.5q-24 -151 26.5 -276t161 -196.5t258.5 -71.5q163 0 308 88.5t232 241.5l155 -41q-109 -207 -306.5 -331.5t-415.5 -124.5z" />
    <glyph glyph-name="cdotaccent" unicode="&#x10b;" horiz-adv-x="1303" 
d="M944 1291q-27 -22 -55.5 -30.5t-51.5 -2.5t-43 20t-29.5 36t-11 46.5t11.5 51.5t39 50q26 22 53.5 29.5t50 1.5t42.5 -20t30 -36t12 -46t-10 -51t-38 -49zM658 -11q-152 0 -268 74t-169.5 203t-28.5 282q37 231 224 396q189 161 419 161q193 0 325 -117.5t150 -305.5
h-176q-23 116 -112 186.5t-213 70.5q-164 0 -294 -113t-156 -278q-26 -166 68 -279.5t258 -113.5q124 0 235 70t171 186h176q-78 -188 -247.5 -305t-361.5 -117z" />
    <glyph glyph-name="Ccaron" unicode="&#x10c;" horiz-adv-x="1587" 
d="M1427 1841l-313 -308h-114l-214 308h217l83 -121l122 121h219zM819 -10q-293 0 -464 209q-110 135 -128 318.5t58.5 367.5t230.5 319q238 209 529 209q217 0 375 -125t201 -332l-167 -39q-39 152 -156.5 240.5t-279.5 88.5q-225 0 -403 -157.5t-215 -387.5
q-24 -151 26.5 -276t161 -196.5t258.5 -71.5q163 0 308 88.5t232 241.5l155 -41q-109 -207 -306.5 -331.5t-415.5 -124.5z" />
    <glyph glyph-name="ccaron" unicode="&#x10d;" horiz-adv-x="1303" 
d="M1217 1531l-311 -309h-116l-214 309h217l84 -121l121 121h219zM658 -11q-152 0 -268 74t-169.5 203t-28.5 282q37 231 224 396q189 161 419 161q193 0 325 -117.5t150 -305.5h-176q-23 116 -112 186.5t-213 70.5q-164 0 -294 -113t-156 -278q-26 -166 68 -279.5
t258 -113.5q124 0 235 70t171 186h176q-78 -188 -247.5 -305t-361.5 -117z" />
    <glyph glyph-name="Dcaron" unicode="&#x10e;" horiz-adv-x="1482" 
d="M1351 1841l-313 -308h-114l-214 308h217l83 -121l123 121h218zM644 3h-445l221 1395h445q201 0 350.5 -91t217.5 -251t37 -355q-31 -197 -149.5 -357t-297 -250.5t-379.5 -90.5zM839 1233h-279l-169 -1066h279q237 0 415.5 151.5t215.5 382.5q37 230 -94 381t-368 151z
" />
    <glyph glyph-name="Dcaron" unicode="&#x10f;" horiz-adv-x="1482" 
d="M1351 1841l-313 -308h-114l-214 308h217l83 -121l123 121h218zM644 3h-445l221 1395h445q201 0 350.5 -91t217.5 -251t37 -355q-31 -197 -149.5 -357t-297 -250.5t-379.5 -90.5zM839 1233h-279l-169 -1066h279q237 0 415.5 151.5t215.5 382.5q37 230 -94 381t-368 151z
" />
    <glyph glyph-name="Emacron" unicode="&#x112;" 
d="M1271 1746l-27 -165h-602l27 165h602zM1214 167l-26 -164h-989l221 1395h989l-26 -165h-823l-71 -450h691l-26 -164h-691l-72 -452h823z" />
    <glyph glyph-name="emacron" unicode="&#x113;" horiz-adv-x="1306" 
d="M1183 1466l-26 -164h-602l26 164h602zM658 -11q-152 0 -268 74t-169.5 203t-28.5 282q37 231 224 396q189 161 419 161q216 0 349 -147.5t115 -367.5q-1 -14 -16 -118h-928q3 -138 95.5 -227.5t234.5 -89.5q116 0 223 62.5t168 166.5h178q-84 -178 -248 -286.5
t-348 -108.5zM383 638h748q-8 133 -97.5 217t-224.5 84q-138 0 -257 -84.5t-169 -216.5z" />
    <glyph glyph-name="Edotaccent" unicode="&#x116;" 
d="M1034 1612l-1 -1q-46 -33 -90.5 -33t-74.5 33.5t-22 83.5q8 51 46 84t89 33q50 0 78 -34.5t22 -82.5t-47 -83zM1214 167l-26 -164h-989l221 1395h989l-26 -165h-823l-71 -450h691l-26 -164h-691l-72 -452h823z" />
    <glyph glyph-name="edotaccent" unicode="&#x117;" horiz-adv-x="1306" 
d="M944 1312l-1 -1q-32 -26 -68.5 -31t-64.5 7.5t-44 42t-10 66.5q8 51 46.5 84t89.5 33q50 0 77.5 -34.5t21 -83t-46.5 -83.5zM658 -11q-152 0 -268 74t-169.5 203t-28.5 282q37 231 224 396q189 161 419 161q216 0 349 -147.5t115 -367.5q-1 -14 -16 -118h-928
q3 -138 95.5 -227.5t234.5 -89.5q116 0 223 62.5t168 166.5h178q-84 -178 -248 -286.5t-348 -108.5zM383 638h748q-8 133 -97.5 217t-224.5 84q-138 0 -257 -84.5t-169 -216.5z" />
    <glyph glyph-name="Eogonek" unicode="&#x118;" horiz-adv-x="1338" 
d="M1248 -216l-26 -164q-59 -19 -132.5 -25t-146 5t-131 36t-90.5 74t-22 113q14 90 96 166q6 4 16 14h-613l221 1395h989l-26 -165h-823l-71 -450h691l-26 -164h-691l-72 -452h823l-26 -164h-142q-23 0 -98 -72t-79 -100q-5 -31 46 -51t143 -20q84 0 190 24z" />
    <glyph glyph-name="eogonek" unicode="&#x119;" horiz-adv-x="1306" 
d="M965 -216l-26 -164q-59 -19 -133 -25t-146.5 5t-131 36t-90.5 74t-22 113q15 98 108 182q-177 46 -270 197t-62 346q37 232 224.5 394.5t418.5 162.5q216 0 349 -147.5t115 -367.5q-1 -14 -16 -118h-928q3 -138 95.5 -227.5t234.5 -89.5q116 0 223 62.5t168 166.5h176
q-64 -146 -196 -251t-286 -135q-72 -35 -124.5 -83.5t-58.5 -83.5q-5 -31 45.5 -51t141.5 -20q84 0 191 24zM383 638h748q-8 133 -97.5 217t-224.5 84q-138 0 -257 -84.5t-169 -216.5z" />
    <glyph glyph-name="Ecaron" unicode="&#x11a;" 
d="M1309 1841l-312 -308h-116l-214 308h218l83 -121l122 121h219zM1214 167l-26 -164h-989l221 1395h989l-26 -165h-823l-71 -450h691l-26 -164h-691l-72 -452h823z" />
    <glyph glyph-name="ecaron" unicode="&#x11b;" horiz-adv-x="1306" 
d="M1217 1531l-311 -309h-116l-214 309h217l84 -121l121 121h219zM658 -11q-152 0 -268 74t-169.5 203t-28.5 282q37 231 224 396q189 161 419 161q216 0 349 -147.5t115 -367.5q-1 -14 -16 -118h-928q3 -138 95.5 -227.5t234.5 -89.5q116 0 223 62.5t168 166.5h178
q-84 -178 -248 -286.5t-348 -108.5zM383 638h748q-8 133 -97.5 217t-224.5 84q-138 0 -257 -84.5t-169 -216.5z" />
    <glyph glyph-name="Gbreve" unicode="&#x11e;" horiz-adv-x="1618" 
d="M1051 1527q-141 0 -212 100t-22 236h170q-49 -97 6 -146q43 -39 113 -26q74 14 104 73q22 43 11 99h172q1 -76 -31.5 -143t-93.5 -115q-92 -78 -217 -78zM819 -10q-293 0 -464 209q-110 135 -128 318.5t58.5 367.5t230.5 319q238 209 529 209q217 0 375 -125t201 -332
l-167 -39q-39 152 -156.5 240.5t-279.5 88.5q-148 0 -281.5 -71.5t-223 -196.5t-113.5 -277q-24 -151 26.5 -276t161 -196.5t258.5 -71.5q193 0 343.5 120t212.5 321h-548l26 165h722l-10 -64q-32 -202 -142.5 -364t-276.5 -253.5t-354 -91.5z" />
    <glyph glyph-name="gbreve" unicode="&#x11f;" horiz-adv-x="1383" 
d="M853 1222q-141 0 -211.5 99.5t-21.5 235.5h169q-50 -98 7 -147q44 -38 113 -24q74 14 104 74q21 42 11 97h170q2 -160 -124 -258q-95 -77 -217 -77zM619 -410q-220 0 -350 126.5t-111 323.5h163q-7 -123 86 -204.5t238 -81.5q126 0 251 84q65 45 112.5 134t69.5 206
q-89 -74 -196 -113.5t-218 -39.5q-155 0 -271 70.5t-169 194.5t-29 276q24 150 116.5 273.5t231 194.5t292.5 71q111 0 205.5 -39.5t160.5 -112.5l21 136h165l-139 -880q-21 -132 -71 -246t-119 -187q-61 -62 -148 -113h-1q-142 -73 -290 -73zM690 189q165 0 294.5 109
t155.5 268q25 158 -70.5 266.5t-260.5 108.5t-293.5 -107.5t-153.5 -267.5q-26 -166 67 -271q97 -106 261 -106z" />
    <glyph glyph-name="Gdotaccent" unicode="&#x120;" horiz-adv-x="1618" 
d="M1146 1611q-59 -52 -118 -29t-64.5 82.5t49.5 117.5v1q38 29 77 31.5t64.5 -18.5t39 -51t1.5 -67.5t-49 -66.5zM819 -10q-293 0 -464 209q-110 135 -128 318.5t58.5 367.5t230.5 319q238 209 529 209q217 0 375 -125t201 -332l-167 -39q-39 152 -156.5 240.5t-279.5 88.5
q-148 0 -281.5 -71.5t-223 -196.5t-113.5 -277q-24 -151 26.5 -276t161 -196.5t258.5 -71.5q193 0 343.5 120t212.5 321h-548l26 165h722l-10 -64q-32 -202 -142.5 -364t-276.5 -253.5t-354 -91.5z" />
    <glyph glyph-name="gdotaccent" unicode="&#x121;" horiz-adv-x="1383" 
d="M937 1243q-31 -25 -66.5 -30t-63 8t-43.5 42t-10 66q8 49 47 82.5t88 33.5q51 0 79 -36.5t20 -85t-51 -80.5zM619 -410q-220 0 -350 126.5t-111 323.5h163q-7 -123 86 -204.5t238 -81.5q126 0 251 84q65 45 112.5 134t69.5 206q-89 -74 -196 -113.5t-218 -39.5
q-155 0 -271 70.5t-169 194.5t-29 276q24 150 116.5 273.5t231 194.5t292.5 71q111 0 205.5 -39.5t160.5 -112.5l21 136h165l-139 -880q-21 -132 -71 -246t-119 -187q-61 -62 -148 -113h-1q-142 -73 -290 -73zM690 189q165 0 294.5 109t155.5 268q25 158 -70.5 266.5
t-260.5 108.5t-293.5 -107.5t-153.5 -267.5q-26 -166 67 -271q97 -106 261 -106z" />
    <glyph glyph-name="Imacron" unicode="&#x12a;" horiz-adv-x="554" 
d="M858 1776l-26 -165h-602l26 165h602zM579 1398l-221 -1395h-164l221 1395h164z" />
    <glyph glyph-name="imacron" unicode="&#x12b;" horiz-adv-x="490" 
d="M776 1457l-26 -165h-602l26 165h602zM498 1089l-172 -1086h-165l172 1086h165z" />
    <glyph glyph-name="Iogonek" unicode="&#x12e;" horiz-adv-x="719" 
d="M619 -215l-26 -164q-75 -24 -169 -26t-178 18.5t-135.5 75.5t-38.5 135q8 52 42.5 104.5t84.5 90.5q44 36 126 82l205 1297h166l-221 -1395h-55q-43 -17 -108.5 -79.5t-70.5 -91.5q-5 -31 46 -51t142 -20q85 0 190 24z" />
    <glyph glyph-name="iogonek" unicode="&#x12f;" horiz-adv-x="629" 
d="M573 1217l-1 -1q-27 -22 -55.5 -30t-51.5 -2.5t-43 19.5t-29.5 36t-11.5 46t11 51.5t39 50.5l1 1q26 21 53.5 28.5t50 1.5t42.5 -20t30 -36t12 -46t-10 -50.5t-37 -48.5zM518 -216l-26 -164q-59 -19 -132.5 -25t-146 5t-131 36t-90.5 74t-22 113q9 59 49 111q26 40 90 92
t118 78l156 985h166l-165 -1045l-44 -37l-43 20q-4 -29 -20 -49.5t-36.5 -33t-41.5 -25.5t-37.5 -35t-21.5 -53t46 -51t142 -20q85 0 190 24z" />
    <glyph glyph-name="Idotaccent" unicode="&#x130;" horiz-adv-x="581" 
d="M630 1612l-1 -1q-46 -33 -91 -33t-75 33.5t-22 83.5q8 51 46.5 84t89.5 33q50 0 78 -34.5t22 -82.5t-47 -83zM592 1398l-221 -1395h-164l221 1395h164z" />
    <glyph glyph-name="dotlessi" unicode="&#x131;" horiz-adv-x="464" 
d="M486 1089l-172 -1086h-164l172 1086h164z" />
    <glyph glyph-name="Lacute" unicode="&#x139;" horiz-adv-x="1290" 
d="M1293 1869l-338 -336h-183l289 336h232zM1214 167l-26 -164h-989l221 1395h166l-195 -1231h823z" />
    <glyph glyph-name="lacute" unicode="&#x13a;" horiz-adv-x="606" 
d="M932 1869l-338 -336h-182l288 336h232zM608 1398l-221 -1395h-165l221 1395h165z" />
    <glyph glyph-name="Nacute" unicode="&#x143;" horiz-adv-x="1451" 
d="M1344 1869l-337 -336h-184l289 336h232zM534 1069l-169 -1066h-166l221 1395h137l582 -1071l169 1071h166l-221 -1395h-139z" />
    <glyph glyph-name="nacute" unicode="&#x144;" horiz-adv-x="1320" 
d="M1246 1559l-338 -336h-182l289 336h231zM421 552l-87 -549h-165l172 1086h165l-18 -115q77 62 170.5 96.5t189.5 34.5q207 0 321 -134t82 -340l-100 -628h-166l96 603q24 151 -47 243t-212 92q-150 0 -261.5 -108.5t-139.5 -280.5z" />
    <glyph glyph-name="Ncaron" unicode="&#x147;" horiz-adv-x="1451" 
d="M1330 1841l-313 -308h-115l-213 308h217l83 -121l122 121h219zM534 1069l-169 -1066h-166l221 1395h137l582 -1071l169 1071h166l-221 -1395h-139z" />
    <glyph glyph-name="ncaron" unicode="&#x148;" horiz-adv-x="1320" 
d="M1233 1531l-310 -309h-117l-215 309h218l85 -121l120 121h219zM421 552l-87 -549h-165l172 1086h165l-18 -115q77 62 170.5 96.5t189.5 34.5q207 0 321 -134t82 -340l-100 -628h-166l96 603q24 151 -47 243t-212 92q-150 0 -261.5 -108.5t-139.5 -280.5z" />
    <glyph glyph-name="Omacron" unicode="&#x14c;" horiz-adv-x="1641" 
d="M1411 1776l-26 -165h-602l26 165h602zM819 -10q-293 0 -464 209q-110 135 -128 318.5t58.5 367.5t230.5 319q238 209 529 209q142 0 262.5 -56t198.5 -151t112 -227t11 -278q-31 -196 -149.5 -359.5t-293.5 -257.5t-367 -94zM846 157q225 0 401.5 156t213.5 388
q18 113 -7.5 214t-84.5 173.5t-150.5 115t-200.5 42.5q-225 0 -403 -157.5t-215 -387.5q-36 -224 92 -387q125 -157 354 -157z" />
    <glyph glyph-name="omacron" unicode="&#x14d;" 
d="M1195 1476l-26 -164h-602l26 164h602zM658 -11q-152 0 -268 74t-169.5 203t-28.5 282q37 231 224 396q189 161 419 161q151 0 267.5 -74.5t171 -203t30.5 -279.5q-24 -152 -119 -281t-235 -203.5t-292 -74.5zM685 155q165 0 295.5 113.5t156.5 279.5q26 162 -70 276.5
t-258 114.5q-164 0 -294 -113t-156 -278q-15 -93 7 -164q92 -229 319 -229z" />
    <glyph glyph-name="Ohungarumlaut" unicode="&#x150;" horiz-adv-x="1641" 
d="M1281 1907l-323 -337h-183l289 337h217zM1612 1907l-322 -337h-182l289 337h215zM819 -10q-293 0 -464 209q-110 135 -128 318.5t58.5 367.5t230.5 319q238 209 529 209q142 0 262.5 -56t198.5 -151t112 -227t11 -278q-31 -196 -149.5 -359.5t-293.5 -257.5t-367 -94z
M846 157q225 0 401.5 156t213.5 388q18 113 -7.5 214t-84.5 173.5t-150.5 115t-200.5 42.5q-225 0 -403 -157.5t-215 -387.5q-24 -151 26.5 -276t161 -196.5t258.5 -71.5z" />
    <glyph glyph-name="ohungarumlaut" unicode="&#x151;" 
d="M1006 1569l-323 -336h-183l290 336h216zM1339 1569l-324 -336h-183l290 336h217zM658 -11q-152 0 -268 74t-169.5 203t-28.5 282q37 231 224 396q189 161 419 161q151 0 267.5 -74.5t171 -203t30.5 -279.5q-24 -152 -119 -281t-235 -203.5t-292 -74.5zM685 155
q165 0 295.5 113.5t156.5 279.5q26 162 -70 276.5t-258 114.5q-164 0 -294 -113t-156 -278q-26 -166 68 -279.5t258 -113.5z" />
    <glyph glyph-name="OE" unicode="&#x152;" horiz-adv-x="2469" 
d="M819 -10q-192 0 -337.5 94t-212 257.5t-35.5 359.5t149.5 359.5t294 258t367.5 94.5q153 0 282 -66t209 -185l37 236h989l-26 -165h-824l-71 -450h690l-26 -164h-690l-72 -452h824l-26 -164h-989l38 235q-117 -118 -266.5 -183t-304.5 -65zM846 157q225 0 401.5 156
t213.5 388q18 113 -7.5 214t-84.5 173.5t-150.5 115t-200.5 42.5q-225 0 -403 -157.5t-215 -387.5q-24 -151 26.5 -276t161 -196.5t258.5 -71.5z" />
    <glyph glyph-name="oe" unicode="&#x153;" horiz-adv-x="2251" 
d="M658 -11q-152 0 -268 74t-169.5 203t-28.5 282q37 232 224.5 394.5t418.5 162.5q146 0 261 -70.5t171 -193.5q94 123 231 193.5t282 70.5q216 0 349 -147.5t115 -367.5q-1 -14 -16 -118h-928q3 -138 95.5 -227.5t234.5 -89.5q116 0 223 62.5t168 166.5h179
q-85 -178 -249.5 -286.5t-347.5 -108.5q-146 0 -260.5 70t-168.5 191q-97 -122 -234 -191.5t-282 -69.5zM685 155q165 0 295.5 113.5t156.5 279.5q26 162 -70 276.5t-258 114.5q-164 0 -294 -113t-156 -278q-26 -166 68 -279.5t258 -113.5zM1328 638h748q-8 133 -97.5 217
t-224.5 84q-138 0 -257 -84.5t-169 -216.5z" />
    <glyph glyph-name="Racute" unicode="&#x154;" horiz-adv-x="1334" 
d="M1291 1869l-337 -336h-183l289 336h231zM451 543l-86 -540h-166l221 1395h589q190 0 287.5 -118t67.5 -310q-25 -158 -125 -268.5t-246 -144.5l273 -554h-197l-270 540h-348zM983 1233h-423l-83 -525h423q119 0 199.5 70.5t99.5 192.5t-38.5 192t-177.5 70z" />
    <glyph glyph-name="racute" unicode="&#x155;" horiz-adv-x="802" 
d="M1035 1559l-338 -336h-182l289 336h231zM419 538l-85 -535h-165l172 1086h165l-19 -125q156 129 339 129h134l-26 -166h-114q-150 0 -261.5 -108.5t-139.5 -280.5z" />
    <glyph glyph-name="Rcaron" unicode="&#x158;" horiz-adv-x="1334" 
d="M1279 1851l-312 -308h-115l-214 308h217l85 -122l121 122h218zM451 543l-86 -540h-166l221 1395h589q190 0 287.5 -118t67.5 -310q-25 -158 -125 -268.5t-246 -144.5l273 -554h-197l-270 540h-348zM983 1233h-423l-83 -525h423q119 0 199.5 70.5t99.5 192.5t-38.5 192
t-177.5 70z" />
    <glyph glyph-name="rcaron" unicode="&#x159;" horiz-adv-x="744" 
d="M1007 1531l-311 -309h-116l-214 309h217l84 -121l122 121h218zM407 538l-85 -535h-166l172 1086h166l-19 -125q156 129 338 129h135l-26 -166h-115q-149 0 -260.5 -108.5t-139.5 -280.5z" />
    <glyph glyph-name="Sacute" unicode="&#x15a;" horiz-adv-x="1326" 
d="M1293 1869l-338 -336h-182l289 336h231zM661 -15q-287 0 -418 167q-92 120 -41 293h168q-47 -123 43 -210.5t273 -87.5q159 0 277 67.5t135 167.5q13 91 -62 148.5t-264 97.5q-206 45 -307 88q-208 91 -175 299q22 136 128 233q182 167 469 167q286 0 418 -167
q91 -124 40 -293h-168q41 124 -46 210t-270 86q-160 0 -277.5 -68t-133.5 -168q-11 -66 40 -110q26 -19 81 -42q72 -30 224 -65q16 -3 24 -5q259 -58 361.5 -153t78.5 -257q-22 -136 -129 -231q-181 -167 -469 -167z" />
    <glyph glyph-name="sacute" unicode="&#x15b;" horiz-adv-x="1081" 
d="M1114 1549l-337 -335h-183l289 335h231zM541 -15l-1 -1q-206 0 -309.5 111.5t-58.5 278.5l156 -1q-32 -92 37.5 -159t200.5 -67q113 0 195 45.5t94 113.5q8 60 -46 99t-187 68q-165 35 -238 67q-167 78 -142 246q22 140 157.5 231.5t319.5 91.5q205 0 309 -111.5
t58 -278.5l-156 1q32 91 -37.5 158t-199.5 67q-114 0 -196 -45t-93 -114q-6 -42 23 -65q15 -12 61 -31q54 -24 181 -53q204 -44 285.5 -121.5t61.5 -208.5q-22 -141 -156.5 -231.5t-318.5 -90.5z" />
    <glyph glyph-name="Scedilla" unicode="&#x15e;" horiz-adv-x="1326" 
d="M517 -381q-97 0 -142 8l25 158q140 -56 249 -25q62 16 70 48q9 32 -47 49q-60 19 -171 10l-22 43l57 84q-194 32 -293 158q-92 120 -41 293h168q-47 -123 43 -210.5t273 -87.5q159 0 277 67.5t135 167.5q13 91 -62 148.5t-264 97.5q-206 45 -307 88q-208 91 -175 299
q22 136 128 233q182 167 469 167q286 0 418 -167q91 -124 40 -293h-168q41 124 -46 210t-270 86q-160 0 -277.5 -68t-133.5 -168q-11 -66 40 -110q26 -19 81 -42q72 -30 224 -65q16 -3 24 -5q259 -58 361.5 -153t78.5 -257q-22 -136 -129 -231q-152 -141 -387 -163
q67 -32 99 -80.5t22 -107.5q-13 -87 -104.5 -134.5t-242.5 -47.5z" />
    <glyph glyph-name="scedilla" unicode="&#x15f;" horiz-adv-x="1081" 
d="M394 -363q-97 0 -143 8l25 158q140 -56 249 -25q62 16 70 48q9 32 -47 49q-60 19 -171 10l-23 43l48 72h-1q-140 36 -203 138t-26 236l156 -1q-32 -92 37.5 -159t200.5 -67q113 0 195 45.5t94 113.5q8 60 -46 99t-187 68q-165 35 -238 67q-167 78 -142 246
q22 140 157.5 231.5t319.5 91.5q205 0 309 -111.5t58 -278.5l-156 1q32 91 -37.5 158t-199.5 67q-114 0 -196 -45t-93 -114q-6 -42 23 -65q15 -12 61 -31q54 -24 181 -53q204 -44 285.5 -121.5t61.5 -208.5q-19 -119 -121 -204.5t-250 -109.5q113 -66 95 -174
q-13 -87 -104.5 -134.5t-241.5 -47.5z" />
    <glyph glyph-name="Scaron" unicode="&#x160;" horiz-adv-x="1326" 
d="M1283 1851l-312 -308h-115l-215 308h218l85 -122l120 122h219zM661 -15q-287 0 -418 167q-92 120 -41 293h168q-47 -123 43 -210.5t273 -87.5q159 0 277 67.5t135 167.5q13 91 -62 148.5t-264 97.5q-206 45 -307 88q-208 91 -175 299q22 136 128 233q182 167 469 167
q286 0 418 -167q91 -124 40 -293h-168q41 124 -46 210t-270 86q-160 0 -277.5 -68t-133.5 -168q-11 -66 40 -110q26 -19 81 -42q72 -30 224 -65q16 -3 24 -5q259 -58 361.5 -153t78.5 -257q-22 -136 -129 -231q-181 -167 -469 -167z" />
    <glyph glyph-name="scaron" unicode="&#x161;" horiz-adv-x="1081" 
d="M1100 1531l-311 -309h-117l-214 309h218l84 -121l121 121h219zM541 -15l-1 -1q-206 0 -309.5 111.5t-58.5 278.5l156 -1q-32 -92 37.5 -159t200.5 -67q113 0 195 45.5t94 113.5q8 60 -46 99t-187 68q-165 35 -238 67q-167 78 -142 246q22 140 157.5 231.5t319.5 91.5
q205 0 309 -111.5t58 -278.5l-156 1q32 91 -37.5 158t-199.5 67q-114 0 -196 -45t-93 -114q-6 -42 23 -65q15 -12 61 -31q54 -24 181 -53q204 -44 285.5 -121.5t61.5 -208.5q-22 -141 -156.5 -231.5t-318.5 -90.5z" />
    <glyph glyph-name="Umacron" unicode="&#x16a;" horiz-adv-x="1545" 
d="M1354 1709l-27 -166h-601l27 166h601zM771 -11q-119 0 -202 34q-97 35 -164 99q-77 71 -107 191.5t-7 268.5l129 816h166l-129 -816q-17 -106 3.5 -192t74.5 -135q111 -100 263 -100q158 0 294 100q70 49 117 134.5t64 192.5l129 816h165l-129 -816q-24 -152 -90 -268
q-129 -217 -366 -292q-102 -33 -211 -33z" />
    <glyph glyph-name="umacron" unicode="&#x16b;" horiz-adv-x="1320" 
d="M1195 1457l-26 -165h-602l26 165h602zM645 -13q-208 0 -322 133.5t-81 339.5l99 629h165l-95 -603q-24 -151 47.5 -243t212.5 -92q149 0 260.5 108.5t139.5 280.5l86 549h166l-172 -1086h-166l19 115q-162 -131 -359 -131z" />
    <glyph glyph-name="Uring" unicode="&#x16e;" horiz-adv-x="1545" 
d="M1018 1487q-91 0 -144 62t-39 151q11 69 58.5 122.5t106.5 77t123 13t106 -58.5q41 -49 40.5 -114.5t-32 -120.5t-91 -93.5t-128.5 -38.5zM1043 1650q21 0 39 15t21 35q4 22 -8.5 37.5t-34.5 15.5q-44 0 -59 -56l-1 -5q-1 -5 -1 -12q10 -18 18 -24t26 -6zM771 -11
q-119 0 -202 34q-97 35 -164 99q-77 71 -107 191.5t-7 268.5l129 816h166l-129 -816q-17 -106 3.5 -192t74.5 -135q111 -100 263 -100q158 0 294 100q70 49 117 134.5t64 192.5l129 816h165l-129 -816q-24 -152 -90 -268q-129 -217 -366 -292q-102 -33 -211 -33z" />
    <glyph glyph-name="uring" unicode="&#x16f;" horiz-adv-x="1320" 
d="M850 1178q-90 0 -143.5 61.5t-39.5 151.5q11 69 58.5 122.5t107 77t123 13t105.5 -58.5q40 -49 40 -114.5t-31.5 -120.5t-91 -93.5t-128.5 -38.5zM875 1341q21 0 39 15t21 35q4 21 -8.5 36.5t-34.5 15.5q-44 0 -59 -55l-1 -6q-1 -7 0 -11q8 -14 11.5 -19t11 -8t20.5 -3z
M645 -13q-208 0 -322 133.5t-81 339.5l99 629h165l-95 -603q-24 -151 47.5 -243t212.5 -92q149 0 260.5 108.5t139.5 280.5l86 549h166l-172 -1086h-166l19 115q-162 -131 -359 -131z" />
    <glyph glyph-name="Uhungarumlaut" unicode="&#x170;" horiz-adv-x="1545" 
d="M1234 1907l-323 -337h-182l288 337h217zM1566 1907l-322 -337h-183l289 337h216zM771 -11q-119 0 -202 34q-97 35 -164 99q-77 71 -107 191.5t-7 268.5l129 816h166l-129 -816q-17 -106 3.5 -192t74.5 -135q111 -100 263 -100q158 0 294 100q70 49 117 134.5t64 192.5
l129 816h165l-129 -816q-24 -152 -90 -268q-129 -217 -366 -292q-102 -33 -211 -33z" />
    <glyph glyph-name="uhungarumlaut" unicode="&#x171;" horiz-adv-x="1320" 
d="M1010 1569l-324 -336h-183l290 336h217zM1342 1569l-324 -336h-183l290 336h217zM645 -13q-208 0 -322 133.5t-81 339.5l99 629h165l-95 -603q-24 -151 47.5 -243t212.5 -92q149 0 260.5 108.5t139.5 280.5l86 549h166l-172 -1086h-166l19 115q-162 -131 -359 -131z" />
    <glyph glyph-name="Uogonek" unicode="&#x172;" horiz-adv-x="1545" 
d="M1097 -216l-26 -164q-59 -19 -132 -25t-145.5 5t-131.5 36t-90.5 74t-21.5 113q16 96 103 176q-144 27 -247 123q-78 71 -108 191.5t-7 268.5l129 816h166l-129 -816q-17 -106 3.5 -192t74.5 -135q111 -100 263 -100q158 0 294 100q70 49 117 134.5t64 192.5l129 816h165
l-129 -816q-37 -231 -177 -385t-352 -195q-71 -34 -127.5 -84.5t-62.5 -86.5q-5 -31 45.5 -51t143.5 -20q83 0 189 24z" />
    <glyph glyph-name="uogonek" unicode="&#x173;" horiz-adv-x="1425" 
d="M1293 -216l-26 -164q-59 -19 -133 -25t-146.5 5t-131 36t-90.5 74t-22 113q8 51 42.5 103.5t84.5 91.5q56 46 130 84l3 16q-162 -131 -359 -131q-208 0 -322 133.5t-81 339.5l99 629h165l-95 -603q-24 -151 47.5 -243t212.5 -92q149 0 260.5 108.5t139.5 280.5l86 549
h166l-165 -1045l-43 -37l-44 20q-4 -29 -19.5 -49.5t-36 -33t-41.5 -25.5t-37.5 -35t-21.5 -53t45.5 -51t141.5 -20q84 0 191 24z" />
    <glyph glyph-name="Wcircumflex" unicode="&#x174;" horiz-adv-x="1691" 
d="M1109 1654l-122 -121h-218l312 308h115l215 -308h-218zM1012 1054l-484 -1051h-139l-131 1395h172l97 -1021l471 1021h136l149 -1021l419 1021h173l-574 -1395h-138z" />
    <glyph glyph-name="wcircumflex" unicode="&#x175;" horiz-adv-x="1427" 
d="M931 1355l-123 -122h-218l311 309h117l214 -309h-219zM833 758l-346 -749h-133l-103 1092h171l66 -722l336 722h128l107 -722l293 722h171l-448 -1092h-133z" />
    <glyph glyph-name="Ycircumflex" unicode="&#x176;" horiz-adv-x="1378" 
d="M955 1654l-122 -121h-218l312 308h115l215 -308h-218zM853 500l-79 -497h-165l80 499l-420 896h196l333 -719l558 719h195z" />
    <glyph glyph-name="ycircumflex" unicode="&#x177;" horiz-adv-x="1254" 
d="M830 1355l-123 -122h-218l311 309h117l214 -309h-219zM1351 1091l-908 -1471h-183l292 471l-302 1000h182l242 -801l496 801h181z" />
    <glyph glyph-name="Ydieresis" unicode="&#x178;" horiz-adv-x="1378" 
d="M1232 1643l-1 -1q-26 -22 -54 -30t-51 -2t-42.5 19.5t-29.5 35.5t-11.5 46t10.5 50.5t38 49.5q31 26 63.5 32.5t58 -3.5t43.5 -31.5t23.5 -49t-6 -59t-41.5 -57.5zM837 1646l-1 -1q-46 -34 -91 -35t-75 33t-22 84q7 49 46 83t88 34t77 -33.5t23 -80.5t-45 -84zM853 500
l-79 -497h-165l80 499l-420 896h196l333 -719l558 719h195z" />
    <glyph glyph-name="Zacute" unicode="&#x179;" horiz-adv-x="1299" 
d="M1278 1869l-337 -336h-182l288 336h231zM1185 167l-26 -164h-1029l20 124l987 1106h-810l26 165h1043l-19 -123l-989 -1108h797z" />
    <glyph glyph-name="zacute" unicode="&#x17a;" horiz-adv-x="1095" 
d="M1136 1549l-337 -335h-183l289 335h231zM1001 167l-26 -164h-844l20 125l746 795h-619l26 166h858l-19 -124l-748 -798h606z" />
    <glyph glyph-name="Zdotaccent" unicode="&#x17b;" horiz-adv-x="1299" 
d="M986 1610q-31 -25 -66.5 -30t-62.5 8t-43 41.5t-10 65.5q8 50 47 83.5t89 33.5t78 -36t19.5 -85t-51.5 -81zM1185 167l-26 -164h-1029l20 124l987 1106h-810l26 165h1043l-19 -123l-989 -1108h797z" />
    <glyph glyph-name="zdotaccent" unicode="&#x17c;" horiz-adv-x="1095" 
d="M855 1312l-1 -1q-32 -26 -69 -31t-65 7.5t-44.5 42t-10.5 66.5q8 51 47 84t89 33t78 -34.5t22 -83t-46 -83.5zM1001 167l-26 -164h-844l20 125l746 795h-619l26 166h858l-19 -124l-748 -798h606z" />
    <glyph glyph-name="Zcaron" unicode="&#x17d;" horiz-adv-x="1299" 
d="M1267 1841l-313 -308h-114l-214 308h217l83 -121l123 121h218zM1185 167l-26 -164h-1029l20 124l987 1106h-810l26 165h1043l-19 -123l-989 -1108h797z" />
    <glyph glyph-name="zcaron" unicode="&#x17e;" horiz-adv-x="1095" 
d="M1122 1531l-311 -309h-117l-214 309h218l84 -121l121 121h219zM1001 167l-26 -164h-844l20 125l746 795h-619l26 166h858l-19 -124l-748 -798h606z" />
    <glyph glyph-name="uni02BC" unicode="&#x2bc;" horiz-adv-x="654" 
d="M687 1471l-187 -347h-122l158 347h151z" />
    <glyph glyph-name="gravecomb" unicode="&#x300;" horiz-adv-x="0" 
d="M-208 1442l183 -336h-183l-217 336h217z" />
    <glyph glyph-name="acutecomb" unicode="&#x301;" horiz-adv-x="0" 
d="M28 1442l-337 -336h-183l289 336h231z" />
    <glyph glyph-name="uni0302" unicode="&#x302;" horiz-adv-x="0" 
d="M-326 1228l-123 -122h-218l312 309h117l213 -309h-219z" />
    <glyph glyph-name="tildecomb" unicode="&#x303;" horiz-adv-x="0" 
d="M-252 1088q-32 0 -59.5 10t-51 33t-33.5 35.5t-31 40.5q-29 43 -45 57.5t-34 14.5q-35 0 -60 -43t-28 -114h-161q1 132 82.5 227t192.5 95q33 0 61.5 -11t51.5 -32.5t35 -36.5t30 -41q30 -44 44 -57.5t32 -13.5q35 0 60 49.5t24 121.5h164q-5 -142 -84.5 -238.5
t-189.5 -96.5z" />
    <glyph glyph-name="uni0304" unicode="&#x304;" horiz-adv-x="0" 
d="M14 1349l-26 -165h-602l26 165h602z" />
    <glyph glyph-name="uni0306" unicode="&#x306;" horiz-adv-x="0" 
d="M-318 1106q-141 0 -211.5 100t-21.5 236h168q-50 -98 7 -148q44 -38 113 -24q74 14 104 74q22 42 11 98h171q3 -159 -124 -258q-95 -78 -217 -78z" />
    <glyph glyph-name="uni0307" unicode="&#x307;" horiz-adv-x="0" 
d="M-47 1184q-44 -34 -89 -34.5t-75.5 34t-22.5 85.5q8 50 46.5 83t88.5 33q51 0 79 -35.5t21 -83.5t-48 -82z" />
    <glyph glyph-name="uni0308" unicode="&#x308;" horiz-adv-x="0" 
d="M-440 1200q-29 -28 -65.5 -34.5t-65 6t-46 42t-11.5 67.5q7 49 46.5 83t88.5 34q50 0 77.5 -34t21.5 -81.5t-46 -82.5zM-43 1197l-2 -1q-45 -33 -89 -33t-73.5 34t-21.5 84q8 48 47 82.5t87 34.5q50 0 77.5 -34.5t21 -82.5t-46.5 -84z" />
    <glyph glyph-name="uni030A" unicode="&#x30a;" horiz-adv-x="0" 
d="M-247 1060q-91 0 -143.5 62t-38.5 151q13 90 90 156q74 60 160 60q87 0 143 -62q41 -49 41 -114t-32 -120.5t-91.5 -94t-128.5 -38.5zM-221 1224q21 0 39 15t21 34q3 22 -9.5 37.5t-34.5 15.5q-44 0 -59 -55l-1 -6q0 -3 -0.5 -7t-0.5 -5q11 -18 18.5 -23.5t26.5 -5.5z
" />
    <glyph glyph-name="uni030B" unicode="&#x30b;" horiz-adv-x="0" 
d="M-304 1442l-323 -336h-183l289 336h217zM28 1442l-323 -336h-183l289 336h217z" />
    <glyph glyph-name="uni030C" unicode="&#x30c;" horiz-adv-x="0" 
d="M24 1415l-311 -309h-117l-214 309h218l85 -122l120 122h219z" />
    <glyph glyph-name="uni0312" unicode="&#x312;" horiz-adv-x="0" 
d="M36 1489l-174 -383h-192l208 383h158z" />
    <glyph glyph-name="uni0326" unicode="&#x326;" horiz-adv-x="0" 
d="M-198 12l-232 -462h-162l204 462h190z" />
    <glyph glyph-name="uni0327" unicode="&#x327;" horiz-adv-x="0" 
d="M-572 -345q-98 0 -143 8l25 158q138 -55 247 -26q63 17 72 49t-48 50q-59 18 -169 9l-24 43l164 246l132 -68l-57 -88q80 -31 118.5 -83t28.5 -116q-13 -87 -105 -134.5t-241 -47.5z" />
    <glyph glyph-name="uni0328" unicode="&#x328;" horiz-adv-x="0" 
d="M-228 -178l-26 -163q-59 -19 -132.5 -25t-146 4.5t-131 35.5t-90.5 74t-22 113q8 51 42.5 104t83.5 91q49 40 110 73.5t85 33.5h91l-14 -89l-28 -25l-26 -7q-108 -51 -149 -99.5t-20 -85.5q17 -27 65 -43t118 -16q84 0 190 24z" />
    <glyph glyph-name="Wgrave" unicode="&#x1e80;" horiz-adv-x="1691" 
d="M1042 1869l183 -336h-182l-217 336h216zM1012 1054l-484 -1051h-139l-131 1395h172l97 -1021l471 1021h136l149 -1021l419 1021h173l-574 -1395h-138z" />
    <glyph glyph-name="wgrave" unicode="&#x1e81;" horiz-adv-x="1427" 
d="M861 1549l183 -335h-182l-217 335h216zM833 758l-346 -749h-133l-103 1092h171l66 -722l336 722h128l107 -722l293 722h171l-448 -1092h-133z" />
    <glyph glyph-name="Wacute" unicode="&#x1e82;" horiz-adv-x="1691" 
d="M1471 1869l-337 -336h-183l289 336h231zM1012 1054l-484 -1051h-139l-131 1395h172l97 -1021l471 1021h136l149 -1021l419 1021h173l-574 -1395h-138z" />
    <glyph glyph-name="wacute" unicode="&#x1e83;" horiz-adv-x="1427" 
d="M1292 1559l-337 -336h-183l289 336h231zM833 758l-346 -749h-133l-103 1092h171l66 -722l336 722h128l107 -722l293 722h171l-448 -1092h-133z" />
    <glyph glyph-name="Wdieresis" unicode="&#x1e84;" horiz-adv-x="1691" 
d="M987 1617l-1 -1q-46 -34 -91 -35t-75 33t-22 84q7 49 46 83t89 34q48 0 76 -33.5t23 -81t-45 -83.5zM1383 1614l-2 -1q-45 -33 -89 -33t-74 34t-22 84q7 48 47 82.5t87 34.5q50 0 78 -34.5t21.5 -82.5t-46.5 -84zM1012 1054l-484 -1051h-139l-131 1395h172l97 -1021
l471 1021h136l149 -1021l419 1021h173l-574 -1395h-138z" />
    <glyph glyph-name="wdieresis" unicode="&#x1e85;" horiz-adv-x="1427" 
d="M806 1314l-1 -1q-31 -26 -67 -31t-63.5 8t-44 42t-10.5 66q8 48 48 82.5t88 34.5q50 0 77.5 -34.5t20.5 -82.5t-48 -84zM1208 1317l-1 -1q-31 -26 -68 -32t-65.5 6t-45 41t-10.5 67q8 49 47 83t88 34t77.5 -33.5t23 -80.5t-45.5 -84zM833 758l-346 -749h-133l-103 1092
h171l66 -722l336 722h128l107 -722l293 722h171l-448 -1092h-133z" />
    <glyph glyph-name="Ygrave" unicode="&#x1ef2;" horiz-adv-x="1378" 
d="M887 1869l183 -336h-182l-217 336h216zM853 500l-79 -497h-165l80 499l-420 896h196l333 -719l558 719h195z" />
    <glyph glyph-name="ygrave" unicode="&#x1ef3;" horiz-adv-x="1254" 
d="M760 1549l182 -335h-182l-217 335h217zM1351 1091l-908 -1471h-183l292 471l-302 1000h182l242 -801l496 801h181z" />
    <glyph glyph-name="endash" unicode="&#x2013;" horiz-adv-x="896" 
d="M1001 664l-26 -164h-896l26 164h896z" />
    <glyph glyph-name="emdash" unicode="&#x2014;" horiz-adv-x="1536" 
d="M1641 664l-26 -164h-1536l26 164h1536z" />
    <glyph glyph-name="quoteleft" unicode="&#x2018;" horiz-adv-x="633" 
d="M575 1453l58 -464h-162l-84 464h188z" />
    <glyph glyph-name="quoteright" unicode="&#x2019;" horiz-adv-x="633" 
d="M706 1453l-231 -464h-161l204 464h188z" />
    <glyph glyph-name="quotesinglbase" unicode="&#x201a;" horiz-adv-x="634" 
d="M519 264l-233 -463h-161l205 463h189z" />
    <glyph glyph-name="quotedblleft" unicode="&#x201c;" horiz-adv-x="866" 
d="M577 1453l56 -464h-162l-84 464h190zM810 1453l56 -464h-161l-85 464h190z" />
    <glyph glyph-name="quotedblright" unicode="&#x201d;" horiz-adv-x="866" 
d="M706 1453l-231 -464h-161l202 464h190zM939 1453l-231 -464h-161l202 464h190z" />
    <glyph glyph-name="quotedblbase" unicode="&#x201e;" horiz-adv-x="634" 
d="M519 264l-233 -463h-161l205 463h189z" />
    <glyph glyph-name="dagger" unicode="&#x2020;" horiz-adv-x="1091" 
d="M773 977l-69 -434h-165l69 434h-292l26 166h292l40 255h165l-40 -255h292l-26 -166h-292z" />
    <glyph glyph-name="daggerdbl" unicode="&#x2021;" horiz-adv-x="804" 
d="M586 647l-42 -267h-165l42 267h-292l27 167h292l24 153h-292l27 167h292l41 264h165l-41 -264h291l-27 -167h-291l-24 -153h291l-27 -167h-291z" />
    <glyph glyph-name="bullet" unicode="&#x2022;" horiz-adv-x="900" 
d="M425 606q13 85 88 120q66 31 125 5q65 -29 63 -104l-2 -21q-13 -83 -88 -119q-66 -31 -126 -5q-65 28 -62 103q0 10 2 21z" />
    <glyph glyph-name="ellipsis" unicode="&#x2026;" horiz-adv-x="1100" 
d="M389 24l-1 -1q-46 -34 -91.5 -35t-75.5 33t-22 84q7 49 46 83t88 34t77 -33.5t23 -81t-44 -83.5zM655 24l-1 -1q-46 -34 -91.5 -35t-76 33t-22.5 84q7 49 47 83t88 34q49 0 77 -33.5t23 -81t-44 -83.5zM913 24l-1 -1q-46 -34 -91 -35t-75 33t-22 84q7 49 46 83t88 34
t77 -33.5t22.5 -81t-44.5 -83.5z" />
    <glyph glyph-name="perthousand" unicode="&#x2030;" horiz-adv-x="2190" 
d="M608 776q-134 0 -214 94t-59 227q26 166 161 254q114 75 247 63q129 -12 196 -101q65 -86 44 -216q-21 -132 -131 -226.5t-244 -94.5zM1674 1398l-1319 -1395h-206l1319 1395h206zM499 1096q-15 -92 55 -133q62 -36 140 -11q84 27 115 104q8 19 11 40q15 97 -56 139
q-61 36 -139 10q-83 -27 -114 -106q-8 -20 -12 -43zM1061 -11q-134 0 -214 93.5t-59 226.5q26 165 161 254q114 75 248 63q130 -12 197 -103q63 -85 43 -214q-21 -132 -131.5 -226t-244.5 -94zM1713 -11q-134 0 -214.5 93.5t-59.5 226.5q26 165 161 254q114 75 248 63
q130 -12 197 -103q63 -85 43 -214q-21 -132 -131.5 -226t-243.5 -94zM952 307q-15 -92 55 -133q62 -36 140 -11q84 27 115 104q8 19 11 40q15 97 -56 139q-61 36 -139 10q-83 -27 -114 -106q-8 -20 -12 -43zM1603 307q-15 -92 55 -133q62 -36 140 -11q84 27 115 104
q8 19 11 40q15 97 -56 139q-61 36 -139 10q-83 -27 -114 -106q-8 -20 -12 -43z" />
    <glyph glyph-name="guilsinglleft" unicode="&#x2039;" horiz-adv-x="933" 
d="M402 513l395 -368l-33 -206l-552 512l20 125l714 509l-33 -205z" />
    <glyph glyph-name="guilsinglright" unicode="&#x203a;" horiz-adv-x="933" 
d="M877 576l-20 -125l-714 -512l33 206l511 368l-395 367l33 205z" />
    <glyph glyph-name="fraction" unicode="&#x2044;" horiz-adv-x="593" 
d="M1108 1398l-1197 -1395h-204l1199 1395h202z" />
    <glyph glyph-name="Euro" unicode="&#x20ac;" horiz-adv-x="1703" 
d="M937 -11q-253 0 -422.5 152t-192.5 399h-127l17 165h113l3 23q4 24 7 36h-105l17 164h141q66 159 187.5 282t277 191t319.5 68q223 0 386 -129t209 -343h-184q-48 144 -163.5 224t-274.5 80q-182 1 -340 -100.5t-243 -272.5l778 2l-26 -166h-810q-4 -15 -7 -36
q-2 -16 -2 -23l810 1l-26 -166h-780q29 -174 155.5 -278.5t309.5 -104.5q162 0 303 80.5t234 225.5h185q-114 -217 -317.5 -345.5t-431.5 -128.5z" />
    <glyph glyph-name="trademark" unicode="&#x2122;" horiz-adv-x="1217" 
d="M358 1260v-464h-111v464h-181v109h598l166 -432l166 432h143v-573h-110v353l-140 -353h-117l-138 351v-351h-110v464h-166z" />
    <glyph glyph-name="arrowleft" unicode="&#x2190;" horiz-adv-x="1317" 
d="M529 580l346 -319l-126 -123l-502 474l16 103l652 473l88 -123l-448 -318h850l-26 -167h-850z" />
    <glyph glyph-name="arrowup" unicode="&#x2191;" horiz-adv-x="1238" 
d="M855 967l-134 -848h-166l134 848l-386 -397l-106 107l570 573h101l387 -573l-141 -107z" />
    <glyph glyph-name="arrowright" unicode="&#x2192;" horiz-adv-x="1277" 
d="M1299 770l-17 -104l-653 -474l-84 125l446 318l-850 2l26 166l850 -2l-349 322l133 119z" />
    <glyph glyph-name="arrowdown" unicode="&#x2193;" horiz-adv-x="1238" 
d="M1261 711l-569 -573h-101l-388 573l140 107l260 -395l134 846h166l-134 -846l385 395z" />
    <glyph glyph-name="arrowboth" unicode="&#x2194;" horiz-adv-x="1955" 
d="M1925 757l-17 -104l-652 -473l-85 125l445 316l-1070 2l347 -318l-127 -123l-502 473l16 103l652 474l89 -123l-449 -318l1071 -2l-349 322l133 118z" />
    <glyph glyph-name="arrowupdn" unicode="&#x2195;" horiz-adv-x="1469" 
d="M1388 459l-570 -571h-100l-389 575l143 103l258 -394l171 1065l-386 -396l-107 107l571 574h100l388 -574l-141 -107l-259 397l-171 -1065l390 399z" />
    <glyph glyph-name="uni2196" unicode="&#x2196;" horiz-adv-x="1079" 
d="M571 887l506 -598l-136 -117l-508 597l-27 -507l-164 -7l48 741l84 72l733 -70l-36 -165z" />
    <glyph glyph-name="uni2197" unicode="&#x2197;" horiz-adv-x="1079" 
d="M766 333l135 505l-699 -596l-99 116l695 596l-516 -53l17 165l756 69l60 -72l-186 -742z" />
    <glyph glyph-name="uni2198" unicode="&#x2198;" horiz-adv-x="1079" 
d="M1055 1115l-49 -741l-83 -72l-735 70l38 165l498 -54l-505 598l137 117l507 -597l25 507z" />
    <glyph glyph-name="uni2199" unicode="&#x2199;" horiz-adv-x="1079" 
d="M1021 507l-19 -167l-754 -68l-62 71l188 742l161 -11l-134 -506l698 596l100 -116l-694 -596z" />
    <glyph glyph-name="emptyset" unicode="&#x2205;" horiz-adv-x="1490" 
d="M490 59l-217 -229h-207l311 330q-127 158 -90 388q24 153 118 281t233.5 202t291.5 74q149 0 269 -76l187 197h206l-281 -300q122 -160 87 -378q-24 -152 -119 -281t-234.5 -203.5t-291.5 -74.5q-151 0 -263 70zM504 293l571 603q-81 43 -171 43q-164 0 -294.5 -113
t-156.5 -278q-25 -153 51 -255zM780 155q164 0 295 113.5t157 279.5q23 146 -48 246l-569 -602q70 -37 165 -37z" />
    <glyph glyph-name="minus" unicode="&#x2212;" horiz-adv-x="1306" 
d="M1193 658l-16 -166l-892 -2l26 168h882z" />
    <glyph glyph-name="approxequal" unicode="&#x2248;" horiz-adv-x="1123" 
d="M432 632h-162q7 98 52.5 177.5t115.5 122.5l44 21q46 16 89 16t81 -17t56.5 -35t39.5 -44q20 -25 29.5 -35t25 -18t35.5 -8q41 0 71.5 55.5t40.5 134.5h161q-8 -152 -93.5 -253t-205.5 -101q-43 0 -81 17.5t-55.5 34.5t-39.5 44q-21 25 -30 34.5t-25 18t-36 8.5
q-48 0 -75.5 -41.5t-37.5 -131.5zM375 269h-162q7 98 52 177.5t115 122.5l44 21q46 16 90 16q43 0 81 -17.5t56 -34.5t40 -44q19 -25 29 -35t25 -18t35 -8q41 0 71.5 55.5t40.5 134.5h161q-8 -152 -93.5 -253t-205.5 -101q-43 0 -81 17.5t-55.5 34.5t-39.5 44
q-20 25 -29.5 34.5t-25 18t-35.5 8.5q-48 0 -75.5 -41.5t-37.5 -131.5z" />
    <glyph glyph-name="notequal" unicode="&#x2260;" horiz-adv-x="1364" 
d="M687 319l-197 -287h-188l197 287h-185l26 168h273l117 171l-363 -1l26 166h450l175 254h186l-174 -254h190l-16 -165h-286l-118 -171h367l-16 -166z" />
    <glyph glyph-name="lessequal" unicode="&#x2264;" horiz-adv-x="1416" 
d="M550 712l689 -427l-30 -192l-894 558l20 124l1070 555l-30 -190zM221 56h985l-27 -167l-984 2z" />
    <glyph glyph-name="greaterequal" unicode="&#x2265;" horiz-adv-x="1423" 
d="M1327 775l-20 -124l-1070 -558l30 192l825 427l-689 428l30 190zM1213 56l-26 -165l-986 -2l27 167h985z" />
    <glyph glyph-name="uniF8FF" unicode="&#xf8ff;" horiz-adv-x="2307" 
d="M1142 -97q-174 0 -333 68t-274 183t-183 273t-68 332q0 173 68.5 331t184 272.5t274.5 182t334 67.5t334 -68t274.5 -182.5t184 -272t68.5 -330.5q0 -140 -43.5 -270.5t-123 -235.5t-186 -184.5t-238.5 -122.5t-273 -43zM1144 5q154 0 294.5 59.5t242.5 160.5t162 240
t60 292q0 204 -101 377t-275 274.5t-379 101.5q-155 0 -295.5 -59t-242.5 -159.5t-162.5 -239.5t-60.5 -292q0 -205 101 -378.5t275 -275t381 -101.5zM901 331h-2q18 18 36 33q26 22 39 69q45 119 70 194q39 112 87 200v4q-5 -8 -16 -19l-15 -19q-35 -50 -49 -88
q-5 -9 -13 -9q-157 8 -271 104q-15 13 -45 41.5t-45 42.5q-11 11 -20 26l17 -7q74 -29 152 -41q57 -6 110 4q51 11 72 17q5 1 24 10q-7 4 -23.5 12.5t-25.5 13t-21 13.5t-20 19h26q64 2 115 30q109 62 212 93q44 12 89 15q7 0 30.5 1.5t35.5 0.5q86 -3 137 -50q9 -8 43 -51
l-1 -1l-6 1q-71 27 -129 6.5t-96 -81.5q-10 -17 -38 -85q-10 -22 -35 -80.5t-39 -89.5q-48 -97 -99 -156q-33 -41 -101 -88q-67 -50 -180 -84h-3zM1417 -247v-67h-23v67h-7v14h7v12q3 22 32 22h9v-15q-16 3 -18 -8v-11h17v-14h-17zM654 -316q-16 0 -25.5 12t-9.5 31
q0 21 10.5 32.5t27.5 11.5q12 0 20 -5l6 -9v41h20v-112h-20v14l-6 -10q-9 -6 -23 -6zM899 -224q-10 0 -10 12q0 9 10 9q12 0 12 -9q0 -12 -12 -12zM1676 -300v-15h-14q-23 0 -23 17v51h-13v14h13v21h22v-21h16v-14h-16v-45q1 -10 15 -8zM757 -316q-18 0 -29.5 11.5
t-11.5 32.5q0 18 12.5 30.5t31.5 12.5q18 0 28 -12t10 -31q0 -2 -2 -7h-57q1 -21 19 -21q14 0 17 14h21q-6 -30 -39 -30zM842 -316q-31 0 -36 26h21q3 -12 15 -12t12 9t-20 14q-25 9 -25 25q0 11 9 18t24 7q29 0 31 -26h-20q-3 11 -12 11q-11 0 -11 -8q0 -9 19 -13
q26 -9 26 -27q0 -24 -33 -24zM967 -346q-39 0 -40 28v1h20v-1q2 -13 20 -13q17 0 22 20v12l-6 -10q-8 -5 -21 -5q-17 0 -27.5 11t-10.5 30q0 21 12 32.5t29 11.5q11 0 19 -5l5 -9v12h21v-62q0 -11 -1 -17q0 -36 -42 -36zM1050 -277v-37h-21v83h21v-15l7 11q9 6 21 6
q25 0 27 -23q2 -6 2 -15v-47h-23v54q0 16 -14 16q-20 0 -20 -33zM1161 -316q-19 0 -29.5 12t-10.5 32q0 19 10.5 31t29.5 12q20 0 32 -12t12 -31q0 -20 -11.5 -32t-32.5 -12zM1329 -316q-12 0 -19.5 6.5t-7.5 17.5q0 28 46 28h5v2q0 4 -1 8q0 10 -12 10q-15 0 -15 -15h-20
q0 13 10 21.5t25 8.5q31 0 33 -24v-40q0 -11 1 -21h-20l-1 12l-4 -9q-9 -5 -20 -5zM1482 -316q-41 0 -41 44q0 19 10.5 31t30.5 12t31.5 -12t11.5 -31q0 -20 -11.5 -32t-31.5 -12zM1560 -277v-37h-21v83h21v-15l6 11q10 6 20 6q25 0 30 -23q1 -6 1 -15v-47h-23v54
q-2 16 -15 16q-19 0 -19 -33zM1720 -316q-34 0 -36 26h21q3 -12 15 -12t12 9t-19 14q-26 9 -26 25q0 11 9.5 18t23.5 7q27 0 34 -26h-23q-2 11 -13 11q-9 0 -9 -8q0 -9 18 -13q28 -11 28 -27q0 -24 -35 -24zM1838 -316q-17 0 -28 11t-11 32q0 20 12 32t29 12q35 0 37 -32
h-20q-3 17 -17 17q-20 0 -20 -28t20 -28q14 0 17 15h20q-3 -31 -39 -31zM1930 -316q-43 0 -43 44q0 19 11 31t32 12q19 0 30 -12t11 -31q0 -20 -11 -32t-30 -12zM2006 -272v-42h-20v83h20v-13l6 10q10 5 17 5q19 0 26 -17l8 12q8 5 18 5q11 0 18 -6.5t8 -13.5v-65h-20v56
q-2 14 -16 14t-14 -28v-42h-21v56q-2 14 -14 14q-16 0 -16 -28zM265 -252l-14 -62h-24l-27 83h25l14 -65l13 63h25l14 -63l15 65h23l-26 -83h-25zM394 -252l-16 -62h-24l-25 83h22l16 -65l14 63h25l15 -63l13 65h23l-26 -83h-24zM522 -252l-15 -62h-24l-26 83h24l14 -65
l13 63h26l14 -63l15 65h22l-26 -83h-24zM910 -231v-83h-20v83h20zM1297 -231l-32 -83h-25l-30 83h24l20 -67l20 67h23zM659 -300q24 0 24 27v2q0 27 -22 27t-22 -28t20 -28zM739 -265h37q-5 21 -18 21q-16 0 -19 -21zM967 -299q22 0 22 27v1q0 27 -22 27q-20 0 -20 -28
q0 -27 20 -27zM1161 -300q22 0 22 28t-22 28q-20 0 -20 -28t20 -28zM1482 -300q22 0 22 28t-22 28q-20 0 -20 -28t20 -28zM1930 -300q20 0 20 28t-20 28q-22 0 -22 -28t22 -28zM1336 -300q6 0 11.5 4.5t5.5 11.5v7q-29 5 -29 -14q0 -9 12 -9zM595 -316q-13 0 -13 13
q0 12 13 12q12 0 12 -12q0 -13 -12 -13zM1776 -316q-14 0 -14 13q0 12 14 12q12 0 12 -12q0 -13 -12 -13z" />
    <glyph glyph-name="_Fontastica" horiz-adv-x="1365" 
d="M341 530v-284h-166l-5 5v985h745v-145h-574v-409h574v-152h-574zM1196 1236v-990h-745v154h574v402h-574v157h574v277h171zM773 94q-34 0 -51 17l11 24q16 -18 39 -18q10 0 12 2q4 0 4 7q0 4 -3 7q-12 6 -19 7q-12 3 -20 7q-9 3 -12 8q-4 8 -4 17q0 18 12.5 27t30.5 9
q25 0 44 -13l-10 -23q-21 12 -35 12q-12 0 -12 -8q0 -11 20 -14q16 -4 20 -6q5 -2 13 -10q4 -10 4 -18q0 -34 -44 -34zM323 93q-26 0 -43 16t-17 41t17 41t43 16t43 -16t17 -41t-17 -41t-43 -16zM1031 93q-23 0 -40 16.5t-17 40.5q0 25 17 41t42 16q28 0 45 -19l-17 -20
q-12 15 -28 15q-12 0 -21 -9t-9 -25q0 -10 4 -14q10 -17 27 -17q16 0 27 13l18 -17q-21 -21 -48 -21zM203 135v-39h-29v110h84v-23h-55v-25h49v-23h-49zM424 161v-65h-27v110h26l51 -67l-1 67h28v-110h-26zM575 182v-86h-28v86h-34v24h95v-24h-33zM634 115l-7 -19h-30
l47 110h30l47 -110h-30l-9 19h-48zM887 182v-86h-31v86h-32v24h94v-24h-31zM959 206v-110h-29v110h29zM1115 115l-8 -19h-29l47 110h30l47 -110h-31l-8 19h-48zM323 117q13 0 21.5 10t8.5 22q0 7 -4 17q-6 17 -25 17q-13 0 -22.5 -9.5t-9.5 -23.5q0 -12 9.5 -22.5
t21.5 -10.5zM673 136l-14 40l-17 -40h31zM1154 136l-15 40l-15 -40h30z" />
    <glyph glyph-name="_VendorID" horiz-adv-x="1043" 
d="M722 750q-96 0 -155 49t-49 116h68q-14 -40 27.5 -71t108.5 -31q57 0 96.5 24t39.5 59q0 63 -143 83q-91 13 -137.5 49t-46.5 91q0 60 53.5 99t132.5 39q88 0 144.5 -47t46.5 -111h-68q16 37 -22.5 66.5t-100.5 29.5q-51 0 -86.5 -22t-35.5 -53q0 -59 129 -78
q97 -13 147.5 -51t50.5 -95q0 -63 -57 -104.5t-143 -41.5zM181 972v-211h-64v487h379v-64h-315v-149h296v-63h-296zM723 178q-95 0 -155 48t-50 117h68q-14 -39 27.5 -70t108.5 -31q57 0 96.5 23t39.5 58q0 64 -140 84q-92 13 -139.5 49t-47.5 91q0 60 53.5 99t133.5 39
q88 0 144 -46.5t46 -110.5h-68q16 36 -22 65.5t-100 29.5q-51 0 -87 -21.5t-36 -53.5q0 -58 128 -77q199 -29 199 -147q0 -63 -56.5 -104.5t-142.5 -41.5zM181 401v-213h-64v487h379v-62h-315v-149h296v-63h-296zM649 126v-30h-12v30h-4v7h4v6q2 10 14 10h5v-8q-7 1 -7 -3
v-5h7v-7h-7zM287 94q-16 0 -16 21q0 20 18 20q6 0 10 -2l3 -4v19h9v-52h-9v4l-3 -2q-6 -4 -12 -4zM404 137q-5 0 -5 5t5 5q6 0 6 -5t-6 -5zM770 100v-5h-6q-11 0 -11 7v24h-6v7h6v9h10v-9h7v-7h-7v-21q2 -6 7 -5zM336 94q-18 0 -18 21q0 8 5.5 14t14.5 6q8 0 13.5 -6
t5.5 -14q0 -1 -1 -3h-28q1 -12 9 -12q6 0 8 8h11q-4 -14 -20 -14zM377 94q-15 0 -17 12h9q2 -7 8 -7q5 0 5 6q0 4 -9 7q-12 3 -12 10q0 13 16 13q14 0 14 -13h-9q-2 6 -6 6q-5 0 -5 -5q0 -4 10 -5q11 -3 11 -13q0 -11 -15 -11zM436 79q-19 0 -19 14v1h9v-1q2 -6 10 -6
q7 0 10 10v4l-4 -3q-4 -2 -8 -2q-19 0 -19 19q0 20 20 20q4 0 8 -2l3 -4v5h11v-29q0 -7 -1 -7q0 -19 -20 -19zM475 113v-17h-9v38h9v-7l3 5q4 3 10 3q12 0 13 -12q1 -2 1 -6v-21h-10v24q0 8 -8 8q-9 0 -9 -15zM528 94q-20 0 -20 21q0 8 5.5 14t14.5 6q20 0 20 -20
q0 -21 -20 -21zM606 94q-12 0 -12 11q0 13 21 13h3v1q0 2 -1 3q0 6 -4 6q-8 0 -8 -8h-10q0 15 18 15q13 0 15 -12v-27h-9l-1 3l-2 -2q-4 -3 -10 -3zM678 94q-19 0 -19 21q0 8 5.5 14t13.5 6q21 0 21 -20q0 -21 -21 -21zM715 113v-17h-10v38h10v-7l4 5q5 3 9 3q12 0 14 -12
q1 -2 1 -6v-21h-12v24q-2 8 -6 8q-10 0 -10 -15zM791 94q-15 0 -17 12h10q2 -7 7 -7q6 0 6 6q0 3 -10 7q-11 3 -11 10q0 13 14 13q16 0 16 -13h-10q0 6 -7 6q-3 0 -3 -5q0 -4 8 -5q12 -3 12 -13q0 -11 -15 -11zM847 94q-19 0 -19 21q0 9 6 14.5t14 5.5q15 0 17 -16h-9
q-2 9 -8 9q-10 0 -10 -13q0 -15 10 -15q6 0 8 8h9q-1 -14 -18 -14zM889 94q-20 0 -20 21q0 8 5.5 14t14.5 6q21 0 21 -20q0 -21 -21 -21zM926 115v-19h-10v38h10v-6l3 5q6 2 9 2q8 0 11 -8l4 6q6 2 8 2q11 0 13 -10v-29h-10v19l-1 6q0 7 -6 7q-7 0 -7 -13v-19h-10v25
q0 7 -6 7q-8 0 -8 -13zM104 123l-6 -27h-11l-14 38h13l6 -31l6 30h12l7 -30l7 31h10l-11 -38h-13zM166 123l-8 -27h-11l-13 38h12l5 -31l8 30h12l6 -30l7 31h11l-12 -38h-11zM226 123l-7 -27h-12l-12 38h11l6 -31l8 30h11l7 -30l8 31h10l-13 -38h-12zM409 134v-38h-9v38h9z
M592 134l-16 -38h-11l-14 38h10l10 -32l9 32h12zM290 100q12 0 12 15v1q0 12 -11 12q-9 0 -9 -13q0 -15 8 -15zM328 118h17q-2 10 -8 10q-7 0 -9 -10zM436 101q10 0 10 14v1q0 12 -10 12t-10 -13q0 -14 10 -14zM528 100q9 0 9 15q0 13 -9 13q-10 0 -10 -13q0 -15 10 -15z
M678 100q12 0 12 15q0 13 -12 13q-8 0 -8 -13q0 -15 8 -15zM889 100q11 0 11 15q0 13 -11 13q-9 0 -9 -13q0 -15 9 -15zM610 100q8 0 8 9v4q-14 2 -14 -7q0 -6 6 -6zM260 94q-5 0 -5 5q0 7 5 7q6 0 6 -7q0 -5 -6 -5zM817 94q-6 0 -6 5q0 7 6 7q7 0 7 -7q0 -5 -7 -5z" />
    <glyph glyph-name="_Designova" horiz-adv-x="1552" 
d="M774 88q-155 0 -287.5 77t-209.5 209t-77 287q0 154 77.5 285t210 207.5t288.5 76.5t288.5 -76.5t210 -207.5t77.5 -285q0 -117 -45.5 -223t-123 -182.5t-184.5 -122t-225 -45.5zM775 156q210 0 359 147.5t149 355.5q0 136 -67.5 252t-184 183.5t-253.5 67.5
q-138 0 -255.5 -67t-185.5 -182.5t-68 -251.5q0 -137 67.5 -253.5t184 -184t254.5 -67.5zM613 374h-2l24 23q19 14 26 45q41 112 47 130q26 76 59 133v2l-12 -12q-2 -3 -5 -7t-4 -5q-25 -35 -33 -59q-2 -6 -8 -6q-101 4 -182 69l-59 56q-8 8 -15 18q2 0 4 -1t4.5 -2t3.5 -1
q45 -19 101 -29q38 -2 74 3l49 12q3 0 15 7q-4 2 -15.5 8t-17 9t-13.5 9t-14 13h18q44 2 77 19q71 43 142 63q32 9 58 9q4 0 23.5 1t22.5 0q58 -2 91 -33q5 -5 14.5 -16t15.5 -17q-1 0 -1 -1q-2 1 -5 1q-48 17 -86.5 3.5t-63.5 -53.5q-10 -17 -26 -58q-7 -15 -23.5 -53.5
t-26.5 -59.5q-33 -66 -66 -105q-21 -27 -67 -59q-45 -33 -120 -55q-1 0 -3 -1h-1z" />
    </font>
</defs>
</svg>
