<?xml version="1.0" standalone="no"?>
<!DOCTYPE svg PUBLIC "-//W3C//DTD SVG 1.1//EN" "http://www.w3.org/Graphics/SVG/1.1/DTD/svg11.dtd" >
<svg xmlns="http://www.w3.org/2000/svg" xmlns:xlink="http://www.w3.org/1999/xlink" version="1.1">
<metadata>
Created by FontForge 20170731 at Thu Apr 20 16:15:27 2023
 By Aleksey,,,
Copyright (c) 2023 by Designova. All rights reserved.
</metadata>
<defs>
<font id="EthosNova-Light" horiz-adv-x="1288" >
  <font-face 
    font-family="Ethos Nova Light"
    font-weight="300"
    font-stretch="normal"
    units-per-em="2048"
    panose-1="0 0 4 0 0 0 0 0 0 0"
    ascent="1638"
    descent="-410"
    x-height="1070"
    cap-height="1403"
    bbox="-890.154 -486 2394 1834.13"
    underline-thickness="50"
    underline-position="-150"
    unicode-range="U+0020-F8FF"
  />
<missing-glyph horiz-adv-x="1335" 
d="M1135 1403v-1399h-935v1399h935zM1034 1337h-733l366 -566zM1062 1245l-349 -542l349 -542v1084zM622 703l-348 538v-1078zM1034 73l-367 563l-364 -563h731z" />
    <glyph glyph-name=".notdef" horiz-adv-x="1335" 
d="M1135 1403v-1399h-935v1399h935zM1034 1337h-733l366 -566zM1062 1245l-349 -542l349 -542v1084zM622 703l-348 538v-1078zM1034 73l-367 563l-364 -563h731z" />
    <glyph glyph-name=".null" horiz-adv-x="0" 
 />
    <glyph glyph-name="nonmarkingreturn" horiz-adv-x="682" 
 />
    <glyph glyph-name="space" unicode=" " horiz-adv-x="529" 
 />
    <glyph glyph-name="exclam" unicode="!" horiz-adv-x="551" 
d="M316 728l-8 -467h-63l-8 467v675h79v-675zM329 8q-35 -35 -81 -16t-46 68q0 31 21 52t52 21q49 0 68.5 -45.5t-14.5 -79.5z" />
    <glyph glyph-name="quotedbl" unicode="&#x22;" horiz-adv-x="733" 
d="M320 1403l-8 -398h-70l-17 398h95zM508 1403l-8 -398h-70l-17 398h95z" />
    <glyph glyph-name="numbersign" unicode="#" horiz-adv-x="1550" 
d="M482 423l-135 -421h-84l135 421h-372l30 77h367l132 411h-387l29 77h383l133 415h85l-134 -415h414l133 415h85l-134 -415h360l-29 -77h-356l-131 -411h375l-30 -77h-371l-135 -421h-84l135 421h-414zM1053 911h-414l-131 -411h413z" />
    <glyph glyph-name="dollar" unicode="$" horiz-adv-x="1306" 
d="M695 -14v-176h-79v179q-236 18 -362 147t-126 352h79q1 -189 106 -296.5t303 -123.5v608q-464 84 -464 370q0 155 131 260.5t333 114.5v151h79v-154q222 -17 350 -137t133 -319h-78q-7 167 -111 264.5t-294 113.5v-599q243 -36 359.5 -127t116.5 -246
q0 -173 -128.5 -275.5t-347.5 -106.5zM616 756v587q-165 -6 -275.5 -91t-110.5 -206q0 -217 386 -290zM695 662v-597q185 4 291.5 85t106.5 218q0 119 -97.5 191t-300.5 103z" />
    <glyph glyph-name="percent" unicode="%" horiz-adv-x="1527" 
d="M446 835q-124 0 -210.5 86t-86.5 209q0 126 88 211q89 86 209 86q123 0 210 -87t87 -210q0 -122 -87 -208.5t-210 -86.5zM1378 1403l-1094 -1401h-96l1094 1401h96zM446 911q92 0 156 63t64 154q0 70 -32.5 122t-81.5 75t-106.5 23t-106.5 -23t-81.5 -75t-32.5 -122
q0 -88 65 -152q64 -65 156 -65zM1063 -14q-123 0 -210 86.5t-87 208.5q0 93 44 162t110 100t143 31t143 -31t110 -99.5t44 -162.5q0 -122 -87 -208.5t-210 -86.5zM1063 63q93 0 157 62.5t64 153.5q0 61 -24.5 108.5t-63 72t-85.5 36t-94.5 0t-86 -36t-63 -72t-24.5 -108.5
q0 -88 65 -152q63 -64 155 -64z" />
    <glyph glyph-name="ampersand" unicode="&#x26;" horiz-adv-x="1259" 
d="M480 -14q-165 0 -270 94.5t-105 243.5q0 120 84 216q66 74 244 148l-22 22q-179 179 -179 373q0 152 104.5 245t273.5 93q156 0 252 -84t96 -221q0 -272 -392 -454l325 -316q17 25 21 33l139 206l65 -40q-94 -153 -134 -202l-22 -27l-15 -23l293 -290l-105 -3l-236 232
q-105 -129 -204.5 -187.5t-212.5 -58.5zM485 745l25 -25q170 70 269.5 176.5t99.5 219.5q0 103 -73.5 165t-195.5 62q-136 0 -217.5 -71t-81.5 -189q0 -165 174 -338zM478 65q101 0 187 51.5t178 167.5l-350 346l-58.5 -25.5t-58 -28t-60.5 -35t-51 -40.5t-44 -49.5
t-26.5 -58t-11.5 -69.5q0 -112 84 -185.5t211 -73.5z" />
    <glyph glyph-name="quotesingle" unicode="'" horiz-adv-x="544" 
d="M320 1403l-18 -398h-70l-7 398h95z" />
    <glyph glyph-name="parenleft" unicode="(" horiz-adv-x="737" 
d="M623 -200h-102q-132 124 -219 357t-87 463q0 244 89 472q91 234 219 351h103q-82 -59 -158.5 -186t-126.5 -299.5t-50 -337.5q0 -247 101 -485t231 -335z" />
    <glyph glyph-name="parenright" unicode=")" horiz-adv-x="738" 
d="M214 -200h-103q82 59 158.5 186t126.5 299t50 337q0 246 -101.5 485.5t-230.5 335.5h102q132 -124 219 -357.5t87 -463.5q0 -233 -88 -468.5t-220 -353.5z" />
    <glyph glyph-name="asterisk" unicode="*" horiz-adv-x="939" 
d="M495 974l24 -333h-100l25 333l-280 -184l-49 86l303 146l-305 149l51 85l280 -186l-25 333h100l-24 -333l280 184l49 -86l-303 -146l305 -149l-51 -85z" />
    <glyph glyph-name="plus" unicode="+" horiz-adv-x="1256" 
d="M666 529v-385l-76 -4v387h-388v79h386v386h78v-386h384l4 -77h-388z" />
    <glyph glyph-name="comma" unicode="," horiz-adv-x="552" 
d="M340 182l-135 -398h-72l111 398h96z" />
    <glyph glyph-name="hyphen" unicode="-" horiz-adv-x="1033" 
d="M888 613v-76h-741v76h741z" />
    <glyph glyph-name="period" unicode="." horiz-adv-x="525" 
d="M319 9q-36 -36 -84 -16.5t-48 69.5q0 32 22 53.5t54 21.5q49 0 69 -45.5t-13 -82.5z" />
    <glyph glyph-name="slash" unicode="/" horiz-adv-x="746" 
d="M702 1403l-573 -1401h-86l572 1401h87z" />
    <glyph glyph-name="zero" unicode="0" horiz-adv-x="1331" 
d="M270 192q-96 131 -130.5 320t0 378.5t130.5 322.5q73 101 179 155t214.5 54t215 -54t180.5 -155q98 -135 133 -323t0 -375.5t-133 -320.5q-73 -101 -179.5 -154.5t-215 -54t-215 52.5t-179.5 154zM664 65q210 0 339 182q128 185 127.5 457t-129.5 456q-129 183 -337 183
q-135 0 -241 -81.5t-164.5 -228t-58.5 -332.5q0 -271 130 -454q129 -182 334 -182z" />
    <glyph glyph-name="one" unicode="1" horiz-adv-x="704" 
d="M505 1403v-1401h-79v1284l-259 -251l-54 54l313 302v12h79z" />
    <glyph glyph-name="two" unicode="2" horiz-adv-x="1231" 
d="M1076 78l-4 -76h-879v56l569 643q9 11 34 41q48 56 61 73q40 52 65.5 115.5t25.5 113.5v6q0 129 -94 211t-242 82q-140 0 -238.5 -80t-130.5 -220h-81q36 176 156.5 277t293.5 101q182 0 298 -105.5t116 -271.5q0 -93 -44 -177t-162 -215l-505 -574h761z" />
    <glyph glyph-name="three" unicode="3" horiz-adv-x="1273" 
d="M646 -14q-194 0 -330.5 125t-152.5 318h78q18 -161 130.5 -262.5t274.5 -101.5q175 0 286 101t111 260q0 157 -118 245t-326 88q-72 0 -130 -9l-30 49l535 528h-752v76h856v-79l-500 -491q34 2 48 2q224 0 359.5 -111.5t135.5 -297.5q0 -193 -133.5 -316.5t-341.5 -123.5
z" />
    <glyph glyph-name="four" unicode="4" horiz-adv-x="1373" 
d="M987 333v-331h-78v331l-784 -2v69l764 1003h98v-993h263v-77h-263zM909 410l-2 890l-686 -892z" />
    <glyph glyph-name="five" unicode="5" horiz-adv-x="1233" 
d="M634 -14q-196 0 -330 123t-153 320h79q10 -151 128.5 -257.5t275.5 -106.5q165 0 281 116t116 281q0 163 -116.5 279t-280.5 116q-227 0 -373 -173h-72l57 719h816v-76h-741l-48 -523q72 61 168.5 97t192.5 36q128 0 237.5 -64t173.5 -173.5t64 -237.5
q0 -203 -136 -339.5t-339 -136.5z" />
    <glyph glyph-name="six" unicode="6" horiz-adv-x="1248" 
d="M649 -14q-242 0 -384 190.5t-142 512.5q0 323 142 528q144 204 382 204q166 0 288.5 -104t159.5 -276h-86q-33 139 -131.5 220.5t-234.5 81.5q-204 0 -323 -185t-119 -502l2 -30q48 139 170.5 225t275.5 86q128 0 237.5 -64t173.5 -173.5t64 -237.5q0 -203 -136 -339.5
t-339 -136.5zM649 65q170 0 283.5 113.5t113.5 283.5q0 93 -34 169.5t-89.5 123.5t-127 73t-145.5 26.5t-145.5 -24.5t-127 -71.5t-89.5 -123.5t-34 -173q0 -169 114 -282q111 -115 281 -115z" />
    <glyph glyph-name="seven" unicode="7" horiz-adv-x="1062" 
d="M961 1339l-633 -1337h-89l629 1325h-771v76h861z" />
    <glyph glyph-name="eight" unicode="8" horiz-adv-x="1267" 
d="M633 -12q-223 0 -366.5 109.5t-143.5 279.5q0 130 72 225.5t205 141.5q-115 48 -180.5 134t-65.5 191q0 84 41 152.5t108.5 110.5t153.5 65t176 23t176 -23t153.5 -65t108.5 -110.5t41 -152.5q0 -106 -65.5 -192t-180.5 -133q133 -46 205.5 -141.5t72.5 -225.5
q0 -171 -145 -280t-366 -109zM633 778q171 0 286 84t115 207q0 66 -34.5 119t-91 85.5t-128.5 50.5t-147 18t-147 -18t-128.5 -50.5t-91 -85.5t-34.5 -119q0 -125 114 -206q118 -85 287 -85zM633 67q191 0 311.5 88t120.5 228q0 145 -118 232t-314 87t-314 -87t-118 -232
t123 -229q124 -87 309 -87z" />
    <glyph glyph-name="nine" unicode="9" horiz-adv-x="1248" 
d="M600 -14q-166 0 -288 104t-160 277h85q33 -140 131.5 -221t235.5 -81q204 0 323 185t119 502l-2 29q-48 -139 -170.5 -225t-275.5 -86q-128 0 -237.5 64t-173.5 174t-64 238q0 203 136 339t339 136q241 0 383.5 -190t142.5 -513t-142 -528q-144 -204 -382 -204zM201 946
q0 -94 34 -170t89.5 -123.5t127 -73.5t145.5 -26.5t145.5 25t127 72t89.5 123.5t34 173q0 170 -114 281q-111 116 -281 116t-283.5 -113.5t-113.5 -283.5z" />
    <glyph glyph-name="colon" unicode=":" horiz-adv-x="523" 
d="M316 886q-17 -17 -37.5 -21.5t-37.5 1.5t-31 20t-20 31t-1.5 37.5t21.5 37.5q24 23 54 20.5t48.5 -23.5t24 -49t-20.5 -54zM316 8q-17 -17 -37.5 -21.5t-37.5 1.5t-31 20t-20 31t-1.5 37.5t21.5 37.5q24 23 54 20.5t48.5 -24t24 -49t-20.5 -53.5z" />
    <glyph glyph-name="semicolon" unicode=";" horiz-adv-x="508" 
d="M285 886q-35 -35 -81 -16t-46 68q0 31 21 52t52 21q49 0 68.5 -45.5t-14.5 -79.5zM322 143l-118 -300h-71l91 300h98z" />
    <glyph glyph-name="less" unicode="&#x3c;" horiz-adv-x="1394" 
d="M312 569l860 -491v-89l-950 544v74l950 542v-90z" />
    <glyph glyph-name="equal" unicode="=" horiz-adv-x="1320" 
d="M1052 784l4 -76l-793 -2v78h789zM1052 421l4 -76l-793 -2v78h789z" />
    <glyph glyph-name="greater" unicode="&#x3e;" horiz-adv-x="1394" 
d="M1172 609v-74l-950 -544v89l860 491l-860 490v90z" />
    <glyph glyph-name="question" unicode="?" horiz-adv-x="1037" 
d="M522 409v-168h-78v176q0 169 156 271l123 81q140 98 140 251q0 139 -97 231t-243 92q-159 0 -259.5 -102.5t-110.5 -278.5h-78q7 208 130 333.5t318 125.5q182 0 300.5 -115.5t118.5 -293.5q0 -88 -34 -152q-9 -19 -19 -35t-24 -31.5t-23 -25.5t-28.5 -25t-26.5 -20
t-31.5 -21.5t-29.5 -20.5q-8 -6 -35.5 -25t-36 -25.5t-30.5 -23.5t-29.5 -26t-23.5 -26t-21.5 -30.5t-14 -32.5t-11 -39.5t-2.5 -43.5zM536 4q-15 -15 -32 -20.5t-32.5 -1.5t-29.5 12.5t-23 23t-12.5 30t2 32.5t19.5 32q21 20 45.5 22.5t43.5 -10t31.5 -32t10 -44
t-22.5 -44.5z" />
    <glyph glyph-name="at" unicode="@" horiz-adv-x="1715" 
d="M898 -161q-172 0 -323 60.5t-258.5 166t-169.5 253t-62 315.5q0 330 226 554q226 221 565 221q197 0 355 -65t245 -182q154 -208 154 -465q0 -207 -76.5 -323.5t-212.5 -116.5q-146 0 -167 146q-54 -82 -142.5 -129t-188.5 -47q-95 0 -172.5 35t-125 92t-73.5 130
t-26 149t26 149t73.5 130t124.5 92t173 35q99 0 186 -46.5t142 -127.5v160h79v-589q0 -49 25 -75t70 -26q90 0 148 91q58 92 58 267q0 293 -182.5 465.5t-492.5 172.5q-202 0 -364.5 -90t-254 -249.5t-91.5 -357.5q0 -204 94 -367.5t261.5 -256t376.5 -92.5q160 0 264 37
l23 -72q-164 -44 -287 -44zM837 304h6q133 2 226 97t94 231v6q0 134 -93.5 228t-226.5 94q-134 0 -227.5 -95.5t-93.5 -232.5t92 -232.5t223 -95.5z" />
    <glyph glyph-name="A" unicode="A" horiz-adv-x="1414" 
d="M332 443l-202 -441h-85l638 1401h47l638 -1401h-85l-202 441h-749zM1047 519l-340 744l-340 -744h680z" />
    <glyph glyph-name="B" unicode="B" horiz-adv-x="1344" 
d="M774 2h-575v1401h575q184 0 293.5 -101t109.5 -270q0 -118 -53 -202.5t-152 -124.5q244 -69 244 -337q0 -366 -442 -366zM774 1327h-497v-588h478q162 0 253 78t91 217q0 137 -86 215t-239 78zM755 662h-478v-584h497q186 0 275 71t89 220q0 293 -383 293z" />
    <glyph glyph-name="C" unicode="C" horiz-adv-x="1563" 
d="M819 -12q-293 0 -497 209q-131 137 -177 322t1 370t178 321q204 209 495 209q203 0 372.5 -110t254.5 -297l-78 -18q-78 161 -225 254t-324 93q-171 0 -312.5 -84.5t-222.5 -231t-81 -322.5t81 -322t222.5 -230t312.5 -84q177 0 324 93t225 254l78 -19
q-85 -187 -254.5 -297t-372.5 -110z" />
    <glyph glyph-name="D" unicode="D" horiz-adv-x="1463" 
d="M625 2h-426v1401h426q201 0 365 -91t257 -251.5t93 -357.5q0 -198 -92.5 -358.5t-256.5 -251.5t-366 -91zM625 1327h-348v-1249h348q180 0 324.5 80.5t226 223.5t81.5 321q0 177 -81.5 319.5t-226.5 223.5t-324 81z" />
    <glyph glyph-name="E" unicode="E" horiz-adv-x="1284" 
d="M1157 78v-76h-958v1401h958v-76h-880v-586h739v-75h-739v-588h880z" />
    <glyph glyph-name="F" unicode="F" horiz-adv-x="1294" 
d="M277 666v-664h-78v1401h958v-76h-880v-586h739v-75h-739z" />
    <glyph glyph-name="G" unicode="G" horiz-adv-x="1612" 
d="M819 -12q-293 0 -497 209q-131 137 -177 322t1 370t178 321q204 209 495 209q203 0 372.5 -110t254.5 -297l-78 -18q-78 161 -225 254t-324 93q-171 0 -312.5 -84t-222.5 -230.5t-81 -323.5q0 -176 81 -322t222.5 -230t312.5 -84q240 0 397.5 158.5t175.5 417.5h-589v76
h672v-18q0 -204 -84 -367t-233.5 -254.5t-338.5 -91.5z" />
    <glyph glyph-name="H" unicode="H" horiz-adv-x="1462" 
d="M277 662v-660h-78v1401h78v-664h908v664h78v-1401h-78v660h-908z" />
    <glyph glyph-name="I" unicode="I" horiz-adv-x="475" 
d="M277 1403v-1401h-78v1401h78z" />
    <glyph glyph-name="J" unicode="J" horiz-adv-x="1261" 
d="M574 -12q-101 0 -193 40t-158 107.5t-103.5 161t-34.5 195.5h79q-4 -115 50 -213.5t150 -156t210 -57.5q201 0 306 143t105 416v779h78v-779q0 -303 -127.5 -469.5t-361.5 -166.5z" />
    <glyph glyph-name="K" unicode="K" horiz-adv-x="1301" 
d="M277 395v-393h-78v1401h78v-893l866 895h76l17 -16l-622 -646l638 -741h-106l-588 683z" />
    <glyph glyph-name="L" unicode="L" horiz-adv-x="1259" 
d="M1157 78v-76h-958v1401h78v-1325h880z" />
    <glyph glyph-name="M" unicode="M" horiz-adv-x="1672" 
d="M1396 1204l-525 -1204h-69l-525 1204v-1202h-78v1401h75l563 -1288l563 1288h74v-1401h-78v1202z" />
    <glyph glyph-name="N" unicode="N" horiz-adv-x="1424" 
d="M277 1255v-1253h-78v1401h72l877 -1259v1259h78v-1401h-73z" />
    <glyph glyph-name="O" unicode="O" horiz-adv-x="1637" 
d="M819 -12q-293 0 -497 209q-131 137 -177 322t1 370t178 321q204 209 495 209q190 0 350 -95.5t252.5 -260t92.5 -360.5q0 -197 -92 -361.5t-251.5 -259t-351.5 -94.5zM819 67q171 0 312 83.5t222 229.5t81 323q0 131 -48 249.5t-130.5 203.5t-196.5 135t-240 50
q-171 0 -312.5 -84.5t-222.5 -231t-81 -322.5t81 -322t222.5 -230t312.5 -84z" />
    <glyph glyph-name="P" unicode="P" horiz-adv-x="1299" 
d="M277 584v-582h-78v1401h579q182 0 292.5 -112.5t110.5 -297.5q0 -184 -111 -296.5t-292 -112.5h-501zM778 1327h-501v-666h501q150 0 237.5 90t87.5 244q0 152 -88 242t-237 90z" />
    <glyph glyph-name="Q" unicode="Q" horiz-adv-x="1649" 
d="M819 -12q-293 0 -497 209q-131 137 -177 322t1 370t178 321q204 209 495 209q190 0 350 -95.5t252.5 -260t92.5 -360.5q0 -142 -50.5 -272t-143.5 -228l206 -201h-109l-152 148q-193 -162 -446 -162zM819 67q224 0 390 139l-240 233h109l186 -182q82 88 126 203t44 243
q0 131 -48 249.5t-130.5 203.5t-196.5 135t-240 50q-171 0 -312.5 -84.5t-222.5 -231t-81 -322.5t81 -322t222.5 -230t312.5 -84z" />
    <glyph glyph-name="R" unicode="R" horiz-adv-x="1266" 
d="M277 584v-582h-78v1401h579q182 0 292.5 -112.5t110.5 -297.5q0 -173 -98 -283t-263 -124l378 -584h-92l-381 582h-448zM778 1327h-501v-666h501q150 0 237.5 90t87.5 244q0 152 -88 242t-237 90z" />
    <glyph glyph-name="S" unicode="S" horiz-adv-x="1301" 
d="M651 -18q-286 0 -438 164q-88 95 -85 230h75q-8 -136 121 -227.5t327 -91.5q191 0 319 86.5t129 216.5q-2 119 -102 193t-326 121q-217 46 -334 93q-209 85 -209 275q0 125 85 215q152 164 438 164t438 -164q89 -95 84 -230h-74q7 136 -122 228t-326 92q-192 0 -320 -87
t-128 -218q0 -46 21.5 -88t60.5 -71q36 -27 104 -53q44 -17 90 -30.5t77.5 -20.5t116.5 -26q269 -59 384 -148.5t116 -242.5q0 -126 -84 -216q-152 -164 -438 -164z" />
    <glyph glyph-name="T" unicode="T" horiz-adv-x="1303" 
d="M699 1327v-1325h-79v1325h-519v76h1103v-76h-505z" />
    <glyph glyph-name="U" unicode="U" horiz-adv-x="1525" 
d="M763 -14q-117 0 -205 35q-102 34 -180 100q-85 68 -132 187.5t-47 266.5v828h78v-828q0 -125 42 -228t117 -164q144 -118 327 -118q184 0 328 118q74 60 115.5 163t41.5 229v828h78v-828q0 -150 -48 -268q-88 -213 -311 -286q-100 -35 -204 -35z" />
    <glyph glyph-name="V" unicode="V" horiz-adv-x="1414" 
d="M1368 1403l-638 -1401h-47l-638 1401h85l577 -1261l576 1261h85z" />
    <glyph glyph-name="W" unicode="W" horiz-adv-x="1676" 
d="M838 1254l-375 -1252h-74l-352 1401h84l309 -1234l372 1234h72l372 -1234l309 1234h84l-352 -1401h-74z" />
    <glyph glyph-name="X" unicode="X" 
d="M646 640l-501 -638h-96l549 701l-549 700h96l501 -638l497 638h96l-547 -700l547 -699h-96z" />
    <glyph glyph-name="Y" unicode="Y" 
d="M685 501v-499h-78v501l-559 900h93l504 -819l502 819h93z" />
    <glyph glyph-name="Z" unicode="Z" horiz-adv-x="1272" 
d="M1132 78v-76h-1002v67l916 1258h-914v76h1016v-64l-918 -1261h902z" />
    <glyph glyph-name="bracketleft" unicode="[" horiz-adv-x="919" 
d="M789 -174v-79h-559v1756h559v-76h-480v-1601h480z" />
    <glyph glyph-name="backslash" unicode="\" horiz-adv-x="745" 
d="M129 1403l573 -1401h-87l-572 1401h86z" />
    <glyph glyph-name="bracketright" unicode="]" horiz-adv-x="919" 
d="M689 1503v-1756h-559v79h481v1601h-481v76h559z" />
    <glyph glyph-name="asciicircum" unicode="^" horiz-adv-x="990" 
d="M478 1312l-314 -565h-89l369 656h69l369 -656h-89z" />
    <glyph glyph-name="underscore" unicode="_" horiz-adv-x="916" 
d="M936 31v-76h-957v76h957z" />
    <glyph glyph-name="a" unicode="a" horiz-adv-x="1219" 
d="M523 -6q-185 0 -298.5 83t-115.5 220q-1 138 102.5 210.5t304.5 74.5l455 2v146q0 127 -105.5 203t-281.5 76q-160 0 -254 -61t-106 -172h-78q11 144 129.5 228t308.5 84q196 0 324 -89.5t140 -234.5l2 -762h-79v228q-26 -45 -72 -96q-59 -65 -159.5 -102.5t-216.5 -37.5
zM523 73q202 0 322.5 116.5t125.5 316.5l-455 -2q-163 -1 -248.5 -55t-80.5 -151q4 -101 96.5 -163t239.5 -62z" />
    <glyph glyph-name="b" unicode="b" horiz-adv-x="1362" 
d="M713 -16q-145 0 -269 70.5t-197 193.5v-246h-78v1401h78v-581q73 123 197 193.5t269 70.5q112 0 212.5 -43.5t173 -117t115 -175.5t42.5 -216q0 -90 -27 -174.5t-77 -152t-117 -118t-150 -78t-172 -27.5zM713 61q127 0 233.5 62.5t168 171.5t61.5 239q0 199 -134.5 337
t-328.5 138t-330 -138t-136 -337q0 -195 137 -335q132 -138 329 -138z" />
    <glyph glyph-name="c" unicode="c" horiz-adv-x="1261" 
d="M649 -14q-112 0 -213 43.5t-173.5 117t-115 175.5t-42.5 216q0 228 159 389t385 161q171 0 310.5 -97t200.5 -258h-88q-55 126 -170 201t-253 75q-196 0 -330 -136t-134 -335t134.5 -336t329.5 -137q138 0 253 75t170 201h88q-61 -161 -200.5 -258t-310.5 -97z" />
    <glyph glyph-name="d" unicode="d" horiz-adv-x="1362" 
d="M649 -16q-149 0 -274 73t-197.5 199.5t-72.5 277.5q0 229 157 391q158 161 387 161q144 0 268 -70.5t197 -193.5v581h79v-1401h-79v246q-73 -123 -197 -193.5t-268 -70.5zM649 61q193 0 329 138t136 335q0 199 -135.5 337t-329.5 138t-329 -138t-135 -337
q0 -198 136 -335q132 -138 328 -138z" />
    <glyph glyph-name="e" unicode="e" horiz-adv-x="1283" 
d="M649 -14q-112 0 -213 43.5t-173.5 117t-115 175.5t-42.5 216q0 228 159 389t385 161q138 0 256.5 -66.5t192.5 -183t85 -258.5q2 -21 2 -72h-999q11 -189 144 -316t319 -127q129 0 239.5 66.5t168.5 180.5h90q-68 -149 -203 -237.5t-295 -88.5zM186 584h916
q-17 183 -146 304t-307 121q-182 0 -314 -121.5t-149 -303.5z" />
    <glyph glyph-name="f" unicode="f" horiz-adv-x="874" 
d="M448 994v-992h-78v992h-275v76h275v21q0 332 306 332q85 0 178 -23v-79q-106 26 -172 26q-119 0 -176.5 -63.5t-57.5 -194.5v-19h396v-76h-396z" />
    <glyph glyph-name="g" unicode="g" horiz-adv-x="1361" 
d="M674 -443q-198 0 -341 106.5t-172 277.5h78q31 -136 153.5 -222t281.5 -86q152 0 284 101q73 56 113.5 166.5t42.5 251.5v126q-74 -118 -197 -185.5t-268 -67.5q-232 0 -388 153t-156 380q0 224 157 377t387 153q146 0 269 -67t196 -184v233h79v-897q0 -134 -31.5 -248.5
t-89.5 -185.5q-54 -66 -125 -109q-127 -73 -273 -73zM649 102q197 0 331 131.5t134 324.5q0 125 -61.5 229t-168.5 164t-235 60q-198 0 -331 -130t-133 -323q0 -200 135 -329q133 -127 329 -127z" />
    <glyph glyph-name="h" unicode="h" 
d="M247 542v-540h-78v1401h78v-546q62 108 171.5 169.5t239.5 61.5q201 0 331 -129.5t130 -330.5v-626h-78v599q0 184 -106 297t-277 113q-180 0 -295.5 -132t-115.5 -337z" />
    <glyph glyph-name="i" unicode="i" horiz-adv-x="435" 
d="M273 1296q-37 -35 -84.5 -16.5t-47.5 69.5q0 34 21 55t55 21q50 0 70.5 -47t-14.5 -82zM255 1070v-1068h-79v1068h79z" />
    <glyph glyph-name="j" unicode="j" horiz-adv-x="568" 
d="M403 1296q-35 -35 -82 -15.5t-47 68.5q0 33 22 54.5t54 21.5q50 0 70 -48.5t-17 -80.5zM115 -414l-156 2v77l150 -2q36 -1 62 3t54.5 19t46 42t29 75.5t11.5 116.5v1151h78v-1153q0 -172 -66 -251.5t-209 -79.5z" />
    <glyph glyph-name="k" unicode="k" horiz-adv-x="1110" 
d="M247 219v-217h-78v1401h78v-1070l714 739h109l-487 -506l485 -562h-106l-435 505z" />
    <glyph glyph-name="l" unicode="l" horiz-adv-x="416" 
d="M247 1403v-1401h-78v1401h78z" />
    <glyph glyph-name="m" unicode="m" horiz-adv-x="1925" 
d="M247 599v-597h-78v1068h78v-189q51 95 146.5 151t209.5 56q130 0 225.5 -71t138.5 -199q46 125 150.5 197.5t239.5 72.5q182 0 290.5 -125t108.5 -335v-626h-78v599q0 194 -85 302t-236 108q-152 0 -253.5 -118t-101.5 -294v-597h-79v599q0 190 -86 300t-234 110
q-153 0 -254.5 -118t-101.5 -294z" />
    <glyph glyph-name="n" unicode="n" 
d="M247 542v-540h-78v1068h78v-213q62 108 171.5 169.5t239.5 61.5q201 0 331 -129.5t130 -330.5v-626h-78v599q0 184 -106 297t-277 113q-180 0 -295.5 -132t-115.5 -337z" />
    <glyph glyph-name="o" unicode="o" horiz-adv-x="1293" 
d="M649 -14q-112 0 -213 43.5t-173.5 117t-115 175.5t-42.5 216q0 228 159 389t385 161q149 0 274.5 -73.5t198.5 -200t73 -276.5q0 -151 -73 -278t-198.5 -200.5t-274.5 -73.5zM649 65q195 0 330 137t135 336q0 196 -136 333.5t-329 137.5q-196 0 -330 -136t-134 -335
t134.5 -336t329.5 -137z" />
    <glyph glyph-name="p" unicode="p" horiz-adv-x="1362" 
d="M247 248v-658h-78v1480h78v-244q75 122 198.5 192t267.5 70q89 0 172 -27.5t150 -78t117 -118t77 -152t27 -174.5q0 -114 -42.5 -216t-115 -175.5t-173 -117t-212.5 -43.5q-144 0 -267.5 70t-198.5 192zM713 63q194 0 328.5 138t134.5 337q0 130 -61.5 239t-168 171.5
t-233.5 62.5q-95 0 -181.5 -37.5t-148.5 -100.5t-99 -150.5t-37 -184.5q0 -197 137 -337q132 -138 329 -138z" />
    <glyph glyph-name="q" unicode="q" horiz-adv-x="1362" 
d="M1193 1070v-1480h-79v658q-75 -122 -198.5 -192t-266.5 -70q-112 0 -213 43.5t-173.5 117t-115 175.5t-42.5 216q0 228 159 389t385 161q143 0 266.5 -70t198.5 -192v244h79zM649 63q194 0 329.5 138t135.5 337q0 197 -136 335t-329 138q-194 0 -329 -137t-135 -336
t135 -337t329 -138z" />
    <glyph glyph-name="r" unicode="r" horiz-adv-x="769" 
d="M247 528v-526h-78v1068h78v-227q61 108 164.5 169.5t224.5 61.5h95v-76h-73q-180 0 -295.5 -132t-115.5 -338z" />
    <glyph glyph-name="s" unicode="s" horiz-adv-x="1027" 
d="M516 -18q-183 0 -297.5 89.5t-107.5 228.5h75q-10 -103 86 -173t244 -70q142 0 235 62.5t95 157.5q-2 87 -75 141t-241 90q-167 33 -258 69q-161 69 -161 218q0 129 115 213t290 84q183 0 297 -89.5t107 -228.5h-75q10 103 -85.5 173t-243.5 70q-143 0 -237 -62.5
t-94 -159.5q0 -71 57 -112q22 -15 79 -39q61 -24 211 -60q209 -44 298.5 -114t89.5 -191q0 -129 -115 -213t-289 -84z" />
    <glyph glyph-name="t" unicode="t" horiz-adv-x="860" 
d="M761 63v-77l-156 -2q-142 -2 -209 78.5t-67 252.5v679h-254v76h254v333h79v-333h376v-76h-376v-677q0 -68 11.5 -116.5t29 -75.5t46 -42t54.5 -19t62 -3z" />
    <glyph glyph-name="u" unicode="u" 
d="M630 -16q-201 0 -331 129.5t-130 330.5v626h78v-599q0 -184 106 -297t277 -113q180 0 295.5 132t115.5 337v540h78v-1068h-78v214q-63 -108 -172 -170t-239 -62z" />
    <glyph glyph-name="v" unicode="v" horiz-adv-x="1175" 
d="M1099 1072l-487 -1070h-47l-488 1070h86l425 -930l425 930h86z" />
    <glyph glyph-name="w" unicode="w" horiz-adv-x="1388" 
d="M694 926l-279 -928h-68l-270 1076h82l225 -913l278 913h64l278 -913l225 913h81l-269 -1076h-68z" />
    <glyph glyph-name="x" unicode="x" horiz-adv-x="1126" 
d="M565 473l-370 -471h-96l418 534l-418 534h96l370 -471l367 471h96l-417 -534l417 -534h-96z" />
    <glyph glyph-name="y" unicode="y" horiz-adv-x="1175" 
d="M1099 1072l-676 -1482h-87l209 456l-468 1026h86l425 -930l425 930h86z" />
    <glyph glyph-name="z" unicode="z" horiz-adv-x="1056" 
d="M935 78v-76h-804v67l716 925h-714v76h818v-65l-716 -927h700z" />
    <glyph glyph-name="braceleft" unicode="{" horiz-adv-x="826" 
d="M696 -174v-77h-83q-144 0 -204 92.5t-60 312.5v45q0 253 -15 288q-24 57 -50 72t-101 15h-36v114h30q110 0 141 46q31 51 31 253v121q0 220 60 312.5t204 92.5h83v-76h-83q-108 0 -148 -69t-40 -260q0 -279 -13 -338q-20 -102 -98 -137q45 -19 66 -59q28 -52 36.5 -103.5
t8.5 -134.5v-182q0 -130 17.5 -199.5t57 -99t113.5 -29.5h83z" />
    <glyph glyph-name="bar" unicode="|" horiz-adv-x="563" 
d="M321 1403v-1813h-79v1813h79z" />
    <glyph glyph-name="braceright" unicode="}" horiz-adv-x="825" 
d="M214 -251h-84v77h84q108 0 147.5 68.5t39.5 259.5v59q0 247 24 318q25 73 90 101q-73 33 -95 114q-19 69 -19 329v33q0 191 -39.5 260t-147.5 69h-84v76h84q143 0 203 -93t60 -312v-41q0 -269 18 -305q23 -44 49.5 -59t82.5 -15h52v-114h-54q-96 -3 -123 -59
q-25 -54 -25 -283v-78q0 -219 -60 -312t-203 -93z" />
    <glyph glyph-name="asciitilde" unicode="~" horiz-adv-x="1078" 
d="M244 408h-76q2 116 63 189t154 73q38 0 73 -16t52 -30.5t46 -43.5q26 -27 41.5 -40.5t42.5 -25.5t57 -12q66 0 101.5 53t34.5 151h77q2 -125 -57.5 -203t-155.5 -78q-38 0 -72 15t-53 31t-45 44q-27 28 -42 41t-42.5 25.5t-57.5 12.5q-65 0 -101 -47.5t-40 -138.5z" />
    <glyph glyph-name="exclamdown" unicode="&#xa1;" horiz-adv-x="551" 
d="M275 939q-31 0 -52 21t-21 52q0 49 46 68t81 -16q34 -34 14.5 -79.5t-68.5 -45.5zM316 344v-675h-79v675l8 467h63z" />
    <glyph glyph-name="cent" unicode="&#xa2;" horiz-adv-x="1254" 
d="M691 154v-150h-78v150q-105 6 -199 52t-162 119.5t-107.5 172.5t-39.5 207q0 220 151 380q144 156 355 168v160h82v-160q157 -11 282 -107.5t177 -247.5h-86q-55 128 -168 203t-249 75q-196 0 -330 -136.5t-134 -334.5q0 -199 134.5 -336.5t329.5 -137.5q136 0 249 75.5
t168 203.5h87q-56 -153 -180.5 -248.5t-281.5 -107.5z" />
    <glyph glyph-name="sterling" unicode="&#xa3;" horiz-adv-x="1185" 
d="M994 80v-78h-857v69q132 176 157 277q26 98 26 176q0 46 -8 91l-177 2v79h158q-5 18 -27 90q-50 152 -50 256q0 172 110 275.5t294 103.5q173 0 280.5 -94t124.5 -261h-78q-17 129 -104.5 203t-222.5 74q-145 0 -231.5 -82t-88.5 -219q0 -88 49 -241q15 -42 32 -107
l456 -2v-79l-438 2q7 -43 7 -85q0 -216 -159 -450h747z" />
    <glyph glyph-name="currency" unicode="&#xa4;" horiz-adv-x="996" 
d="M315 554l-166 -166l-56 56l166 166q-62 79 -62 181q0 101 60 183l-164 164l56 56l164 -164q78 60 179 60h57q55 -3 130 -64l166 167l54 -57l-166 -166q58 -76 58 -175v-53q-3 -56 -64 -129l170 -169l-54 -54l-170 170q-71 -62 -128 -62l-55 -2q-101 0 -175 58zM489 570
q37 4 81.5 25t83 57.5t59.5 80.5t7 101.5t-70 112.5q-63 65 -109 68h-49q-89 0 -154 -65q-66 -69 -66 -159q0 -92 67 -156q67 -65 150 -65z" />
    <glyph glyph-name="yen" unicode="&#xa5;" horiz-adv-x="1236" 
d="M660 247v-245h-79v245h-375l-4 76h379v165h-375l-4 76h340l-519 839h93l503 -819l502 819h93l-515 -837h355v-78h-394v-163h394v-78h-394z" />
    <glyph glyph-name="brokenbar" unicode="&#xa6;" horiz-adv-x="398" 
d="M238 1403v-741h-78v741h78zM238 333v-741h-78v741h78z" />
    <glyph glyph-name="section" unicode="&#xa7;" horiz-adv-x="1000" 
d="M503 -237q-183 0 -288 89.5t-107 249.5h77q6 -121 88.5 -189.5t227.5 -73.5h17q127 0 206.5 53.5t79.5 137.5q0 37 -17.5 65.5t-43 47t-72 34.5t-85 25t-100.5 21q-370 73 -370 288q0 194 231 251q-126 41 -178.5 93t-52.5 134q0 119 106 194t273 75q171 0 283.5 -96
t113.5 -245h-78q-5 121 -87.5 189.5t-229.5 73.5h-18q-127 0 -206 -53t-79 -138q0 -148 317 -193q371 -53 371 -285q0 -91 -59 -156.5t-166 -95.5q118 -33 171.5 -87.5t53.5 -141.5q0 -126 -100.5 -196.5t-278.5 -70.5zM509 308q124 0 209.5 58.5t85.5 144.5q0 90 -85.5 145
t-227.5 55q-125 0 -211 -58t-86 -142t92 -143.5t223 -59.5z" />
    <glyph glyph-name="copyright" unicode="&#xa9;" horiz-adv-x="1406" 
d="M702 319q-149 0 -275.5 74t-200.5 200.5t-74 275.5q0 232 163 393q157 159 387 159q149 0 275.5 -74t200.5 -201t74 -277q0 -112 -43.5 -214t-117 -175.5t-175.5 -117t-214 -43.5zM702 396q199 0 334 135t135 334q0 202 -136.5 341t-334.5 139q-197 0 -333.5 -138
t-136.5 -338q0 -201 138 -336q133 -137 334 -137zM708 559q-128 0 -217.5 90.5t-89.5 219.5q0 127 90 219q91 90 217 90q100 0 180 -62t108 -161h-79q-24 68 -80.5 108t-128.5 40q-97 0 -164 -68t-67 -166q0 -100 66.5 -168t164.5 -68q71 0 128 40.5t81 108.5h79
q-28 -101 -107.5 -162t-180.5 -61z" />
    <glyph glyph-name="ordfeminine" unicode="&#xaa;" horiz-adv-x="425" 
d="M180 1005q-67 0 -110 34t-44 89v10q0 59 51 98q57 36 145 36h106v13q0 35 -31.5 56t-84.5 21q-58 0 -84.5 -19.5t-24.5 -60.5h-63q-4 67 43 107t129 40q79 0 130 -40t51 -102v-276h-65v56q-59 -62 -148 -62zM180 1070q55 0 96.5 39t49.5 98l-104 -2q-60 0 -95.5 -18.5
t-35.5 -48.5v-7q4 -27 28.5 -44t60.5 -17z" />
    <glyph glyph-name="guillemotleft" unicode="&#xab;" horiz-adv-x="1129" 
d="M168 501l510 -421v-93l-578 478v74l578 475v-93zM518 501l511 -421v-93l-578 478v74l578 475v-93z" />
    <glyph glyph-name="registered" unicode="&#xae;" horiz-adv-x="1074" 
d="M536 690q-195 0 -321.5 127t-126.5 321q0 190 126 321q126 129 322 129q193 0 320.5 -128t127.5 -322q0 -192 -127.5 -320t-320.5 -128zM536 766q162 0 265 104t103 268q0 162 -104 267.5t-264 105.5q-158 0 -262.5 -106.5t-104.5 -266.5q0 -157 102 -265
q98 -107 265 -107zM441 1074v-204h-80v555h232q76 0 123.5 -48.5t47.5 -125.5q0 -58 -29.5 -102t-79.5 -62l140 -217h-96l-137 204h-121zM593 1345h-152v-189h138q64 0 92.5 47t5 94.5t-83.5 47.5z" />
    <glyph glyph-name="degree" unicode="&#xb0;" horiz-adv-x="809" 
d="M405 882q-112 0 -191 78.5t-79 189.5q0 112 79 191q78 78 191 78q111 0 190 -79t79 -190q0 -110 -79 -189t-190 -79zM405 958q81 0 137 55t56 135q0 82 -55.5 138.5t-137.5 56.5q-81 0 -135 -56t-56 -139v-6q0 -74 54 -127q57 -57 137 -57z" />
    <glyph glyph-name="plusminus" unicode="&#xb1;" horiz-adv-x="1264" 
d="M671 606v-386h-78v388h-387l4 76h385v387l76 -4v-383h387v-78h-387zM1055 78l3 -76l-851 -2v78h848z" />
    <glyph glyph-name="uni00B2" unicode="&#xb2;" horiz-adv-x="708" 
d="M608 759l-4 -77h-476v54l289 327q88 101 88 159t-41 94t-107 36q-77 0 -123 -48.5t-50 -133.5h-78q4 118 79 194q69 67 172 67q96 0 161 -59.5t65 -149.5q0 -86 -110 -208l-223 -255h358z" />
    <glyph glyph-name="uni00B3" unicode="&#xb3;" horiz-adv-x="708" 
d="M352 668q-111 0 -186.5 74t-75.5 184l78 4q1 -81 52.5 -132t131.5 -51t129.5 44.5t49.5 116.5q0 70 -54.5 108t-152.5 38q-36 0 -72 -4l-29 45l246 244h-349v76h466v-66l-221 -218h-29q121 0 196.5 -61.5t75.5 -161.5q0 -106 -71.5 -173t-184.5 -67z" />
    <glyph glyph-name="paragraph" unicode="&#xb6;" horiz-adv-x="1270" 
d="M766 1403v-1401h-78v772q-98 1 -177.5 9.5t-155.5 30.5t-127.5 57.5t-82.5 93t-31 134.5q0 148 152.5 226t436.5 78h63zM1072 1403v-1401h-78v1401h78z" />
    <glyph glyph-name="periodcentered" unicode="&#xb7;" horiz-adv-x="521" 
d="M315 645q-35 -35 -81.5 -16t-46.5 68q0 31 21.5 52t52.5 21q48 0 68 -45t-14 -80z" />
    <glyph glyph-name="uni00B9" unicode="&#xb9;" horiz-adv-x="471" 
d="M341 1415v-741h-78v624l-142 -134l-55 54l197 184v13h78z" />
    <glyph glyph-name="ordmasculine" unicode="&#xba;" horiz-adv-x="539" 
d="M269 996q-93 0 -156 64t-63 158q0 93 65 158q65 63 154 63t154.5 -65.5t65.5 -155.5q0 -91 -63 -157q-64 -65 -157 -65zM175 1120q29 -31 69.5 -38t75 8t59 49.5t24.5 78.5q0 36 -14.5 65t-38.5 44t-52 22t-56.5 0t-52.5 -22t-38.5 -43.5t-14.5 -65.5q0 -56 39 -98z" />
    <glyph glyph-name="guillemotright" unicode="&#xbb;" horiz-adv-x="1129" 
d="M678 539v-74l-578 -478v93l511 421l-511 420v93zM1029 539v-74l-578 -478v93l510 421l-510 420v93z" />
    <glyph glyph-name="questiondown" unicode="&#xbf;" horiz-adv-x="1037" 
d="M609 958q-21 -20 -45.5 -22.5t-43.5 10t-31.5 32t-10 44t22.5 44.5t45 23t44 -10t31.5 -32t10 -44t-22.5 -45zM514 -351q-181 0 -300 116t-119 293q0 89 33 152q9 19 19 35t24.5 31.5t23.5 25.5t28.5 24.5t26.5 20t31.5 22t29.5 20.5q8 5 39.5 27.5t39.5 29t33 26.5
t32.5 30t23 31t21 38t10.5 41t5 50v167h78v-175q0 -170 -156 -272l-123 -81q-140 -97 -140 -251q0 -139 97 -230.5t243 -91.5q159 0 259.5 102.5t110.5 277.5h78q-7 -208 -130 -333.5t-318 -125.5z" />
    <glyph glyph-name="Agrave" unicode="&#xc0;" horiz-adv-x="1414" 
d="M577 1784l182 -261h-77l-208 261h103zM332 443l-202 -441h-85l638 1401h47l638 -1401h-85l-202 441h-749zM1047 519l-340 744l-340 -744h680z" />
    <glyph glyph-name="Aacute" unicode="&#xc1;" horiz-adv-x="1414" 
d="M938 1784l-219 -261h-76l181 261h114zM332 443l-202 -441h-85l638 1401h47l638 -1401h-85l-202 441h-749zM1047 519l-340 744l-340 -744h680z" />
    <glyph glyph-name="Acircumflex" unicode="&#xc2;" horiz-adv-x="1414" 
d="M712 1680l-132 -157h-103l195 231h80l195 -231h-103zM332 443l-202 -441h-85l638 1401h47l638 -1401h-85l-202 441h-749zM1047 519l-340 744l-340 -744h680z" />
    <glyph glyph-name="Atilde" unicode="&#xc3;" horiz-adv-x="1414" 
d="M861 1503q-35 0 -69 19t-53 38.5t-48 54.5q-27 33 -42 48.5t-40.5 30.5t-50.5 15q-53 0 -86 -46t-34 -122h-75q-3 106 52.5 175.5t142.5 69.5q28 0 52.5 -9t47.5 -28.5t36.5 -34t35.5 -41.5q27 -32 42.5 -48t40 -30.5t48.5 -14.5q53 0 85 50.5t30 133.5h77
q2 -114 -52 -187.5t-140 -73.5zM332 443l-202 -441h-85l638 1401h47l638 -1401h-85l-202 441h-749zM1047 519l-340 744l-340 -744h680z" />
    <glyph glyph-name="Adieresis" unicode="&#xc4;" horiz-adv-x="1414" 
d="M551 1608q-20 -20 -45.5 -23t-45 9.5t-32.5 31t-10.5 43t23.5 45.5q18 21 42 24t43.5 -9t33 -30.5t12 -44t-20.5 -46.5zM974 1607q-35 -35 -82 -16t-47 70q0 31 22 53.5t53 22.5q51 0 70 -47.5t-16 -82.5zM332 443l-202 -441h-85l638 1401h47l638 -1401h-85l-202 441
h-749zM1047 519l-340 744l-340 -744h680z" />
    <glyph glyph-name="Aring" unicode="&#xc5;" horiz-adv-x="1414" 
d="M709 1474q-77 0 -129.5 51.5t-52.5 127.5q0 59 32.5 104t79.5 64t102 10.5t96 -49.5t49.5 -96t-11 -101t-64 -78.5t-102.5 -32.5zM709 1548q42 0 73 31t31 74q0 44 -30.5 75.5t-73.5 31.5t-70.5 -29t-32.5 -79v-9q0 -37 27 -63q31 -32 76 -32zM332 443l-202 -441h-85
l638 1401h47l638 -1401h-85l-202 441h-749zM1047 519l-340 744l-340 -744h680z" />
    <glyph glyph-name="AE" unicode="&#xc6;" horiz-adv-x="1905" 
d="M332 443l-202 -441h-85l638 1401h1095v-76h-880v-586h739v-75h-739v-588h880v-76h-959v441h-487zM819 1327h-83l-369 -808h452v808z" />
    <glyph glyph-name="Ccedilla" unicode="&#xc7;" horiz-adv-x="1563" 
d="M692 -392q-73 0 -105 3v86q35 -13 99 -13q99 0 157 20t58 54q0 40 -78 79.5t-162 39.5l57 117q-231 32 -396 203q-131 137 -177 322t1 370t178 321q204 209 495 209q203 0 372.5 -110t254.5 -297l-78 -18q-78 161 -225 254t-324 93q-171 0 -312.5 -84.5t-222.5 -231
t-81 -322.5t81 -322t222.5 -230t312.5 -84q177 0 324 93t225 254l78 -19q-85 -187 -254.5 -297t-372.5 -110h-24l-25 -52q98 -23 155.5 -72t57.5 -110q0 -70 -77.5 -108t-213.5 -38z" />
    <glyph glyph-name="Egrave" unicode="&#xc8;" horiz-adv-x="1284" 
d="M547 1784l181 -261h-76l-208 261h103zM1157 78v-76h-958v1401h958v-76h-880v-586h739v-75h-739v-588h880z" />
    <glyph glyph-name="Eacute" unicode="&#xc9;" horiz-adv-x="1284" 
d="M923 1784l-218 -261h-77l182 261h113zM1157 78v-76h-958v1401h958v-76h-880v-586h739v-75h-739v-588h880z" />
    <glyph glyph-name="Ecircumflex" unicode="&#xca;" horiz-adv-x="1284" 
d="M680 1680l-132 -157h-103l195 231h79l195 -231h-102zM1157 78v-76h-958v1401h958v-76h-880v-586h739v-75h-739v-588h880z" />
    <glyph glyph-name="Edieresis" unicode="&#xcb;" horiz-adv-x="1284" 
d="M946 1590q-21 -21 -46.5 -24t-45 10t-32 32.5t-10 44.5t23.5 46q25 24 56.5 21.5t50 -24.5t24.5 -50.5t-21 -55.5zM518 1590q-36 -35 -82.5 -15.5t-46.5 68.5q0 33 21.5 54.5t54.5 21.5q50 0 70 -48.5t-17 -80.5zM1157 78v-76h-958v1401h958v-76h-880v-586h739v-75h-739
v-588h880z" />
    <glyph glyph-name="Igrave" unicode="&#xcc;" horiz-adv-x="475" 
d="M96 1784l181 -261h-76l-208 261h103zM268 1403v-1401h-79v1401h79z" />
    <glyph glyph-name="Iacute" unicode="&#xcd;" horiz-adv-x="496" 
d="M494 1784l-219 -261h-76l181 261h114zM287 1403v-1401h-78v1401h78z" />
    <glyph glyph-name="Icircumflex" unicode="&#xce;" horiz-adv-x="441" 
d="M223 1680l-132 -157h-103l195 231h80l195 -231h-103zM260 1403v-1401h-79v1401h79z" />
    <glyph glyph-name="Idieresis" unicode="&#xcf;" horiz-adv-x="599" 
d="M141 1607q-35 -35 -82 -16t-47 70q0 31 22 53.5t53 22.5q51 0 70 -47.5t-16 -82.5zM568 1608q-36 -36 -83.5 -16.5t-47.5 69.5q0 32 21.5 54t54.5 22q49 0 69 -46t-14 -83zM339 1403v-1401h-78v1401h78z" />
    <glyph glyph-name="Eth" unicode="&#xd0;" horiz-adv-x="1476" 
d="M639 2h-426v662h-206v77h206v662h426q201 0 364.5 -91t256.5 -251.5t93 -357.5q0 -198 -92.5 -358.5t-256 -251.5t-365.5 -91zM728 664h-437v-586h348q180 0 324.5 80.5t226 223.5t81.5 321q0 177 -81.5 319.5t-226.5 223.5t-324 81h-348v-586h437v-77z" />
    <glyph glyph-name="Eth" unicode="&#xf0;" horiz-adv-x="1476" 
d="M639 2h-426v662h-206v77h206v662h426q201 0 364.5 -91t256.5 -251.5t93 -357.5q0 -198 -92.5 -358.5t-256 -251.5t-365.5 -91zM728 664h-437v-586h348q180 0 324.5 80.5t226 223.5t81.5 321q0 177 -81.5 319.5t-226.5 223.5t-324 81h-348v-586h437v-77z" />
    <glyph glyph-name="Ntilde" unicode="&#xd1;" horiz-adv-x="1424" 
d="M857 1503q-36 0 -70 19t-53 38.5t-48 54.5q-27 33 -42 48.5t-40.5 30.5t-50.5 15q-53 0 -86 -46t-34 -122h-75q-3 106 52.5 175.5t142.5 69.5q28 0 52.5 -9t47.5 -28.5t36.5 -34t35.5 -41.5q27 -32 42.5 -48t40 -30.5t49.5 -14.5q52 0 84 51t30 133h77
q2 -114 -51.5 -187.5t-139.5 -73.5zM277 1255v-1253h-78v1401h72l877 -1259v1259h78v-1401h-73z" />
    <glyph glyph-name="Ograve" unicode="&#xd2;" horiz-adv-x="1637" 
d="M696 1784l181 -261h-76l-208 261h103zM819 -12q-293 0 -497 209q-131 137 -177 322t1 370t178 321q204 209 495 209q190 0 350 -95.5t252.5 -260t92.5 -360.5q0 -197 -92 -361.5t-251.5 -259t-351.5 -94.5zM819 67q171 0 312 83.5t222 229.5t81 323q0 131 -48 249.5
t-130.5 203.5t-196.5 135t-240 50q-171 0 -312.5 -84.5t-222.5 -231t-81 -322.5q0 -261 176 -451q175 -185 440 -185z" />
    <glyph glyph-name="Oacute" unicode="&#xd3;" horiz-adv-x="1637" 
d="M1072 1784l-218 -261h-77l182 261h113zM819 -12q-293 0 -497 209q-131 137 -177 322t1 370t178 321q204 209 495 209q190 0 350 -95.5t252.5 -260t92.5 -360.5q0 -197 -92 -361.5t-251.5 -259t-351.5 -94.5zM819 67q171 0 312 83.5t222 229.5t81 323q0 131 -48 249.5
t-130.5 203.5t-196.5 135t-240 50q-171 0 -312.5 -84.5t-222.5 -231t-81 -322.5q0 -261 176 -451q175 -185 440 -185z" />
    <glyph glyph-name="Ocircumflex" unicode="&#xd4;" horiz-adv-x="1637" 
d="M830 1680l-132 -157h-103l195 231h79l195 -231h-103zM819 -12q-293 0 -497 209q-131 137 -177 322t1 370t178 321q204 209 495 209q190 0 350 -95.5t252.5 -260t92.5 -360.5q0 -197 -92 -361.5t-251.5 -259t-351.5 -94.5zM819 67q171 0 312 83.5t222 229.5t81 323
q0 131 -48 249.5t-130.5 203.5t-196.5 135t-240 50q-171 0 -312.5 -84.5t-222.5 -231t-81 -322.5q0 -261 176 -451q175 -185 440 -185z" />
    <glyph glyph-name="Otilde" unicode="&#xd5;" horiz-adv-x="1637" 
d="M531 1494h-76q2 115 63 188.5t154 73.5q38 0 73 -16t52 -30.5t46 -43.5q26 -27 41.5 -40.5t42.5 -25.5t57 -12q66 0 101.5 52.5t34.5 150.5h77q2 -124 -57.5 -202t-155.5 -78q-38 0 -72 15.5t-52 30.5t-46 44q-28 28 -42 40.5t-42 25.5t-58 13q-65 0 -101 -47.5
t-40 -138.5zM819 -12q-192 0 -352 94.5t-252 258.5t-92 362q0 197 92 361.5t252 259.5t352 95q190 0 350 -95.5t252.5 -260t92.5 -360.5q0 -197 -92 -361.5t-251.5 -259t-351.5 -94.5zM819 67q171 0 312 83.5t222 229.5t81 323q0 131 -48 249.5t-130.5 203.5t-196.5 135
t-240 50q-171 0 -312.5 -84.5t-222.5 -231t-81 -322.5q0 -261 176 -451q175 -185 440 -185z" />
    <glyph glyph-name="Odieresis" unicode="&#xd6;" horiz-adv-x="1637" 
d="M666 1590q-35 -35 -81.5 -15.5t-46.5 68.5q0 33 21.5 54.5t54.5 21.5q32 0 54.5 -24t21.5 -53t-24 -52zM1095 1590q-26 -21 -55.5 -22t-53 20.5t-23.5 54.5q0 34 21 55t55 21q50 0 70.5 -47t-14.5 -82zM819 -12q-293 0 -497 209q-131 137 -177 322t1 370t178 321
q204 209 495 209q190 0 350 -95.5t252.5 -260t92.5 -360.5q0 -197 -92 -361.5t-251.5 -259t-351.5 -94.5zM819 67q171 0 312 83.5t222 229.5t81 323q0 131 -48 249.5t-130.5 203.5t-196.5 135t-240 50q-171 0 -312.5 -84.5t-222.5 -231t-81 -322.5t81 -322t222.5 -230
t312.5 -84z" />
    <glyph glyph-name="multiply" unicode="&#xd7;" horiz-adv-x="1036" 
d="M571 571l261 -260l-54 -54l-260 260l-263 -258l-52 52l263 258l-263 263l54 54l262 -263l261 259l52 -52z" />
    <glyph glyph-name="Oslash" unicode="&#xd8;" horiz-adv-x="1637" 
d="M413 120l-118 -151l-61 45l119 152q-110 102 -170 242t-60 295q0 197 92 361.5t252 259.5t352 95q226 0 407 -133l118 151l60 -45l-120 -154q230 -210 230 -535q0 -197 -92 -361.5t-251.5 -259t-351.5 -94.5q-231 0 -406 132zM402 228l777 995q-160 118 -360 118
q-171 0 -312.5 -84.5t-222.5 -231t-81 -322.5q0 -286 199 -475zM819 67q171 0 312 83.5t222 229.5t81 323q0 136 -51.5 259.5t-145.5 212.5l-777 -995q158 -113 359 -113z" />
    <glyph glyph-name="Ugrave" unicode="&#xd9;" horiz-adv-x="1525" 
d="M641 1784l181 -261h-76l-208 261h103zM763 -14q-117 0 -205 35q-102 34 -180 100q-85 68 -132 187.5t-47 266.5v828h78v-828q0 -125 42 -228t117 -164q144 -118 327 -118q184 0 328 118q74 60 115.5 163t41.5 229v828h78v-828q0 -150 -48 -268q-88 -213 -311 -286
q-100 -35 -204 -35z" />
    <glyph glyph-name="Uacute" unicode="&#xda;" horiz-adv-x="1525" 
d="M1017 1784l-218 -261h-77l182 261h113zM763 -14q-117 0 -205 35q-102 34 -180 100q-85 68 -132 187.5t-47 266.5v828h78v-828q0 -125 42 -228t117 -164q144 -118 327 -118q184 0 328 118q74 60 115.5 163t41.5 229v828h78v-828q0 -150 -48 -268q-88 -213 -311 -286
q-100 -35 -204 -35z" />
    <glyph glyph-name="Ucircumflex" unicode="&#xdb;" horiz-adv-x="1525" 
d="M776 1680l-132 -157h-103l195 231h79l195 -231h-102zM763 -14q-117 0 -205 35q-102 34 -180 100q-85 68 -132 187.5t-47 266.5v828h78v-828q0 -125 42 -228t117 -164q144 -118 327 -118q184 0 328 118q74 60 115.5 163t41.5 229v828h78v-828q0 -150 -48 -268
q-88 -213 -311 -286q-100 -35 -204 -35z" />
    <glyph glyph-name="Udieresis" unicode="&#xdc;" horiz-adv-x="1525" 
d="M615 1590q-21 -21 -46.5 -24t-45 10t-32 32.5t-10 44.5t23.5 46q24 24 55.5 21.5t50.5 -24.5t25 -50.5t-21 -55.5zM1037 1590q-35 -35 -81.5 -15.5t-46.5 68.5q0 33 21.5 54.5t53.5 21.5q33 0 55 -24t21.5 -53t-23.5 -52zM763 -14q-117 0 -205 35q-102 34 -180 100
q-85 68 -132 187.5t-47 266.5v828h78v-828q0 -125 42 -228t117 -164q144 -118 327 -118q184 0 328 118q74 60 115.5 163t41.5 229v828h78v-828q0 -150 -48 -268q-88 -213 -311 -286q-100 -35 -204 -35z" />
    <glyph glyph-name="Yacute" unicode="&#xdd;" 
d="M890 1784l-219 -261h-76l181 261h114zM685 501v-499h-78v501l-559 900h93l504 -819l502 819h93z" />
    <glyph glyph-name="germandbls" unicode="&#xdf;" horiz-adv-x="1352" 
d="M277 1085v-1557h-78v1559q0 164 78 248t231 84h213q207 0 339.5 -98t132.5 -252q0 -106 -65.5 -192t-180.5 -133q132 -46 204.5 -141.5t72.5 -225.5q0 -171 -145 -280q-152 -112 -358 -109l-240 2v75l240 -2q187 1 306 91t119 229q0 143 -116 230.5t-309 88.5l-240 2v74
h240q167 0 280 84t113 207q0 119 -109.5 195t-283.5 77l-213 2q-116 2 -173.5 -62t-57.5 -196z" />
    <glyph glyph-name="agrave" unicode="&#xe0;" horiz-adv-x="1219" 
d="M447 1450l181 -260h-76l-208 260h103zM523 -6q-185 0 -298.5 83t-115.5 220q-1 138 102.5 210.5t304.5 74.5l455 2v146q0 127 -105.5 203t-281.5 76q-160 0 -254 -61t-106 -172h-78q11 144 129.5 228t308.5 84q196 0 324 -89.5t140 -234.5l2 -762h-79v228
q-26 -45 -72 -96q-59 -65 -159.5 -102.5t-216.5 -37.5zM523 73q202 0 322.5 116.5t125.5 316.5l-455 -2q-163 -1 -248.5 -55t-80.5 -151q4 -101 96.5 -163t239.5 -62z" />
    <glyph glyph-name="aacute" unicode="&#xe1;" horiz-adv-x="1219" 
d="M823 1450l-218 -260h-77l182 260h113zM523 -6q-185 0 -298.5 83t-115.5 220q-1 138 102.5 210.5t304.5 74.5l455 2v146q0 127 -105.5 203t-281.5 76q-160 0 -254 -61t-106 -172h-78q11 144 129.5 228t308.5 84q196 0 324 -89.5t140 -234.5l2 -762h-79v228
q-26 -45 -72 -96q-59 -65 -159.5 -102.5t-216.5 -37.5zM523 73q202 0 322.5 116.5t125.5 316.5l-455 -2q-163 -1 -248.5 -55t-80.5 -151q4 -101 96.5 -163t239.5 -62z" />
    <glyph glyph-name="acircumflex" unicode="&#xe2;" horiz-adv-x="1219" 
d="M577 1348l-132 -157h-103l195 231h79l195 -231h-102zM523 -6q-185 0 -298.5 83t-115.5 220q-1 139 103 211.5t304 73.5l455 2v146q0 127 -105.5 203t-281.5 76q-160 0 -254 -61t-106 -172h-78q11 144 129.5 228t308.5 84q196 0 324 -89.5t140 -234.5l2 -762h-79v228
q-26 -45 -72 -96q-59 -65 -159.5 -102.5t-216.5 -37.5zM523 73q202 0 322.5 116.5t125.5 316.5l-455 -2q-163 -1 -248.5 -54.5t-80.5 -151.5q4 -101 96.5 -163t239.5 -62z" />
    <glyph glyph-name="atilde" unicode="&#xe3;" horiz-adv-x="1219" 
d="M731 1170q-35 0 -69 19t-53 38.5t-48 54.5q-29 33 -43.5 48.5t-40 30.5t-50.5 15q-52 0 -85 -46t-34 -123h-76q-3 105 53 175t142 70q37 0 71.5 -19t53.5 -38.5t48 -54.5q27 -33 42 -48.5t39.5 -30t49.5 -14.5q53 0 85 50.5t30 133.5h76q2 -114 -51.5 -187.5
t-139.5 -73.5zM523 -6q-185 0 -298.5 83t-115.5 220q-1 138 102.5 210.5t304.5 74.5l455 2v146q0 127 -105.5 203t-281.5 76q-160 0 -254 -61t-106 -172h-78q11 144 129.5 228t308.5 84q196 0 324 -89.5t140 -234.5l2 -762h-79v228q-26 -45 -72 -96q-59 -65 -159.5 -102.5
t-216.5 -37.5zM523 73q202 0 322.5 116.5t125.5 316.5l-455 -2q-163 -1 -248.5 -55t-80.5 -151q4 -101 96.5 -163t239.5 -62z" />
    <glyph glyph-name="adieresis" unicode="&#xe4;" horiz-adv-x="1219" 
d="M419 1274q-25 -25 -57 -23t-50.5 23.5t-23.5 50.5t23 57q20 20 45 22.5t44 -10t31.5 -31.5t10 -44t-22.5 -45zM846 1275q-20 -20 -45.5 -23t-45 9t-32.5 31t-10.5 43.5t23.5 45.5q18 20 42 23.5t43.5 -9t33 -31t12 -43.5t-20.5 -46zM523 -6q-185 0 -298.5 83t-115.5 220
q-1 138 102.5 210.5t304.5 74.5l455 2v146q0 127 -105.5 203t-281.5 76q-160 0 -254 -61t-106 -172h-78q11 144 129.5 228t308.5 84q196 0 324 -89.5t140 -234.5l2 -762h-79v228q-26 -45 -72 -96q-59 -65 -159.5 -102.5t-216.5 -37.5zM523 73q202 0 322.5 116.5t125.5 316.5
l-455 -2q-163 -1 -248.5 -55t-80.5 -151q4 -101 96.5 -163t239.5 -62z" />
    <glyph glyph-name="aring" unicode="&#xe5;" horiz-adv-x="1219" 
d="M578 1141q-77 0 -129 51.5t-52 127.5q0 59 32.5 104t79.5 64t102 10t96 -50t49 -95.5t-11 -100.5t-64 -78.5t-103 -32.5zM578 1215q43 0 74 31t31 74q0 44 -31 75.5t-74 31.5t-70.5 -29t-32.5 -79v-9q0 -38 28 -63q29 -32 75 -32zM523 -6q-185 0 -298.5 83t-115.5 220
q-1 138 102.5 210.5t304.5 74.5l455 2v146q0 127 -105.5 203t-281.5 76q-160 0 -254 -61t-106 -172h-78q11 144 129.5 228t308.5 84q196 0 324 -89.5t140 -234.5l2 -762h-79v228q-26 -45 -72 -96q-59 -65 -159.5 -102.5t-216.5 -37.5zM523 73q202 0 322.5 116.5t125.5 316.5
l-455 -2q-163 -1 -248.5 -55t-80.5 -151q4 -101 96.5 -163t239.5 -62z" />
    <glyph glyph-name="ae" unicode="&#xe6;" horiz-adv-x="2149" 
d="M1515 -14q-167 0 -302.5 92t-198.5 246q-31 -97 -115 -190q-59 -65 -159.5 -102.5t-216.5 -37.5q-185 0 -298.5 83t-115.5 220q-1 138 102.5 210.5t304.5 74.5l455 2v146q0 127 -105.5 203t-281.5 76q-160 0 -254 -61t-106 -172h-78q11 144 129.5 228t308.5 84
q179 0 303 -75.5t154 -202.5q73 129 199 203.5t275 74.5q139 0 257.5 -66.5t192 -183t84.5 -258.5q2 -21 2 -72h-998q11 -188 143 -315.5t319 -127.5q130 0 240 66.5t169 180.5h89q-67 -149 -202 -237.5t-296 -88.5zM1053 584h915q-17 183 -146 304t-307 121
q-182 0 -313.5 -121.5t-148.5 -303.5zM523 73q202 0 322.5 116.5t125.5 316.5l-455 -2q-163 -1 -248.5 -55t-80.5 -151q4 -101 96.5 -163t239.5 -62z" />
    <glyph glyph-name="ccedilla" unicode="&#xe7;" horiz-adv-x="1261" 
d="M531 -384q-72 0 -105 3v86q35 -13 99 -13q99 0 157 20t58 54q0 40 -77.5 79.5t-162.5 39.5l54 108q-195 34 -322 187.5t-127 357.5q0 228 159 389t385 161q171 0 310.5 -97t200.5 -258h-88q-55 126 -170 201t-253 75q-196 0 -330 -136t-134 -335t134.5 -336t329.5 -137
q138 0 253 75t170 201h88q-61 -161 -200.5 -258t-310.5 -97h-20l-19 -41q97 -24 154.5 -73.5t57.5 -109.5q0 -70 -77.5 -108t-213.5 -38z" />
    <glyph glyph-name="egrave" unicode="&#xe8;" horiz-adv-x="1283" 
d="M508 1450l181 -260h-76l-208 260h103zM649 -14q-112 0 -213 43.5t-173.5 117t-115 175.5t-42.5 216q0 228 159 389t385 161q138 0 256.5 -66.5t192.5 -183t85 -258.5q2 -21 2 -72h-999q11 -189 144 -316t319 -127q129 0 239.5 66.5t168.5 180.5h90q-68 -149 -203 -237.5
t-295 -88.5zM186 584h916q-17 183 -146 304t-307 121q-182 0 -314 -121.5t-149 -303.5z" />
    <glyph glyph-name="eacute" unicode="&#xe9;" horiz-adv-x="1283" 
d="M884 1450l-219 -260h-76l181 260h114zM649 -14q-112 0 -213 43.5t-173.5 117t-115 175.5t-42.5 216q0 228 159 389t385 161q138 0 256.5 -66.5t192.5 -183t85 -258.5q2 -21 2 -72h-999q11 -189 144 -316t319 -127q129 0 239.5 66.5t168.5 180.5h90q-68 -149 -203 -237.5
t-295 -88.5zM186 584h916q-17 183 -146 304t-307 121q-182 0 -314 -121.5t-149 -303.5z" />
    <glyph glyph-name="ecircumflex" unicode="&#xea;" horiz-adv-x="1283" 
d="M641 1348l-132 -157h-103l195 231h79l195 -231h-103zM649 -14q-112 0 -213 43.5t-173.5 117t-115 175.5t-42.5 216q0 228 159 389t385 161q138 0 256.5 -66.5t192.5 -183t85 -258.5q2 -21 2 -72h-999q11 -189 144 -316t319 -127q129 0 239.5 66.5t168.5 180.5h90
q-68 -149 -203 -237.5t-295 -88.5zM186 584h916q-17 183 -146 304t-307 121q-182 0 -314 -121.5t-149 -303.5z" />
    <glyph glyph-name="edieresis" unicode="&#xeb;" horiz-adv-x="1283" 
d="M479 1274q-15 -15 -32 -20.5t-32.5 -1.5t-29.5 12.5t-23 23t-12.5 30t2 32.5t19.5 32q26 25 57.5 22.5t50 -24t23.5 -50t-23 -56.5zM907 1275q-36 -36 -84 -16.5t-48 69.5q0 32 22 53.5t54 21.5q49 0 69 -45.5t-13 -82.5zM649 -14q-112 0 -213 43.5t-173.5 117
t-115 175.5t-42.5 216q0 151 72.5 277.5t197.5 199.5t274 73q138 0 256.5 -66.5t192.5 -183t85 -258.5q2 -21 2 -72h-999q11 -189 144 -316t319 -127q129 0 239.5 66.5t168.5 180.5h90q-68 -149 -203 -237.5t-295 -88.5zM186 584h916q-17 183 -146 304t-307 121
q-182 0 -314 -121.5t-149 -303.5z" />
    <glyph glyph-name="igrave" unicode="&#xec;" horiz-adv-x="414" 
d="M64 1450l181 -260h-76l-208 260h103zM235 1070v-1068h-78v1068h78z" />
    <glyph glyph-name="iacute" unicode="&#xed;" horiz-adv-x="434" 
d="M463 1450l-219 -260h-76l181 260h114zM256 1070v-1068h-79v1068h79z" />
    <glyph glyph-name="icircumflex" unicode="&#xee;" horiz-adv-x="375" 
d="M188 1348l-132 -157h-103l195 231h79l195 -231h-103zM226 1070v-1068h-78v1068h78z" />
    <glyph glyph-name="idieresis" unicode="&#xef;" horiz-adv-x="537" 
d="M109 1256q-35 -35 -82 -15t-47 69q0 32 22 54t54 22q50 0 70 -49t-17 -81zM537 1256q-36 -35 -83.5 -16t-47.5 70q0 34 20.5 55t54.5 21q51 0 71 -47.5t-15 -82.5zM308 1070v-1068h-79v1068h79z" />
    <glyph glyph-name="ntilde" unicode="&#xf1;" 
d="M358 1160h-77q3 119 68 193q61 70 150 70q38 0 72.5 -16t51.5 -30.5t46 -43.5q28 -28 42.5 -40.5t42 -25.5t57.5 -13q66 0 101.5 53t34.5 151h76q2 -124 -57 -202t-155 -78q-38 0 -72.5 15t-52.5 31t-45 44q-28 28 -42 40.5t-42 25.5t-58 13q-65 0 -101 -47.5t-40 -139.5
zM247 542v-540h-78v1068h78v-213q62 108 171.5 169.5t239.5 61.5q201 0 331 -129.5t130 -330.5v-626h-78v599q0 184 -106 297t-277 113q-180 0 -295.5 -132t-115.5 -337z" />
    <glyph glyph-name="ograve" unicode="&#xf2;" horiz-adv-x="1293" 
d="M519 1450l182 -260h-77l-207 260h102zM649 -14q-112 0 -213 43.5t-173.5 117t-115 175.5t-42.5 216q0 228 159 389t385 161q149 0 274.5 -73.5t198.5 -200t73 -276.5q0 -151 -73 -278t-198.5 -200.5t-274.5 -73.5zM649 65q195 0 330 137t135 336q0 196 -136 333.5
t-329 137.5q-196 0 -330 -136t-134 -335q0 -203 137 -336q135 -137 327 -137z" />
    <glyph glyph-name="oacute" unicode="&#xf3;" horiz-adv-x="1293" 
d="M896 1450l-219 -260h-76l181 260h114zM649 -14q-112 0 -213 43.5t-173.5 117t-115 175.5t-42.5 216q0 228 159 389t385 161q149 0 274.5 -73.5t198.5 -200t73 -276.5q0 -151 -73 -278t-198.5 -200.5t-274.5 -73.5zM649 65q195 0 330 137t135 336q0 196 -136 333.5
t-329 137.5q-196 0 -330 -136t-134 -335q0 -203 137 -336q135 -137 327 -137z" />
    <glyph glyph-name="ocircumflex" unicode="&#xf4;" horiz-adv-x="1293" 
d="M653 1348l-133 -157h-102l195 231h79l195 -231h-103zM649 -14q-112 0 -213 43.5t-173.5 117t-115 175.5t-42.5 216q0 228 159 389t385 161q149 0 274.5 -73.5t198.5 -200t73 -276.5q0 -151 -73 -278t-198.5 -200.5t-274.5 -73.5zM649 65q195 0 330 137t135 336
q0 196 -136 333.5t-329 137.5q-196 0 -330 -136t-134 -335q0 -203 137 -336q135 -137 327 -137z" />
    <glyph glyph-name="otilde" unicode="&#xf5;" horiz-adv-x="1293" 
d="M353 1160h-77q2 116 63.5 189.5t154.5 73.5q38 0 72.5 -16t51.5 -30.5t46 -43.5q28 -28 42.5 -40.5t42 -25.5t57.5 -13q66 0 101.5 53t34.5 151h76q2 -124 -57 -202t-155 -78q-38 0 -72.5 15t-52.5 31t-45 44q-28 28 -42 40.5t-42 25.5t-58 13q-65 0 -101 -47.5
t-40 -139.5zM649 -14q-112 0 -213 43.5t-173.5 117t-115 175.5t-42.5 216q0 228 159 389t385 161q149 0 274.5 -73.5t198.5 -200t73 -276.5q0 -151 -73 -278t-198.5 -200.5t-274.5 -73.5zM649 65q195 0 330 137t135 336q0 196 -136 333.5t-329 137.5q-196 0 -330 -136
t-134 -335t134.5 -336t329.5 -137z" />
    <glyph glyph-name="odieresis" unicode="&#xf6;" horiz-adv-x="1293" 
d="M491 1256q-26 -25 -58 -23t-51 24t-24 51t23 58q25 24 56.5 21.5t50.5 -24.5t24.5 -51t-21.5 -56zM913 1256q-20 -21 -45 -23.5t-43.5 11t-30.5 33t-9 44.5t23 45q35 32 76 16t50 -54t-21 -72zM649 -14q-112 0 -213 43.5t-173.5 117t-115 175.5t-42.5 216q0 228 159 389
t385 161q149 0 274.5 -73.5t198.5 -200t73 -276.5q0 -151 -73 -278t-198.5 -200.5t-274.5 -73.5zM649 65q195 0 330 137t135 336q0 196 -136 333.5t-329 137.5q-196 0 -330 -136t-134 -335t134.5 -336t329.5 -137z" />
    <glyph glyph-name="divide" unicode="&#xf7;" horiz-adv-x="1265" 
d="M1058 612l-3 -77h-848v78z" />
    <glyph glyph-name="oslash" unicode="&#xf8;" horiz-adv-x="1293" 
d="M334 86l-92 -117l-61 45l93 120q-169 163 -169 404q0 151 72.5 277.5t197.5 199.5t274 73q163 0 299 -89l82 104l61 -45l-83 -106q89 -78 138 -186.5t49 -227.5q0 -151 -73 -278t-198.5 -200.5t-274.5 -73.5q-176 0 -315 100zM323 197l577 739q-116 73 -251 73
q-196 0 -330 -136t-134 -335q0 -204 138 -341zM649 65q195 0 330 137t135 336q0 216 -156 351l-577 -740q116 -84 268 -84z" />
    <glyph glyph-name="ugrave" unicode="&#xf9;" 
d="M517 1450l181 -260h-77l-207 260h103zM630 -16q-201 0 -331 129.5t-130 330.5v626h78v-599q0 -184 106 -297t277 -113q180 0 295.5 132t115.5 337v540h78v-1068h-78v214q-63 -108 -172 -170t-239 -62z" />
    <glyph glyph-name="uacute" unicode="&#xfa;" 
d="M893 1450l-219 -260h-76l181 260h114zM630 -16q-201 0 -331 129.5t-130 330.5v626h78v-599q0 -184 106 -297t277 -113q180 0 295.5 132t115.5 337v540h78v-1068h-78v214q-63 -108 -172 -170t-239 -62z" />
    <glyph glyph-name="ucircumflex" unicode="&#xfb;" 
d="M654 1348l-133 -157h-102l195 231h79l195 -231h-103zM630 -16q-201 0 -331 129.5t-130 330.5v626h78v-599q0 -184 106 -297t277 -113q180 0 295.5 132t115.5 337v540h78v-1068h-78v214q-63 -108 -172 -170t-239 -62z" />
    <glyph glyph-name="udieresis" unicode="&#xfc;" 
d="M490 1256q-26 -25 -58 -23t-51 24t-24 51t23 58q25 24 56.5 21.5t50.5 -24.5t24.5 -51t-21.5 -56zM912 1256q-35 -35 -81.5 -15t-46.5 69q0 32 21.5 54t54.5 22q50 0 69.5 -49t-17.5 -81zM630 -16q-201 0 -331 129.5t-130 330.5v626h78v-599q0 -184 106 -297t277 -113
q180 0 295.5 132t115.5 337v540h78v-1068h-78v214q-63 -108 -172 -170t-239 -62z" />
    <glyph glyph-name="yacute" unicode="&#xfd;" horiz-adv-x="1175" 
d="M835 1450l-219 -260h-76l181 260h114zM1099 1072l-676 -1482h-87l209 456l-468 1026h86l425 -930l425 930h86z" />
    <glyph glyph-name="ydieresis" unicode="&#xff;" horiz-adv-x="1175" 
d="M413 1274q-35 -35 -82.5 -16t-47.5 70q0 31 22.5 53t53.5 22q50 0 69.5 -47t-15.5 -82zM840 1275q-36 -36 -83.5 -16.5t-47.5 69.5q0 32 21.5 53.5t53.5 21.5q50 0 69.5 -45.5t-13.5 -82.5zM1099 1072l-676 -1482h-87l209 456l-468 1026h86l425 -930l425 930h86z" />
    <glyph glyph-name="Amacron" unicode="&#x100;" horiz-adv-x="1414" 
d="M982 1684v-77h-545v77h545zM332 443l-202 -441h-85l638 1401h47l638 -1401h-85l-202 441h-749zM1047 519l-340 744l-340 -744h680z" />
    <glyph glyph-name="amacron" unicode="&#x101;" horiz-adv-x="1219" 
d="M852 1350v-76h-545v76h545zM523 -6q-185 0 -298.5 83t-115.5 220q-1 138 102.5 210.5t304.5 74.5l455 2v146q0 127 -105.5 203t-281.5 76q-160 0 -254 -61t-106 -172h-78q11 144 129.5 228t308.5 84q196 0 324 -89.5t140 -234.5l2 -762h-79v228q-26 -45 -72 -96
q-59 -65 -159.5 -102.5t-216.5 -37.5zM523 73q202 0 322.5 116.5t125.5 316.5l-455 -2q-163 -1 -248.5 -55t-80.5 -151q4 -101 96.5 -163t239.5 -62z" />
    <glyph glyph-name="Abreve" unicode="&#x102;" horiz-adv-x="1414" 
d="M708 1517q-116 0 -193 76t-71 185h77q-8 -117 89.5 -166t194.5 0t89 166h77q6 -115 -77 -190q-74 -71 -186 -71zM332 443l-202 -441h-85l638 1401h47l638 -1401h-85l-202 441h-749zM1047 519l-340 744l-340 -744h680z" />
    <glyph glyph-name="abreve" unicode="&#x103;" horiz-adv-x="1219" 
d="M576 1188q-116 0 -192.5 75.5t-70.5 184.5h77q-8 -117 89 -165.5t194 0t89 165.5h78q6 -114 -78 -190q-73 -70 -186 -70zM523 -6q-185 0 -298.5 83t-115.5 220q-1 139 103 211.5t304 73.5l455 2v146q0 127 -105.5 203t-281.5 76q-160 0 -254 -61t-106 -172h-78
q11 144 129.5 228t308.5 84q196 0 324 -89.5t140 -234.5l2 -762h-79v228q-26 -45 -72 -96q-59 -65 -159.5 -102.5t-216.5 -37.5zM523 73q202 0 322.5 116.5t125.5 316.5l-455 -2q-163 -1 -248.5 -55t-80.5 -151q4 -101 96.5 -163t239.5 -62z" />
    <glyph glyph-name="Aogonek" unicode="&#x104;" horiz-adv-x="1520" 
d="M1546 -346v-76q-59 -15 -126 -18t-132 8t-117.5 33.5t-85 63t-32.5 93.5q0 79 60 145q35 39 81.5 75t77.5 48l-191 417h-749l-202 -441h-85l638 1401h47l638 -1401h-20l-19 -10q-66 -36 -130 -101t-64 -125t69 -93.5t193 -33.5q73 0 149 15zM1047 519l-340 744l-340 -744
h680z" />
    <glyph glyph-name="aogonek" unicode="&#x105;" horiz-adv-x="1335" 
d="M1238 -346v-76q-59 -15 -126 -18t-132 8t-118 33.5t-85.5 63t-32.5 93.5q0 64 51.5 134t126.5 108l49 25v205q-26 -45 -72 -96q-59 -65 -159.5 -102.5t-216.5 -37.5q-185 0 -298.5 83t-115.5 220q-1 138 102.5 210.5t304.5 74.5l455 2v146q0 127 -105.5 203t-281.5 76
q-160 0 -254 -61t-106 -172h-78q11 144 129.5 228t308.5 84q196 0 324 -89.5t140 -234.5l2 -747l-10 -14l-12 -7l-61 -40q-65 -47 -103 -97.5t-38 -92.5q0 -60 69 -93.5t193 -33.5q72 0 150 15zM523 73q202 0 322.5 116.5t125.5 316.5l-455 -2q-163 -1 -248.5 -55
t-80.5 -151q4 -101 96.5 -163t239.5 -62z" />
    <glyph glyph-name="Cacute" unicode="&#x106;" horiz-adv-x="1563" 
d="M1055 1784l-219 -261h-76l181 261h114zM819 -12q-293 0 -497 209q-131 137 -177 322t1 370t178 321q204 209 495 209q203 0 372.5 -110t254.5 -297l-78 -18q-78 161 -225 254t-324 93q-171 0 -312.5 -84.5t-222.5 -231t-81 -322.5t81 -322t222.5 -230t312.5 -84
q177 0 324 93t225 254l78 -19q-85 -187 -254.5 -297t-372.5 -110z" />
    <glyph glyph-name="cacute" unicode="&#x107;" horiz-adv-x="1261" 
d="M888 1450l-219 -260h-76l181 260h114zM649 -14q-112 0 -213 43.5t-173.5 117t-115 175.5t-42.5 216q0 228 159 389t385 161q171 0 310.5 -97t200.5 -258h-88q-55 126 -170 201t-253 75q-196 0 -330 -136t-134 -335t134.5 -336t329.5 -137q138 0 253 75t170 201h88
q-61 -161 -200.5 -258t-310.5 -97z" />
    <glyph glyph-name="Cdotaccent" unicode="&#x10a;" horiz-adv-x="1563" 
d="M862 1593q-20 -21 -45 -23.5t-43.5 11t-30.5 33t-9 44.5t23 45q35 32 76 16t50 -54t-21 -72zM819 -12q-293 0 -497 209q-131 137 -177 322t1 370t178 321q204 209 495 209q203 0 372.5 -110t254.5 -297l-78 -18q-78 161 -225 254t-324 93q-171 0 -312.5 -84.5
t-222.5 -231t-81 -322.5t81 -322t222.5 -230t312.5 -84q177 0 324 93t225 254l78 -19q-85 -187 -254.5 -297t-372.5 -110z" />
    <glyph glyph-name="cdotaccent" unicode="&#x10b;" horiz-adv-x="1261" 
d="M699 1260q-15 -15 -33 -20.5t-34 -2t-30 12.5t-23 23.5t-12.5 30.5t2 33.5t20.5 32.5q25 24 56 21.5t50 -24.5t25 -51t-21 -56zM649 -14q-112 0 -213 43.5t-173.5 117t-115 175.5t-42.5 216q0 228 159 389t385 161q171 0 310.5 -97t200.5 -258h-88q-55 126 -170 201
t-253 75q-196 0 -330 -136t-134 -335t134.5 -336t329.5 -137q138 0 253 75t170 201h88q-61 -161 -200.5 -258t-310.5 -97z" />
    <glyph glyph-name="Ccaron" unicode="&#x10c;" horiz-adv-x="1563" 
d="M1047 1754l-195 -231h-80l-195 231h103l132 -157l132 157h103zM819 -12q-293 0 -497 209q-131 137 -177 322t1 370t178 321q204 209 495 209q203 0 372.5 -110t254.5 -297l-78 -18q-78 161 -225 254t-324 93q-171 0 -312.5 -84.5t-222.5 -231t-81 -322.5t81 -322
t222.5 -230t312.5 -84q177 0 324 93t225 254l78 -19q-85 -187 -254.5 -297t-372.5 -110z" />
    <glyph glyph-name="ccaron" unicode="&#x10d;" horiz-adv-x="1261" 
d="M877 1420l-195 -231h-79l-195 231h103l132 -157l131 157h103zM649 -14q-112 0 -213 43.5t-173.5 117t-115 175.5t-42.5 216q0 228 159 389t385 161q171 0 310.5 -97t200.5 -258h-88q-55 126 -170 201t-253 75q-196 0 -330 -136t-134 -335t134.5 -336t329.5 -137
q138 0 253 75t170 201h88q-61 -161 -200.5 -258t-310.5 -97z" />
    <glyph glyph-name="Dcaron" unicode="&#x10e;" horiz-adv-x="1463" 
d="M960 1754l-195 -231h-79l-195 231h103l132 -157l132 157h102zM625 2h-426v1401h426q201 0 365 -91t257 -251.5t93 -357.5q0 -198 -92.5 -358.5t-256.5 -251.5t-366 -91zM625 1327h-348v-1249h348q180 0 324.5 80.5t226 223.5t81.5 321q0 177 -81.5 319.5t-226.5 223.5
t-324 81z" />
    <glyph glyph-name="Dcaron" unicode="&#x10f;" horiz-adv-x="1463" 
d="M960 1754l-195 -231h-79l-195 231h103l132 -157l132 157h102zM625 2h-426v1401h426q201 0 365 -91t257 -251.5t93 -357.5q0 -198 -92.5 -358.5t-256.5 -251.5t-366 -91zM625 1327h-348v-1249h348q180 0 324.5 80.5t226 223.5t81.5 321q0 177 -81.5 319.5t-226.5 223.5
t-324 81z" />
    <glyph glyph-name="Emacron" unicode="&#x112;" horiz-adv-x="1284" 
d="M950 1684v-77h-545v77h545zM1157 78v-76h-958v1401h958v-76h-880v-586h739v-75h-739v-588h880z" />
    <glyph glyph-name="emacron" unicode="&#x113;" horiz-adv-x="1283" 
d="M910 1350v-76h-544v76h544zM649 -14q-112 0 -213 43.5t-173.5 117t-115 175.5t-42.5 216q0 228 159 389t385 161q138 0 256.5 -66.5t192.5 -183t85 -258.5q2 -21 2 -72h-999q11 -189 144 -316t319 -127q129 0 239.5 66.5t168.5 180.5h90q-68 -149 -203 -237.5t-295 -88.5
zM186 584h916q-17 183 -146 304t-307 121q-182 0 -314 -121.5t-149 -303.5z" />
    <glyph glyph-name="Edotaccent" unicode="&#x116;" horiz-adv-x="1284" 
d="M734 1593q-36 -35 -83.5 -16t-47.5 70q0 34 20.5 55t54.5 21q51 0 71 -47t-15 -83zM1157 78v-76h-958v1401h958v-76h-880v-586h739v-75h-739v-588h880z" />
    <glyph glyph-name="edotaccent" unicode="&#x117;" horiz-adv-x="1283" 
d="M695 1260q-36 -35 -83.5 -16t-47.5 70q0 34 20.5 55t54.5 21q51 0 71 -47.5t-15 -82.5zM649 -14q-112 0 -213 43.5t-173.5 117t-115 175.5t-42.5 216q0 228 159 389t385 161q138 0 256.5 -66.5t192.5 -183t85 -258.5q2 -21 2 -72h-999q11 -189 144 -316t319 -127
q129 0 239.5 66.5t168.5 180.5h90q-68 -149 -203 -237.5t-295 -88.5zM186 584h916q-17 183 -146 304t-307 121q-182 0 -314 -121.5t-149 -303.5z" />
    <glyph glyph-name="Eogonek" unicode="&#x118;" horiz-adv-x="1313" 
d="M1257 -346v-76q-59 -15 -126 -18t-132 8t-117.5 33.5t-85 63t-32.5 93.5q0 77 62 145q49 55 117 99h-744v1401h958v-76h-880v-586h739v-75h-739v-588h880v-76h-102q-22 0 -72 -40.5t-93.5 -98.5t-43.5 -97q0 -60 69 -93.5t192 -33.5q72 0 150 15z" />
    <glyph glyph-name="eogonek" unicode="&#x119;" horiz-adv-x="1283" 
d="M961 -346v-76q-59 -15 -126 -18t-132 8t-117.5 33.5t-85 63t-32.5 93.5q0 133 156 229q-219 10 -369 168.5t-150 382.5q0 151 72.5 277.5t197.5 199.5t274 73q138 0 256.5 -66.5t192.5 -183t85 -258.5q2 -21 2 -72h-999q11 -189 144 -316t319 -127q129 0 239.5 66.5
t168.5 180.5h89q-53 -123 -159 -207.5t-237 -109.5q-88 -47 -144 -111t-56 -118q0 -60 69 -93.5t192 -33.5q72 0 150 15zM186 584h916q-17 183 -146 304t-307 121q-182 0 -314 -121.5t-149 -303.5z" />
    <glyph glyph-name="Ecaron" unicode="&#x11a;" horiz-adv-x="1284" 
d="M915 1754l-195 -231h-79l-195 231h103l132 -157l132 157h102zM1157 78v-76h-958v1401h958v-76h-880v-586h739v-75h-739v-588h880z" />
    <glyph glyph-name="ecaron" unicode="&#x11b;" horiz-adv-x="1283" 
d="M877 1420l-195 -231h-79l-195 231h103l132 -157l131 157h103zM649 -14q-112 0 -213 43.5t-173.5 117t-115 175.5t-42.5 216q0 228 159 389t385 161q138 0 256.5 -66.5t192.5 -183t85 -258.5q2 -21 2 -72h-999q11 -189 144 -316t319 -127q129 0 239.5 66.5t168.5 180.5h90
q-68 -149 -203 -237.5t-295 -88.5zM186 584h916q-17 183 -146 304t-307 121q-182 0 -314 -121.5t-149 -303.5z" />
    <glyph glyph-name="Gbreve" unicode="&#x11e;" horiz-adv-x="1612" 
d="M807 1517q-116 0 -193 76t-71 185h77q-8 -117 89 -166t194.5 0t89.5 166h77q6 -115 -77 -190q-74 -71 -186 -71zM819 -12q-293 0 -497 209q-131 137 -177 322t1 370t178 321q204 209 495 209q203 0 372.5 -110t254.5 -297l-78 -18q-78 161 -225 254t-324 93
q-171 0 -312.5 -84t-222.5 -230.5t-81 -323.5q0 -176 81 -322t222.5 -230t312.5 -84q240 0 397.5 158.5t175.5 417.5h-589v76h672v-18q0 -204 -84 -367t-233.5 -254.5t-338.5 -91.5z" />
    <glyph glyph-name="gbreve" unicode="&#x11f;" horiz-adv-x="1361" 
d="M648 1188q-116 0 -193 75.5t-71 184.5h78q-8 -117 89 -165.5t194 0t89 165.5h77q6 -114 -77 -190q-73 -70 -186 -70zM674 -443q-198 0 -341 106.5t-172 277.5h78q31 -136 153.5 -222t281.5 -86q152 0 284 101q73 56 114.5 167t41.5 251v126q-74 -118 -197 -185.5
t-268 -67.5q-232 0 -388 153t-156 380q0 224 157 377t387 153q146 0 269 -67t196 -184v233h79v-897q0 -134 -31.5 -248.5t-89.5 -185.5q-54 -66 -125 -109q-127 -73 -273 -73zM649 102q197 0 331 131.5t134 324.5q0 125 -61.5 229t-168.5 164t-235 60q-198 0 -331 -130
t-133 -323q0 -200 135 -329q133 -127 329 -127z" />
    <glyph glyph-name="Gdotaccent" unicode="&#x120;" horiz-adv-x="1612" 
d="M862 1593q-20 -21 -45 -23.5t-43.5 11t-30.5 33t-9 44.5t23 45q35 32 76 16t50 -54t-21 -72zM819 -12q-293 0 -497 209q-131 137 -177 322t1 370t178 321q204 209 495 209q203 0 372.5 -110t254.5 -297l-78 -18q-78 161 -225 254t-324 93q-171 0 -312.5 -84
t-222.5 -230.5t-81 -323.5q0 -176 81 -322t222.5 -230t312.5 -84q240 0 397.5 158.5t175.5 417.5h-589v76h672v-18q0 -204 -84 -367t-233.5 -254.5t-338.5 -91.5z" />
    <glyph glyph-name="gdotaccent" unicode="&#x121;" horiz-adv-x="1361" 
d="M702 1260q-35 -35 -82 -15t-47 69q0 32 22 54t54 22q50 0 70 -49t-17 -81zM674 -443q-198 0 -341 106.5t-172 277.5h78q31 -136 153.5 -222t281.5 -86q152 0 284 101q73 56 113.5 166.5t42.5 251.5v126q-74 -118 -197 -185.5t-268 -67.5q-232 0 -388 153t-156 380
q0 224 157 377t387 153q146 0 269 -67t196 -184v233h79v-897q0 -134 -31.5 -248.5t-89.5 -185.5q-54 -66 -125 -109q-127 -73 -273 -73zM649 102q197 0 331 131.5t134 324.5q0 125 -61.5 229t-168.5 164t-235 60q-198 0 -331 -130t-133 -323q0 -200 135 -329
q133 -127 329 -127z" />
    <glyph glyph-name="Imacron" unicode="&#x12a;" horiz-adv-x="497" 
d="M520 1684v-77h-545v77h545zM287 1403v-1401h-78v1401h78z" />
    <glyph glyph-name="imacron" unicode="&#x12b;" horiz-adv-x="433" 
d="M488 1350v-76h-545v76h545zM255 1070v-1068h-79v1068h79z" />
    <glyph glyph-name="Iogonek" unicode="&#x12e;" horiz-adv-x="660" 
d="M594 -345v-76q-59 -15 -126 -18t-132 8t-118 33.5t-85.5 63t-32.5 93.5q0 45 23 91t62 80q26 25 70 55.5t69 41.5v1376h79v-1401h-17q-47 -14 -125.5 -96.5t-78.5 -138.5q0 -60 69 -93.5t193 -33.5q72 0 150 15z" />
    <glyph glyph-name="iogonek" unicode="&#x12f;" horiz-adv-x="569" 
d="M321 1296q-26 -26 -58 -24t-51 24t-24 51t24 58q20 20 44.5 22t43.5 -11t32 -32t10.5 -44t-21.5 -44zM492 -346v-76q-59 -15 -126 -18t-132 8t-118 33.5t-85.5 63t-32.5 93.5q0 48 26 95q24 45 92 103.5t109 71.5v1042h79v-1053l-15 -15q-21 0 -71 -40.5t-94 -98.5
t-44 -97q0 -60 69 -93.5t193 -33.5q72 0 150 15z" />
    <glyph glyph-name="Idotaccent" unicode="&#x130;" horiz-adv-x="498" 
d="M304 1593q-36 -35 -83.5 -16t-47.5 70q0 34 20.5 55t54.5 21q51 0 71 -47t-15 -83zM286 1403v-1401h-78v1401h78z" />
    <glyph glyph-name="dotlessi" unicode="&#x131;" horiz-adv-x="378" 
d="M228 1070v-1068h-78v1068h78z" />
    <glyph glyph-name="Lacute" unicode="&#x139;" horiz-adv-x="1259" 
d="M894 1784l-219 -261h-76l181 261h114zM1157 78v-76h-958v1401h78v-1325h880z" />
    <glyph glyph-name="lacute" unicode="&#x13a;" horiz-adv-x="434" 
d="M464 1784l-219 -261h-76l181 261h114zM257 1403v-1401h-79v1401h79z" />
    <glyph glyph-name="Nacute" unicode="&#x143;" horiz-adv-x="1424" 
d="M949 1784l-219 -261h-76l181 261h114zM277 1255v-1253h-78v1401h72l877 -1259v1259h78v-1401h-73z" />
    <glyph glyph-name="nacute" unicode="&#x144;" 
d="M899 1450l-219 -260h-76l181 260h114zM247 542v-540h-78v1068h78v-213q62 108 171.5 169.5t239.5 61.5q201 0 331 -129.5t130 -330.5v-626h-78v599q0 184 -106 297t-277 113q-180 0 -295.5 -132t-115.5 -337z" />
    <glyph glyph-name="Ncaron" unicode="&#x147;" horiz-adv-x="1424" 
d="M938 1754l-195 -231h-79l-195 231h102l133 -157l131 157h103zM277 1255v-1253h-78v1401h72l877 -1259v1259h78v-1401h-73z" />
    <glyph glyph-name="ncaron" unicode="&#x148;" 
d="M890 1420l-195 -231h-79l-196 231h103l133 -157l131 157h103zM247 542v-540h-78v1068h78v-213q62 108 171.5 169.5t239.5 61.5q201 0 331 -129.5t130 -330.5v-626h-78v599q0 184 -106 297t-277 113q-180 0 -295.5 -132t-115.5 -337z" />
    <glyph glyph-name="Omacron" unicode="&#x14c;" horiz-adv-x="1637" 
d="M1101 1684v-77h-545v77h545zM819 -12q-293 0 -497 209q-131 137 -177 322t1 370t178 321q204 209 495 209q190 0 350 -95.5t252.5 -260t92.5 -360.5q0 -197 -92 -361.5t-251.5 -259t-351.5 -94.5zM819 67q171 0 312 83.5t222 229.5t81 323q0 131 -48 249.5t-130.5 203.5
t-196.5 135t-240 50q-171 0 -312.5 -84.5t-222.5 -231t-81 -322.5q0 -261 176 -451q175 -185 440 -185z" />
    <glyph glyph-name="omacron" unicode="&#x14d;" horiz-adv-x="1293" 
d="M920 1350v-76h-545v76h545zM649 -14q-112 0 -213 43.5t-173.5 117t-115 175.5t-42.5 216q0 228 159 389t385 161q149 0 274.5 -73.5t198.5 -200t73 -276.5q0 -151 -73 -278t-198.5 -200.5t-274.5 -73.5zM649 65q195 0 330 137t135 336q0 196 -136 333.5t-329 137.5
q-196 0 -330 -136t-134 -335q0 -203 137 -336q135 -137 327 -137z" />
    <glyph glyph-name="Ohungarumlaut" unicode="&#x150;" horiz-adv-x="1637" 
d="M885 1825l-208 -261h-76l181 261h103zM1240 1825l-208 -261h-76l181 261h103zM819 -12q-293 0 -497 209q-131 137 -177 322t1 370t178 321q204 209 495 209q190 0 350 -95.5t252.5 -260t92.5 -360.5q0 -197 -92 -361.5t-251.5 -259t-351.5 -94.5zM819 67q171 0 312 83.5
t222 229.5t81 323q0 131 -48 249.5t-130.5 203.5t-196.5 135t-240 50q-171 0 -312.5 -84.5t-222.5 -231t-81 -322.5t81 -322t222.5 -230t312.5 -84z" />
    <glyph glyph-name="ohungarumlaut" unicode="&#x151;" horiz-adv-x="1293" 
d="M650 1492l-208 -261h-76l181 261h103zM1005 1492l-208 -261h-77l182 261h103zM649 -14q-112 0 -213 43.5t-173.5 117t-115 175.5t-42.5 216q0 228 159 389t385 161q149 0 274.5 -73.5t198.5 -200t73 -276.5q0 -151 -73 -278t-198.5 -200.5t-274.5 -73.5zM649 65
q195 0 330 137t135 336q0 196 -136 333.5t-329 137.5q-196 0 -330 -136t-134 -335t134.5 -336t329.5 -137z" />
    <glyph glyph-name="OE" unicode="&#x152;" horiz-adv-x="2522" 
d="M819 -12q-192 0 -352 94.5t-252 258.5t-92 362q0 197 92 361.5t252 259.5t352 95q196 0 361.5 -103.5t255.5 -279.5v367h958v-76h-880v-586h737v-75h-737v-588h880v-76h-958v367q-90 -176 -255 -278.5t-362 -102.5zM819 67q171 0 312 83.5t222 229.5t81 323
q0 131 -48 249.5t-130.5 203.5t-196.5 135t-240 50q-171 0 -312.5 -84.5t-222.5 -231t-81 -322.5t81 -322t222.5 -230t312.5 -84z" />
    <glyph glyph-name="oe" unicode="&#x153;" horiz-adv-x="2292" 
d="M649 -14q-112 0 -213 43.5t-173.5 117t-115 175.5t-42.5 216q0 151 72.5 277.5t197.5 199.5t274 73q168 0 305 -93t200 -249q62 155 199.5 248.5t304.5 93.5q139 0 257.5 -66.5t192 -183t84.5 -258.5q2 -21 2 -72h-998q11 -188 143 -315.5t319 -127.5q130 0 240 66.5
t169 180.5h89q-67 -149 -202 -237.5t-296 -88.5q-168 0 -305 93.5t-199 248.5q-63 -155 -200.5 -248.5t-304.5 -93.5zM649 65q195 0 330 137t135 336q0 196 -136 333.5t-329 137.5q-196 0 -330 -136t-134 -335t134.5 -336t329.5 -137zM1196 584h915q-17 183 -146 304
t-307 121q-182 0 -313.5 -121.5t-148.5 -303.5z" />
    <glyph glyph-name="Racute" unicode="&#x154;" horiz-adv-x="1266" 
d="M892 1784l-219 -261h-76l181 261h114zM277 584v-582h-78v1401h579q182 0 292.5 -112.5t110.5 -297.5q0 -173 -98 -283t-263 -124l378 -584h-92l-381 582h-448zM778 1327h-501v-666h501q150 0 237.5 90t87.5 244q0 152 -88 242t-237 90z" />
    <glyph glyph-name="racute" unicode="&#x155;" horiz-adv-x="745" 
d="M673 1450l-218 -260h-77l182 260h113zM247 528v-526h-78v1068h78v-227q61 108 164.5 169.5t224.5 61.5h95v-76h-73q-180 0 -295.5 -132t-115.5 -338z" />
    <glyph glyph-name="Rcaron" unicode="&#x158;" horiz-adv-x="1266" 
d="M883 1754l-195 -231h-79l-195 231h103l132 -157l131 157h103zM277 584v-582h-78v1401h579q182 0 292.5 -112.5t110.5 -297.5q0 -173 -98 -283t-263 -124l378 -584h-92l-381 582h-448zM778 1327h-501v-666h501q150 0 237.5 90t87.5 244q0 152 -88 242t-237 90z" />
    <glyph glyph-name="rcaron" unicode="&#x159;" horiz-adv-x="655" 
d="M616 1420l-195 -231h-79l-195 231h103l132 -157l132 157h102zM202 528v-526h-78v1068h78v-227q61 108 164.5 169.5t224.5 61.5h95v-76h-73q-181 0 -296 -132t-115 -338z" />
    <glyph glyph-name="Sacute" unicode="&#x15a;" horiz-adv-x="1301" 
d="M900 1784l-219 -261h-76l181 261h114zM651 -18q-286 0 -438 164q-88 95 -85 230h75q-8 -136 121 -227.5t327 -91.5q191 0 319 86.5t129 216.5q-2 119 -102 193t-326 121q-217 46 -334 93q-209 85 -209 275q0 125 85 215q152 164 438 164t438 -164q89 -95 84 -230h-74
q7 136 -122 228t-326 92q-192 0 -320 -87t-128 -218q0 -46 21.5 -88t60.5 -71q36 -27 104 -53q44 -17 90 -30.5t77.5 -20.5t116.5 -26q269 -59 384 -148.5t116 -242.5q0 -126 -84 -216q-152 -164 -438 -164z" />
    <glyph glyph-name="sacute" unicode="&#x15b;" horiz-adv-x="1027" 
d="M757 1450l-219 -260h-76l181 260h114zM516 -18q-183 0 -297.5 89.5t-107.5 228.5h75q-10 -103 86 -173t244 -70q142 0 235 62.5t95 157.5q-2 87 -75 141t-241 90q-167 33 -258 69q-161 69 -161 218q0 129 115 213t290 84q183 0 297 -89.5t107 -228.5h-75
q10 103 -85.5 173t-243.5 70q-143 0 -237 -62.5t-94 -159.5q0 -71 57 -112q22 -15 79 -39q61 -24 211 -60q209 -44 298.5 -114t89.5 -191q0 -129 -115 -213t-289 -84z" />
    <glyph glyph-name="Scedilla" unicode="&#x15e;" horiz-adv-x="1301" 
d="M561 -412q-73 0 -105 3v87q33 -13 99 -13q99 0 156.5 19.5t57.5 53.5q0 40 -77.5 80t-162.5 40l62 125q-242 17 -378 163q-88 95 -85 230h75q-8 -136 121 -227.5t327 -91.5q191 0 319 86.5t129 216.5q-2 119 -102 193t-326 121q-217 46 -334 93q-209 85 -209 275
q0 125 85 215q152 164 438 164t438 -164q89 -95 84 -230h-74q7 136 -122 228t-326 92q-192 0 -320 -87t-128 -218q0 -46 21.5 -88t60.5 -71q36 -27 104 -53q44 -17 90 -30.5t77.5 -20.5t116.5 -26q269 -59 384 -148.5t116 -242.5q0 -126 -84 -216q-147 -158 -419 -164
l-31 -65q98 -24 155.5 -73t57.5 -110q0 -70 -77.5 -108t-213.5 -38z" />
    <glyph glyph-name="scedilla" unicode="&#x15f;" horiz-adv-x="1027" 
d="M418 -392q-73 0 -105 3v86q33 -13 99 -13q99 0 156.5 20t57.5 54q0 40 -77.5 79.5t-162.5 39.5l54 109q-155 20 -245 105.5t-84 208.5h75q-10 -103 86 -173t244 -70q142 0 235 62.5t95 157.5q-2 87 -75 141t-241 90q-167 33 -258 69q-161 69 -161 218q0 129 115 213
t290 84q183 0 297 -89.5t107 -228.5h-75q10 103 -85.5 173t-243.5 70q-143 0 -237 -62.5t-94 -159.5q0 -71 57 -112q22 -15 79 -39q61 -24 211 -60q209 -44 298.5 -114t89.5 -191q0 -129 -115 -213t-289 -84h1l-21 -45q97 -24 155 -73.5t58 -109.5q0 -70 -77.5 -108
t-213.5 -38z" />
    <glyph glyph-name="Scaron" unicode="&#x160;" horiz-adv-x="1301" 
d="M892 1754l-195 -231h-80l-195 231h103l133 -157l131 157h103zM651 -18q-286 0 -438 164q-88 95 -85 230h75q-8 -136 121 -227.5t327 -91.5q191 0 319 86.5t129 216.5q-2 119 -102 193t-326 121q-217 46 -334 93q-209 85 -209 275q0 125 85 215q152 164 438 164t438 -164
q89 -95 84 -230h-74q7 136 -122 228t-326 92q-192 0 -320 -87t-128 -218q0 -46 21.5 -88t60.5 -71q36 -27 104 -53q44 -17 90 -30.5t77.5 -20.5t116.5 -26q269 -59 384 -148.5t116 -242.5q0 -126 -84 -216q-152 -164 -438 -164z" />
    <glyph glyph-name="scaron" unicode="&#x161;" horiz-adv-x="1027" 
d="M744 1420l-195 -231h-80l-195 231h103l133 -157l131 157h103zM516 -18q-183 0 -297.5 89.5t-107.5 228.5h75q-10 -103 86 -173t244 -70q142 0 235 62.5t95 157.5q-2 87 -75 141t-241 90q-167 33 -258 69q-161 69 -161 218q0 129 115 213t290 84q183 0 297 -89.5
t107 -228.5h-75q10 103 -85.5 173t-243.5 70q-143 0 -237 -62.5t-94 -159.5q0 -71 57 -112q22 -15 79 -39q61 -24 211 -60q209 -44 298.5 -114t89.5 -191q0 -129 -115 -213t-289 -84z" />
    <glyph glyph-name="Umacron" unicode="&#x16a;" horiz-adv-x="1525" 
d="M1046 1684v-77h-545v77h545zM763 -14q-117 0 -205 35q-102 34 -180 100q-85 68 -132 187.5t-47 266.5v828h78v-828q0 -125 42 -228t117 -164q144 -118 327 -118q184 0 328 118q74 60 115.5 163t41.5 229v828h78v-828q0 -150 -48 -268q-88 -213 -311 -286
q-100 -35 -204 -35z" />
    <glyph glyph-name="umacron" unicode="&#x16b;" 
d="M919 1350v-76h-545v76h545zM630 -16q-201 0 -331 129.5t-130 330.5v626h78v-599q0 -184 106 -297t277 -113q180 0 295.5 132t115.5 337v540h78v-1068h-78v214q-63 -108 -172 -170t-239 -62z" />
    <glyph glyph-name="Uring" unicode="&#x16e;" horiz-adv-x="1525" 
d="M772 1474q-77 0 -129 51.5t-52 127.5q0 59 32.5 104t79.5 64t102 10.5t96 -49.5t49 -96t-11 -101t-64 -78.5t-103 -32.5zM772 1548q43 0 74 31t31 74q0 44 -31 75.5t-74 31.5t-70.5 -29t-32.5 -79v-9q0 -38 28 -63q29 -32 75 -32zM763 -14q-117 0 -205 35
q-102 34 -180 100q-85 68 -132 187.5t-47 266.5v828h78v-828q0 -125 42 -228t117 -164q144 -118 327 -118q184 0 328 118q74 60 115.5 163t41.5 229v828h78v-828q0 -150 -48 -268q-88 -213 -311 -286q-100 -35 -204 -35z" />
    <glyph glyph-name="uring" unicode="&#x16f;" 
d="M648 1141q-77 0 -129 51.5t-52 127.5q0 59 32.5 104t79 64t101.5 10t96 -50t49.5 -95.5t-10.5 -100.5t-64 -78.5t-103 -32.5zM648 1215q43 0 74 31t31 74q0 44 -31 75.5t-74 31.5t-70.5 -29t-32.5 -79v-9q0 -37 27 -63q31 -32 76 -32zM630 -16q-201 0 -331 129.5
t-130 330.5v626h78v-599q0 -184 106 -297t277 -113q180 0 295.5 132t115.5 337v540h78v-1068h-78v214q-63 -108 -172 -170t-239 -62z" />
    <glyph glyph-name="Uhungarumlaut" unicode="&#x170;" horiz-adv-x="1525" 
d="M830 1825l-208 -261h-76l181 261h103zM1185 1825l-208 -261h-76l181 261h103zM763 -14q-117 0 -205 35q-102 34 -180 100q-85 68 -132 187.5t-47 266.5v828h78v-828q0 -125 42 -228t117 -164q144 -118 327 -118q184 0 328 118q74 60 115.5 163t41.5 229v828h78v-828
q0 -150 -48 -268q-88 -213 -311 -286q-100 -35 -204 -35z" />
    <glyph glyph-name="uhungarumlaut" unicode="&#x171;" 
d="M649 1492l-208 -261h-76l181 261h103zM1004 1492l-208 -261h-77l182 261h103zM630 -16q-201 0 -331 129.5t-130 330.5v626h78v-599q0 -184 106 -297t277 -113q180 0 295.5 132t115.5 337v540h78v-1068h-78v214q-63 -108 -172 -170t-239 -62z" />
    <glyph glyph-name="Uogonek" unicode="&#x172;" horiz-adv-x="1525" 
d="M1097 -346v-76q-59 -15 -126 -18t-132 8t-118 33.5t-85.5 63t-32.5 93.5q0 62 40.5 121.5t115.5 106.5q-218 2 -380 135q-86 68 -133 187t-47 267v828h78v-828q0 -125 42 -228t117 -164q144 -118 327 -118q184 0 328 118q74 60 115.5 163t41.5 229v828h78v-828
q0 -232 -115 -384t-320 -192q-39 -19 -83 -52t-83.5 -84t-39.5 -97q0 -60 69 -93.5t193 -33.5q72 0 150 15z" />
    <glyph glyph-name="uogonek" unicode="&#x173;" horiz-adv-x="1405" 
d="M1307 -346v-76q-59 -15 -126 -18t-132 8t-118 33.5t-85.5 63t-32.5 93.5q0 45 23.5 91t62.5 80q27 26 71.5 56.5t70.5 41.5v189q-63 -108 -172 -170t-239 -62q-201 0 -331 129.5t-130 330.5v626h78v-599q0 -184 106 -297t277 -113q180 0 295.5 132t115.5 337v540h78
v-1053l-14 -15q-22 0 -72 -40.5t-93.5 -98.5t-43.5 -97q0 -60 69 -93.5t192 -33.5q72 0 150 15z" />
    <glyph glyph-name="Wcircumflex" unicode="&#x174;" horiz-adv-x="1676" 
d="M840 1680l-132 -157h-103l195 231h79l195 -231h-103zM838 1254l-375 -1252h-74l-352 1401h84l309 -1234l372 1234h72l372 -1234l309 1234h84l-352 -1401h-74z" />
    <glyph glyph-name="wcircumflex" unicode="&#x175;" horiz-adv-x="1388" 
d="M697 1347l-132 -157h-103l195 231h79l195 -231h-103zM694 936l-279 -928h-68l-270 1076h82l225 -913l278 913h64l278 -913l225 913h81l-269 -1076h-68z" />
    <glyph glyph-name="Ycircumflex" unicode="&#x176;" 
d="M648 1680l-132 -157h-103l195 231h79l195 -231h-103zM685 501v-499h-78v501l-559 900h93l504 -819l502 819h93z" />
    <glyph glyph-name="ycircumflex" unicode="&#x177;" horiz-adv-x="1175" 
d="M574 1347l-132 -157h-103l195 231h80l195 -231h-103zM1099 1072l-676 -1482h-87l209 456l-468 1026h86l425 -930l425 930h86z" />
    <glyph glyph-name="Ydieresis" unicode="&#x178;" 
d="M910 1607q-25 -25 -56.5 -22.5t-50 24t-23.5 50t23 56.5q15 15 32 20.5t32.5 1.5t29.5 -12.5t22.5 -23t12 -30t-2 -32.5t-19.5 -32zM487 1608q-36 -36 -83.5 -16.5t-47.5 69.5q0 32 21.5 54t53.5 22q50 0 69.5 -46t-13.5 -83zM685 501v-499h-78v501l-559 900h93l504 -819
l502 819h93z" />
    <glyph glyph-name="Zacute" unicode="&#x179;" horiz-adv-x="1272" 
d="M884 1784l-219 -261h-76l181 261h114zM1132 78v-76h-1002v67l916 1258h-914v76h1016v-64l-918 -1261h902z" />
    <glyph glyph-name="zacute" unicode="&#x17a;" horiz-adv-x="1056" 
d="M787 1450l-219 -260h-76l181 260h114zM935 78v-76h-804v67l716 925h-714v76h818v-65l-716 -927h700z" />
    <glyph glyph-name="Zdotaccent" unicode="&#x17b;" horiz-adv-x="1272" 
d="M692 1593q-35 -35 -81.5 -15t-46.5 69q0 33 21.5 54.5t53.5 21.5q33 0 55 -24t21.5 -53t-23.5 -53zM1132 78v-76h-1002v67l916 1258h-914v76h1016v-64l-918 -1261h902z" />
    <glyph glyph-name="zdotaccent" unicode="&#x17c;" horiz-adv-x="1056" 
d="M598 1260q-36 -35 -83.5 -16t-47.5 70q0 34 20.5 55t54.5 21q51 0 71 -47.5t-15 -82.5zM935 78v-76h-804v67l716 925h-714v76h818v-65l-716 -927h700z" />
    <glyph glyph-name="Zcaron" unicode="&#x17d;" horiz-adv-x="1272" 
d="M876 1754l-195 -231h-79l-195 231h103l132 -157l131 157h103zM1132 78v-76h-1002v67l916 1258h-914v76h1016v-64l-918 -1261h902z" />
    <glyph glyph-name="zcaron" unicode="&#x17e;" horiz-adv-x="1056" 
d="M774 1420l-195 -231h-79l-195 231h103l132 -157l131 157h103zM935 78v-76h-804v67l716 925h-714v76h818v-65l-716 -927h700z" />
    <glyph glyph-name="uni02BC" unicode="&#x2bc;" horiz-adv-x="588" 
d="M388 1501l-117 -311h-71l91 311h97z" />
    <glyph glyph-name="gravecomb" unicode="&#x300;" horiz-adv-x="0" 
d="M-381 1450l181 -260h-76l-208 260h103z" />
    <glyph glyph-name="acutecomb" unicode="&#x301;" horiz-adv-x="0" 
d="M-200 1450l-219 -260h-76l181 260h114z" />
    <glyph glyph-name="uni0302" unicode="&#x302;" horiz-adv-x="0" 
d="M-434 1347l-132 -157h-103l195 231h79l195 -231h-102z" />
    <glyph glyph-name="tildecomb" unicode="&#x303;" horiz-adv-x="0" 
d="M-391 1170q-36 0 -70 19t-53 38.5t-48 54.5q-27 33 -42 48.5t-40.5 30.5t-50.5 15q-53 0 -86 -46t-34 -123h-75q-3 106 52.5 175.5t142.5 69.5q28 0 52.5 -9t47.5 -28.5t36.5 -33.5t36.5 -41q27 -33 42 -48.5t39.5 -30t49.5 -14.5q52 0 84 51t30 133h77
q2 -114 -51.5 -187.5t-139.5 -73.5z" />
    <glyph glyph-name="uni0304" unicode="&#x304;" horiz-adv-x="0" 
d="M-200 1350v-76h-545v76h545z" />
    <glyph glyph-name="uni0306" unicode="&#x306;" horiz-adv-x="0" 
d="M-463 1190q-116 0 -193 75.5t-71 184.5h77q-8 -117 89.5 -166t194.5 0t89 166h77q6 -114 -77 -190q-73 -70 -186 -70z" />
    <glyph glyph-name="uni0307" unicode="&#x307;" horiz-adv-x="0" 
d="M-223 1260q-33 -37 -81 -17t-48 71q0 34 20.5 55t54.5 21q51 0 71 -48.5t-17 -81.5z" />
    <glyph glyph-name="uni0308" unicode="&#x308;" horiz-adv-x="0" 
d="M-648 1275q-23 -23 -52 -23.5t-53 21.5t-24 55q0 32 21.5 53.5t53.5 21.5q50 0 69.5 -46.5t-15.5 -81.5zM-222 1274q-35 -35 -82.5 -16t-47.5 70q0 31 22.5 53t53.5 22q50 0 69.5 -47t-15.5 -82z" />
    <glyph glyph-name="uni030A" unicode="&#x30a;" horiz-adv-x="0" 
d="M-381 1141q-77 0 -129 51.5t-52 127.5t54 130q52 51 127 51q76 0 129 -53q41 -41 49 -95.5t-11 -100.5t-64 -78.5t-103 -32.5zM-381 1215q43 0 74 31t31 74q0 44 -31 75.5t-74 31.5t-70.5 -29t-32.5 -79v-9q0 -38 28 -63q29 -32 75 -32z" />
    <glyph glyph-name="uni030B" unicode="&#x30b;" horiz-adv-x="0" 
d="M-555 1450l-208 -260h-76l181 260h103zM-200 1450l-208 -260h-76l181 260h103z" />
    <glyph glyph-name="uni030C" unicode="&#x30c;" horiz-adv-x="0" 
d="M-200 1421l-195 -231h-79l-195 231h103l132 -157l132 157h102z" />
    <glyph glyph-name="uni0312" unicode="&#x312;" horiz-adv-x="0" 
d="M-200 1501l-91 -311h-97l118 311h70z" />
    <glyph glyph-name="uni0326" unicode="&#x326;" horiz-adv-x="0" 
d="M-200 -88l-135 -398h-72l111 398h96z" />
    <glyph glyph-name="uni0327" unicode="&#x327;" horiz-adv-x="0" 
d="M-491 -372q-73 0 -105 3v85q40 -12 103 -12q42 0 110 10q101 19 101 64q0 40 -78 79.5t-162 39.5l95 192l63 -30l-49 -103q98 -23 155.5 -72t57.5 -110q0 -70 -77.5 -108t-213.5 -38z" />
    <glyph glyph-name="uni0328" unicode="&#x328;" horiz-adv-x="0" 
d="M-200 -305v-76q-59 -15 -126 -18t-132 8t-118 33.5t-85.5 63t-32.5 93.5q0 45 23 91.5t62 80.5q33 32 87 67t70 35h49v-30q-21 0 -71 -40.5t-94 -98.5t-44 -97q0 -60 69.5 -93t192.5 -33q77 0 150 14z" />
    <glyph glyph-name="Wgrave" unicode="&#x1e80;" horiz-adv-x="1676" 
d="M707 1784l181 -261h-77l-207 261h103zM838 1254l-375 -1252h-74l-352 1401h84l309 -1234l372 1234h72l372 -1234l309 1234h84l-352 -1401h-74z" />
    <glyph glyph-name="wgrave" unicode="&#x1e81;" horiz-adv-x="1388" 
d="M565 1450l181 -260h-77l-207 260h103zM694 936l-279 -928h-68l-270 1076h82l225 -913l278 913h64l278 -913l225 913h81l-269 -1076h-68z" />
    <glyph glyph-name="Wacute" unicode="&#x1e82;" horiz-adv-x="1676" 
d="M1083 1784l-219 -261h-76l181 261h114zM838 1254l-375 -1252h-74l-352 1401h84l309 -1234l372 1234h72l372 -1234l309 1234h84l-352 -1401h-74z" />
    <glyph glyph-name="wacute" unicode="&#x1e83;" horiz-adv-x="1388" 
d="M941 1450l-219 -260h-76l181 260h114zM694 936l-279 -928h-68l-270 1076h82l225 -913l278 913h64l278 -913l225 913h81l-269 -1076h-68z" />
    <glyph glyph-name="Wdieresis" unicode="&#x1e84;" horiz-adv-x="1676" 
d="M680 1608q-36 -36 -83.5 -16.5t-47.5 69.5q0 32 21.5 54t53.5 22q50 0 69.5 -46t-13.5 -83zM1104 1607q-36 -35 -83 -16t-47 70q0 31 22.5 53.5t53.5 22.5q50 0 69.5 -47.5t-15.5 -82.5zM838 1254l-375 -1252h-74l-352 1401h84l309 -1234l372 1234h72l372 -1234l309 1234
h84l-352 -1401h-74z" />
    <glyph glyph-name="wdieresis" unicode="&#x1e85;" horiz-adv-x="1388" 
d="M536 1274q-35 -35 -82 -16t-47 70q0 31 22 53t53 22q51 0 70 -47t-16 -82zM963 1275q-36 -36 -83.5 -16.5t-47.5 69.5q0 32 21.5 53.5t54.5 21.5q49 0 68.5 -45.5t-13.5 -82.5zM694 936l-279 -928h-68l-270 1076h82l225 -913l278 913h64l278 -913l225 913h81l-269 -1076
h-68z" />
    <glyph glyph-name="Ygrave" unicode="&#x1ef2;" 
d="M514 1784l181 -261h-77l-207 261h103zM685 501v-499h-78v501l-559 900h93l504 -819l502 819h93z" />
    <glyph glyph-name="ygrave" unicode="&#x1ef3;" horiz-adv-x="1175" 
d="M441 1450l181 -260h-76l-208 260h103zM1099 1072l-676 -1482h-87l209 456l-468 1026h86l425 -930l425 930h86z" />
    <glyph glyph-name="endash" unicode="&#x2013;" horiz-adv-x="858" 
d="M858 613v-76h-858v76h858z" />
    <glyph glyph-name="emdash" unicode="&#x2014;" horiz-adv-x="1543" 
d="M1543 613v-76h-1543v76h1543z" />
    <glyph glyph-name="quoteleft" unicode="&#x2018;" horiz-adv-x="521" 
d="M253 1462l111 -398h-72l-135 398h96z" />
    <glyph glyph-name="quoteright" unicode="&#x2019;" horiz-adv-x="521" 
d="M364 1462l-136 -398h-71l111 398h96z" />
    <glyph glyph-name="quotesinglbase" unicode="&#x201a;" horiz-adv-x="521" 
d="M364 182l-136 -398h-71l111 398h96z" />
    <glyph glyph-name="quotedblleft" unicode="&#x201c;" horiz-adv-x="709" 
d="M253 1462l111 -398h-72l-135 398h96zM441 1462l111 -398h-72l-135 398h96z" />
    <glyph glyph-name="quotedblright" unicode="&#x201d;" horiz-adv-x="709" 
d="M364 1462l-136 -398h-71l111 398h96zM552 1462l-135 -398h-72l111 398h96z" />
    <glyph glyph-name="quotedblbase" unicode="&#x201e;" horiz-adv-x="521" 
d="M364 182l-136 -398h-71l111 398h96z" />
    <glyph glyph-name="dagger" unicode="&#x2020;" horiz-adv-x="1043" 
d="M551 1051v-467h-79v467h-311v78h311v274h79v-274h311v-78h-311z" />
    <glyph glyph-name="daggerdbl" unicode="&#x2021;" horiz-adv-x="758" 
d="M418 696v-288h-79v288h-312v78h312v267h-312v78h312v284h79v-284h311v-78h-311v-267h311v-78h-311z" />
    <glyph glyph-name="bullet" unicode="&#x2022;" horiz-adv-x="820" 
d="M329 601q0 37 20 62t48.5 30.5t57 0t48.5 -31t20 -61.5t-20 -61t-48.5 -31t-57 0t-48.5 31t-20 61z" />
    <glyph glyph-name="ellipsis" unicode="&#x2026;" horiz-adv-x="1054" 
d="M314 9q-36 -36 -84 -16.5t-48 69.5q0 32 22 53.5t54 21.5q49 0 69 -45.5t-13 -82.5zM598 9q-36 -36 -83.5 -16.5t-47.5 69.5q0 32 21.5 53.5t53.5 21.5q50 0 69.5 -45.5t-13.5 -82.5zM874 9q-36 -36 -83.5 -16.5t-47.5 69.5q0 32 21.5 53.5t53.5 21.5q50 0 69.5 -45.5
t-13.5 -82.5z" />
    <glyph glyph-name="perthousand" unicode="&#x2030;" horiz-adv-x="2207" 
d="M446 835q-124 0 -210.5 86t-86.5 209q0 93 44 162t110 100t143 31t143 -31t110 -99.5t44 -162.5q0 -122 -87 -208.5t-210 -86.5zM1378 1403l-1094 -1401h-96l1094 1401h96zM225 1128q0 -59 24.5 -105t63 -70t85.5 -35t94.5 0t86 35t63 70t24.5 105q0 70 -32.5 122
t-81.5 75t-106.5 23t-106.5 -23t-81.5 -75t-32.5 -122zM1063 -14q-123 0 -210 86.5t-87 208.5q0 93 44 162t110 100t143 31t143 -31t110 -99.5t44 -162.5q0 -122 -87 -208.5t-210 -86.5zM1759 -14q-123 0 -210 86.5t-87 208.5q0 93 44 162t110 100t143 31t143 -31t110 -99.5
t44 -162.5q0 -122 -87 -208.5t-210 -86.5zM843 279q0 -59 24.5 -105t63 -70t86 -35t94.5 0t85.5 35t63 70t24.5 105q0 61 -24.5 108.5t-63 72t-85.5 36t-94.5 0t-86 -36t-63 -72t-24.5 -108.5zM1539 279q0 -59 24.5 -105t63 -70t85.5 -35t94.5 0t86 35t63 70t24.5 105
q0 61 -24.5 108.5t-63 72t-85.5 36t-94.5 0t-86 -36t-63 -72t-24.5 -108.5z" />
    <glyph glyph-name="guilsinglleft" unicode="&#x2039;" horiz-adv-x="878" 
d="M205 501l514 -421v-93l-578 472v86l578 468v-92z" />
    <glyph glyph-name="guilsinglright" unicode="&#x203a;" horiz-adv-x="878" 
d="M731 545v-86l-578 -472v93l514 421l-514 420v92z" />
    <glyph glyph-name="fraction" unicode="&#x2044;" horiz-adv-x="481" 
d="M775 1403l-973 -1401h-95l973 1401h95z" />
    <glyph glyph-name="Euro" unicode="&#x20ac;" horiz-adv-x="1680" 
d="M945 -14q-264 0 -461.5 165.5t-250.5 428.5h-129l-4 77h123q-4 33 -4 75q0 41 4 89h-119l-4 77h137q35 169 137 301.5t251 206.5t320 74q205 0 377.5 -110t263.5 -298h-93q-83 154 -227.5 240.5t-320.5 86.5q-229 2 -401.5 -136.5t-222.5 -364.5l846 2v-79h-860
q-6 -35 -6 -89q0 -27 4 -75l862 2v-79h-849q50 -229 223.5 -371t403.5 -142q179 0 324 86.5t228 242.5h93q-90 -190 -263 -300t-382 -110z" />
    <glyph glyph-name="trademark" unicode="&#x2122;" horiz-adv-x="1251" 
d="M338 1325v-500h-78v500h-194v78h458v-78h-186zM634 1289v-464h-78v578h116l190 -500l191 500h120v-578h-78v465l-182 -465h-100z" />
    <glyph glyph-name="arrowleft" unicode="&#x2190;" horiz-adv-x="1297" 
d="M267 623l494 -401l-49 -55l-562 464v63l562 464l49 -55l-494 -401h1000v-79h-1000z" />
    <glyph glyph-name="arrowup" unicode="&#x2191;" horiz-adv-x="1172" 
d="M625 1128v-1001h-78v1001l-401 -494l-56 49l465 562h62l465 -562l-56 -49z" />
    <glyph glyph-name="arrowright" unicode="&#x2192;" horiz-adv-x="1257" 
d="M1157 753v-63l-561 -465l-48 58l493 399l-1001 2v78l1001 -2l-496 402l52 55z" />
    <glyph glyph-name="arrowdown" unicode="&#x2193;" horiz-adv-x="1172" 
d="M1082 709l-465 -562h-62l-465 562l56 49l401 -494v1000h78v-1000l401 494z" />
    <glyph glyph-name="arrowboth" unicode="&#x2194;" horiz-adv-x="1968" 
d="M1818 739v-63l-562 -464l-48 58l493 398l-1425 2l494 -400l-49 -56l-561 464v63l561 464l49 -55l-494 -401l1425 -2l-496 402l52 54z" />
    <glyph glyph-name="arrowupdn" unicode="&#x2195;" horiz-adv-x="1402" 
d="M1248 439l-465 -561h-63l-464 562l58 48l399 -493l2 1425l-401 -494l-56 49l464 562h63l465 -562l-56 -49l-401 494l-2 -1425l402 496z" />
    <glyph glyph-name="uni2196" unicode="&#x2196;" horiz-adv-x="1020" 
d="M266 968l706 -708l-56 -56l-706 707l66 -632l-75 -4l-69 726l45 45l726 -69l-6 -75z" />
    <glyph glyph-name="uni2197" unicode="&#x2197;" horiz-adv-x="1020" 
d="M744 354l66 631l-708 -707l-56 56l708 707l-632 -67l-4 76l725 68l45 -45l-69 -725z" />
    <glyph glyph-name="uni2198" unicode="&#x2198;" horiz-adv-x="1020" 
d="M819 1097l69 -726l-45 -45l-725 69l6 75l631 -66l-707 708l56 56l706 -707l-66 632z" />
    <glyph glyph-name="uni2199" unicode="&#x2199;" horiz-adv-x="1020" 
d="M899 437l4 -75l-726 -69l-45 45l69 725l75 -6l-66 -631l708 707l56 -56l-707 -707z" />
    <glyph glyph-name="emptyset" unicode="&#x2205;" horiz-adv-x="1375" 
d="M395 78l-206 -262h-96l241 308q-180 163 -180 414q0 151 72.5 277.5t197.5 199.5t274 73q169 0 310 -98l179 227h96l-215 -275q176 -162 176 -404q0 -151 -73 -278t-198.5 -200.5t-274.5 -73.5q-168 0 -303 92zM384 187l577 740q-121 82 -263 82q-196 0 -330 -136
t-134 -335q0 -214 150 -351zM698 65q195 0 330 137t135 336q0 204 -144 341l-576 -738q110 -76 255 -76z" />
    <glyph glyph-name="minus" unicode="&#x2212;" horiz-adv-x="1265" 
d="M1055 606l3 -77l-851 -2v79h848z" />
    <glyph glyph-name="approxequal" unicode="&#x2248;" horiz-adv-x="1078" 
d="M244 612h-76q2 115 63 188.5t154 73.5q38 0 73 -16t52 -30.5t46 -43.5q26 -27 41.5 -40.5t42.5 -25.5t57 -12q66 0 101.5 52.5t34.5 150.5h77q2 -124 -57.5 -202t-155.5 -78q-38 0 -72 15t-53 31t-45 44q-28 28 -42 40.5t-42 25.5t-58 13q-65 0 -101 -47.5t-40 -138.5z
M244 288h-76q2 116 63 189.5t154 73.5q38 0 73 -16t52 -30.5t46 -43.5q26 -27 41.5 -41t42.5 -26t57 -12q66 0 101.5 53t34.5 151h77q1 -124 -58 -202t-155 -78q-38 0 -72 15t-53 31t-45 44q-27 27 -41.5 40t-42.5 25.5t-58 12.5q-133 0 -141 -186z" />
    <glyph glyph-name="notequal" unicode="&#x2260;" horiz-adv-x="1320" 
d="M582 343l-160 -310h-89l161 310h-231v78h272l149 287l-421 -2v78h460l143 274h89l-143 -274h240l4 -76h-284l-149 -287h429l4 -76z" />
    <glyph glyph-name="lessequal" unicode="&#x2264;" horiz-adv-x="1384" 
d="M305 695l860 -491v-89l-950 544v73l950 542v-89zM215 80h953v-78l-953 2v76z" />
    <glyph glyph-name="greaterequal" unicode="&#x2265;" horiz-adv-x="1391" 
d="M1172 732v-73l-950 -544v89l860 491l-860 490v89zM1172 80v-76l-953 -2v78h953z" />
    <glyph glyph-name="uniF8FF" unicode="&#xf8ff;" horiz-adv-x="2437" 
d="M1206 -156q-186 0 -356 73.5t-292.5 197t-195.5 294t-73 356.5q0 187 73.5 357t196.5 293t293.5 196t356.5 73q149 0 289.5 -46.5t253.5 -131.5t198.5 -198t132 -253.5t46.5 -289.5q0 -188 -73 -358.5t-196.5 -293.5t-294.5 -196t-359 -73zM1208 -46q165 0 315 64
t258.5 172.5t173 258.5t64.5 314t-64 314t-172 259t-257.5 173.5t-313.5 64.5q-165 0 -315.5 -63.5t-259.5 -171.5t-173.5 -258t-64.5 -315t64 -315t172 -259t258 -173.5t315 -64.5zM949 305h-2q12 12 38 36q24 21 42 74q41 114 74 208q45 129 94 216v4q-3 -4 -6 -7.5
t-6.5 -7.5t-5.5 -6l-17 -20q-39 -60 -52 -94q-4 -10 -13 -10q-167 8 -289 112q-41 36 -96 91q-9 7 -22 27q3 -1 18 -7q85 -33 162 -44q57 -7 118 4q47 9 77 19q5 1 13.5 4.5t12.5 4.5q-8 4 -26 13.5t-27.5 15t-22 15t-21.5 20.5h28q70 2 124 32q111 65 226 99q49 14 94 17
q8 0 33 1.5t39 0.5q91 -3 146 -54q10 -9 26 -29l20 -25q-1 -2 -1 -3q-7 2 -8 3q-74 29 -136.5 6.5t-102.5 -87.5q-17 -28 -41 -92q-11 -25 -38 -87.5t-42 -95.5q-51 -105 -105 -168q-37 -46 -107 -95q-72 -54 -193 -90h-3zM1499 -318v-71h-23v71h-9v15h9v14q3 23 33 23h10
v-16q-18 3 -20 -8v-13h19v-15h-19zM684 -392q-17 0 -27 13t-10 33q0 22 12 34.5t29 12.5q13 0 21 -5l6 -9v44h22v-120h-22v14l-6 -10q-11 -7 -25 -7zM947 -292q-12 0 -12 12q0 11 12 11q13 0 13 -11q0 -12 -13 -12zM1776 -375v-16h-15q-24 0 -24 19v54h-14v15h14v23h23v-23
h17v-15h-17v-48q2 -11 16 -9zM795 -392q-19 0 -31 12t-12 35q0 20 12.5 33t33.5 13q19 0 30 -12.5t11 -32.5q0 -3 -2 -8h-61q1 -23 20 -23q16 0 18 15h23q-8 -32 -42 -32zM885 -392q-33 0 -38 28h22q3 -13 16 -13q14 0 14 10q0 8 -22 15q-27 9 -27 27q0 11 9.5 18.5
t25.5 7.5q32 0 34 -27h-21q-3 11 -14 11q-12 0 -12 -8t21 -14q28 -9 28 -29q0 -26 -36 -26zM1018 -424q-40 0 -42 30v1h22v-1q3 -14 20 -14q21 0 25 22v13l-7 -11q-8 -5 -23 -5q-18 0 -29 12t-11 31q0 22 12.5 34.5t30.5 12.5q13 0 21 -5l6 -9v12h22v-66q0 -12 -1 -18
q0 -39 -46 -39zM1107 -350v-39h-21v88h21v-16l8 12q11 6 22 6q27 0 30 -24q2 -6 2 -16v-50h-24v58q0 16 -16 16q-22 0 -22 -35zM1227 -392q-21 0 -32.5 13t-11.5 34t11.5 33.5t32.5 12.5t33.5 -12.5t12.5 -33.5t-12.5 -34t-33.5 -13zM1405 -392q-11 0 -19.5 7t-8.5 19
q0 30 49 30h5v3q0 4 -1 8q0 10 -12 10q-17 0 -17 -15h-21q0 14 11 22.5t27 8.5q31 0 35 -25v-43q0 -12 1 -22h-21l-2 12l-4 -9q-8 -6 -22 -6zM1569 -392q-21 0 -32.5 13t-11.5 34t11.5 33.5t32.5 12.5t33.5 -12.5t12.5 -33.5t-12.5 -34t-33.5 -13zM1652 -350v-39h-22v88h22
v-16l7 12q11 6 22 6q26 0 31 -24q1 -6 1 -16v-50h-24v58q-2 16 -16 16q-21 0 -21 -35zM1824 -392q-36 0 -38 28h21q3 -13 17 -13q12 0 12 10q0 8 -20 15q-27 8 -27 27q0 11 9 18.5t25 7.5q29 0 36 -27h-24q-1 11 -14 11q-9 0 -9 -8q0 -9 19 -14q29 -10 29 -29q0 -26 -36 -26
zM1950 -392q-19 0 -30.5 12t-11.5 34q0 21 13 34t31 13q37 0 39 -33h-21q-3 17 -18 17q-21 0 -21 -30t21 -30q14 0 18 16h21q-3 -33 -41 -33zM2047 -392q-22 0 -34 13t-12 34t12 33.5t34 12.5q21 0 32.5 -12.5t11.5 -33.5t-11.5 -34t-32.5 -13zM2129 -344v-45h-22v88h22v-14
l7 11q8 5 18 5q21 0 28 -18l7 13q10 5 20 5q11 0 18.5 -6.5t8.5 -13.5q1 -6 1 -18v-52h-21v45q0 3 -0.5 8t-0.5 7q-1 14 -17 14q-14 0 -14 -29v-45h-23v60q-1 14 -16 14q-16 0 -16 -29zM269 -323l-15 -66h-26l-28 88h26l15 -69l14 67h27l15 -67l16 69h24l-27 -88h-27z
M407 -323l-17 -66h-25l-28 88h25l15 -69l16 67h28l14 -67l15 69h24l-27 -88h-26zM543 -323l-15 -66h-26l-28 88h26l15 -69l14 67h28l14 -67l17 69h24l-29 -88h-25zM959 -301v-88h-22v88h22zM1372 -301l-34 -88h-27l-32 88h24l22 -71l22 71h25zM691 -375q24 0 24 29v3
q0 28 -22 28q-24 0 -24 -30t22 -30zM776 -337h39q-3 22 -19 22q-17 0 -20 -22zM1018 -373q25 0 25 28v2q0 28 -24 28q-22 0 -22 -29t21 -29zM1227 -375q23 0 23 30t-23 30q-22 0 -22 -30t22 -30zM1569 -375q24 0 24 30t-24 30q-21 0 -21 -30t21 -30zM2047 -375q22 0 22 30
t-22 30q-23 0 -23 -30t23 -30zM1413 -375q7 0 12.5 5t5.5 12v8q-30 5 -30 -15q0 -10 12 -10zM621 -392q-12 0 -12 14q0 13 12 13q14 0 14 -13q0 -14 -14 -14zM1883 -392q-14 0 -14 14q0 13 14 13q13 0 13 -13q0 -14 -13 -14z" />
    <glyph glyph-name="_Fontastica" horiz-adv-x="1435" 
d="M352 518v-305h-177q-2 0 -3.5 1.5t-1.5 3.5v2v1060h795v-157h-613v-441h613v-164h-613zM1265 1280v-1067h-795v165h614v434h-614v169h614v299h181zM333 48q-27 0 -45 17.5t-18 44.5t18 44.5t45 17.5q28 0 46 -17.5t18 -44.5t-18 -44.5t-46 -17.5zM814 49q-33 0 -54 19
l11 25q19 -19 42 -19q10 0 12 2q5 2 5 8q0 4 -4 7q-10 7 -19 8q-15 5 -22 8q-9 3 -13 9q-5 8 -5 17q0 20 14 29.5t33 9.5q26 0 47 -13l-11 -26q-20 13 -37 13q-13 0 -13 -8q0 -12 21 -15q18 -4 22 -6q8 -5 14 -11q4 -8 4 -20q0 -18 -14 -27.5t-33 -9.5zM1090 48
q-25 0 -43 18t-18 44q0 27 18 44.5t45 17.5q29 0 48 -21l-18 -22q-13 16 -30 16q-13 0 -23 -9.5t-10 -26.5q0 -10 5 -16q10 -18 29 -18q15 0 29 14l19 -18q-25 -23 -51 -23zM205 93v-42h-30v119h89v-25h-59v-26h53v-26h-53zM442 122v-71h-29v119h27l55 -72l-1 72h29v-119
h-27zM602 144v-93h-30v93h-36v26h102v-26h-36zM665 72l-7 -21h-32l50 119h32l51 -119h-33l-10 21h-51zM935 144v-93h-32v93h-35v26h100v-26h-33zM1012 170v-119h-30v119h30zM1179 72l-8 -21h-31l50 119h32l50 -119h-33l-8 21h-52zM333 74q14 0 23.5 11t9.5 24q0 8 -4 18
q-7 18 -28 18q-14 0 -23.5 -10.5t-9.5 -24.5t9.5 -25t22.5 -11zM707 95l-14 43l-19 -43h33zM1221 95l-16 43l-16 -43h32z" />
    <glyph glyph-name="_VendorID" horiz-adv-x="1103" 
d="M764 757q-102 0 -164.5 52.5t-51.5 124.5h71q-15 -43 29.5 -77t115.5 -34q62 0 103.5 26t41.5 64q0 67 -151 90q-98 14 -147.5 52.5t-49.5 96.5q0 66 57 108t142 42q94 0 154.5 -50.5t48.5 -119.5h-72q16 40 -24.5 71.5t-106.5 31.5q-56 0 -93.5 -23.5t-37.5 -57.5
q0 -64 137 -84q105 -14 159 -54.5t54 -102.5q0 -68 -61 -112t-154 -44zM187 996v-229h-68v525h404v-68h-336v-161h317v-67h-317zM765 140q-101 0 -164.5 52.5t-52.5 125.5h71q-15 -42 29.5 -75.5t115.5 -33.5q61 0 103 25t42 62q0 68 -148 91q-98 14 -149 52.5t-51 97.5
q0 65 57 107.5t143 42.5q94 0 153.5 -50.5t48.5 -120.5h-72q16 39 -24.5 71t-105.5 32q-55 0 -93.5 -23.5t-38.5 -57.5q0 -63 136 -82q214 -32 214 -159q0 -68 -61 -112.5t-153 -44.5zM187 379v-228h-68v524h404v-66h-336v-161h317v-69h-317zM686 84v-33h-12v33h-4v7h4v7
q2 11 16 11h5v-8q-9 1 -9 -4v-6h9v-7h-9zM301 49q-18 0 -18 23q0 21 20 21q6 0 10 -2l3 -4v21h10v-57h-10v6l-3 -4q-6 -4 -12 -4zM425 96q-6 0 -6 6q0 5 6 5t6 -5q0 -6 -6 -6zM816 57v-7h-6q-12 0 -12 9v25h-7v7h7v11h11v-11h7v-7h-7v-22q1 -6 7 -5zM353 49q-20 0 -20 23
q0 9 6 15t16 6q19 0 19 -21q0 -1 -1 -3h-29q1 -12 10 -12q7 0 9 8h10q-5 -16 -20 -16zM396 49q-16 0 -19 14h11q2 -7 8 -7t6 6q0 3 -10 7q-13 4 -13 11q0 13 17 13q16 0 16 -13h-10q-2 6 -7 6t-5 -5q0 -3 10 -6q13 -3 13 -13q0 -13 -17 -13zM459 34q-20 0 -20 14v1h10v-1
q1 -6 10 -6q8 0 11 10v6l-3 -5q-4 -2 -10 -2q-20 0 -20 21t21 21q7 0 9 -2l3 -4v5h11v-30q0 -7 -1 -9q0 -19 -21 -19zM501 70v-19h-10v41h10v-7l4 5q4 3 10 3q13 0 14 -12q1 -2 1 -7v-23h-12v27q0 8 -7 8q-10 0 -10 -16zM558 49q-22 0 -22 23q0 21 22 21q21 0 21 -21
q0 -23 -21 -23zM641 49q-13 0 -13 13t23 13h3v2q0 2 -1 3q0 6 -5 6q-8 0 -8 -8h-11q0 15 19 15q14 0 16 -12v-30h-9l-1 5l-2 -4q-6 -3 -11 -3zM718 49q-20 0 -20 23q0 21 20 21q22 0 22 -21q0 -23 -22 -23zM758 70v-19h-11v41h11v-7l3 5q5 3 10 3q13 0 15 -12q1 -2 1 -7v-23
h-12v27q-2 8 -8 8q-9 0 -9 -16zM839 49q-17 0 -19 14h11q2 -7 8 -7t6 6q0 3 -10 7q-13 3 -13 11q0 13 16 13q15 0 18 -13h-12q0 6 -7 6q-4 0 -4 -5q0 -3 9 -6q14 -3 14 -13q0 -13 -17 -13zM899 49q-21 0 -21 23q0 21 22 21q16 0 18 -16h-10q-2 9 -8 9q-11 0 -11 -14
q0 -15 11 -15q6 0 8 8h10q-3 -16 -19 -16zM944 49q-22 0 -22 23q0 21 22 21q21 0 21 -21q0 -23 -21 -23zM983 72v-21h-11v41h11v-6l3 5q6 2 9 2q10 0 12 -8l4 6q6 2 9 2q12 0 14 -10v-32h-10v21l-1 7q0 7 -8 7q-7 0 -7 -14v-21h-10v28q0 7 -7 7q-8 0 -8 -14zM105 81l-7 -30
h-12l-13 41h12l7 -32l6 31h14l7 -31l6 32h12l-13 -41h-12zM171 81l-8 -30h-13l-13 41h12l7 -32l8 31h12l7 -31l7 32h12l-13 -41h-12zM234 81l-7 -30h-12l-13 41h12l7 -32l7 31h13l7 -31l8 32h11l-14 -41h-12zM430 92v-41h-10v41h10zM625 92l-15 -41h-13l-15 41h11l11 -33
l10 33h11zM304 57q12 0 12 15v1q0 13 -11 13t-11 -14q0 -15 10 -15zM344 75h19q-2 11 -9 11q-8 0 -10 -11zM459 58q11 0 11 14v1q0 13 -11 13q-10 0 -10 -14t10 -14zM558 57q9 0 9 15q0 14 -9 14q-11 0 -11 -14q0 -15 11 -15zM718 57q12 0 12 15q0 14 -12 14q-9 0 -9 -14
q0 -15 9 -15zM944 57q11 0 11 15q0 14 -11 14t-11 -14q0 -15 11 -15zM645 57q9 0 9 9v4q-15 2 -15 -7q0 -6 6 -6zM271 49q-5 0 -5 7t5 7q7 0 7 -7t-7 -7zM866 49q-6 0 -6 7t6 7q7 0 7 -7t-7 -7z" />
    <glyph glyph-name="_Designova" horiz-adv-x="1630" 
d="M813 43q-124 0 -238 49t-196 131.5t-130.5 197t-48.5 239.5t49 238t131.5 195.5t196 131t238.5 48.5t239 -48.5t196 -130.5t131 -196t49 -238q0 -168 -82.5 -310t-224.5 -224.5t-310 -82.5zM814 117q147 0 272 72.5t197.5 197t72.5 271.5t-72 271.5t-196.5 197.5
t-270.5 73q-148 0 -273 -72.5t-197.5 -196.5t-72.5 -271q0 -111 42.5 -211.5t115 -173t172.5 -115.5t210 -43zM641 351h-2l26 24q18 16 28 49q23 63 49 140q32 88 64 144v3q-4 -5 -13 -14q-9 -11 -10 -14q-23 -30 -35 -63q-4 -7 -9 -7q-109 6 -194 76q-20 18 -64 60
q-9 9 -14 18l11 -4q54 -21 109 -30q40 -3 79 3q38 9 51 13q3 0 17 7q-3 1 -16.5 8t-18.5 10t-14 10t-15 14h19q45 2 82 20q73 44 152 68q32 10 62 11q5 0 25 1.5t24 -0.5q62 -2 97 -37q5 -4 31 -35q-1 -1 -1 -2q-1 0 -2.5 0.5t-2.5 1.5q-50 19 -91.5 4t-68.5 -58
q-7 -12 -28 -61q-37 -90 -53 -123q-32 -67 -70 -113q-27 -32 -72 -63q-45 -34 -128 -60h-3z" />
    </font>
</defs>
</svg>
