<svg width="24" height="24" viewBox="0 0 24 24" fill="none" xmlns="http://www.w3.org/2000/svg">
<path d="M21 11.5C21.0034 12.8199 20.6951 14.1219 20.1 15.3C19.3944 16.7117 18.3098 17.8992 16.9674 18.7293C15.6251 19.5594 14.0782 19.9994 12.5 20C11.1801 20.0034 9.87812 19.6951 8.7 19.1L3 21L4.9 15.3C4.30493 14.1219 3.99656 12.8199 4 11.5C4.00061 9.92176 4.44061 8.37485 5.27072 7.03255C6.10083 5.69025 7.28825 4.60557 8.7 3.9C9.87812 3.30493 11.1801 2.99656 12.5 3H13C15.0843 3.11499 17.053 3.99476 18.5291 5.47086C20.0052 6.94695 20.885 8.91565 21 11V11.5Z" stroke="white" stroke-width="2" stroke-linecap="round" stroke-linejoin="round"/>
<path d="M15.9998 13.9895V15.1939C16.0002 15.3057 15.9773 15.4163 15.9324 15.5188C15.8875 15.6212 15.8217 15.7132 15.7391 15.7887C15.6566 15.8643 15.5591 15.9219 15.453 15.9577C15.3469 15.9935 15.2344 16.0068 15.1229 15.9967C13.8851 15.8625 12.6962 15.4404 11.6516 14.7643C10.6797 14.148 9.85571 13.3256 9.23813 12.3557C8.55834 11.3084 8.1353 10.116 8.00326 8.87518C7.99321 8.76417 8.00643 8.65228 8.04208 8.54665C8.07773 8.44102 8.13503 8.34395 8.21032 8.26163C8.28562 8.1793 8.37727 8.11353 8.47943 8.06849C8.58159 8.02346 8.69203 8.00014 8.80372 8.00004H10.0104C10.2056 7.99812 10.3949 8.06711 10.5429 8.19415C10.6909 8.32119 10.7876 8.4976 10.8149 8.69052C10.8658 9.07593 10.9603 9.45435 11.0965 9.81857C11.1506 9.96225 11.1623 10.1184 11.1302 10.2685C11.0981 10.4187 11.0236 10.5565 10.9155 10.6656L10.4046 11.1754C10.9772 12.1805 11.811 13.0126 12.8181 13.5841L13.3289 13.0743C13.4383 12.9663 13.5763 12.8919 13.7268 12.8599C13.8772 12.8279 14.0336 12.8396 14.1776 12.8936C14.5426 13.0295 14.9217 13.1238 15.3079 13.1746C15.5033 13.2021 15.6817 13.3003 15.8093 13.4506C15.9369 13.6009 16.0046 13.7927 15.9998 13.9895Z" fill="white"/>
</svg>
